<?xml version="1.0" encoding="UTF-8" standalone="no"?>
<svg width="130px" height="126px" viewBox="0 0 130 126" version="1.1" xmlns="http://www.w3.org/2000/svg" xmlns:xlink="http://www.w3.org/1999/xlink">
    <!-- Generator: Sketch 39.1 (31720) - http://www.bohemiancoding.com/sketch -->
    <title>Emprendedor</title>
    <desc>Created with Sketch.</desc>
    <defs></defs>
    <g id="Page-1" stroke="none" stroke-width="1" fill="none" fill-rule="evenodd">
        <g id="Landing" transform="translate(-762.000000, -480.000000)">
            <g id="Panel-1" transform="translate(0.000000, -1.000000)">
                <g id="Emprendedor" transform="translate(762.000000, 481.000000)">
                    <path d="M129.41488,40.8194876 C129.169915,39.5256446 125.321254,39.7302645 121.575818,41.0305289 C121.575818,41.0305289 116.803506,43.8198843 114.518667,45.1494793 C113.771627,45.5842314 112.96855,46.125719 112.193578,46.723438 C112.443922,45.8365785 111.548549,44.6683884 110.182677,44.5009091 C108.226772,44.2615785 103.78079,44.9082397 104.25823,47.3930083 C104.736016,49.8777769 103.831449,56.4146777 105.489128,60.0126198 C105.489128,60.0126198 104.359026,64.8990248 102.837882,67.8565537 C101.316738,70.8142562 96.1858258,79.7770909 95.6323986,80.7283388 C94.3152765,82.9902645 93.2429462,85.3361901 92.907767,86.6487769 C92.5115201,88.1986116 92.3831388,89.8261983 92.2771376,90.6530083 C92.1480624,91.660314 92.0856067,92.430719 92.0634002,93.0214959 C91.9070873,92.1190165 91.6385277,91.0258017 91.1777431,90.0394959 C90.1585002,87.8582727 82.8196041,80.9490992 82.615929,80.7840496 C82.4120804,80.619 80.3735945,78.7786364 80.3735945,78.7786364 C80.3735945,78.7786364 75.0731842,79.7012479 72.1174665,82.352281 C70.4042709,83.8889256 69.5481068,85.9910083 69.1301739,87.4880826 C70.761136,88.2270744 71.677674,88.8690496 71.677674,88.8690496 C78.8673703,94.9279835 83.1285865,99.6314628 84.8343221,100.597463 C88.4966571,102.671256 91.8841869,103.460579 96.4434557,102.373959 C102.77508,100.865256 113.554419,61.954686 116.739315,58.2206777 C117.899951,56.8601901 118.875822,55.6198017 119.578275,54.6956281 C119.578102,54.6956281 119.725046,54.2388347 120.041489,53.6438926 C121.459581,54.188157 122.853038,53.9835372 123.234538,53.1395455 C123.592618,52.3469256 122.937873,51.2568347 121.742887,50.5426612 C122.986103,50.8779669 124.122798,50.6344711 124.461446,49.8850661 C124.836875,49.0546116 124.100244,47.8982231 122.795266,47.1890826 C123.585505,47.1889091 124.222553,46.9131322 124.461446,46.3844876 C124.7824,45.6744793 124.288479,44.725314 123.322497,44.0219008 L123.606497,43.8938182 C128.046059,43.0779421 129.659846,42.1133306 129.41488,40.8194876 L129.41488,40.8194876 Z M111.08256,47.6384132 C110.215813,48.4025702 109.448475,49.2113306 108.923847,49.9803471 C108.764585,49.4458017 108.506434,48.9199339 108.108279,48.4390165 C108.108279,48.4390165 109.188937,48.198124 111.08256,47.6384132 L111.08256,47.6384132 Z" id="Fill-1" fill="#A9DAFC"></path>
                    <path d="M129.608146,40.8196612 C129.363007,39.5258182 125.514346,39.730438 121.76891,41.0307025 C121.76891,41.0307025 116.996598,43.8200579 114.711759,45.1496529 C113.964719,45.584405 113.161816,46.1258926 112.386671,46.7236116 C112.637014,45.8367521 111.741642,44.668562 110.375769,44.5010826 C108.420037,44.2617521 103.973709,44.9084132 104.451322,47.3931818 C104.929282,49.8779504 104.024715,56.4148512 105.682394,60.0127934 C105.682394,60.0127934 104.552119,64.8990248 103.030975,67.8567273 C101.510004,70.8144298 96.3790916,79.7772645 95.8254909,80.7285124 C94.5083688,82.990438 93.436212,85.3363636 93.1008594,86.6489504 C92.7047859,88.1987851 92.5762312,89.8263719 92.4702299,90.6533554 C92.3411547,91.6604876 92.278699,92.4308926 92.2564925,93.0216694 C92.1001797,92.1191901 91.8317935,91.0259752 91.3708354,90.0396694 C90.3515925,87.8584463 83.0126964,80.9492727 82.8090213,80.7842231 C82.6051727,80.6191736 80.5666868,78.7788099 80.5666868,78.7788099 C80.5666868,78.7788099 75.2664501,79.7014215 72.3107323,82.3524545 C70.5973632,83.8890992 69.7411992,85.9911818 69.3232662,87.4882562 C70.9542284,88.2272479 71.8709398,88.8692231 71.8709398,88.8692231 C79.0604626,94.928157 83.3218523,99.6316364 85.0274144,100.597636 C88.6897494,102.67143 92.0774527,103.460752 96.636548,102.374132 C102.968172,100.86543 113.747512,61.954686 116.932581,58.2208512 C118.093217,56.8603636 119.069088,55.6199752 119.771368,54.6958017 C119.771368,54.6958017 119.918139,54.2390083 120.234581,53.6440661 C121.652847,54.1883306 123.04613,53.9837107 123.427804,53.139719 C123.78571,52.3470992 123.131139,51.2570083 121.935979,50.5428347 C123.179196,50.8781405 124.31589,50.6346446 124.654712,49.8852397 C125.029967,49.0547851 124.293336,47.8983967 122.988532,47.1892562 C123.778597,47.1890826 124.415646,46.9133058 124.654712,46.3848347 C124.975492,45.6746529 124.481745,44.7254876 123.515589,44.0219008 L123.799763,43.8939917 C128.239151,43.0781157 129.853112,42.1135041 129.608146,40.8196612 L129.608146,40.8196612 Z M111.275652,47.6385868 C110.408906,48.4027438 109.641567,49.2115041 109.116939,49.9806942 C108.957851,49.4458017 108.699527,48.9201074 108.301371,48.4391901 C108.301371,48.4391901 109.382029,48.1982975 111.275652,47.6385868 L111.275652,47.6385868 Z" id="Fill-2" fill="#FFFFFF"></path>
                    <path d="M110.752586,54.831 C113.354908,55.2362479 116.18849,55.3516612 118.848584,55.178281 C118.617324,56.3353636 116.361978,57.0122231 115.899285,58.0535455 C115.436766,59.0370744 111.967003,68.1370165 111.446538,69.6410331 C111.041617,70.913876 109.885145,72.2443388 109.422452,73.5171818 C109.942916,71.5502975 111.562081,69.8147603 111.793515,67.7899091 C111.909058,66.4013058 112.313979,64.3766281 111.677798,63.1039587 C111.388593,62.5832975 110.810357,62.2939835 110.521152,61.7733223 C110.058633,60.9055537 110.289893,61.0789339 111.157334,60.6740331 C113.354908,59.806438 113.701884,56.2775702 110.752586,54.831" id="Fill-3" fill="#A9DAFC"></path>
                    <path d="M58.6504481,13.3247603 L58.6110663,13.1060826 C56.1497898,12.3585868 54.0053026,9.84622314 52.256195,8.22123967 C50.0437005,6.32377686 43.5633973,3.16180165 41.1923346,6.79861983 C41.1923346,6.79861983 41.5294221,7.21844628 40.5320387,7.62352066 C39.5346553,8.02859504 38.0183687,6.41801653 37.0544685,6.95620661 C35.6573684,7.73650413 34.9632423,9.48644628 35.0678556,11.5420165 C35.172469,13.9138017 36.2180821,14.5460579 36.8454153,16.6014545 C37.8912019,19.2896281 37.0815327,20.5544876 36.0357461,23.0843802 C35.3891557,24.6489669 35.4949835,27.3381818 35.6610116,29.096281 C35.281593,29.0891653 34.8898568,29.0917686 34.5300423,29.2082231 C34.520327,28.0721405 33.5888691,25.3640083 32.7970691,24.7836446 C32.0998202,24.2720083 30.4417938,25.7513802 30.0712231,26.7923554 C29.6886817,27.8668264 31.1340116,30.4090413 31.6647119,31.0397355 C32.2309772,31.7124298 33.0980711,31.942562 33.7552442,32.2290992 C33.7552442,32.2289256 33.4148604,33.9911901 33.7918502,35.7654298 C34.3546458,38.4150744 34.2543696,45.4462562 34.4856294,47.9922893 C34.4856294,47.9922893 39.4718525,51.2632562 41.1656174,51.5957851 C42.8592089,51.928314 43.274713,54.4510909 43.4409147,55.2683554 C43.6071163,56.0856198 44.2911801,62.9068017 45.3204854,64.9004132 C46.3499641,66.8941983 47.5964765,69.917157 47.5964765,69.917157 C47.5964765,69.917157 50.3393243,59.3824463 50.7548285,58.6901405 C51.1703326,57.9976612 50.0782247,58.0228264 50.0782247,58.0228264 C48.0711401,55.312438 49.1490221,50.4305455 49.3197344,47.0542314 C50.2964728,46.965719 51.2435446,46.7824463 52.0979738,46.5259339 C56.5234833,45.2614215 56.7955127,42.042 57.9460862,38.3036529 C60.1738476,31.0650744 60.6332443,26.5800992 59.3919365,18.4852066 L58.6504481,13.3247603" id="Fill-4" fill="#FFFFFF"></path>
                    <path d="M50.1765924,7.37238843 C53.1132265,11.191438 54.2879148,15.7939091 55.9520133,20.1025537 C56.4414234,21.3757438 57.6159382,22.1591653 58.0076745,23.4321818 C58.3012164,24.5092562 58.2033691,25.9782149 57.9098271,26.957405 C57.3223962,29.8951488 57.4202436,32.9309504 56.9308335,35.9665785 C56.7351388,37.239595 56.5392707,38.9043223 55.9520133,39.883686 C55.5604505,40.5690496 55.0710404,40.5690496 54.5816303,41.0586446 C53.8963521,41.7441818 54.0920467,41.7441818 53.7004839,42.5276033 C53.0152057,43.6048512 52.4279483,44.8778678 51.1554126,45.4653471 C49.882877,46.0528264 48.3166259,45.7591736 47.0440902,46.1508843 C49.0997514,48.109438 52.9173584,46.1508843 54.4836095,44.5840413 C56.5392707,42.6254876 57.1267016,39.4919752 57.8118063,36.8478843 C58.8884739,32.7350083 59.3780574,29.4055537 59.6717729,25.1947934 C59.7696202,22.1591653 60.7486139,16.9688678 59.084342,14.2270661 C58.3012164,12.8561653 56.2455552,11.5829752 55.0710404,10.3099587 C53.7004839,9.03694215 52.0363855,7.76392562 50.2744398,7.17627273" id="Fill-5" fill="#A9DAFC"></path>
                    <path d="M78.9877711,74.3242066 C76.7364152,71.0817025 74.6399843,69.6670661 72.8955609,67.2296777 C69.810074,62.9192975 62.0320793,61.762562 60.4528166,60.9544959 C58.8733804,60.1464298 54.5087653,57.9560083 54.1066197,57.3862314 C53.7046477,56.8166281 54.5419015,54.4255785 54.6751404,53.1971653 C54.8085528,51.9685785 53.6951058,50.6599835 52.4454706,49.7436198 C51.1958354,48.8274298 48.476235,48.907438 48.476235,48.907438 C48.476235,48.907438 48.5652344,50.4612645 48.4774494,52.8500579 C48.3898379,55.2390248 50.8960478,57.7421901 50.7975066,58.4147107 C50.6989653,59.0872314 50.1994929,66.7867686 49.1818113,69.280562 C48.1639563,71.7743554 47.7569531,74.3242066 47.7569531,74.3242066 C47.7569531,74.3242066 48.0700992,72.4633636 47.4269786,66.7522314 C46.783511,61.0410992 43.3649268,56.2494545 43.0358198,53.6610744 C42.7068863,51.0728678 41.7232084,50.8770992 39.2640137,50.2698347 C36.8048191,49.6622231 35.1632741,49.0098347 34.2672078,47.6467438 C33.3711414,46.2836529 34.2946189,44.5224298 34.2946189,44.5224298 C34.2946189,44.5224298 32.5113341,44.5401322 30.9405723,44.5226033 C29.369984,44.5050744 30.1815616,46.8782479 30.0648041,48.0230083 C29.94822,49.1677686 31.303683,51.4649256 31.303683,51.4649256 C30.505464,51.5015455 23.1245837,55.317124 21.21552,56.1630248 C19.3066298,57.0089256 10.3246273,61.2129174 10.3246273,61.2129174 L11.8268613,63.3661983 C11.8268613,63.3661983 12.739756,61.567314 13.8632653,60.8343967 C14.9867747,60.1016529 15.8901275,61.832157 16.6146141,62.0197686 C17.3391006,62.2075537 16.6146141,60.8849008 16.6146141,60.8849008 C17.2029124,58.200719 19.0816157,58.0190083 21.1117741,58.4147107 C23.1417591,58.8104132 20.6692058,63.7747438 20.7436322,64.2638182 C20.8180587,64.7530661 22.0468753,70.0169504 21.9622131,72.5497934 C21.8777243,75.0828099 17.347428,75.3837521 16.6146141,75.5909752 C15.8816266,75.7981983 16.2376243,76.5620083 16.2376243,76.5620083 C16.2058759,82.0588017 11.0740962,90.2347438 11.0740962,90.2347438 C9.83990143,101.078033 9.79375358,124.91876 9.79375358,124.91876 C19.8813961,126.945521 58.8808404,125.265 58.8808404,125.265 C58.8808404,121.687017 60.0010534,101.931917 60.4071892,97.596719 C60.5449388,96.1230744 61.6131054,90.014157 63.2870927,86.4330496 C65.127802,86.6033058 66.000274,86.788314 67.6768635,86.996405 C70.9734856,87.4052975 72.1197218,89.1800579 72.1197218,89.1800579 C72.3945271,87.4120661 81.7831858,79.2548678 81.7831858,79.2548678 C81.7830123,79.2548678 81.2393004,77.5667107 78.9877711,74.3242066" id="Fill-6" fill="#FFFFFF"></path>
                    <path d="M60.4422338,13.0902893 C57.1230583,13.5651322 54.278026,10.0864215 52.0651845,8.03085124 C49.8526901,6.13338843 43.7596124,3.28606612 41.1611068,6.38226446 C40.8897713,6.70559504 40.5336001,7.58395041 40.1354448,7.72261983 C39.4019368,7.97809091 38.8032292,6.41055372 36.8636316,6.76581818 C35.289747,7.05391736 34.7722318,9.29605785 34.8770186,11.3514545 C34.9814585,13.7232397 36.0270716,14.3556694 36.6544048,16.4110661 C37.7001915,19.0992397 36.8905222,20.3640992 35.8449091,22.8938182 C35.1981452,24.4585785 35.303973,27.1476198 35.4700012,28.905719 C35.0905826,28.8986033 34.6988463,28.9012066 34.3390319,29.0176612 C34.3293165,27.8815785 33.3978586,25.1736198 32.6060586,24.5930826 C31.9088097,24.0816198 30.2507834,25.5608182 29.8803862,26.6017934 C29.4976713,27.6762645 30.9430011,30.2184793 31.4737014,30.8491736 C32.0401403,31.5220413 32.9070606,31.752 33.5642337,32.0387107 C33.5642337,32.0387107 34.5723734,35.1855868 34.5723734,36.0349587 C34.5723734,36.884157 33.3810302,38.3827934 32.5600843,38.9799917 C30.689188,40.3408264 29.2060377,38.0544298 30.8252027,37.1285207 C28.9746045,38.7484711 27.2398964,37.7073223 28.512085,35.5089174 C29.4374709,33.7737273 30.5356509,33.3978099 30.5356509,31.3151653 C30.5356509,31.3151653 30.0105023,28.7010992 29.8803862,26.6017934 C29.8219207,25.6587025 29.9716409,22.0527769 29.194414,21.2707438 C27.1512439,19.2144793 27.3951683,14.973 27.4489496,12.3325537 C27.5004756,9.79693388 27.8490133,6.84009917 30.7353358,4.82652893 C32.9405438,3.28728099 34.3921192,3.62276033 35.9406745,4.35394215 C35.8610435,-2.31728926 48.6332418,1.22667769 51.7492626,2.49726446 C55.5425812,4.07816529 60.6407043,8.0268595 62.0633072,11.9802397 C63.6437843,16.2489669 62.9709972,20.680314 61.3906936,24.791281 C61.3906936,24.791281 60.2937279,26.6993306 59.4396457,27.1208926 C59.4396457,27.1208926 59.5607405,15.1672066 58.4639483,12.0128678" id="Fill-7" fill="#FBB03B"></path>
                    <path d="M20.3392313,63.6546446 L20.33767,63.6553388 C21.1126416,63.0636942 21.6322386,61.9923471 21.6322386,60.7649752 C21.6322386,58.8992727 20.4349968,57.3862314 18.9584391,57.3862314 C17.4817079,57.3862314 16.2846396,58.8992727 16.2846396,60.7649752 C16.2846396,60.9439091 16.2988656,61.1183306 16.3200312,61.2898017 C15.4819099,60.9656033 14.5070799,60.8343967 13.8632653,60.8343967 C12.5260186,60.8343967 11.4420646,62.2044298 11.4420646,63.8941488 C11.4420646,62.2044298 10.3577636,61.3543636 9.02051685,61.3543636 C7.68327012,61.3543636 6.5993161,63.0721983 6.5993161,64.7617438 C6.5993161,63.7160826 5.88454488,63.2145124 4.54729815,63.2145124 C3.21005141,63.2145124 2.27772605,64.4646198 2.27772605,66.1543388 L2.10354393,69.3701157 C2.10354393,71.0600083 2.84069512,72.4298678 4.17794186,72.4298678 C4.18297301,72.4298678 4.18765719,72.429 4.19268835,72.429 C-2.19080848,85.0564215 0.595411363,90.3819174 6.5993161,91.2135868 C12.3789006,92.0143636 14.8122456,82.6971322 16.5101742,75.4049256 C17.2117603,75.2015207 18.0165719,75.005405 18.9582656,74.8313306 C23.3723248,74.0154545 21.713778,69.5485289 20.3392313,63.6546446" id="Fill-8" fill="#FFFFFF"></path>
                    <path d="M44.4306646,38.0329091 C45.6143743,38.5403802 46.8544677,38.7658264 48.094561,38.9350413 C49.2782708,39.1042562 50.293003,38.7094215 51.3641189,38.7658264 C51.758631,40.5138595 49.5664346,41.6832645 48.3261677,41.626686 C46.3532604,41.5140496 45.2762459,39.7245372 44.4868748,38.0329091" id="Fill-9" fill="#FFFFFF"></path>
                    <path d="M9.70145787,75.6414793 C8.74310928,75.9290579 7.68882174,75.6414793 6.77818239,75.4018017 C7.20947395,77.2714959 9.46204421,78.3740826 9.98910124,80.2918512 C10.5161583,82.0655702 9.98910124,84.2710909 8.74310928,85.5654545 C7.40117837,87.0036942 5.24472055,86.907719 3.47149807,86.7161157 C2.80061936,86.6680413 2.36932779,86.476438 1.93786274,87.0994959 C1.45868844,87.8666033 1.98591896,88.9212893 2.51297599,89.4966198 C4.190433,91.4143884 6.15518641,91.8940909 8.4556394,91.127157 C11.7623237,90.0245702 14.0626032,86.4592562 14.8773036,83.4387273 C15.3085952,81.8569587 15.8358257,80.195876 15.9315912,78.5658595 C15.9796474,78.1823058 16.1711783,77.0318182 15.9796474,76.6482645 C15.4043607,75.4977769 12.1405279,77.9219752 10.6549488,77.3948926" id="Fill-10" fill="#A9DAFC"></path>
                    <path d="M106.502993,44.7980331 C106.502993,42.2841074 104.856938,30.1450661 108.641235,30.1450661 L117.294304,30.1450661 C119.625464,30.1450661 121.718946,30.1658926 121.718946,33.075 L121.718946,51.338405 C121.718946,54.1310579 120.100648,54.553314 117.61942,54.553314 L109.140187,54.553314" id="Fill-11" fill="#FFFFFF"></path>
                    <path d="M108.50175,54.5628595 C108.50175,54.5628595 110.173829,50.871719 108.107585,48.3749752 C108.107412,48.3749752 109.223461,48.1267934 111.177285,47.5464298 C113.130935,46.9664132 112.136674,44.676719 110.181983,44.4370413 C108.226251,44.1977107 103.780097,44.8443719 104.257536,47.3291405 C104.735496,49.8139091 103.830929,56.3508099 105.488434,59.9487521 C105.488434,59.9487521 104.358333,64.8349835 102.837188,67.792686 C101.316218,70.7503884 96.1853053,79.7132231 95.6317046,80.6642975 C94.314756,82.9262231 93.2424257,85.2723223 92.9070731,86.5847355 C92.5109996,88.1347438 92.3826184,89.7623306 92.2766171,90.5891405 C91.773328,94.5168347 92.2766171,94.8641157 92.2766171,94.8641157" id="Fill-12" fill="#FFFFFF"></path>
                    <path d="M48.088142,47.8180413 C45.3680211,47.8760083 44.2138044,46.8909174 41.7828883,45.6753471 C42.8246847,47.8175207 43.9211299,49.7864876 45.2523045,51.8708678 C46.0624942,53.0867851 45.3831146,55.4906777 46.8511714,55.6408017 C48.6590915,55.8256364 48.4354653,49.7286942 48.088142,47.8180413" id="Fill-13" fill="#A9DAFC"></path>
                    <path d="M90.9749355,89.4459421 C89.7678048,87.1755124 87.1118746,86.1610909 85.4219264,84.3254132 C85.2768903,84.9533306 85.7116517,85.8230083 85.8565143,86.4026777 C86.1462395,87.513595 86.3393318,88.5762645 86.9187823,89.542438 C87.7397283,90.8466942 88.4156381,92.9722066 89.6229422,93.9383802 C91.0231652,95.1942149 91.216431,93.9383802 91.3128904,92.634124 C91.3611201,91.8128678 91.4095233,90.9916116 91.5061562,90.1705289 C91.5543859,89.7840248 91.6992485,89.4941901 91.6026156,89.1561074" id="Fill-14" fill="#A9DAFC"></path>
                    <path d="M113.291064,51.664686 C113.61913,51.270719 113.997335,51.3569752 114.278732,51.7578843 C114.482755,52.0491074 114.660927,52.6010083 114.300418,52.8481488 C113.706569,53.2554793 112.359259,52.0529256 113.176389,51.7315041 C113.484851,51.6101901 113.350744,51.1065372 113.037945,51.2295868 C111.408544,51.87 113.273542,53.9368512 114.519361,53.3233388 C115.933289,52.6270413 114.155382,49.816686 112.923096,51.2965785 C112.709879,51.5525702 113.076113,51.9229339 113.291064,51.664686" id="Fill-15" fill="#A9DAFC"></path>
                    <path d="M31.663671,27.5573802 C32.3416627,27.3725455 33.142484,29.8380496 32.9577191,30.3311157 C32.2799009,30.2078926 31.9717859,29.2831983 32.0949625,28.605124" id="Fill-16" fill="#A9DAFC"></path>
                    <path d="M50.8757497,21.6176777 C49.267688,23.3268347 48.8155778,24.5333802 48.915854,26.8961405 C49.5692104,25.639438 49.4687608,24.4328926 50.8256116,23.7289587 C51.3282068,23.4776529 51.7301789,23.4776529 51.8809401,22.8745537 C52.0317013,22.371595 51.7301789,21.6176777 51.2778953,21.4163554" id="Fill-17" fill="#A9DAFC"></path>
                    <path d="M47.3362443,31.7830661 C48.1394945,33.2759752 50.7726978,33.9321818 51.5025624,32.0000083 C51.7910733,31.2358512 51.875909,29.5827521 50.9951096,29.1247438 C50.7104155,28.9767025 50.3964019,29.0532397 50.1285362,28.9315785 C49.4154999,28.6075537 49.3242451,27.1932645 49.3634534,26.555281 C49.4049171,25.8843223 48.3638147,25.888314 48.3225245,26.555281 C48.264059,27.5049669 48.4842154,28.4819008 49.0216818,29.2746942 C49.208702,29.5504711 49.5305225,29.8755372 49.8719472,29.9487769 C49.9678862,29.9694298 50.3719401,29.9484298 50.4477544,30.009 C50.7518792,30.2514545 50.6649616,31.0643802 50.6025059,31.4033306 C50.5331106,31.7797686 50.3048002,32.0357603 49.9442918,32.1416281 C49.2701168,32.3398264 48.5369558,31.8182975 48.2350865,31.2573719 C47.9169092,30.6659008 47.018414,31.191595 47.3362443,31.7830661" id="Fill-18" fill="#000000"></path>
                    <path d="M42.7773224,25.1470661 C41.8387515,25.364876 41.8049213,24.0316364 42.7773224,23.8702314 C43.7493766,23.7081322 43.7160669,24.9292562 42.7773224,25.1470661" id="Fill-19" fill="#1B325F"></path>
                    <path d="M42.6390524,24.6449752 C42.571739,24.6588595 42.563932,24.6604215 42.615111,24.6496612 C42.5828422,24.6512231 42.5505734,24.6505289 42.5183046,24.6477521 C42.5824952,24.6559091 42.585965,24.6533058 42.5287139,24.639595 C42.5901287,24.6675372 42.5958538,24.6678843 42.5458892,24.6404628 C42.5818013,24.6616364 42.6038343,24.7019008 42.5807604,24.6645868 C42.5550841,24.6133884 42.5578599,24.6205041 42.5890878,24.6852397 C42.5774641,24.6515702 42.572086,24.5382397 42.5818013,24.6706612 C42.5712185,24.5269587 42.5660139,24.6902727 42.5845771,24.6067934 C42.5915166,24.5793719 42.6000175,24.5524711 42.6099064,24.5259174 C42.5712185,24.6385537 42.6246529,24.515157 42.637491,24.4948512 C42.5816278,24.5838843 42.6878026,24.4492066 42.710703,24.4290744 C42.6735765,24.4615289 42.7844355,24.4032149 42.8016108,24.3978347 C42.8878344,24.3707603 42.8939065,24.3775289 42.9548008,24.3761405 C43.0215938,24.3801322 43.025931,24.3796116 42.9681594,24.3740579 C43.1029597,24.398876 42.8973763,24.3254628 43.0071943,24.385686 C42.974752,24.3678099 42.9574032,24.3259835 42.981518,24.3653802 C42.9572297,24.2982149 42.9541069,24.2924876 42.9724966,24.3475041 C43.0108375,24.4682975 42.9707617,24.2360826 42.9733641,24.3660744 C42.9749255,24.444 42.9976524,24.297 42.9554948,24.4351488 C42.9943561,24.3072397 42.8573005,24.5649669 42.9261753,24.4832231 C42.8470647,24.5771157 42.7827006,24.6076612 42.6390524,24.6449752 C41.9898597,24.8141901 42.2655324,25.8183719 42.915766,25.6493306 C43.5208927,25.4915702 44.0266107,24.9788926 44.0135991,24.3256364 C44.006833,23.9974463 43.8388965,23.6904298 43.5663466,23.5090661 C43.2710697,23.3124298 42.915766,23.3145124 42.5807604,23.379595 C41.9792769,23.4963967 41.4985412,24.0958512 41.5438216,24.7102314 C41.597603,25.4408926 42.2407236,25.7859174 42.915766,25.6493306 C43.1938675,25.5927521 43.3505273,25.2680331 43.2792237,25.0085702 C43.2001131,24.7211653 42.9168069,24.5887438 42.6390524,24.6449752" id="Fill-20" fill="#000000"></path>
                    <path d="M53.003929,24.4105041 C53.8219256,24.8733719 53.4907368,25.9339587 52.7207963,25.542595 C51.9505089,25.1510579 52.1857588,23.9469421 53.003929,24.4105041" id="Fill-21" fill="#1B325F"></path>
                    <path d="M52.7410944,24.8601818 C52.8691287,24.9370661 52.8767622,24.9445289 52.9373095,25.0479669 C52.9647207,25.1033306 52.9657616,25.1038512 52.9402588,25.0503967 C52.9496272,25.0781653 52.9572607,25.106281 52.9633327,25.1350909 C52.9563932,25.0667107 52.9550053,25.0621983 52.9589955,25.1217273 C52.9657616,25.2534545 52.9865802,25.0158595 52.9607304,25.1399504 C52.9433816,25.2234298 53.0143383,25.0653223 52.9392179,25.1835124 C52.9855392,25.1262397 52.989009,25.1177355 52.9501476,25.1578264 C53.0431373,25.0689669 52.901571,25.1489752 53.0230127,25.1087107 C52.9874476,25.1205124 53.0172876,25.1052397 53.0535466,25.1118347 C52.9475453,25.0927438 52.9874476,25.0988182 52.8942845,25.0411983 C52.9674965,25.0864959 52.8370334,24.9839256 52.8191641,24.9641405 C52.8901207,25.0425868 52.791406,24.9068678 52.7790883,24.8822231 C52.8333901,24.99 52.7728427,24.8365785 52.7664237,24.8069008 C52.8014683,24.9702149 52.7938348,24.6326529 52.7648623,24.8124545 C52.7874158,24.6727438 52.7367572,24.8381405 52.7714548,24.7704545 C52.8016418,24.7232479 52.7940083,24.731405 52.7485544,24.7947521 C52.819858,24.7105785 52.6507071,24.8520248 52.7464725,24.7970083 C52.7079582,24.8190496 52.6380424,24.8265124 52.6900889,24.8273802 C52.6193057,24.8160992 52.6149685,24.8171405 52.6770773,24.8310248 C52.8091018,24.8641736 52.6033448,24.786595 52.7410944,24.8601818 C53.3332095,25.1757025 53.8590521,24.2768678 53.2665901,23.9608264 C52.6998042,23.658843 52.0226799,23.7796364 51.7907263,24.4318512 C51.5854898,25.009438 51.8967275,25.6101074 52.3687888,25.9403802 C52.8562906,26.2814132 53.6314357,26.1986281 53.8892391,25.6130579 C54.1725452,24.9691736 53.8413563,24.3060248 53.2665901,23.9608264 C52.6893949,23.6145868 52.1663281,24.515157 52.7410944,24.8601818" id="Fill-22" fill="#000000"></path>
                    <path d="M57.1324267,20.0916198 C55.5856063,19.3873388 53.8744926,19.3935868 52.3061596,20.0390331 C51.6942669,20.2908595 51.9619591,21.2988595 52.5828732,21.0433884 C53.8767479,20.5105785 55.3097601,20.4000248 56.6071046,20.9908017 C57.2132722,21.2667521 57.7427581,20.3694793 57.1324267,20.0916198" id="Fill-23" fill="#000000"></path>
                    <path d="M43.963114,18.7743471 C42.3599099,18.4329669 40.571594,18.3946116 39.2735556,19.5405868 C38.7692255,19.9855785 39.5082851,20.7193636 40.0094923,20.2768017 C40.9997628,19.4027851 42.4869033,19.5230579 43.6864004,19.7783554 C44.3409712,19.9178926 44.6194197,18.9140579 43.963114,18.7743471" id="Fill-24" fill="#000000"></path>
                    <path d="M41.4235943,45.6192893 C44.1352143,47.9001322 48.0595164,48.0132893 51.3662008,47.2425372 C52.9177054,46.8808512 54.3914873,46.2286364 55.502332,45.0618347 C56.4641503,44.051405 56.988258,42.7113967 57.4039357,41.4043636 C58.5220669,37.8879917 59.6074088,34.2768595 60.0976863,30.6122727 C60.644868,26.5212645 60.3180163,22.4413636 59.7028273,18.3774298 C59.6023776,17.7153223 58.5996161,17.9976942 58.6990248,18.6542479 C59.2493292,22.2888099 59.553107,25.9499256 59.1780256,29.6179835 C58.8237628,33.0802066 57.7540348,36.3697438 56.8159843,39.7021488 C56.4631094,40.9557273 56.1173475,42.2200661 55.4702367,43.3596198 C54.7120934,44.6949421 53.4558656,45.5064793 52.0242413,45.9778512 C48.9444795,46.9920992 44.7689665,47.0778347 42.1595311,44.8830744 C41.6493024,44.453876 40.9090285,45.1866198 41.4235943,45.6192893" id="Fill-25" fill="#000000"></path>
                    <path d="M36.725188,6.48483471 C34.9419032,6.9461405 34.4729647,8.93298347 34.3584625,10.5413058 C34.2881998,11.5263967 34.3914253,12.5420331 34.6936417,13.4823471 C34.9703553,14.3428264 35.4736444,15.1167025 35.8469909,15.9350083 C36.329982,16.9947273 36.6783462,18.1771488 36.6018379,19.3467273 C36.5265441,20.5017273 35.9035481,21.6334711 35.4672254,22.6789587 C34.6278896,24.6895785 34.7562709,26.9997521 34.9495367,29.127 L35.4700012,28.6063388 C35.0340254,28.603562 34.6238994,28.632719 34.2007618,28.7366777 C34.4202243,28.904157 34.6398603,29.0716364 34.8594963,29.2389421 C34.8027657,27.7630413 34.2194985,26.0373967 33.3447712,24.8459504 C32.3388869,23.4760909 30.8049046,24.6526116 29.9964497,25.6300661 C28.9477138,26.8977025 29.3413585,28.1934545 29.9745902,29.5706033 C30.2613662,30.1943554 30.6093834,30.8208843 31.0405015,31.3575124 C31.6473631,32.1124711 32.5652889,32.4023058 33.4259637,32.7619091 C34.0451429,33.0206777 34.3124882,32.0125041 33.7026773,31.7575537 C33.0234711,31.4737934 32.3597054,31.2512975 31.8418433,30.7021736 C31.5559348,30.3993223 31.355556,29.9668264 31.156912,29.6056612 C30.6825954,28.7429256 30.0191767,27.5384628 30.5757267,26.5960661 C30.879331,26.0818264 31.3689146,25.6510661 31.8798372,25.3542893 C32.4079352,25.0476198 32.6067526,25.5769587 32.8312463,25.9839421 C33.3539661,26.9310248 33.7767567,28.1502397 33.8185674,29.2389421 C33.8317525,29.5822314 34.1402144,29.8238182 34.4773019,29.7410331 C34.8218494,29.6563388 35.120596,29.6452314 35.4700012,29.6476612 C35.7343971,29.6495702 36.0161419,29.4088512 35.9904656,29.127 C35.8216617,27.2682397 35.6807893,25.2541488 36.2697816,23.4547438 C36.8945124,21.546 37.8676075,20.046843 37.5740656,17.9574298 C37.3079347,16.0629174 36.0645451,14.5653223 35.5664606,12.7669587 C35.1639681,11.3137934 35.1174732,7.97652893 37.0019016,7.48884298 C37.6514413,7.32101653 37.3757686,6.31666116 36.725188,6.48483471" id="Fill-26" fill="#000000"></path>
                    <path d="M60.4422338,12.7907355 C58.0489647,13.0670331 56.1114489,11.4050826 54.4810072,9.86878512 C53.1038582,8.57129752 51.8835424,7.31372727 50.2171887,6.38590909 C47.4014758,4.81785124 42.7861703,3.3228595 40.5519898,6.56657851 C40.1699689,7.12108264 41.0726278,7.64104959 41.450832,7.09192562 C43.5493448,4.04553719 48.4880322,6.43676033 50.8072219,7.95830579 C53.9050265,9.9911405 56.1633218,14.3259917 60.4422338,13.8320579 C61.1009684,13.7562149 61.1084283,12.7138512 60.4422338,12.7907355" id="Fill-27" fill="#000000"></path>
                    <path d="M61.8925948,25.1510579 C63.6278234,20.563686 64.3356551,15.1710248 61.9350994,10.6709504 C59.9901237,7.02545455 56.1117959,4.13804132 52.4230906,2.44693388 C50.2499779,1.45108264 47.8181944,0.885297521 45.4738489,0.482652893 C42.9518515,0.0498099174 40.0403732,-0.259289256 37.6467571,0.85631405 C36.1656887,1.54671074 35.4257617,2.98252066 35.4202101,4.57504959 C35.6813097,4.42527273 35.9422359,4.27549587 36.2033356,4.12554545 C35.1998801,3.66180992 34.1419493,3.30671901 33.0224302,3.49103306 C31.5141242,3.73956198 30.1635188,4.66928926 29.1251922,5.75868595 C27.2142201,7.76375207 26.9774088,10.5326281 26.9144326,13.1574545 C26.8514564,15.7892231 26.7497923,18.7797273 28.2098687,21.0940661 C28.4799897,21.5222231 28.8738079,21.8111901 29.0152007,22.306686 C29.1708196,22.8530331 29.1822698,23.4445041 29.2077726,24.0080331 C29.252012,24.9754215 29.1489601,26.0127521 29.3784849,26.9613967 C29.5363591,27.6139587 30.5399881,27.3371405 30.3822874,26.6845785 C29.9830912,25.0344298 30.6466834,23.0765702 29.8290337,21.5092066 C29.6449627,21.1561983 29.3351129,20.8939587 29.1087108,20.5685455 C28.7504578,20.0536116 28.5365469,19.4565868 28.3635792,18.8592149 C27.9983866,17.5981736 27.9468606,16.2560826 27.9328081,14.9514793 C27.9083463,12.6494628 27.8327054,10.133281 28.8370284,8.00742149 C29.4968038,6.61066116 30.6841568,5.57090083 32.0417017,4.87720661 C33.2583741,4.25501653 34.4920484,4.47681818 35.6780135,5.02455372 C36.0270716,5.18595868 36.4597511,4.99817355 36.461139,4.57504959 C36.4708544,1.76070248 39.2366026,1.1782562 41.5481588,1.15742975 C44.3106108,1.13243802 47.1015148,1.7662562 49.7312483,2.56738017 C53.1099302,3.59672727 56.1256749,5.56534711 58.6188733,8.05566942 C60.2912991,9.72612397 61.4533228,11.6136942 62.0416212,13.9080744 C62.7340124,16.6082231 62.4699634,19.4558926 61.7841647,22.1256694 C61.5442306,23.059562 61.2296966,23.9731488 60.8887923,24.8740661 C60.6507666,25.5033719 61.6573449,25.7727273 61.8925948,25.1510579" id="Fill-28" fill="#000000"></path>
                    <path d="M51.2643632,37.656124 C49.0246311,38.9275785 46.3843148,37.919405 44.1353878,37.1717355 C43.4964309,36.9594793 43.2249219,37.9652231 43.8586741,38.1760909 C46.4160631,39.026157 49.2661266,39.9878182 51.7898588,38.5553058 C52.373473,38.2239917 51.8491918,37.3242893 51.2643632,37.656124" id="Fill-29" fill="#000000"></path>
                    <path d="M47.2923518,76.8683306 C48.0196142,73.5985785 47.9927235,70.278843 47.4684423,66.9795868 C46.878756,63.2707438 45.4892894,59.7576694 44.1877812,56.2567438 C43.7816454,55.163876 43.6111065,54.165595 43.4705811,53.0057355 C43.311319,51.6898512 42.7823536,50.7830331 41.5556188,50.2101322 C40.4010551,49.6712479 39.1024963,49.5542727 37.8750675,49.264438 C35.984914,48.818405 34.4974265,47.7987769 33.2667015,46.3069091 C32.8390532,45.7886777 32.1071067,46.5297521 32.5307648,47.043124 C33.5833174,48.3192645 34.8230638,49.2817934 36.3627712,49.8916612 C37.5631358,50.3668512 38.8629091,50.4909421 40.1071662,50.8033388 C40.7048329,50.9532893 41.3254,51.1698843 41.8059622,51.5671488 C42.2870449,51.9647603 42.3822899,52.6150661 42.4528996,53.1975124 C42.5882204,54.3158926 42.7362058,55.3056694 43.121523,56.3636529 C44.3204996,59.6559669 45.5952906,62.9021157 46.2991321,66.3481983 C46.9871861,69.7156612 47.0359363,73.2315124 46.2887228,76.5915124 C46.1431662,77.2456364 47.1466217,77.5236694 47.2923518,76.8683306" id="Fill-30" fill="#000000"></path>
                    <path d="M40.688178,51.7339339 C39.8406884,51.2118843 39.0325805,51.3814463 38.6790117,52.3470992 C38.2621196,53.4850909 38.6314759,55.021562 38.8811254,56.155562 C39.0946893,55.9419174 39.3080797,55.7284463 39.5214702,55.5148017 C36.82824,54.8757769 34.3716476,53.0765455 32.498496,51.0928264 C31.5462195,50.0848264 30.3689288,48.6967438 30.6355801,47.2225785 C30.7058428,46.8339917 30.922703,45.4344545 31.282691,45.2950909 C32.0503761,44.9979669 32.908969,45.0427438 33.7163829,45.0436116 C34.387782,45.0443058 34.3876085,44.0029835 33.7163829,44.0022893 C32.8829457,44.0014215 32.0658165,44.0081901 31.2530245,44.2126364 C30.9662486,44.2846612 30.4846454,44.4243719 30.2693466,44.6397521 C29.9962763,44.9129256 30.0056446,45.5786777 29.904501,45.9443554 C29.662832,46.8173306 29.4548197,47.5882562 29.6182456,48.4968099 C29.7646696,49.3112975 30.3826344,50.1150248 30.8649315,50.7592562 C32.8378388,53.3967521 36.0086819,55.7511818 39.2447565,56.519157 C39.6423914,56.6133967 39.971325,56.2709752 39.8849279,55.8785702 C39.7149095,55.1064298 39.5955496,54.3318595 39.5794152,53.5399339 C39.5729961,53.2282314 39.6009277,52.924686 39.6826407,52.6240909 C39.7657415,52.3179421 39.9659468,52.5118017 40.1628559,52.6332893 C40.7358873,52.9862975 41.2584336,52.0853802 40.688178,51.7339339" id="Fill-31" fill="#000000"></path>
                    <path d="M49.3591162,69.5434959 C49.9406485,68.332438 50.1814501,66.9847934 50.3983103,65.6692562 C50.6849128,63.9314628 50.8651669,62.1770083 51.0672807,60.4281074 C51.2482288,58.8643884 51.5455875,57.3395455 51.7943695,55.7893636 C51.9506824,54.8141653 51.9683782,53.7745785 52.4676771,52.8962231 C52.5254486,52.816562 52.5833937,52.7370744 52.6411652,52.6575868 C52.4796478,52.4869835 52.4374901,52.4639008 52.5146924,52.5885124 C52.5573705,52.6931653 52.5799239,52.8070165 52.6047327,52.916876 C52.630062,53.0289917 52.6448085,53.1426694 52.6531359,53.2570413 C52.7017126,53.9226198 53.7429885,53.9273058 53.6940649,53.2570413 C53.6368138,52.4725785 53.1824483,50.9807107 52.1227826,51.7302893 C51.2957646,52.3151653 51.0780369,53.5196281 50.9368176,54.4436281 C50.7860563,55.4309752 50.593311,56.4046116 50.4284973,57.3888347 C50.0910628,59.4027521 49.9222588,61.444438 49.6682721,63.4698099 C49.4401352,65.2896942 49.2650857,67.3416198 48.4604476,69.0178017 C48.1712428,69.6202066 49.0685236,70.1486777 49.3591162,69.5434959" id="Fill-32" fill="#000000"></path>
                    <path d="M49.0683501,49.4280992 C51.0239086,49.4617686 53.9693906,50.4072893 54.1529411,52.7299587 C54.308213,54.6926777 53.2993793,56.5788595 53.6827881,58.5530331 C53.8108224,59.2120165 54.8139309,58.9322479 54.6864171,58.2763884 C54.2648409,56.1052314 55.9686681,53.5890496 54.923402,51.5031074 C53.8521126,49.3647521 51.3398306,48.4258264 49.0683501,48.3867769 C48.3967774,48.3749752 48.3979918,49.4162975 49.0683501,49.4280992" id="Fill-33" fill="#000000"></path>
                    <path d="M48.1747126,47.6467438 C48.1504242,51.210843 47.2200072,55.1822727 49.4378799,58.3164793 C49.8223296,58.8595289 50.725509,58.3400826 50.336722,57.7906116 C48.2448018,54.8348182 49.1927411,51.009 49.2156415,47.6467438 C49.2203257,46.9750909 48.1793968,46.975438 48.1747126,47.6467438" id="Fill-34" fill="#000000"></path>
                    <path d="M54.1182434,57.9558347 C56.9112293,59.5917521 59.8475164,60.8977438 62.9042043,61.9543388 C66.1985709,63.0928512 69.2564732,64.3705537 71.7517534,66.901314 C72.2236412,67.3801488 72.9594045,66.6434132 72.4876902,66.1650992 C70.1598261,63.8037273 67.2478273,62.2983223 64.1266019,61.2688017 C60.8202645,60.1780165 57.6513298,58.8183967 54.6435656,57.0568264 C54.0632477,56.7166612 53.5394869,57.6167107 54.1182434,57.9558347" id="Fill-35" fill="#000000"></path>
                    <path d="M64.2032836,86.5038595 C63.9541546,86.5399587 64.3462379,86.4977851 64.3979373,86.4953554 C64.6314524,86.4835537 64.8653144,86.4962231 65.0979621,86.5130579 C65.9187345,86.5724132 66.7051564,86.8690165 67.4142025,87.2723554 C67.9985106,87.6050579 68.5227918,86.7050083 67.9395246,86.3731736 C66.7396805,85.6904132 65.3113525,85.3002645 63.92657,85.5000248 C63.2641922,85.5953058 63.5469779,86.5986198 64.2032836,86.5038595" id="Fill-36" fill="#000000"></path>
                    <path d="M64.7934903,83.0298347 C63.955369,84.1324215 63.4187702,85.4642727 62.8976117,86.736595 C62.2220488,88.3857025 61.6519667,90.0792397 61.1288999,91.7823223 C60.4637463,93.9482727 60.007299,96.026405 59.8331169,98.2773967 C59.3504728,104.515959 58.9790347,110.765281 58.644723,117.012868 C58.5224138,119.299438 58.3648866,121.59538 58.3603759,123.886116 C58.3591615,124.557769 59.4000904,124.557769 59.4013049,123.886116 C59.4122346,118.376132 59.9071963,112.837512 60.2541726,107.341934 C60.4396315,104.405926 60.6316829,101.470264 60.8540947,98.5368595 C61.025154,96.2839587 61.4731005,94.230124 62.1327024,92.0591405 C62.6309604,90.4195785 63.1901128,88.7971983 63.8240385,87.2050165 C64.3233374,85.9505702 64.8694782,84.6379835 65.692159,83.5557025 C66.0988153,83.0206364 65.1940745,82.5027521 64.7934903,83.0298347" id="Fill-37" fill="#000000"></path>
                    <path d="M32.1921159,38.8329917 C31.2731491,39.9437355 30.1881542,38.389562 31.0878638,37.7994793 C30.8775961,37.5268264 30.6673285,37.2541736 30.4572343,36.9816942 C30.1038389,37.2717025 28.9052092,38.098686 28.6215561,37.2972149 C28.3779787,36.6089008 29.135775,35.6540083 29.5002736,35.1279669 C30.3292,33.9314876 31.0170806,33.0595537 31.0561154,31.5362727 C31.0734642,30.8644463 30.0325353,30.8660083 30.0151865,31.5362727 C29.9589763,33.7386694 27.6760456,34.9087686 27.5552978,37.0919008 C27.5143546,37.8308926 28.0266652,38.4232314 28.7067388,38.6146612 C29.6074893,38.8682231 30.5391207,38.2550579 31.1931711,37.7179091 C31.6522207,37.341124 31.0528191,36.5785289 30.5625416,36.900124 C28.3156965,38.3744628 31.098967,41.780281 32.9280527,39.5692066 C33.3525782,39.0561818 32.6204582,38.3151074 32.1921159,38.8329917" id="Fill-38" fill="#000000"></path>
                    <path d="M34.8150834,48.0230083 C34.6412482,45.9582397 34.7515867,43.8641405 34.7269514,41.7941653 C34.70301,39.7962149 34.7633839,37.572124 34.102741,35.6578264 C33.8850133,35.0269587 32.8793025,35.2980496 33.0989385,35.9344711 C33.7552442,37.8362727 33.6650304,40.0402314 33.6887982,42.0248182 C33.7125661,44.0186033 33.6065648,46.0337355 33.7741544,48.0230083 C33.8301911,48.6870248 34.871467,48.692405 34.8150834,48.0230083" id="Fill-39" fill="#000000"></path>
                    <path d="M30.6779112,51.0152479 C27.0724803,52.9156612 23.4047671,54.7110744 19.6372983,56.2690661 C16.3930697,57.6106364 12.8292759,58.5641405 10.1787238,60.9862562 C9.6820272,61.4399256 10.4202193,62.1742314 10.9146606,61.7224711 C13.6269745,59.244124 17.45048,58.3152645 20.762022,56.9188512 C24.3192232,55.4191736 27.7891599,53.7138347 31.2034069,51.9146033 C31.7974303,51.6013388 31.2712407,50.7028512 30.6779112,51.0152479" id="Fill-40" fill="#000000"></path>
                    <path d="M51.0067333,38.1058017 C51.1548922,39.6388017 50.1304446,40.9291736 48.5810218,41.0935289 C46.4405249,41.3205372 45.0845415,39.321719 44.4988455,37.5353306 C44.2906597,36.9004711 43.2852958,37.1724298 43.4952164,37.8123223 C44.2519718,40.1204132 46.0279701,42.4057686 48.7168631,42.1202727 C50.739388,41.9059339 52.2443978,40.1426281 52.0476622,38.1058017 C51.9836451,37.4435207 50.9420222,37.4372727 51.0067333,38.1058017" id="Fill-41" fill="#000000"></path>
                    <path d="M16.0941496,60.8849008 C16.1514007,62.7655289 17.2370896,64.684686 19.2884136,64.7844793 C21.3357473,64.8839256 22.4302841,62.6100248 22.4826776,60.8849008 C22.5401021,59.0061818 21.2569837,57.0812975 19.2884136,56.9856694 C17.2412533,56.8860496 16.1467165,59.160124 16.0941496,60.8849008 C16.073678,61.5567273 17.1146069,61.5549917 17.1350785,60.8849008 C17.1739399,59.6078926 17.8316335,58.0978017 19.2884136,58.0269917 C20.7410299,57.9561818 21.406357,59.7189669 21.4417486,60.8849008 C21.4807834,62.1608678 20.689157,63.675124 19.2884136,63.743157 C17.8356237,63.8137934 17.1704701,62.0511818 17.1350785,60.8849008 C17.1146069,60.2149835 16.073678,60.2130744 16.0941496,60.8849008" id="Fill-42" fill="#000000"></path>
                    <path d="M19.6657503,71.2174215 C18.9887995,70.6839174 17.6343775,70.4532645 16.7927864,70.6172727 C16.2992126,70.713595 15.9822497,70.9541405 15.6311097,71.3035041 C14.9881626,71.9433967 14.0454279,71.9805372 13.288846,71.5397107 C11.9465681,70.7578512 12.2925035,68.6616694 12.2925035,67.3929917 C12.2925035,65.9931074 12.0501406,64.3592727 12.440142,63.0022562 C12.8958954,61.4156281 14.8864985,61.2597769 15.7284365,62.5878099 C16.3679139,63.596157 16.1239895,65.1744545 16.2110806,66.3094959 C16.2683317,67.0550826 16.315694,67.7991074 16.3169084,68.5472975 C16.3174288,68.9133223 16.3637502,69.4645289 16.190956,69.8003554 C16.0917207,69.9931736 15.9036596,70.1623884 15.7882899,70.3503471 C15.435762,70.9241157 16.3365125,71.4468595 16.6871321,70.8760413 C16.9916038,70.3796777 17.2598165,70.0999091 17.3085667,69.4900413 C17.3935759,68.4259835 17.3326815,67.3721653 17.2520095,66.3094959 C17.1453143,64.9033636 17.3344164,63.3382562 16.6272787,62.0624628 C15.7031073,60.394438 13.3924185,60.1752397 12.1110349,61.5247934 C11.2075086,62.4760413 11.2515746,63.8098017 11.2515746,65.0278017 L11.2515746,68.0688099 C11.2515746,68.9619174 11.1951909,69.8458264 11.4613218,70.7087355 C11.8700599,72.0336446 13.0359003,72.8542066 14.3953535,72.8847521 C15.0282383,72.8989835 15.7497756,72.6061983 16.212295,72.1818595 C16.6874791,71.7460661 16.9544774,71.5817107 17.6501649,71.6769917 C18.0160514,71.7269752 18.6336693,71.7203802 18.9298135,71.9538099 C19.4507985,72.364438 20.1928073,71.6329091 19.6657503,71.2174215" id="Fill-43" fill="#000000"></path>
                    <path d="M7.34774402,65.437562 C7.304025,63.9755455 8.3735795,62.2098099 10.0626602,62.6862149 C10.9257638,62.9297107 11.0721878,63.9385785 11.1178152,64.6888512 C11.2092435,66.1897438 11.4111837,67.6770992 11.3910591,69.183719 C11.3794354,70.047843 11.3582698,70.9454628 10.5944014,71.5072562 C10.0666505,71.8954959 9.3421639,71.9366281 8.75369206,71.6695289 C7.97958789,71.3184298 7.64475574,70.4996033 7.5809121,69.6988264 C7.46779782,68.2824545 7.42529322,66.8563636 7.34774402,65.437562 C7.31113801,64.7697273 6.27003557,64.7662562 6.30681506,65.437562 C6.39841681,67.1118347 6.28113881,68.9699008 6.67912065,70.6021736 C6.92373895,71.6060083 7.66522735,72.3661736 8.61108479,72.7294215 C10.7800338,73.5623058 12.4796973,71.5055207 12.4200173,69.500281 C12.3625928,67.5734876 12.4054443,65.5592231 12.0444155,63.6560331 C11.8606915,62.6874298 11.1542477,61.9119917 10.2127275,61.6464545 C7.91956099,60.9992727 6.24644118,63.4219091 6.30681506,65.437562 C6.32693969,66.1074793 7.36786864,66.1093884 7.34774402,65.437562" id="Fill-44" fill="#000000"></path>
                    <path d="M2.57560521,66.1560744 C2.58636148,64.6555289 3.79540046,63.3054545 5.36737668,63.8521488 C6.08683207,64.1024132 6.33665502,64.9278347 6.3677094,65.6069504 C6.4249605,66.860876 6.54119756,68.1179256 6.47041439,69.3734132 C6.42444003,70.1896364 6.38939542,71.0443884 5.66126562,71.5659174 C5.11616582,71.9558926 4.41735552,71.9050413 3.86340782,71.5749421 C3.11168363,71.1268264 3.00602934,70.1879008 2.98000611,69.4039587 C2.9435736,68.3074463 2.61203773,67.254843 2.57560521,66.1560744 C2.55322524,65.4863306 1.51229629,65.4840744 1.53467626,66.1560744 C1.55740321,66.8395289 1.64570868,67.500595 1.77981503,68.1701653 C1.93161717,68.9280744 1.90975766,69.6930992 2.02616821,70.4532645 C2.17779687,71.4433884 2.8835467,72.375719 3.83391484,72.7165785 C4.66579056,73.0152645 5.57989967,72.899157 6.300396,72.3835289 C7.31825103,71.6546033 7.42078253,70.5197355 7.51134335,69.3734132 C7.57310513,68.5917273 7.52608984,67.8079587 7.47508432,67.027314 C7.42494625,66.2610744 7.46120527,65.4759174 7.29430966,64.7233884 C7.07970481,63.7566942 6.31930621,63.0269008 5.38351107,62.7663967 C3.2306965,62.1672893 1.5487288,64.1725289 1.53467626,66.1560744 C1.52981859,66.8277273 2.57074755,66.8273802 2.57560521,66.1560744" id="Fill-45" fill="#000000"></path>
                    <path d="M20.1673046,63.9132397 C20.6640012,66.0283388 21.303305,68.1429174 21.5628433,70.3052231 C21.7424036,71.8016033 21.6658953,73.5284628 20.0763968,74.1921322 C19.0686041,74.613 17.8946097,74.6909256 16.8418835,74.9819752 C15.90418,75.2410909 14.9954491,75.5850744 14.1011176,75.9653306 C13.0570659,76.4094545 11.9731118,77.0870083 10.7932189,76.8928017 C10.9144871,77.0139421 11.0355818,77.1350826 11.15685,77.2565702 C10.5767056,75.4920496 10.6173019,73.099438 12.7508593,72.5345207 C13.3991845,72.3630496 13.1238588,71.3585207 12.4741456,71.5305124 C9.76877128,72.2467686 9.38657687,75.2027355 10.1530476,77.5330413 C10.205788,77.6935785 10.3367715,77.8673058 10.5166787,77.8968099 C11.860518,78.1180909 12.9677195,77.6019421 14.1689515,77.0649669 C15.127994,76.6364628 16.1094165,76.2779008 17.1185972,75.9859835 C18.3326673,75.6350579 19.6402476,75.5484545 20.7897801,75.0050579 C22.3747679,74.2558264 22.7347559,72.4845372 22.6551248,70.8930496 C22.5324687,68.440562 21.729045,66.0121983 21.1711071,63.6362479 C21.0177435,62.9826446 20.0141145,63.2599835 20.1673046,63.9132397" id="Fill-46" fill="#000000"></path>
                    <path d="M4.058582,72.2872066 C2.18681825,75.9233306 0.37039722,79.9129835 0.176784434,84.0643884 C0.0687013111,86.3815041 0.751377218,88.7584959 2.63858142,90.2248512 C4.44077642,91.6256033 7.28684967,92.3663306 9.47679071,91.6025207 C12.5124865,90.5440165 13.9493155,86.9721074 14.9052352,84.1928182 C15.8538685,81.4350496 16.461771,78.5669008 17.1165153,75.7294711 C17.2672765,75.0758678 16.2636475,74.7981818 16.1127128,75.4524793 C15.2258413,79.2966942 14.4670041,83.3158512 12.6870156,86.8691901 C11.9902872,88.259876 11.0598702,89.6080413 9.67595512,90.3803554 C8.43551478,91.0726612 7.00354351,90.900843 5.68780931,90.5546033 C-1.20643666,88.7404463 1.51992976,80.3210083 3.54176077,75.7421405 C3.97999187,74.7497603 4.46107453,73.7769917 4.95742416,72.8125537 C5.26415122,72.2167438 4.36600302,71.6898347 4.058582,72.2872066" id="Fill-47" fill="#000000"></path>
                    <path d="M11.3063968,89.2020992 C10.535242,96.0494876 10.3860422,102.980355 10.2208814,109.863669 C10.1093285,114.509876 10.0397598,119.158165 10.0264012,123.80576 C10.0262277,123.832661 10.0262277,123.859388 10.0262277,123.886116 C10.0248398,124.557769 11.0657688,124.557769 11.0671567,123.886116 C11.0756576,119.706421 11.1388073,115.52638 11.2281537,111.347554 C11.377874,104.347785 11.5435552,97.3169504 12.2262311,90.345124 C12.263531,89.9638264 12.3044742,89.582876 12.3473258,89.2020992 C12.4224462,88.5353058 11.3808233,88.542595 11.3063968,89.2020992" id="Fill-48" fill="#000000"></path>
                    <path d="M63.2423327,62.0739174 C65.289493,62.6572314 67.2268353,63.5453058 69.0364903,64.663686 C70.9139791,65.823719 72.3355411,67.3869174 73.8252839,68.9879504 C76.2501279,71.5933388 78.4294862,74.3030331 80.3716861,77.2893719 C81.1636596,78.5068512 81.8232616,79.7838595 82.5552081,81.0337934 C83.1865315,82.1120826 84.1944977,83.006405 85.0721743,83.8741736 C86.3740295,85.1612479 87.7893459,86.3320413 89.1486256,87.557157 C89.7299844,88.0812893 90.3018014,88.6163554 90.8430845,89.1819669 C91.1156344,89.4669421 91.700116,89.9754545 91.7309969,90.4060413 C91.7787061,91.0717934 92.8198085,91.0764793 92.7719258,90.4060413 C92.6912538,89.2784628 91.4697237,88.3072562 90.7195609,87.5913471 C89.3337375,86.2697355 87.8538835,85.0498264 86.4491498,83.7488678 C85.4238348,82.7990083 84.2605967,81.7840661 83.5057497,80.593314 C82.6641587,79.2654545 81.9757576,77.8478678 81.1154299,76.5253884 C79.1305518,73.4736198 76.8613267,70.7227934 74.3847832,68.0615207 C72.8832432,66.4481653 71.4318413,64.9549091 69.5618124,63.7645041 C67.7039277,62.5817355 65.6352549,61.6728347 63.5188728,61.0699091 C62.8719355,60.8854215 62.5978242,61.890124 63.2423327,62.0739174" id="Fill-49" fill="#000000"></path>
                    <path d="M67.53842,87.3249421 C69.1808324,87.9547686 70.746563,88.6913306 72.0864121,89.8327934 C73.9836786,91.4492727 75.8365322,93.1169504 77.6645769,94.8111818 C79.8064617,96.7961157 81.8416513,99.068281 84.2304098,100.765116 C87.5931308,103.154256 92.0087514,103.730455 95.9667103,102.948942 C97.5883041,102.628562 98.5837791,101.573702 99.5374436,100.279512 C100.850575,98.4971157 101.85698,96.4818099 102.808563,94.4906281 C104.046401,91.9003388 105.14701,89.2439256 106.207716,86.5767521 C108.485616,80.8498264 110.526704,75.0326529 112.631636,69.2411653 C113.591372,66.6005455 114.540873,63.948124 115.645472,61.3637355 C115.983948,60.5723306 116.335955,59.7791901 116.768982,59.0339504 C117.02557,58.5924298 117.179975,58.4402231 117.533197,58.0209174 C118.39179,57.0009421 119.218808,55.9547603 120.026916,54.8945207 C120.434266,54.3603223 119.529525,53.8426116 119.128247,54.369 C117.722472,56.2131818 116.128637,57.8069256 115.15346,59.9197686 C114.287233,61.7962314 113.561706,63.7403802 112.837913,65.6748099 C110.751718,71.249876 108.807783,76.8771818 106.698514,82.4437438 C104.727168,87.6467107 102.727197,92.9610992 99.9161682,97.7810331 C99.1408496,99.1104545 98.2335066,100.683719 96.9056282,101.540033 C96.6936257,101.676793 96.5392212,101.748471 96.3044917,101.808174 C95.0300477,102.132893 93.7134461,102.278851 92.4001407,102.276074 C90.0868496,102.270868 87.8804272,101.538471 85.8421148,100.490033 C84.7272799,99.9167851 83.8397144,99.1496777 82.9184923,98.3072479 C81.4596304,96.9731405 80.0380684,95.5982479 78.5908302,94.2514711 C76.6206986,92.4177025 74.614655,90.6235041 72.5659334,88.8780744 C71.1854881,87.7019008 69.4974483,86.9660331 67.8151336,86.3205868 C67.18728,86.0798678 66.9183733,87.087 67.53842,87.3249421" id="Fill-50" fill="#000000"></path>
                    <path d="M81.5203512,79.4530661 C79.6303712,80.334719 77.9456277,81.8248512 76.4017566,83.1987025 C74.7171865,84.6983802 72.8901827,86.4236777 71.8957486,88.4853223 C71.6055029,89.0873802 72.5029572,89.6155041 72.7945908,89.0110165 C73.7560621,87.0177521 75.5183549,85.394157 77.1378668,83.9350909 C78.6104343,82.6084463 80.233763,81.197281 82.0458469,80.3522479 C82.6537494,80.0684876 82.124784,79.1712149 81.5203512,79.4530661" id="Fill-51" fill="#000000"></path>
                    <path d="M80.907938,78.3697438 C78.9180288,79.3003388 77.1531338,80.9614215 75.5452455,82.4213554 C73.7407952,84.0600496 71.7031768,85.9337355 70.6287646,88.1652893 C70.3388659,88.7673471 71.2363201,89.2958182 71.5274332,88.6909835 C72.5376548,86.5932397 74.4333599,84.8669008 76.1151541,83.3099504 C77.6999685,81.8430744 79.4549747,80.1939669 81.4332602,79.2689256 C82.0409892,78.9846446 81.5120238,78.0873719 80.907938,78.3697438" id="Fill-52" fill="#5113C8"></path>
                    <path d="M108.951258,54.8256198 C109.927649,52.6319008 109.993748,49.9584793 108.475554,48.0068678 C108.399045,48.2970496 108.322537,48.5870579 108.245855,48.8770661 C108.717396,48.7710248 109.184773,48.6462397 109.651456,48.5211074 C110.553768,48.2795207 111.657847,48.1349504 112.340002,47.4403884 C113.415108,46.3457851 112.306172,44.767314 111.243731,44.2168017 C110.015261,43.5803802 108.264592,43.8578926 106.975748,44.1340165 C105.695059,44.408405 104.324849,45.0052562 103.809589,46.2925041 C103.584228,46.8555124 103.776627,47.4698926 103.831102,48.0438347 C103.909519,48.8702975 103.899456,49.7068264 103.900497,50.5364132 C103.902753,52.5310661 103.880546,54.527281 104.106081,56.512562 C104.20601,57.3924793 104.365619,58.2640661 104.618044,59.1132645 C104.678245,59.3159752 104.752151,59.5138264 104.826751,59.7113306 C104.909504,59.9307025 104.902912,60.1702066 104.984972,59.8173719 C104.952529,59.9570826 104.918005,60.0960992 104.883655,60.2352893 C104.484632,61.8467355 104.01153,63.4420413 103.454806,65.0059339 C102.491426,67.7123306 100.959006,70.2002231 99.5598235,72.697314 C98.2442628,75.0449752 96.9149965,77.3853471 95.5754945,79.7194711 C93.8760045,82.6802975 92.3775872,85.5723967 91.9440403,88.9978264 C91.7384568,90.6210744 91.4674683,92.2800744 91.5448441,93.9206777 C91.5618459,94.2820165 91.575031,94.9743223 91.9086487,95.2322231 C92.432583,95.6372975 93.1751123,94.9061157 92.6445855,94.4960083 C92.7262984,94.5591818 92.6844878,94.5860826 92.6334823,94.3519587 C92.5070094,93.7728099 92.5712,93.126843 92.6038158,92.5421405 C92.7236961,90.3838264 92.9393419,88.0373802 93.6357234,85.9859752 C94.6350152,83.042157 96.4151772,80.3584959 97.9477716,77.6656364 C99.5638138,74.826124 101.180897,71.9853967 102.730146,69.1089174 C104.229604,66.3251157 105.205128,63.3254132 105.949566,60.258719 C105.99901,60.0549669 106.028677,59.8909587 105.937942,59.6858182 C105.664872,59.0690083 105.490169,58.4195702 105.349123,57.7614545 C105.056275,56.3950661 104.994861,54.9806033 104.958602,53.5876612 C104.924424,52.288438 104.94906,50.9885207 104.937263,49.6889504 C104.932405,49.14 104.915923,48.5912231 104.872031,48.0438347 C104.83716,47.6073471 104.68397,47.1404876 104.772275,46.7059091 C104.963806,45.7652479 106.286653,45.3848182 107.069259,45.1814132 C108.031597,44.9313223 109.058127,44.859124 110.04805,44.9429504 C111.044393,45.0274711 112.604745,46.5000744 111.039015,47.0443388 C110.046836,47.3891901 108.994804,47.6422314 107.969142,47.8730579 C107.547218,47.9679917 107.517205,48.4574132 107.739617,48.7430826 C108.949697,50.2984711 108.767187,52.6942066 108.052416,54.2999256 C107.781774,54.9077107 108.678535,55.4380909 108.951258,54.8256198" id="Fill-53" fill="#000000"></path>
                    <path d="M107.023458,44.7980331 C107.009579,42.3467603 106.685329,39.9027769 106.667807,37.4478595 C106.657398,36.0040661 106.702678,34.540314 106.981474,33.1199504 C107.137266,32.3261157 107.418143,31.0327934 108.296514,30.7203967 C108.619375,30.6055041 109.001396,30.6657273 109.333452,30.6657273 L111.410279,30.6657273 L115.909868,30.6657273 C117.329522,30.6657273 120.048081,30.2078926 120.926972,31.690562 C121.475542,32.616124 121.198481,34.1232645 121.198481,35.1425455 L121.198481,39.622314 L121.198481,48.237 C121.198481,49.6578843 121.437201,51.3036942 121.005909,52.6759835 C120.71549,53.5992893 119.741007,53.8806198 118.882588,53.9791983 C117.464149,54.1416446 115.991755,54.0326529 114.566896,54.0326529 L109.140187,54.0326529 C108.468961,54.0326529 108.468961,55.0739752 109.140187,55.0739752 L117.61942,55.0739752 C118.98269,55.0739752 120.665526,54.9936198 121.562806,53.8011322 C122.001037,53.2181653 122.151452,52.5341901 122.221714,51.8207107 C122.359637,50.4208264 122.23941,48.9542975 122.23941,47.5479917 L122.23941,38.9329587 L122.23941,34.7980413 C122.23941,33.6938926 122.375251,32.4968926 121.95593,31.4477603 C121.3914,30.0355537 119.895759,29.7191653 118.531101,29.643843 C115.940229,29.5004876 113.312577,29.624405 110.718061,29.624405 C109.388275,29.624405 107.875458,29.3186033 106.944694,30.4803719 C105.470045,32.3210826 105.612305,35.4212727 105.628092,37.6326942 C105.645268,40.0258264 105.968997,42.4080248 105.982529,44.7980331 C105.986345,45.4693388 107.027274,45.469686 107.023458,44.7980331" id="Fill-54" fill="#000000"></path>
                    <path d="M109.278804,44.3905289 C109.278804,42.1496033 109.369712,39.8928843 109.195529,37.6573388 C109.106183,36.5117107 108.656849,33.9493636 109.911515,33.2863884 C110.714765,32.8620496 111.874881,32.9915207 112.745444,33.0385537 C113.700149,33.0900992 114.649997,33.2284215 115.606958,33.2412645 C116.366836,33.2516777 117.135042,33.1612562 117.887633,33.3040909 C119.119746,33.5382149 118.943135,34.7822479 118.943135,35.7669917 L118.943135,44.3362066 C118.943135,45.6307438 118.984252,46.9327438 118.938971,48.2262397 C118.92197,48.7140992 118.419201,49.0238926 118.022086,49.1879008 C116.742611,49.7168926 115.211405,49.6667355 113.854727,49.6370579 C112.51644,49.6075537 111.184398,49.474438 109.849059,49.3939091 C109.649548,49.3821074 109.449863,49.3739504 109.249831,49.372562 C108.578259,49.3671818 108.578779,50.4085041 109.249831,50.4138843 C111.899689,50.4345372 114.51086,50.9260413 117.158809,50.4945868 C118.162265,50.3310992 119.365752,49.9288017 119.811443,48.9240992 C120.149225,48.1625455 119.984064,47.1968926 119.984064,46.3926446 L119.984064,41.9368264 L119.984064,37.8234298 C119.984064,36.5509339 120.131009,35.1845455 119.895759,33.929405 C119.599961,32.3514545 117.863865,32.1707851 116.562184,32.1839752 C114.725291,32.202719 112.890133,31.8747025 111.056363,31.9918512 C109.460272,32.0939008 108.446928,32.7730165 108.171082,34.3799504 C107.947456,35.6816033 108.10932,37.0266446 108.206473,38.3322893 C108.3555,40.3354463 108.237875,42.3823388 108.237875,44.3905289 C108.237875,45.0620083 109.278804,45.0620083 109.278804,44.3905289" id="Fill-55" fill="#000000"></path>
                    <path d="M123.74442,44.3320413 C125.407998,44.0199917 127.172372,43.6885041 128.664197,42.8453802 C129.393715,42.4331901 130.022436,41.7391488 129.949744,40.8521157 C129.850509,39.6441818 128.471625,39.4270661 127.499224,39.3689256 C125.46976,39.2476116 123.33759,39.8203388 121.43668,40.4643967 C120.80449,40.6787355 121.075825,41.6848264 121.713394,41.4687521 C123.283982,40.9364628 124.901412,40.5350331 126.559786,40.4206612 C127.075046,40.3850826 128.911418,40.2189917 128.917143,41.0412893 C128.92148,41.6613967 127.994706,42.0414793 127.546586,42.2457521 C126.278215,42.823686 124.826813,43.0729091 123.467706,43.327686 C122.808278,43.4514298 123.088461,44.4552645 123.74442,44.3320413" id="Fill-56" fill="#000000"></path>
                    <path d="M124.011418,46.0578595 C123.139814,47.6191488 119.098407,45.8501157 119.44573,44.142 C119.770327,42.5461736 124.659743,44.2577603 123.959025,46.1822975 C123.728633,46.8147273 124.734864,47.0849504 124.962827,46.4591157 C126.013298,43.5743058 120.038366,40.9222314 118.550184,43.5876694 C117.767406,44.9898099 119.421442,46.4526942 120.48718,47.0420826 C121.770992,47.7522645 124.053923,48.1172479 124.91026,46.5835537 C125.237979,45.996595 124.33879,45.4717686 124.011418,46.0578595" id="Fill-57" fill="#000000"></path>
                    <path d="M124.011418,49.558438 C123.139814,51.1193802 119.098234,49.3503471 119.44573,47.6425785 C119.770327,46.0465785 124.659917,47.7581653 123.959025,49.6827025 C123.728633,50.3151322 124.734864,50.5851818 124.962827,49.9593471 C126.013298,47.0747107 120.038192,44.4226364 118.550184,47.0882479 C117.767579,48.4903884 119.421615,49.9529256 120.48718,50.5424876 C121.770819,51.2524959 124.053923,51.6176529 124.91026,50.0837851 C125.237979,49.497 124.33879,48.972 124.011418,49.558438" id="Fill-58" fill="#000000"></path>
                    <path d="M122.78451,52.8129174 C121.913079,54.3740331 117.871325,52.6048264 118.218822,50.8967107 C118.543245,49.3010579 123.432488,51.0126446 122.731943,52.9371818 C122.501724,53.5696116 123.507956,53.8396612 123.735746,53.2138264 C124.785869,50.3291901 118.811111,47.6769421 117.323103,50.3423802 C116.540498,51.7445207 118.19436,53.207405 119.260098,53.7969669 C120.543737,54.5069752 122.827188,54.8721322 123.683352,53.3382645 C124.010898,52.7514793 123.111709,52.2264793 122.78451,52.8129174" id="Fill-59" fill="#000000"></path>
                </g>
            </g>
        </g>
    </g>
</svg>