<?xml version="1.0" encoding="UTF-8" standalone="no"?>
<!-- Generator: Adobe Illustrator 16.0.0, SVG Export Plug-In . SVG Version: 6.00 Build 0)  -->

<svg
   xmlns:dc="http://purl.org/dc/elements/1.1/"
   xmlns:cc="http://creativecommons.org/ns#"
   xmlns:rdf="http://www.w3.org/1999/02/22-rdf-syntax-ns#"
   xmlns:svg="http://www.w3.org/2000/svg"
   xmlns="http://www.w3.org/2000/svg"
   xmlns:sodipodi="http://sodipodi.sourceforge.net/DTD/sodipodi-0.dtd"
   xmlns:inkscape="http://www.inkscape.org/namespaces/inkscape"
   version="1.1"
   id="Layer_1"
   x="0px"
   y="0px"
   width="120px"
   height="120px"
   viewBox="316.95 239 120 120"
   enable-background="new 316.95 239 120 120"
   xml:space="preserve"
   inkscape:version="0.91 r13725"
   sodipodi:docname="logo.svg"><metadata
     id="metadata43"><rdf:RDF><cc:Work
         rdf:about=""><dc:format>image/svg+xml</dc:format><dc:type
           rdf:resource="http://purl.org/dc/dcmitype/StillImage" /><dc:title></dc:title></cc:Work></rdf:RDF></metadata><defs
     id="defs41" /><sodipodi:namedview
     pagecolor="#ffffff"
     bordercolor="#666666"
     borderopacity="1"
     objecttolerance="10"
     gridtolerance="10"
     guidetolerance="10"
     inkscape:pageopacity="0"
     inkscape:pageshadow="2"
     inkscape:window-width="1873"
     inkscape:window-height="1056"
     id="namedview39"
     showgrid="false"
     inkscape:zoom="5.3759481"
     inkscape:cx="37.372881"
     inkscape:cy="40.407299"
     inkscape:window-x="47"
     inkscape:window-y="24"
     inkscape:window-maximized="1"
     inkscape:current-layer="Layer_1" /><g
     id="g5"><g
       id="g7"
       transform="matrix( 1, 0, 0, 1, 0,0) "><g
         id="g9"><g
           id="Layer3_0_FILL"><path
             d="M409.345,314.341c-0.449,0.016-0.883,0.09-1.287,0.24c-0.046,0.029-0.106,0.045-0.15,0.06      c-0.165,0.06-0.314,0.135-0.465,0.225c-0.585,0.345-1.05,0.81-1.394,1.395c-0.329,0.584-0.509,1.229-0.524,1.932v12.692      c0.016,0.18,0.075,0.329,0.18,0.448c0.12,0.121,0.27,0.181,0.451,0.181h1.931c0.181-0.015,0.316-0.074,0.435-0.181      c0.12-0.119,0.195-0.269,0.195-0.448v-12.707c0-0.18,0.061-0.345,0.18-0.465c0.12-0.119,0.27-0.195,0.449-0.195h8.977      c0.18,0,0.314-0.059,0.435-0.18c0.12-0.119,0.194-0.27,0.194-0.448v-1.919c0-0.18-0.074-0.329-0.194-0.449      s-0.27-0.194-0.435-0.194h-8.977 M402.648,318.177c0-0.704-0.18-1.349-0.511-1.934c-0.344-0.584-0.809-1.048-1.378-1.393      c-0.585-0.33-1.229-0.51-1.934-0.51h-9.753c-0.721,0.016-1.363,0.18-1.935,0.51c-0.584,0.345-1.048,0.809-1.393,1.393      c-0.33,0.585-0.51,1.229-0.51,1.934v9.47c0.016,0.72,0.18,1.363,0.51,1.933c0.345,0.585,0.809,1.049,1.393,1.395      c0.585,0.329,1.229,0.509,1.935,0.524h9.828c0.689-0.03,1.304-0.195,1.873-0.524c0.584-0.346,1.033-0.81,1.379-1.395      c0.345-0.584,0.509-1.228,0.509-1.933v-9.47 M399.276,317.728c0.135,0.12,0.194,0.27,0.194,0.464v9.471      c0,0.194-0.06,0.344-0.194,0.465c-0.119,0.119-0.27,0.18-0.465,0.18h-9.754c-0.18,0-0.346-0.061-0.466-0.18      c-0.118-0.121-0.18-0.285-0.18-0.465v-9.485c0-0.18,0.062-0.345,0.18-0.465c0.12-0.134,0.286-0.195,0.466-0.195h9.754      C398.991,317.533,399.157,317.593,399.276,317.728 M368.769,314.341c-0.719,0.016-1.363,0.18-1.933,0.51      c-0.584,0.345-1.034,0.809-1.378,1.393c-0.345,0.57-0.509,1.215-0.524,1.934v2.503c0.015,0.719,0.179,1.363,0.524,1.933      c0.344,0.584,0.809,1.033,1.378,1.379c0.584,0.344,1.229,0.509,1.933,0.524h9.785c0.18,0,0.33,0.06,0.464,0.179      c0.12,0.121,0.181,0.285,0.181,0.465v2.473c0,0.194-0.061,0.345-0.181,0.464c-0.134,0.121-0.284,0.181-0.464,0.181h-9.785      c-0.18,0-0.33-0.06-0.464-0.181c-0.09-0.09-0.149-0.194-0.165-0.314c-0.015-0.045-0.015-0.09-0.015-0.135v-0.029v-0.016l0,0      c0-0.045,0-0.074-0.015-0.104c0-0.045-0.015-0.076-0.03-0.12l-0.06-0.104c-0.03-0.045-0.061-0.075-0.09-0.104      c-0.12-0.121-0.27-0.195-0.435-0.195h-1.933c-0.18,0-0.33,0.074-0.45,0.195c-0.015,0.015-0.03,0.029-0.03,0.045      c-0.016,0.015-0.03,0.029-0.045,0.045l-0.06,0.119c-0.015,0.015-0.015,0.029-0.015,0.044c-0.015,0.062-0.029,0.121-0.029,0.196      l0,0c0,0.029,0,0.045,0,0.074c0.015,0.704,0.194,1.318,0.524,1.873c0.344,0.584,0.809,1.049,1.378,1.394      c0.39,0.225,0.809,0.374,1.259,0.465h0.015c0.21,0.03,0.435,0.06,0.674,0.06h9.784c0.72-0.015,1.363-0.18,1.934-0.524      c0.569-0.345,1.034-0.81,1.378-1.394c0.345-0.569,0.51-1.213,0.524-1.933v-2.473c-0.015-0.719-0.18-1.363-0.524-1.933      c-0.344-0.585-0.809-1.049-1.378-1.394c-0.585-0.33-1.229-0.51-1.934-0.524h-9.784c-0.18,0-0.33-0.061-0.464-0.18      c-0.12-0.135-0.18-0.285-0.18-0.465v-2.487c0-0.18,0.06-0.345,0.18-0.465c0.135-0.134,0.285-0.195,0.464-0.195h9.784      c0.181,0,0.33,0.062,0.464,0.195c0.121,0.12,0.181,0.271,0.181,0.45v0.045c0,0.074,0.015,0.149,0.045,0.209l0.09,0.166      c0.015,0.029,0.03,0.045,0.045,0.06c0.12,0.119,0.27,0.18,0.449,0.18h1.933c0.181,0,0.315-0.061,0.435-0.18      c0.03-0.03,0.06-0.06,0.075-0.09l0.074-0.136c0.031-0.06,0.046-0.135,0.046-0.209v-0.105c-0.015-0.688-0.195-1.318-0.524-1.872      c-0.344-0.585-0.809-1.049-1.378-1.395c-0.39-0.225-0.81-0.375-1.259-0.449c-0.226-0.045-0.45-0.06-0.689-0.06h-9.785       M359.479,318.971c-0.18,0-0.33,0.075-0.45,0.195c-0.015,0.015-0.03,0.029-0.03,0.045c-0.089,0.104-0.15,0.239-0.15,0.404      v11.269c0.015,0.18,0.075,0.329,0.18,0.448c0.12,0.121,0.27,0.181,0.45,0.181h1.933c0.18-0.015,0.314-0.074,0.435-0.181      c0.12-0.119,0.194-0.269,0.194-0.448v-11.269c0-0.18-0.075-0.33-0.194-0.449c-0.12-0.12-0.27-0.195-0.435-0.195H359.479       M335.325,314.341c-0.09,0-0.18,0.045-0.255,0.119c-0.015,0.016-0.044,0.046-0.06,0.061l-0.03,0.075      c-0.015,0.015-0.015,0.045-0.03,0.06c0,0.03,0,0.045,0,0.076v0.238l9.02,16.272c0.015,0.03,0.045,0.045,0.075,0.075      c0.12,0.121,0.27,0.181,0.435,0.181h2.458c0.18-0.016,0.314-0.075,0.435-0.181c0.03-0.03,0.06-0.06,0.075-0.075l8.976-16.272      v-0.238c0-0.031,0-0.046,0-0.076c0-0.029-0.015-0.045-0.03-0.06l-0.03-0.075c-0.015-0.015-0.045-0.045-0.06-0.061      c-0.075-0.074-0.15-0.119-0.255-0.119h-2.592c-0.18,0-0.33,0.075-0.45,0.195c-0.015,0.014-0.03,0.029-0.03,0.045      c-0.016,0.015-0.03,0.029-0.045,0.045l-7.222,13.245l-7.267-13.245c-0.016-0.016-0.016-0.03-0.031-0.045      c-0.014-0.016-0.029-0.031-0.044-0.045c-0.12-0.12-0.27-0.195-0.449-0.195H335.325z"
             id="path12"
             fill="#989898" /><path
             d="M362.041,314.955c0-0.18-0.075-0.329-0.194-0.449c-0.12-0.12-0.27-0.18-0.435-0.194h-1.933      c-0.18,0.015-0.33,0.074-0.45,0.194c-0.015,0.015-0.03,0.03-0.03,0.044c-0.089,0.105-0.15,0.24-0.15,0.405v1.934      c0.015,0.179,0.075,0.329,0.18,0.448c0.12,0.121,0.27,0.18,0.45,0.18h1.933c0.18,0,0.314-0.059,0.435-0.18      c0.12-0.119,0.194-0.27,0.194-0.448V314.955z"
             id="path14"
             fill="#49CAD8" /></g></g></g><g
       id="g16"
       transform="matrix( 1, 0, 0, 1, 0,0) "><g
         id="g18"><g
           id="Layer2_0_FILL"><path
             d="M400.926,267.157c-0.451-0.45-0.977-0.659-1.604-0.659h-23.15c-0.629,0-1.168,0.224-1.603,0.659      c-0.45,0.449-0.66,0.974-0.66,1.603c0,0.63,0.225,1.169,0.66,1.604c0.449,0.449,0.974,0.659,1.603,0.659h23.15      c0.628,0,1.169-0.225,1.604-0.659c0.449-0.449,0.658-0.974,0.658-1.604C401.584,268.146,401.358,267.606,400.926,267.157z"
             id="path21"
             fill="#33B9A5" /></g></g></g><g
       id="g23"
       opacity="0.8"
       transform="matrix( 1, 0, 0, 1, 0,0) "><g
         id="g25"><g
           id="Layer1_0_FILL"><path
             d="M400.444,266.797c-0.539-0.314-1.107-0.389-1.723-0.225c-0.599,0.166-1.063,0.524-1.379,1.064      l-18.789,32.815c-0.314,0.539-0.39,1.123-0.225,1.724c0.164,0.599,0.524,1.062,1.063,1.378c0.539,0.314,1.124,0.39,1.723,0.225      c0.601-0.165,1.063-0.524,1.379-1.064l18.791-32.814c0.313-0.539,0.389-1.124,0.224-1.723      C401.345,267.576,400.983,267.112,400.444,266.797z"
             id="path28"
             fill="#00A88F" /></g></g></g><g
       id="g30"
       transform="matrix( 1, 0, 0, 1, 0,0) "><g
         id="g32"><g
           id="Layer0_0_FILL"><path
             d="M352.542,268.295c-0.165,0.599-0.075,1.184,0.24,1.723l19.014,32.71      c0.315,0.539,0.779,0.884,1.379,1.049c0.599,0.165,1.184,0.09,1.723-0.239c0.539-0.314,0.898-0.78,1.049-1.38      c0.165-0.599,0.09-1.168-0.225-1.723l-19.03-32.695c-0.315-0.539-0.779-0.884-1.378-1.048c-0.6-0.165-1.169-0.075-1.723,0.24      C353.051,267.247,352.706,267.696,352.542,268.295z"
             id="path35"
             fill="#49CAD8" /><path
             enable-background="new    "
             d="M363.464,267.741c-0.314-0.539-0.779-0.884-1.378-1.048      c-0.6-0.165-1.169-0.075-1.723,0.24c-0.54,0.314-0.899,0.779-1.049,1.378c-0.165,0.6-0.075,1.184,0.239,1.723l19.015,32.695      c0.315,0.539,0.779,0.884,1.379,1.049c0.599,0.165,1.184,0.09,1.723-0.239c0.539-0.314,0.899-0.78,1.05-1.38      c0.164-0.599,0.089-1.168-0.226-1.723L363.464,267.741z"
             id="path37"
             fill="#1BBDCE"
             opacity="0.8" /></g></g></g></g></svg>