<?xml version="1.0" encoding="utf-8"?>
<!-- Generator: Adobe Illustrator 16.0.0, SVG Export Plug-In . SVG Version: 6.00 Build 0)  -->
<!DOCTYPE svg PUBLIC "-//W3C//DTD SVG 1.1//EN" "http://www.w3.org/Graphics/SVG/1.1/DTD/svg11.dtd">
<svg version="1.1" id="Layer_1" xmlns="http://www.w3.org/2000/svg" xmlns:xlink="http://www.w3.org/1999/xlink" x="0px" y="0px"
	 width="578px" height="307px" viewBox="0 0 578 307" enable-background="new 0 0 578 307" xml:space="preserve">
<g>
	<g>
		<g>
			<g>
				<g>
					<path fill="#FFEC00" d="M568.315,184.181c-12.579,0-25.159,0-37.737,0c-19.392,0-38.783,0-58.174,0c-3.649,0-7.3,0-10.95,0
						c0.241,0.24,0.482,0.483,0.724,0.723c0-9.995,0-19.988,0-29.982c0-20.442,0-40.883,0-61.326c0-16.578,0-33.155,0-49.733
						c0-2.387,0-4.775,0-7.163c-0.241,0.242-0.482,0.483-0.724,0.724c12.133,0,24.265,0,36.396,0c20.003,0,40.005,0,60.007,0
						c5.573,0,11.147,0,16.722,0c0.933,0,0.933-1.447,0-1.447c-12.134,0-24.265,0-36.397,0c-20.002,0-40.004,0-60.006,0
						c-5.573,0-11.147,0-16.722,0c-0.395,0-0.723,0.329-0.723,0.723c0,9.995,0,19.989,0,29.983c0,20.442,0,40.885,0,61.326
						c0,16.578,0,33.156,0,49.732c0,2.389,0,4.777,0,7.163c0,0.395,0.328,0.723,0.723,0.723c12.58,0,25.16,0,37.738,0
						c19.392,0,38.783,0,58.174,0c3.649,0,7.3,0,10.949,0C569.249,185.626,569.249,184.181,568.315,184.181L568.315,184.181z"/>
				</g>
			</g>
			<g>
				<g>
					<g>
						<g>
							<path fill="#3FA9F5" d="M501.262,163.091c-3.749,0-7.496,0-11.244,0c-2.114,0-4.229,0-6.343,0c-0.365,0-0.729,0-1.095,0
								c0.198,0,0.149,0.268,0.149-0.124c0-5.7,0-11.4,0-17.098c0-19.073,0-38.147,0-57.22c0-1.996,0-3.99,0-5.986
								c0-0.119,0-0.238,0-0.357c0,0.1-0.267,0.142-0.045,0.142c0.23,0,0.461,0,0.691,0c2.007,0,4.013,0,6.021,0
								c3.944,0,7.891,0,11.836,0c-0.147,0-0.127-0.282-0.127,0.045c0,0.245,0,0.49,0,0.736c0,0.93,0,1.86,0,2.791
								c0,18.459,0,36.919,0,55.377c0,7.284,0,14.567,0,21.852c0,0.201,0.312,0.201,0.312,0c0-14.671,0-29.339,0-44.008
								c0-12.316,0-24.633,0-36.949c0-0.085-0.071-0.157-0.155-0.157c-6.229,0-12.459,0-18.688,0c-0.085,0-0.157,0.072-0.157,0.157
								c0,14.668,0,29.339,0,44.008c0,12.315,0,24.632,0,36.949c0,0.084,0.072,0.156,0.157,0.156c6.229,0,12.459,0,18.688,0
								C501.463,163.404,501.463,163.091,501.262,163.091z"/>
						</g>
					</g>
					<g>
						<g>
							<path fill="#3FA9F5" d="M529.843,163.091c-3.748,0-7.497,0-11.243,0c-2.114,0-4.229,0-6.343,0c-0.365,0-0.731,0-1.095,0
								c0.198,0,0.148,0.268,0.148-0.124c0-5.7,0-11.4,0-17.098c0-19.073,0-38.147,0-57.22c0-1.996,0-3.99,0-5.986
								c0-0.119,0-0.238,0-0.357c0,0.1-0.266,0.142-0.044,0.142c0.23,0,0.461,0,0.69,0c2.007,0,4.014,0,6.021,0
								c3.945,0,7.891,0,11.836,0c-0.147,0-0.128-0.282-0.128,0.045c0,0.245,0,0.49,0,0.736c0,0.93,0,1.86,0,2.791
								c0,18.459,0,36.919,0,55.377c0,7.284,0,14.567,0,21.852c0,0.201,0.313,0.201,0.313,0c0-14.671,0-29.339,0-44.008
								c0-12.316,0-24.633,0-36.949c0-0.085-0.072-0.157-0.156-0.157c-6.23,0-12.46,0-18.689,0c-0.085,0-0.155,0.072-0.155,0.157
								c0,14.668,0,29.339,0,44.008c0,12.315,0,24.632,0,36.949c0,0.084,0.07,0.156,0.155,0.156c6.229,0,12.459,0,18.689,0
								C530.044,163.404,530.044,163.091,529.843,163.091z"/>
						</g>
					</g>
					<g>
						<g>
							<path fill="#3FA9F5" d="M558.423,163.091c-3.748,0-7.495,0-11.243,0c-2.114,0-4.229,0-6.343,0c-0.364,0-0.729,0-1.095,0
								c0.199,0,0.148,0.268,0.148-0.124c0-5.7,0-11.4,0-17.098c0-19.073,0-38.147,0-57.22c0-1.996,0-3.99,0-5.986
								c0-0.119,0-0.238,0-0.357c0,0.1-0.266,0.142-0.044,0.142c0.23,0,0.461,0,0.69,0c2.007,0,4.015,0,6.021,0
								c3.945,0,7.89,0,11.836,0c-0.148,0-0.127-0.282-0.127,0.045c0,0.245,0,0.49,0,0.736c0,0.93,0,1.86,0,2.791
								c0,18.459,0,36.919,0,55.377c0,7.284,0,14.567,0,21.852c0,0.201,0.312,0.201,0.312,0c0-14.671,0-29.339,0-44.008
								c0-12.316,0-24.633,0-36.949c0-0.085-0.07-0.157-0.156-0.157c-6.229,0-12.459,0-18.688,0c-0.086,0-0.156,0.072-0.156,0.157
								c0,14.668,0,29.339,0,44.008c0,12.315,0,24.632,0,36.949c0,0.084,0.07,0.156,0.156,0.156c6.229,0,12.458,0,18.688,0
								C558.624,163.404,558.624,163.091,558.423,163.091z"/>
						</g>
					</g>
				</g>
				<g>
					<g>
						<g>
							<g>
								<path fill="#FFEC00" d="M501.262,162.523c-6.229,0-12.459,0-18.688,0c0.24,0.242,0.481,0.483,0.723,0.725
									c0-14.671,0-29.339,0-44.008c0-12.316,0-24.633,0-36.949c-0.241,0.241-0.482,0.482-0.723,0.723c6.229,0,12.459,0,18.688,0
									c-0.242-0.241-0.483-0.482-0.725-0.723c0,14.668,0,29.339,0,44.008c0,12.315,0,24.632,0,36.949c0,0.932,1.447,0.932,1.447,0
									c0-14.671,0-29.339,0-44.008c0-12.316,0-24.633,0-36.949c0-0.395-0.329-0.724-0.723-0.724c-6.229,0-12.459,0-18.688,0
									c-0.395,0-0.724,0.329-0.724,0.724c0,14.668,0,29.339,0,44.008c0,12.315,0,24.632,0,36.949c0,0.393,0.329,0.723,0.724,0.723
									c6.229,0,12.459,0,18.688,0C502.195,163.971,502.195,162.523,501.262,162.523z"/>
							</g>
						</g>
						<g>
							<g>
								<path fill="#FFEC00" d="M501.262,162.368c-6.227,0-12.455,0-18.682,0c-0.67,0-1.055,1.051-0.365,1.348
									c0.003-0.012,0.006-0.021,0.008-0.032c0.438,0.434,1.253,0.13,1.236-0.512c-0.183-6.614-0.007-13.258-0.007-19.875
									c0-6.858,0-13.715,0-20.573c0-13.473,0-26.945,0-40.418c0-0.779-0.939-0.906-1.348-0.364
									c0.043-0.044,0.085-0.089,0.128-0.133c-0.473,0.309-0.49,1.211,0.173,1.322c1.085,0.182,2.28,0.041,3.379,0.041
									c1.618,0,3.239,0,4.858,0c3.53,0,7.06,0,10.59,0c0.732,0,0.971-0.974,0.365-1.348c0.044,0.049,0.088,0.098,0.131,0.147
									c-0.355-0.632-1.346-0.348-1.347,0.365c-0.029,13.535,0,27.069,0,40.603c0,7.009,0,14.019,0,21.028
									c0,3.643,0,7.284,0,10.926c0,1.714,0,3.428,0,5.141c0,1.064-0.468,3.068,0.368,3.877c0.286,0.277,0.736,0.277,1.022,0
									c0.547-0.53,0.368-1.218,0.368-1.939c0-1.274,0-2.551,0-3.825c0-2.766,0-5.527,0-8.292c0-5.315,0-10.629,0-15.944
									c0-10.623,0-21.248,0-31.869c0-5.31,0-10.618,0-15.927c0-1.273,0-2.548,0-3.822c0-0.368-0.339-0.758-0.688-0.854
									c-0.96-0.264-2.309-0.025-3.308-0.025c-1.453,0-2.906,0-4.36,0c-2.49,0-4.982,0-7.475,0c-0.874,0-4.617-0.706-4.617,0.879
									c0,5.314,0,10.63,0,15.945c0,15.087,0,30.175,0,45.263c0,3.821,0,7.644,0,11.465c0,1.912,0,3.823,0,5.734
									c0,0.91-0.465,2.756,0.515,3.329c0.433,0.254,1.141,0.098,1.61,0.098c1.039,0,2.076,0,3.114,0c1.87,0,3.738,0,5.607,0
									c1.868,0,3.737,0,5.605,0c1.047,0,2.983,0.454,3.777-0.368c0.277-0.286,0.277-0.734,0-1.023
									c-0.049-0.051-0.101-0.103-0.15-0.155c-0.649-0.672-1.671,0.352-1.022,1.023c0.049,0.052,0.101,0.104,0.151,0.155
									c0-0.34,0-0.681,0-1.023c-0.06,0.062-1.365-0.055-1.509-0.055c-0.623,0-1.247,0-1.869,0c-1.246,0-2.491,0-3.738,0
									c-2.699,0-5.399,0-8.098,0c-0.624,0-1.245,0-1.869,0c-0.837,0-0.679,0.137-0.679-0.706c0-1.274,0-2.549,0-3.823
									c0-2.761,0-5.52,0-8.281c0-10.62,0-21.24,0-31.862c0-10.63,0-21.26,0-31.889c0-0.289-0.047-3.259,0.056-3.259
									c1.247,0,2.492,0,3.737,0c2.7,0,5.399,0,8.1,0c1.245,0,2.491,0,3.737,0c0.623,0,1.246,0,1.868,0
									c0.122,0,0.057,1.27,0.057,1.344c0,2.76,0,5.521,0,8.281c0,11.684,0,23.365,0,35.048c0,5.952,0,11.905,0,17.857
									c0,2.976,0,5.952,0,8.93c0,1.488,0,2.977,0,4.464c0,0.638,0,1.276,0,1.914c0,0.276,0.19,2.06,0.056,2.19
									c0.34,0,0.681,0,1.022,0c-0.138-0.134,0.056-1.931,0.056-2.209c0-0.858,0-1.716,0-2.572c0-1.713,0-3.428,0-5.14
									c0-3.428,0-6.855,0-10.284c0-6.793,0-13.587,0-20.38c0-13.322-0.027-26.644,0-39.966c-0.449,0.122-0.897,0.244-1.348,0.365
									c0.096,0.17,0.224,0.271,0.387,0.372c0.122-0.45,0.244-0.899,0.365-1.348c-3.114,0-6.229,0-9.345,0c-1.633,0-3.266,0-4.9,0
									c-1.33,0-2.888,0.23-4.197,0.011c0.058,0.441,0.115,0.882,0.172,1.323c0.167-0.109,0.273-0.229,0.392-0.386
									c-0.449-0.122-0.898-0.244-1.349-0.366c0,13.473,0,26.945,0,40.418c0,6.858,0,13.715,0,20.573
									c0,6.617-0.175,13.261,0.006,19.875c0.412-0.17,0.823-0.341,1.235-0.512c-0.095-0.092-0.182-0.144-0.301-0.194
									c-0.122,0.45-0.244,0.899-0.365,1.349c6.227,0,12.455,0,18.682,0C502.195,163.814,502.195,162.368,501.262,162.368z"/>
							</g>
						</g>
					</g>
					<g>
						<g>
							<g>
								<path fill="#FFEC00" d="M529.843,162.523c-6.23,0-12.46,0-18.689,0c0.241,0.242,0.482,0.483,0.724,0.725
									c0-14.671,0-29.339,0-44.008c0-12.316,0-24.633,0-36.949c-0.241,0.241-0.482,0.482-0.724,0.723c6.229,0,12.459,0,18.689,0
									c-0.241-0.241-0.482-0.482-0.724-0.723c0,14.668,0,29.339,0,44.008c0,12.315,0,24.632,0,36.949c0,0.932,1.446,0.932,1.446,0
									c0-14.671,0-29.339,0-44.008c0-12.316,0-24.633,0-36.949c0-0.395-0.328-0.724-0.723-0.724c-6.23,0-12.46,0-18.689,0
									c-0.395,0-0.723,0.329-0.723,0.724c0,14.668,0,29.339,0,44.008c0,12.315,0,24.632,0,36.949c0,0.393,0.328,0.723,0.723,0.723
									c6.229,0,12.459,0,18.689,0C530.775,163.971,530.775,162.523,529.843,162.523z"/>
							</g>
						</g>
						<g>
							<g>
								<path fill="#FFEC00" d="M529.843,162.368c-6.228,0-12.454,0-18.681,0c-0.671,0-1.057,1.051-0.366,1.348
									c0.003-0.012,0.006-0.021,0.009-0.032c0.438,0.434,1.252,0.13,1.234-0.512c-0.181-6.614-0.006-13.258-0.006-19.875
									c0-6.858,0-13.715,0-20.573c0-13.473,0-26.945,0-40.418c0-0.779-0.939-0.906-1.348-0.364
									c0.043-0.044,0.086-0.089,0.129-0.133c-0.475,0.309-0.491,1.211,0.172,1.322c1.086,0.182,2.281,0.041,3.379,0.041
									c1.619,0,3.238,0,4.858,0c3.529,0,7.06,0,10.59,0c0.732,0,0.972-0.974,0.366-1.348c0.044,0.049,0.088,0.098,0.131,0.147
									c-0.356-0.632-1.346-0.348-1.348,0.365c-0.029,13.535,0,27.069,0,40.603c0,7.009,0,14.019,0,21.028
									c0,3.643,0,7.284,0,10.926c0,1.714,0,3.428,0,5.141c0,1.064-0.468,3.068,0.368,3.877c0.287,0.277,0.735,0.277,1.022,0
									c0.547-0.53,0.369-1.218,0.369-1.939c0-1.274,0-2.551,0-3.825c0-2.766,0-5.527,0-8.292c0-5.315,0-10.629,0-15.944
									c0-10.623,0-21.248,0-31.869c0-5.31,0-10.618,0-15.927c0-1.273,0-2.548,0-3.822c0-0.368-0.339-0.758-0.688-0.854
									c-0.961-0.264-2.31-0.025-3.307-0.025c-1.454,0-2.907,0-4.36,0c-2.492,0-4.984,0-7.477,0c-0.873,0-4.617-0.706-4.617,0.879
									c0,5.314,0,10.63,0,15.945c0,15.087,0,30.175,0,45.263c0,3.821,0,7.644,0,11.465c0,1.912,0,3.823,0,5.734
									c0,0.91-0.463,2.756,0.516,3.329c0.434,0.254,1.14,0.098,1.611,0.098c1.037,0,2.075,0,3.113,0c1.869,0,3.739,0,5.607,0
									c1.869,0,3.737,0,5.606,0c1.045,0,2.983,0.454,3.777-0.368c0.277-0.286,0.277-0.734,0-1.023
									c-0.05-0.051-0.101-0.103-0.151-0.155c-0.648-0.672-1.671,0.352-1.022,1.023c0.05,0.052,0.101,0.104,0.15,0.155
									c0-0.34,0-0.681,0-1.023c-0.058,0.062-1.364-0.055-1.509-0.055c-0.622,0-1.245,0-1.868,0c-1.246,0-2.492,0-3.737,0
									c-2.699,0-5.399,0-8.099,0c-0.623,0-1.245,0-1.868,0c-0.839,0-0.68,0.137-0.68-0.706c0-1.274,0-2.549,0-3.823
									c0-2.761,0-5.52,0-8.281c0-10.62,0-21.24,0-31.862c0-10.63,0-21.26,0-31.889c0-0.289-0.046-3.259,0.056-3.259
									c1.247,0,2.492,0,3.737,0c2.701,0,5.399,0,8.099,0c1.246,0,2.492,0,3.738,0c0.622,0,1.245,0,1.869,0
									c0.121,0,0.055,1.27,0.055,1.344c0,2.76,0,5.521,0,8.281c0,11.684,0,23.365,0,35.048c0,5.952,0,11.905,0,17.857
									c0,2.976,0,5.952,0,8.93c0,1.488,0,2.977,0,4.464c0,0.638,0,1.276,0,1.914c0,0.276,0.192,2.06,0.057,2.19
									c0.341,0,0.682,0,1.022,0c-0.139-0.134,0.056-1.931,0.056-2.209c0-0.858,0-1.716,0-2.572c0-1.713,0-3.428,0-5.14
									c0-3.428,0-6.855,0-10.284c0-6.793,0-13.587,0-20.38c0-13.322-0.028-26.644,0-39.966c-0.449,0.122-0.897,0.244-1.347,0.365
									c0.095,0.17,0.223,0.271,0.386,0.372c0.121-0.45,0.244-0.899,0.365-1.348c-3.115,0-6.229,0-9.345,0
									c-1.633,0-3.267,0-4.899,0c-1.332,0-2.888,0.23-4.198,0.011c0.059,0.441,0.116,0.882,0.173,1.323
									c0.167-0.109,0.272-0.229,0.39-0.386c-0.448-0.122-0.897-0.244-1.347-0.366c0,13.473,0,26.945,0,40.418
									c0,6.858,0,13.715,0,20.573c0,6.617-0.176,13.261,0.005,19.875c0.413-0.17,0.823-0.341,1.234-0.512
									c-0.094-0.092-0.182-0.144-0.301-0.194c-0.121,0.45-0.242,0.899-0.363,1.349c6.227,0,12.453,0,18.681,0
									C530.775,163.814,530.775,162.368,529.843,162.368z"/>
							</g>
						</g>
					</g>
					<g>
						<g>
							<g>
								<path fill="#FFEC00" d="M558.423,162.523c-6.229,0-12.459,0-18.688,0c0.241,0.242,0.481,0.483,0.723,0.725
									c0-14.671,0-29.339,0-44.008c0-12.316,0-24.633,0-36.949c-0.241,0.241-0.481,0.482-0.723,0.723c6.229,0,12.458,0,18.688,0
									c-0.241-0.241-0.482-0.482-0.723-0.723c0,14.668,0,29.339,0,44.008c0,12.315,0,24.632,0,36.949c0,0.932,1.445,0.932,1.445,0
									c0-14.671,0-29.339,0-44.008c0-12.316,0-24.633,0-36.949c0-0.395-0.328-0.724-0.723-0.724c-6.229,0-12.459,0-18.688,0
									c-0.395,0-0.725,0.329-0.725,0.724c0,14.668,0,29.339,0,44.008c0,12.315,0,24.632,0,36.949c0,0.393,0.33,0.723,0.725,0.723
									c6.229,0,12.458,0,18.688,0C559.355,163.971,559.355,162.523,558.423,162.523z"/>
							</g>
						</g>
						<g>
							<g>
								<path fill="#FFEC00" d="M558.423,162.368c-6.227,0-12.454,0-18.681,0c-0.669,0-1.056,1.051-0.366,1.348
									c0.003-0.012,0.006-0.021,0.01-0.032c0.438,0.434,1.253,0.13,1.234-0.512c-0.181-6.614-0.005-13.258-0.005-19.875
									c0-6.858,0-13.715,0-20.573c0-13.473,0-26.945,0-40.418c0-0.779-0.941-0.906-1.35-0.364
									c0.043-0.044,0.086-0.089,0.129-0.133c-0.474,0.309-0.491,1.211,0.174,1.322c1.084,0.182,2.281,0.041,3.379,0.041
									c1.619,0,3.237,0,4.856,0c3.53,0,7.062,0,10.591,0c0.731,0,0.971-0.974,0.365-1.348c0.044,0.049,0.088,0.098,0.132,0.147
									c-0.356-0.632-1.346-0.348-1.349,0.365c-0.029,13.535,0,27.069,0,40.603c0,7.009,0,14.019,0,21.028
									c0,3.643,0,7.284,0,10.926c0,1.714,0,3.428,0,5.141c0,1.064-0.468,3.068,0.368,3.877c0.287,0.277,0.736,0.277,1.023,0
									c0.548-0.53,0.368-1.218,0.368-1.939c0-1.274,0-2.551,0-3.825c0-2.766,0-5.527,0-8.292c0-5.315,0-10.629,0-15.944
									c0-10.623,0-21.248,0-31.869c0-5.31,0-10.618,0-15.927c0-1.273,0-2.548,0-3.822c0-0.368-0.339-0.758-0.688-0.854
									c-0.959-0.264-2.309-0.025-3.306-0.025c-1.454,0-2.906,0-4.36,0c-2.492,0-4.984,0-7.476,0c-0.873,0-4.617-0.706-4.617,0.879
									c0,5.314,0,10.63,0,15.945c0,15.087,0,30.175,0,45.263c0,3.821,0,7.644,0,11.465c0,1.912,0,3.823,0,5.734
									c0,0.91-0.465,2.756,0.514,3.329c0.434,0.254,1.141,0.098,1.611,0.098c1.038,0,2.077,0,3.115,0c1.868,0,3.737,0,5.605,0
									c1.869,0,3.738,0,5.607,0c1.046,0,2.982,0.454,3.776-0.368c0.278-0.286,0.278-0.734,0-1.023
									c-0.05-0.051-0.1-0.103-0.15-0.155c-0.649-0.672-1.671,0.352-1.023,1.023c0.051,0.052,0.101,0.104,0.152,0.155
									c0-0.34,0-0.681,0-1.023c-0.06,0.062-1.366-0.055-1.509-0.055c-0.624,0-1.246,0-1.869,0c-1.246,0-2.492,0-3.737,0
									c-2.7,0-5.399,0-8.1,0c-0.622,0-1.245,0-1.868,0c-0.837,0-0.679,0.137-0.679-0.706c0-1.274,0-2.549,0-3.823
									c0-2.761,0-5.52,0-8.281c0-10.62,0-21.24,0-31.862c0-10.63,0-21.26,0-31.889c0-0.289-0.047-3.259,0.056-3.259
									c1.246,0,2.491,0,3.738,0c2.699,0,5.399,0,8.098,0c1.246,0,2.492,0,3.737,0c0.624,0,1.247,0,1.869,0
									c0.121,0,0.057,1.27,0.057,1.344c0,2.76,0,5.521,0,8.281c0,11.684,0,23.365,0,35.048c0,5.952,0,11.905,0,17.857
									c0,2.976,0,5.952,0,8.93c0,1.488,0,2.977,0,4.464c0,0.638,0,1.276,0,1.914c0,0.276,0.191,2.06,0.055,2.19
									c0.341,0,0.683,0,1.023,0c-0.138-0.134,0.056-1.931,0.056-2.209c0-0.858,0-1.716,0-2.572c0-1.713,0-3.428,0-5.14
									c0-3.428,0-6.855,0-10.284c0-6.793,0-13.587,0-20.38c0-13.322-0.028-26.644,0-39.966c-0.448,0.122-0.898,0.244-1.348,0.365
									c0.097,0.17,0.224,0.271,0.386,0.372c0.123-0.45,0.244-0.899,0.366-1.348c-3.114,0-6.229,0-9.344,0
									c-1.635,0-3.268,0-4.901,0c-1.331,0-2.888,0.23-4.196,0.011c0.057,0.441,0.114,0.882,0.172,1.323
									c0.166-0.109,0.271-0.229,0.391-0.386c-0.449-0.122-0.897-0.244-1.348-0.366c0,13.473,0,26.945,0,40.418
									c0,6.858,0,13.715,0,20.573c0,6.617-0.177,13.261,0.006,19.875c0.411-0.17,0.823-0.341,1.234-0.512
									c-0.094-0.092-0.183-0.144-0.301-0.194c-0.123,0.45-0.244,0.899-0.365,1.349c6.227,0,12.454,0,18.681,0
									C559.355,163.814,559.355,162.368,558.423,162.368z"/>
							</g>
						</g>
					</g>
				</g>
			</g>
			<g>
				<g>
					<path fill="none" stroke="#FFEC00" stroke-width="1.5" stroke-miterlimit="10" d="M476.945,144.713"/>
				</g>
				<g>
					<path fill="none" stroke="#FFEC00" stroke-width="1.5" stroke-miterlimit="10" d="M476.945,122.769"/>
				</g>
				<g>
					<path fill="none" stroke="#FFEC00" stroke-width="1.5" stroke-miterlimit="10" d="M476.945,100.825"/>
				</g>
			</g>
		</g>
		<g>
			<g>
				<g>
					<path fill="#FFEC00" d="M399.302,184.181c-13.479,0-26.957,0-40.437,0c-17.371,0-34.742,0-52.113,0c-0.908,0-1.817,0-2.727,0
						c-0.932,0-0.932,1.445,0,1.445c13.479,0,26.959,0,40.438,0c17.371,0,34.742,0,52.113,0c0.909,0,1.817,0,2.726,0
						C400.235,185.626,400.235,184.181,399.302,184.181L399.302,184.181z"/>
				</g>
			</g>
			<g>
				<g>
					<path fill="#FFEC00" d="M290.989,37.422c10.589,0,21.177,0,31.767,0c20.619,0,41.238,0,61.858,0c13.933,0,27.864,0,41.797,0
						c0.514,0,1.025,0,1.538,0c-0.241-0.241-0.481-0.482-0.723-0.724c0,16.056,0,32.111,0,48.166c0,3.287,0,6.574,0,9.862
						c0,0.934,1.446,0.934,1.446,0c0-16.055,0-32.11,0-48.166c0-3.287,0-6.575,0-9.862c0-0.394-0.329-0.723-0.724-0.723
						c-10.589,0-21.178,0-31.765,0c-20.62,0-41.24,0-61.86,0c-13.932,0-27.864,0-41.797,0c-0.512,0-1.025,0-1.538,0
						C290.057,35.976,290.057,37.422,290.989,37.422L290.989,37.422z"/>
				</g>
			</g>
			<g>
				<g>
					<path fill="#FFEC00" d="M302.377,175.808c23.895-0.155,47.799,0.786,71.686-0.166c0.395-0.014,0.725-0.317,0.725-0.723
						c0-21.216,0-42.433,0-63.65c0-5.301,0-10.602,0-15.903c0-2.54,0-5.081,0-7.621c0-1.269,0-2.537,0-3.806
						c0-0.501-0.375-1.094-0.865-1.245c-0.947-0.291-2.081-0.082-3.062-0.06c-1.28,0.028-2.562,0.052-3.843,0.075
						c-2.773,0.05-5.548,0.083-8.322,0.108c-5.333,0.049-10.667,0.056-16.001,0.047c-15.119-0.026-30.241-0.202-45.361-0.081
						c-0.933,0.008-0.934,1.455,0,1.447c21.309-0.171,42.616,0.242,63.923,0.008c2.562-0.028,5.122-0.069,7.684-0.118
						c1.28-0.024,2.561-0.054,3.842-0.084c0.956-0.023,0.56,3.724,0.56,4.344c0,5.295,0,10.591,0,15.888c0,10.618,0,21.237,0,31.854
						c0,12.933,0,25.866,0,38.798c0.241-0.239,0.481-0.481,0.723-0.723c-23.887,0.952-47.791,0.01-71.686,0.164
						C301.443,174.366,301.443,175.812,302.377,175.808L302.377,175.808z"/>
				</g>
			</g>
			<g>
				<g>
					<path fill="#FFEC00" d="M297.332,175.808c0.646,0,1.293,0,1.938,0c0.933,0,0.933-1.447,0-1.447c-0.646,0-1.292,0-1.938,0
						C296.399,174.36,296.399,175.808,297.332,175.808L297.332,175.808z"/>
				</g>
			</g>
			<g>
				<g>
					<path fill="#FFEC00" d="M300.168,116.926c4.586,5.366,9.172,10.732,13.757,16.097c0.245,0.288,0.775,0.278,1.023,0
						c4.132-4.619,8.264-9.238,12.396-13.857c-0.378-0.05-0.758-0.098-1.137-0.146c4.182,7.067,8.363,14.137,12.544,21.206
						c0.255,0.43,1.015,0.51,1.249,0c5.045-11.037,10.09-22.074,15.135-33.11c0.385-0.841-0.862-1.578-1.249-0.731
						c-5.045,11.039-10.09,22.074-15.135,33.111c0.417,0,0.833,0,1.249,0c-4.181-7.069-8.362-14.137-12.543-21.207
						c-0.229-0.383-0.822-0.498-1.137-0.146c-4.132,4.62-8.264,9.239-12.396,13.858c0.341,0,0.682,0,1.023,0
						c-4.587-5.366-9.171-10.732-13.758-16.098C300.584,115.194,299.566,116.221,300.168,116.926L300.168,116.926z"/>
				</g>
			</g>
			<g>
				<g>
					<path fill="#FFEC00" d="M296.609,116.416c0.124,2.302,1.768,3.946,4.07,4.07c2.298,0.124,3.955-1.954,4.07-4.07
						c0.124-2.299-1.954-3.958-4.07-4.071C298.381,112.22,296.723,114.299,296.609,116.416c-0.051,0.932,1.396,0.927,1.446,0
						c0.183-3.383,5.065-3.383,5.247,0c0.183,3.384-5.066,3.365-5.247,0C298.005,115.486,296.559,115.482,296.609,116.416z"/>
				</g>
			</g>
			<g>
				<g>
					<path fill="#FFEC00" d="M310.365,132.511c0.125,2.303,1.768,3.947,4.071,4.071c2.298,0.124,3.956-1.954,4.069-4.071
						c0.125-2.297-1.952-3.957-4.069-4.071C312.138,128.317,310.48,130.396,310.365,132.511c-0.049,0.934,1.397,0.928,1.447,0
						c0.182-3.381,5.064-3.381,5.247,0c0.183,3.384-5.065,3.366-5.247,0C311.763,131.584,310.316,131.579,310.365,132.511z"/>
				</g>
			</g>
			<g>
				<g>
					<path fill="#FFEC00" d="M322.761,118.655c0.124,2.302,1.769,3.945,4.071,4.069c2.297,0.123,3.957-1.954,4.069-4.069
						c0.124-2.298-1.952-3.958-4.069-4.071C324.533,114.46,322.875,116.537,322.761,118.655c-0.05,0.932,1.397,0.927,1.446,0
						c0.183-3.384,5.066-3.384,5.248,0c0.184,3.383-5.065,3.365-5.248,0C324.158,117.727,322.711,117.722,322.761,118.655z"/>
				</g>
			</g>
			<g>
				<g>
					<path fill="#FFEC00" d="M335.305,140.039c0.123,2.303,1.768,3.947,4.071,4.071c2.298,0.124,3.955-1.956,4.069-4.071
						c0.125-2.297-1.954-3.957-4.069-4.071C337.077,135.846,335.418,137.922,335.305,140.039c-0.051,0.933,1.397,0.928,1.447,0
						c0.182-3.381,5.064-3.383,5.247,0c0.183,3.385-5.067,3.367-5.247,0C336.702,139.111,335.254,139.107,335.305,140.039z"/>
				</g>
			</g>
			<g>
				<g>
					<path fill="#FFEC00" d="M350.439,106.75c0.124,2.303,1.768,3.947,4.07,4.071c2.298,0.123,3.957-1.954,4.071-4.071
						c0.123-2.297-1.954-3.957-4.071-4.07C352.213,102.556,350.554,104.633,350.439,106.75c-0.05,0.934,1.396,0.928,1.446,0
						c0.182-3.383,5.066-3.383,5.249,0c0.182,3.384-5.067,3.366-5.249,0C351.836,105.821,350.39,105.817,350.439,106.75z"/>
				</g>
			</g>
			<g>
				<g>
					<path fill="#FFEC00" d="M391.286,103.946c6.351,0,12.701,0,19.051,0c0.934,0,0.934-1.448,0-1.448c-6.35,0-12.7,0-19.051,0
						C390.354,102.498,390.354,103.946,391.286,103.946L391.286,103.946z"/>
				</g>
			</g>
			<g>
				<g>
					<path fill="#FFEC00" d="M391.286,111.442c6.351,0,12.701,0,19.051,0c0.934,0,0.934-1.445,0-1.445c-6.35,0-12.7,0-19.051,0
						C390.354,109.997,390.354,111.442,391.286,111.442L391.286,111.442z"/>
				</g>
			</g>
			<g>
				<g>
					<path fill="#FFEC00" d="M391.286,118.942c6.351,0,12.701,0,19.051,0c0.934,0,0.934-1.447,0-1.447c-6.35,0-12.7,0-19.051,0
						C390.354,117.495,390.354,118.942,391.286,118.942L391.286,118.942z"/>
				</g>
			</g>
			<g>
				<g>
					<path fill="#FFEC00" d="M391.286,126.44c6.351,0,12.701,0,19.051,0c0.934,0,0.934-1.447,0-1.447c-6.35,0-12.7,0-19.051,0
						C390.354,124.993,390.354,126.44,391.286,126.44L391.286,126.44z"/>
				</g>
			</g>
			<g>
				<g>
					<path fill="#FFEC00" d="M391.286,133.938c6.351,0,12.701,0,19.051,0c0.934,0,0.934-1.447,0-1.447c-6.35,0-12.7,0-19.051,0
						C390.354,132.492,390.354,133.938,391.286,133.938L391.286,133.938z"/>
				</g>
			</g>
			<g>
				<g>
					<path fill="#FFEC00" d="M391.286,141.437c6.351,0,12.701,0,19.051,0c0.934,0,0.934-1.447,0-1.447c-6.35,0-12.7,0-19.051,0
						C390.354,139.99,390.354,141.437,391.286,141.437L391.286,141.437z"/>
				</g>
			</g>
			<g>
				<g>
					<path fill="#FFEC00" d="M391.286,148.935c6.351,0,12.701,0,19.051,0c0.934,0,0.934-1.447,0-1.447c-6.35,0-12.7,0-19.051,0
						C390.354,147.488,390.354,148.935,391.286,148.935L391.286,148.935z"/>
				</g>
			</g>
			<g>
				<g>
					<path fill="#FFEC00" d="M391.286,156.433c6.351,0,12.701,0,19.051,0c0.934,0,0.934-1.445,0-1.445c-6.35,0-12.7,0-19.051,0
						C390.354,154.987,390.354,156.433,391.286,156.433L391.286,156.433z"/>
				</g>
			</g>
			<g>
				<g>
					<path fill="#FFEC00" d="M391.286,163.931c6.351,0,12.701,0,19.051,0c0.934,0,0.934-1.446,0-1.446c-6.35,0-12.7,0-19.051,0
						C390.354,162.484,390.354,163.931,391.286,163.931L391.286,163.931z"/>
				</g>
			</g>
			<g>
				<g>
					<path fill="#FFEC00" d="M391.286,171.43c6.351,0,12.701,0,19.051,0c0.934,0,0.934-1.446,0-1.446c-6.35,0-12.7,0-19.051,0
						C390.354,169.983,390.354,171.43,391.286,171.43L391.286,171.43z"/>
				</g>
			</g>
			<g>
				<g>
					<g>
						<path fill="#FFFFFF" d="M399.414,62.25c-2.663-4.841-8.52-7.521-13.837-7.571c-1.986-0.019-3.968-0.096-5.931,0.231
							c-1.86,0.31-3.461,0.661-5.346,0.841c-2.261,0.217-4.525,0.604-6.552,1.681c-4.406,2.34-6.472,8.123-7.16,12.803
							c-1.101,8.123,0.414,17.623,7.849,22.579c5.782,3.718,14.455,5.784,21.064,3.304C402.167,91.162,405.473,73.264,399.414,62.25
							z"/>
					</g>
					<g>
						<g>
							<path fill="#FFEC00" d="M400.038,61.885c-3.972-6.907-12.582-8.846-19.994-7.759c-2.358,0.345-4.704,0.727-7.065,1.053
								c-2.243,0.309-4.411,0.862-6.348,2.076c-2.974,1.865-4.684,5.265-5.749,8.487c-2.178,6.582-1.875,14.541,1.148,20.798
								c3.355,6.944,11.062,10.332,18.369,11.229c9.098,1.116,16.974-3.959,20.476-12.278
								C404.01,78.044,403.896,69.049,400.038,61.885c-0.441-0.822-1.691-0.091-1.248,0.73c6.046,11.227,2.443,29.8-11.288,33.361
								c-4.191,1.087-8.743,0.376-12.785-0.956c-3.979-1.313-7.655-3.504-10.11-6.958c-4.339-6.104-4.479-15.008-2.331-21.936
								c0.959-3.087,2.662-6.104,5.456-7.855c1.772-1.112,3.962-1.498,6.005-1.74c2.05-0.243,4.067-0.576,6.102-0.925
								c6.904-1.182,15.229,0.537,18.952,7.008C399.255,63.423,400.504,62.695,400.038,61.885z"/>
						</g>
					</g>
				</g>
				<g>
					<g>
						<path fill="#FFEC00" d="M378.203,80.919c-0.28,0.786-0.818,1.839-0.465,2.682c0.475,1.131,1.894,1.208,2.952,1.263
							c0.424,0.022,0.685-0.349,0.723-0.724c0.076-0.729,0.03-1.478,0-2.208c-0.01-0.237-0.125-0.519-0.357-0.625
							c-0.597-0.274-1.194-0.547-1.79-0.821c-0.842-0.385-1.577,0.861-0.73,1.25c0.597,0.274,1.192,0.547,1.79,0.82
							c-0.12-0.208-0.238-0.416-0.358-0.625c0.03,0.73,0.075,1.48,0,2.208c0.241-0.241,0.482-0.482,0.724-0.723
							c-0.453-0.024-0.897-0.059-1.336-0.186c-0.067-0.019-0.261-0.125-0.241-0.109c-0.082-0.071,0.004,0.101-0.043-0.104
							c0.036,0.162,0.021-0.182,0.008-0.085c0.023-0.159,0.069-0.316,0.115-0.469c0.115-0.393,0.268-0.775,0.405-1.161
							C379.911,80.423,378.513,80.047,378.203,80.919z"/>
					</g>
				</g>
				<g>
					<g>
						<path fill="#FFEC00" d="M386.338,81.268c0.651,0.571,1.07,1.433,1.364,2.238c0.169-0.296,0.338-0.593,0.506-0.889
							c-1.217,0.389-2.507,0.546-3.704,0.996c0.306,0.232,0.61,0.465,0.916,0.697c0.068-0.877,0.136-1.754,0.205-2.631
							c-0.12,0.208-0.238,0.417-0.358,0.625c0.649-0.308,1.298-0.615,1.947-0.922c0.843-0.399,0.108-1.647-0.729-1.25
							c-0.649,0.308-1.299,0.615-1.947,0.923c-0.239,0.113-0.341,0.383-0.358,0.625c-0.069,0.877-0.137,1.754-0.206,2.631
							c-0.034,0.445,0.492,0.856,0.916,0.698c1.195-0.45,2.487-0.607,3.704-0.997c0.352-0.112,0.644-0.508,0.505-0.89
							c-0.378-1.033-0.898-2.142-1.738-2.877C386.662,79.633,385.635,80.652,386.338,81.268z"/>
					</g>
				</g>
				<g>
					<g>
						<path fill="#FFEC00" d="M380.065,84.23c0.938,1.441,1.072,3.205,1.404,4.853c0.137,0.679,1.281,0.707,1.395,0
							c0.259-1.614,0.634-3.328,2.196-4.148c0.828-0.434,0.096-1.682-0.729-1.25c-1.904,1-2.541,3.016-2.861,5.013
							c0.465,0,0.93,0,1.395,0c-0.357-1.78-0.535-3.642-1.549-5.199C380.808,82.722,379.555,83.446,380.065,84.23L380.065,84.23z"/>
					</g>
				</g>
				<g>
					<g>
						<path fill="#FFEC00" d="M388.346,84.012c3.561,0.913,5.907,4.166,6.919,7.547c0.268,0.891,1.663,0.511,1.396-0.385
							c-1.155-3.859-3.878-7.519-7.931-8.557C387.826,82.385,387.442,83.781,388.346,84.012L388.346,84.012z"/>
					</g>
				</g>
				<g>
					<g>
						<path fill="#FFEC00" d="M377.529,83.002c-4.146,2.535-5.795,7.223-5.857,11.898c-0.013,0.934,1.434,0.933,1.446,0
							c0.057-4.154,1.437-8.383,5.142-10.648C379.054,83.766,378.328,82.514,377.529,83.002L377.529,83.002z"/>
					</g>
				</g>
				<g>
					<g>
						<path fill="#FFEC00" d="M379.812,76.257c1.419,0.953,3.059,0.451,4.143-0.752c0.623-0.691-0.397-1.717-1.023-1.023
							c-0.67,0.745-1.493,1.128-2.39,0.525C379.766,74.486,379.041,75.739,379.812,76.257L379.812,76.257z"/>
					</g>
				</g>
				<g>
					<g>
						<path fill="#FFEC00" d="M383.443,71.647c0.932,0,0.932-1.447,0-1.447C382.511,70.2,382.511,71.647,383.443,71.647
							L383.443,71.647z"/>
					</g>
				</g>
				<g>
					<g>
						<path fill="#FFEC00" d="M377.662,71.51c0.933,0,0.933-1.447,0-1.447C376.729,70.063,376.729,71.51,377.662,71.51
							L377.662,71.51z"/>
					</g>
				</g>
				<g>
					<g>
						<path fill="#FFEC00" d="M375.012,66.068c-0.167,4.346-0.478,11.869,4.712,13.571c2.01,0.658,4.824,0.158,6.45-1.182
							c1.78-1.469,1.924-4.37,2.104-6.469c-0.178,0.232-0.354,0.465-0.531,0.698c1.694-0.311,2.846-2.201,1.938-3.822
							c-1.151-2.055-3.742-0.955-4.438,0.859c0.465,0.128,0.929,0.257,1.394,0.385c0.46-1.821-1.276-3.301-0.747-4.951
							c0.285-0.891-1.111-1.269-1.396-0.385c-0.263,0.815-0.284,1.518-0.037,2.339c0.278,0.925,1.054,1.551,0.786,2.612
							c-0.233,0.922,1.065,1.239,1.394,0.385c0.434-1.127,1.842-1.136,1.856,0.154c0.007,0.697-0.608,0.931-1.134,1.028
							c-0.332,0.061-0.506,0.396-0.53,0.697c-0.15,1.745-0.253,3.893-1.492,5.266c-1.224,1.354-3.95,1.411-5.54,0.889
							c-1.996-0.654-2.676-3.205-3.031-5.008c-0.456-2.307-0.4-4.728-0.311-7.066C376.494,65.136,375.047,65.139,375.012,66.068
							L375.012,66.068z"/>
					</g>
				</g>
				<g>
					<g>
						<path fill="#FFEC00" d="M389.044,68.342c-0.2-0.662,0.041-1.193,0.174-1.841c0.198-0.961-0.022-1.912-0.333-2.822
							c-0.237-0.696-0.768-1.014-1.452-1.148c-0.388-0.076-0.308-0.394-0.469-0.708c-0.222-0.432-0.5-0.687-0.89-0.97
							c-0.754-0.551-1.476,0.706-0.729,1.249c0.521,0.381,0.398,1.214,0.98,1.532c0.258,0.14,0.441,0.219,0.723,0.293
							c0.639,0.167,0.731,0.955,0.795,1.542c0.124,1.152-0.551,2.08-0.194,3.259C387.918,69.618,389.314,69.238,389.044,68.342
							L389.044,68.342z"/>
					</g>
				</g>
				<g>
					<g>
						<path fill="#FFEC00" d="M386.429,76.075c0.017,0.912,0.542,1.78,1.528,1.817c0.395,0.015,0.724-0.34,0.724-0.723
							c0-0.405-0.329-0.708-0.724-0.724c-0.084-0.004-0.074-0.002,0.029,0.008c-0.167-0.032,0.127,0.075-0.02-0.005
							c-0.064-0.044-0.057-0.037,0.024,0.02c-0.128-0.113,0.077,0.128-0.021-0.018c-0.021-0.031-0.038-0.063-0.055-0.097
							c0.081,0.153,0.002-0.004-0.01-0.042c-0.009-0.028-0.045-0.223-0.021-0.046c-0.008-0.062-0.008-0.126-0.011-0.189
							c-0.007-0.394-0.322-0.723-0.723-0.723C386.763,75.352,386.421,75.681,386.429,76.075L386.429,76.075z"/>
					</g>
				</g>
				<g>
					<g>
						<path fill="#FFEC00" d="M386.896,81.083c-0.117-0.938-0.225-1.877-0.288-2.821c-0.061-0.926-1.509-0.932-1.447,0
							c0.063,0.944,0.172,1.883,0.289,2.821c0.048,0.392,0.292,0.723,0.723,0.723C386.531,81.807,386.944,81.476,386.896,81.083
							L386.896,81.083z"/>
					</g>
				</g>
				<g>
					<g>
						<path fill="#FFEC00" d="M389.218,92.617c0.288,0.986,0.579,1.962,1.051,2.878c0.428,0.829,1.677,0.096,1.249-0.731
							c-0.413-0.802-0.652-1.668-0.904-2.532C390.352,91.338,388.955,91.719,389.218,92.617L389.218,92.617z"/>
					</g>
				</g>
				<g>
					<g>
						<path fill="#FFEC00" d="M374.136,93.095c-0.265,0.841-0.268,1.627-0.314,2.495c-0.05,0.933,1.397,0.928,1.446,0
							c0.042-0.746,0.035-1.386,0.263-2.11C375.812,92.588,374.414,92.208,374.136,93.095L374.136,93.095z"/>
					</g>
				</g>
			</g>
			<g>
				<g>
					<path fill="#FFEC00" d="M381.921,68.517c0.61,0.146,1.284,0.157,1.716,0.666c0.255,0.301,0.761,0.262,1.022,0
						c0.297-0.295,0.256-0.722,0-1.022c-0.614-0.726-1.485-0.831-2.354-1.038C381.398,66.906,381.014,68.301,381.921,68.517
						L381.921,68.517z"/>
				</g>
			</g>
			<g>
				<g>
					<path fill="#FFEC00" d="M377.096,68.97c0.497-0.062,1.041-0.112,1.453-0.431c0.312-0.24,0.479-0.616,0.26-0.989
						c-0.18-0.308-0.676-0.501-0.989-0.26c-0.053,0.041-0.106,0.076-0.163,0.108c-0.075,0.038-0.078,0.04-0.01,0.007
						c-0.044,0.014-0.086,0.027-0.131,0.04c-0.088,0.025-0.181,0.041-0.271,0.057c-0.087,0.013-0.091,0.014-0.014,0.004
						c-0.046,0.005-0.09,0.012-0.135,0.017c-0.392,0.048-0.723,0.292-0.723,0.723C376.373,68.604,376.704,69.019,377.096,68.97
						L377.096,68.97z"/>
				</g>
			</g>
			<g>
				<g>
					<path fill="#FFEC00" d="M379.5,72.188c0.049-0.073-0.052,0.02-0.035,0.014c-0.122,0.045-0.248,0.062-0.377,0.073
						c-0.315,0.025-0.634,0.008-0.951,0.028c-0.348,0.021-0.576,0.21-0.698,0.531c-0.463,1.225,0.725,1.933,1.787,1.957
						c0.935,0.021,0.932-1.426,0-1.446c-0.147-0.003-0.315-0.021-0.426-0.072c-0.113-0.054-0.074-0.054-0.04-0.004
						c0.047,0.067,0.016,0.11,0.074-0.049c-0.232,0.177-0.465,0.354-0.697,0.531c0.951-0.06,2.006,0.07,2.613-0.832
						C381.271,72.142,380.018,71.419,379.5,72.188L379.5,72.188z"/>
				</g>
			</g>
			<g>
				<g>
					<path fill="#FFEC00" d="M386.222,60.966c-1.235-1.066-2.757-1.033-4.308-0.909c-1.003,0.081-1.997,0.082-3.004,0.082
						c-1.127,0-2.08-0.445-3.179-0.535c-1.485-0.124-2.317,1.458-2.505,2.675c-0.268,1.733,0.363,3.465,1.847,4.415
						c0.789,0.504,1.513-0.748,0.731-1.25c-1.227-0.783-1.484-2.541-0.907-3.812c0.513-1.131,2.471-0.106,3.381-0.046
						c1.198,0.08,2.439,0.021,3.636-0.081c1.077-0.093,2.396-0.282,3.285,0.484C385.9,62.595,386.928,61.577,386.222,60.966
						L386.222,60.966z"/>
				</g>
			</g>
			<g>
				<g>
					<path fill="#FFEC00" d="M376.1,66.693c1.396-0.765,3.129-0.812,4.685-0.855c1.442-0.04,2.89,0.375,4.312,0.17
						c0.921-0.133,0.528-1.526-0.384-1.395c-1.475,0.212-3.184-0.261-4.709-0.195c-1.569,0.068-3.238,0.26-4.634,1.025
						C374.553,65.893,375.282,67.142,376.1,66.693L376.1,66.693z"/>
				</g>
			</g>
		</g>
		<g>
			<g>
				<path fill="#FFEC00" d="M492.159,169.049c-0.6-1.337-2.002-1.639-3.119-0.716c-0.902,0.746-1.552,2.176-0.989,3.303
					c0.678,1.356,2.5,1.547,3.699,0.841c1.379-0.813,1.506-2.553,0.296-3.574c-0.707-0.599-1.736,0.419-1.021,1.023
					c1.405,1.188-1.264,2.096-1.683,1.077c-0.193-0.474,0.17-1.13,0.582-1.527c0.185-0.179,0.408-0.263,0.535-0.266
					c0.13-0.003,0.318,0.271,0.452,0.569C491.292,170.629,492.539,169.893,492.159,169.049L492.159,169.049z"/>
			</g>
		</g>
		<g>
			<g>
				<path fill="#FFEC00" d="M521.424,169.117c-0.57-1.271-1.914-1.547-2.973-0.673c-0.854,0.706-1.454,2.058-0.922,3.121
					c0.64,1.281,2.362,1.467,3.496,0.798c1.303-0.77,1.431-2.424,0.285-3.393c-0.708-0.598-1.736,0.42-1.023,1.022
					c0.482,0.408,0.545,0.768,0.007,1.121c-0.258,0.171-0.54,0.215-0.846,0.194c-0.143-0.01-0.291-0.101-0.409-0.174
					c-0.078-0.047-0.141-0.12-0.204-0.185c0.07,0.071-0.058-0.12-0.014-0.013c-0.086-0.211-0.056-0.367,0.038-0.652
					c0.085-0.255,0.277-0.506,0.487-0.707c0.067-0.066,0.14-0.113,0.254-0.178c0.084-0.049,0.139-0.052,0.202-0.053
					c-0.134,0.003,0.054,0.016,0.086,0.026c-0.119-0.039,0.071,0.075,0.01,0.021c0.134,0.117,0.204,0.294,0.275,0.452
					c0.161,0.36,0.678,0.442,0.989,0.26C521.531,169.893,521.585,169.478,521.424,169.117L521.424,169.117z"/>
			</g>
		</g>
		<g>
			<g>
				<path fill="#FFEC00" d="M550.919,169.002c-0.619-1.384-2.064-1.703-3.223-0.746c-0.935,0.773-1.619,2.259-1.034,3.43
					c0.705,1.408,2.596,1.604,3.84,0.871c1.431-0.844,1.558-2.643,0.305-3.703c-0.708-0.597-1.736,0.421-1.023,1.023
					c1.509,1.274-1.352,2.336-1.832,1.17c-0.221-0.537,0.2-1.237,0.622-1.643c0.192-0.185,0.431-0.288,0.589-0.291
					c0.18-0.003,0.383,0.338,0.508,0.617C550.051,170.58,551.297,169.844,550.919,169.002L550.919,169.002z"/>
			</g>
		</g>
	</g>
	<g>
		<g>
			<path fill="#FFEC00" d="M301.946,96.526c-0.164-0.367-0.481-0.687-0.883-0.778c-0.455-0.104-0.876,0.066-1.222,0.353
				c-0.579,0.479-0.89,1.365-0.541,2.063c0.421,0.841,1.562,0.984,2.312,0.542c0.865-0.509,0.996-1.67,0.22-2.326
				c-0.301-0.254-0.727-0.296-1.023,0c-0.261,0.26-0.3,0.768,0,1.023c0.036,0.028,0.069,0.057,0.1,0.088
				c0.14,0.131-0.063-0.112,0.027,0.035c0.089,0.145-0.041-0.142-0.003,0.012c-0.051-0.204-0.031,0.05,0.002-0.16
				c-0.008,0.03-0.014,0.058-0.023,0.085c0.055-0.176,0.024-0.063-0.01-0.009c0.1-0.156,0.03-0.043-0.01-0.003
				c-0.117,0.117,0.133-0.087-0.008,0.007c-0.029,0.017-0.059,0.033-0.089,0.048c0.163-0.085,0.029-0.015-0.018,0
				c-0.046,0.014-0.208,0.028-0.013,0.01c-0.051,0.004-0.104,0-0.156-0.003c0.189,0.014,0.032-0.004-0.016-0.019
				c0.164,0.051,0.012,0-0.027-0.025c0.135,0.083-0.012-0.017-0.039-0.044c0.141,0.143,0.001-0.048,0.08,0.143
				c-0.073-0.178-0.012,0.146-0.012-0.051c-0.001-0.156-0.035,0.175-0.005,0.019c0.008-0.045,0.023-0.088,0.037-0.131
				c0.051-0.154-0.071,0.149,0.001,0.003c0.021-0.043,0.046-0.083,0.072-0.123c0.088-0.139-0.105,0.123,0-0.004
				c0.029-0.035,0.062-0.066,0.095-0.1c0.06-0.049,0.044-0.041-0.042,0.029c0.033-0.026,0.07-0.048,0.107-0.069
				c0.131-0.073-0.163,0.056-0.023,0.013c0.139-0.042-0.184,0.01-0.042,0.007c-0.182,0.004-0.127-0.025-0.044,0.001
				c-0.189-0.061-0.012,0.042-0.146-0.077c0.117,0.105-0.086-0.137,0.01,0.009c0.033,0.051,0.059,0.106,0.082,0.162
				c0.162,0.358,0.678,0.441,0.99,0.259C302.054,97.301,302.107,96.886,301.946,96.526L301.946,96.526z"/>
		</g>
	</g>
	<g>
		<g>
			<path fill="#FFEC00" d="M315.385,96.386c-0.165-0.367-0.482-0.687-0.883-0.778c-0.455-0.102-0.877,0.069-1.223,0.354
				c-0.578,0.479-0.888,1.364-0.541,2.062c0.422,0.841,1.562,0.986,2.313,0.543c0.864-0.51,0.995-1.671,0.22-2.328
				c-0.301-0.253-0.728-0.295-1.022,0c-0.263,0.262-0.302,0.77,0,1.023c0.034,0.028,0.067,0.058,0.098,0.088
				c0.14,0.132-0.062-0.11,0.028,0.036c0.09,0.145-0.042-0.142-0.004,0.011c-0.049-0.203-0.029,0.051,0.002-0.159
				c-0.006,0.029-0.014,0.058-0.023,0.087c0.055-0.179,0.025-0.064-0.008-0.011c0.098-0.157,0.028-0.043-0.01-0.003
				c-0.119,0.116,0.131-0.087-0.01,0.005c-0.029,0.018-0.059,0.035-0.088,0.05c0.162-0.085,0.028-0.015-0.019,0
				c-0.046,0.014-0.208,0.028-0.011,0.008c-0.053,0.005-0.105,0.001-0.157-0.001c0.188,0.012,0.032-0.004-0.017-0.019
				c0.164,0.051,0.012-0.001-0.027-0.026c0.135,0.083-0.012-0.017-0.039-0.044c0.141,0.143,0.003-0.047,0.082,0.143
				c-0.074-0.176-0.012,0.146-0.014-0.049c0-0.157-0.035,0.175-0.005,0.019c0.01-0.045,0.023-0.088,0.037-0.132
				c0.052-0.154-0.071,0.15,0.001,0.003c0.021-0.042,0.047-0.083,0.072-0.122c0.088-0.141-0.105,0.122,0-0.004
				c0.03-0.034,0.063-0.067,0.097-0.099c0.058-0.051,0.042-0.042-0.044,0.029c0.034-0.027,0.071-0.048,0.108-0.069
				c0.13-0.074-0.163,0.055-0.024,0.013c0.139-0.043-0.184,0.009-0.041,0.007c-0.182,0.002-0.126-0.025-0.045,0
				c-0.188-0.06-0.011,0.044-0.146-0.076c0.119,0.103-0.085-0.137,0.012,0.009c0.033,0.05,0.057,0.105,0.08,0.16
				c0.162,0.36,0.678,0.443,0.99,0.259C315.492,97.161,315.547,96.747,315.385,96.386L315.385,96.386z"/>
		</g>
	</g>
	<g>
		<g>
			<path fill="#FFEC00" d="M342.261,96.386c-0.164-0.367-0.481-0.687-0.884-0.778c-0.453-0.102-0.874,0.069-1.221,0.354
				c-0.579,0.479-0.889,1.364-0.541,2.062c0.422,0.841,1.562,0.986,2.313,0.543c0.864-0.51,0.995-1.671,0.22-2.328
				c-0.301-0.253-0.728-0.295-1.023,0c-0.261,0.262-0.301,0.77,0,1.023c0.034,0.028,0.067,0.058,0.1,0.088
				c0.139,0.132-0.064-0.11,0.027,0.036c0.088,0.145-0.042-0.142-0.003,0.011c-0.052-0.203-0.032,0.051,0.001-0.159
				c-0.007,0.029-0.014,0.058-0.023,0.087c0.054-0.179,0.023-0.064-0.01-0.011c0.1-0.157,0.031-0.043-0.01-0.003
				c-0.117,0.116,0.133-0.087-0.01,0.005c-0.027,0.018-0.058,0.035-0.086,0.05c0.162-0.085,0.028-0.015-0.019,0
				c-0.046,0.014-0.208,0.028-0.011,0.008c-0.053,0.005-0.105,0.001-0.157-0.001c0.188,0.012,0.03-0.004-0.017-0.019
				c0.162,0.051,0.012-0.001-0.027-0.026c0.135,0.083-0.012-0.017-0.039-0.044c0.141,0.143,0.002-0.047,0.08,0.143
				c-0.072-0.176-0.011,0.146-0.012-0.049c0-0.157-0.035,0.175-0.005,0.019c0.009-0.045,0.023-0.088,0.037-0.132
				c0.052-0.154-0.073,0.15,0.001,0.003c0.021-0.042,0.047-0.083,0.072-0.122c0.088-0.141-0.105,0.122,0-0.004
				c0.029-0.034,0.062-0.067,0.096-0.099c0.059-0.051,0.043-0.042-0.043,0.029c0.033-0.027,0.07-0.048,0.107-0.069
				c0.131-0.074-0.163,0.055-0.023,0.013c0.139-0.043-0.184,0.009-0.041,0.007c-0.183,0.002-0.127-0.025-0.046,0
				c-0.188-0.06-0.01,0.044-0.146-0.076c0.118,0.103-0.085-0.137,0.011,0.009c0.033,0.05,0.059,0.105,0.082,0.16
				c0.161,0.36,0.677,0.443,0.99,0.259C342.369,97.161,342.422,96.747,342.261,96.386L342.261,96.386z"/>
		</g>
	</g>
	<g>
		<g>
			<path fill="#FFEC00" d="M328.854,96.501c-0.17-0.378-0.494-0.708-0.908-0.802c-0.464-0.105-0.896,0.071-1.25,0.364
				c-0.596,0.492-0.923,1.407-0.562,2.126c0.433,0.868,1.61,1.015,2.385,0.557c0.891-0.525,1.021-1.715,0.223-2.391
				c-0.301-0.254-0.727-0.295-1.023,0c-0.26,0.262-0.302,0.768,0,1.023c0.037,0.029,0.072,0.061,0.105,0.094
				c0.143,0.135-0.059-0.106,0.034,0.044c0.091,0.149-0.038-0.137,0.001,0.022c-0.051-0.203-0.031,0.063,0.002-0.147
				c-0.007,0.032-0.016,0.062-0.025,0.091c0.055-0.175,0.019-0.052-0.014-0.001c0.097-0.151,0.021-0.033-0.016,0.006
				c-0.122,0.12,0.127-0.084-0.018,0.011c-0.029,0.02-0.062,0.038-0.094,0.053c0.159-0.083,0.018-0.008-0.027,0.004
				c-0.041,0.013-0.213,0.029-0.023,0.011c-0.054,0.004-0.11,0.001-0.166-0.003c0.186,0.012,0.018-0.007-0.027-0.021
				c0.159,0.048-0.001-0.01-0.038-0.032c0.13,0.079-0.024-0.029-0.048-0.053c0.142,0.145-0.005-0.058,0.075,0.134
				c-0.074-0.179-0.014,0.135-0.015-0.063c0-0.161-0.035,0.171-0.003,0.01c0.008-0.047,0.023-0.092,0.038-0.138
				c0.053-0.161-0.071,0.146,0.006-0.007c0.021-0.044,0.049-0.087,0.074-0.13c0.093-0.144-0.102,0.119,0.007-0.011
				c0.032-0.037,0.066-0.072,0.101-0.105c0.06-0.051,0.047-0.042-0.037,0.023c0.036-0.028,0.074-0.05,0.115-0.072
				c0.135-0.076-0.16,0.054-0.018,0.01c0.145-0.044-0.179,0.008-0.033,0.005c-0.179,0.003-0.117-0.023-0.037,0.003
				c-0.189-0.061,0,0.048-0.137-0.072c0.123,0.107-0.08-0.134,0.019,0.018c0.034,0.054,0.06,0.112,0.085,0.169
				c0.162,0.358,0.678,0.441,0.99,0.259C328.961,97.276,329.015,96.861,328.854,96.501L328.854,96.501z"/>
		</g>
	</g>
	<g>
		<g>
			<path fill="#FFEC00" d="M355.729,96.501c-0.17-0.378-0.493-0.708-0.908-0.802c-0.464-0.105-0.895,0.071-1.249,0.364
				c-0.596,0.492-0.923,1.407-0.564,2.126c0.435,0.868,1.612,1.015,2.385,0.557c0.893-0.525,1.021-1.715,0.225-2.391
				c-0.302-0.254-0.728-0.295-1.023,0c-0.262,0.262-0.302,0.768,0,1.023c0.036,0.029,0.072,0.061,0.104,0.094
				c0.144,0.135-0.058-0.106,0.035,0.044c0.092,0.149-0.037-0.137,0.001,0.022c-0.05-0.203-0.03,0.063,0.001-0.147
				c-0.005,0.032-0.014,0.062-0.024,0.091c0.056-0.175,0.02-0.052-0.013-0.001c0.096-0.151,0.021-0.033-0.017,0.006
				c-0.122,0.12,0.129-0.084-0.018,0.011c-0.03,0.02-0.061,0.038-0.093,0.053c0.157-0.083,0.016-0.008-0.028,0.004
				c-0.042,0.013-0.213,0.029-0.022,0.011c-0.055,0.004-0.11,0.001-0.165-0.003c0.185,0.012,0.017-0.007-0.028-0.021
				c0.157,0.048-0.002-0.01-0.038-0.032c0.13,0.079-0.026-0.029-0.048-0.053c0.141,0.145-0.005-0.058,0.074,0.134
				c-0.073-0.179-0.013,0.135-0.014-0.063c-0.002-0.161-0.035,0.171-0.005,0.01c0.01-0.047,0.025-0.092,0.04-0.138
				c0.053-0.161-0.071,0.146,0.005-0.007c0.023-0.044,0.049-0.087,0.075-0.13c0.093-0.144-0.102,0.119,0.007-0.011
				c0.03-0.037,0.066-0.072,0.101-0.105c0.06-0.051,0.047-0.042-0.037,0.023c0.036-0.028,0.074-0.05,0.113-0.072
				c0.135-0.076-0.158,0.054-0.015,0.01c0.143-0.044-0.181,0.008-0.035,0.005c-0.179,0.003-0.115-0.023-0.036,0.003
				c-0.189-0.061,0,0.048-0.136-0.072c0.121,0.107-0.083-0.134,0.017,0.018c0.035,0.054,0.061,0.112,0.087,0.169
				c0.161,0.358,0.677,0.441,0.988,0.259C355.838,97.276,355.891,96.861,355.729,96.501L355.729,96.501z"/>
		</g>
	</g>
	<g>
		<g>
			<path fill="#FFFFFF" d="M425.156,160.188c-0.083,1.325-0.148,2.66,0.156,3.859c0.411,1.621,1.798,2.184,3.355,2.395
				c3.845,0.521,7.729,0.578,11.578,1.06c0.022,0.003,0.043-0.003,0.065-0.003c0.465,0.113,0.689,0.143,1.201,0.161
				c0.229,0.009,0.438-0.112,0.57-0.29c0.39-0.018,0.428-2.363,0.02-3.067c-0.134-1.599-0.419-3.266-1.037-4.67
				c0.184-0.357,0.522-0.64,1.074-0.839c2.054-0.291,4.162-0.442,6.021-1.343c0.138-0.067,0.268-0.141,0.398-0.214
				c0.262-0.13,0.516-0.275,0.756-0.442c0.071-0.051,0.128-0.109,0.174-0.171c0.921-0.705,2.139-1.582,2.862-2.566
				c1.453-1.978,1.806-4.036,1.491-6.526c-0.282-2.238-0.801-4.397-0.727-6.65c0.739-0.04,1.657-0.167,2.044-0.553
				c1.075-1.076-0.014-3.198-0.45-4.291c-1.065-2.671-2.956-4.861-4.122-7.481c-1.312-2.958-3.65-9.396-4.865-12.394
				c-1.753-4.319-3.901-3.542-8.706-2.653c-2.556,0.472-4.466,1.721-6.395,3.423c-0.943,0.831-1.85,2.049-2.928,2.687
				c-0.963,0.568-1.997,0.96-3.01,1.425c-0.421,0.194-0.449,0.82-0.144,1.118c2.008,1.961,6.192,0.793,7.59,3.364
				c1.631,3,0.326,6.347,0.944,9.494c0.313,1.593,1.252,2.853,1.699,4.388c0.251,0.865,0.935,4.428-0.688,4.764
				c-3.801,0.786-4.631-2.86-4.538-5.515c0.121-3.471-0.896-5.697-2.877-5.736c-1.295-0.026-3.526,0.965-3.796,2.38
				c-0.339,1.776,1.341,3.542,2.819,3.805c0,0,0.907,4.963-0.653,7.113c-0.186-0.334-1.344-0.658-1.598-1.008
				c-0.209-0.288-0.64-0.502-0.977-0.255c-0.938,0.688-1.142,1.433-0.945,2.181c-0.134,0.129-0.218,0.302-0.199,0.494
				c0.474,4.412,2.615,8.322,3.827,12.54C425.151,160.176,425.153,160.181,425.156,160.188z"/>
		</g>
		<g>
			<path fill="#D17907" d="M408.933,129.419c1.138,2.195,4.237,6.713,4.619,9.146c0.259,1.647-1.255,2.481-0.662,4.057
				c0.768,2.044,0.717,0.488,2.38,0.252c0.08,0.956-0.208,1.94-1.342,2.324c-0.723,0.246,1.251,0.521,2.091,0.45
				c1.77-0.149,1.367,0.124,2.89-0.696c0.211,0.454,0.343,0.932,0.382,1.441c0.08,0.468,0.677,0.63,1.047,0.425
				c1.074-0.596,1.485-1.566,2.034-2.546c0.433,0.417,0.811,0.877,1.22,1.327c0.392,0.432,1.01,0.151,1.19-0.314
				c0.513-1.327,0.77-5.165,0.77-5.165s-2.513-0.581-2.529-3.709c-0.014-2.983,5.773-4.642,5.948-1.32
				c0.07,1.327,0.395,2.606,0.54,3.919c0.211,1.9,1.197,4.638,3.334,5.053c2.653,0.516,2.029-3.074,1.5-4.336
				c-0.871-2.083-1.298-3.732-1.146-6.047c0.141-2.158,0.279-4.229-0.462-6.294c-1.164-3.241-4.984-4.102-7.543-5.741
				c-1.377-0.884,2.305-2.351,2.653-2.536c1.01-0.532,2.046-1.052,2.986-1.702c1.828-1.263,3.607-2.584,5.805-3.136
				c4.404-1.103,9.122-1.7,13.615-2.375c0.583-0.088,0.615-0.831,0.314-1.192c-0.928-0.757-0.717-1.521,0.638-2.293
				c0.661-0.197,0.697-1.196,0-1.375c-0.14-0.309-0.277-0.617-0.417-0.926c0.087-0.026,0.173-0.047,0.257-0.074
				c0.868-0.287,0.496-1.663-0.378-1.375c-0.163,0.055-0.325,0.1-0.49,0.149c-0.222-0.072-0.462-0.032-0.626,0.172
				c-8.035,2.051-12.437-3.199-20.535-2.957c-3.993,0.12-10.518,0.68-13.971,2.557c-1.963,1.066-4.827,3.766-5.167,6.334
				c-0.214,1.61-0.096,3.158,0.261,4.735c0.577,2.568-0.279,3.652-1.5,5.703C407.001,124.105,407.523,126.698,408.933,129.419z"/>
		</g>
		<g>
			<path fill="#33CAD8" d="M522.046,144.652c0.539,0.112,1.077,0.226,1.616,0.339c0.269,0.055,0.536,0.112,0.805,0.168
				c0.006,0,0.009,0.001,0.014,0.001c0.159-0.5,0.319-1.002,0.479-1.503c0.716-2.254,1.434-4.508,2.15-6.762
				c0.057-0.178,0.113-0.354,0.17-0.532c-0.508-0.138-1.014-0.276-1.52-0.414c-2.084-0.568-4.167-1.136-6.249-1.703
				c-2.368-0.646-4.737-1.292-7.106-1.938c-0.713-0.194-1.428-0.389-2.141-0.583c-0.161-0.044-0.274-0.074-0.353-0.095
				c-0.652,1.974-1.305,3.948-1.956,5.922c-0.235,0.714-0.473,1.429-0.707,2.145c0.044,0.014,0.158,0.095,0.465,0.302
				c0.353,0.237,0.706,0.476,1.059,0.715C513.196,142.026,517.621,143.339,522.046,144.652z"/>
		</g>
		<g>
			<path fill="#FFFFFF" d="M527.06,115.373c1.771-3.71,4.901-6.556,6.794-10.188c1.544-2.965-2.076,0.101-2.88,0.927
				c-0.76,0.782-1.5,1.583-2.201,2.418c-0.275,0.33-0.721-0.091-0.56-0.432c0.67-1.411,1.305-2.843,1.884-4.293
				c0.392-0.979,0.783-1.965,1.089-2.975c0.055-0.174,0.597-2.685,0.195-2.409c-2.629,1.794-4.306,5.999-5.72,8.77
				c-0.185,0.36-0.772,0.109-0.65-0.274c0.412-1.302,0.779-2.625,1.095-3.953c0.381-1.603,1.608-5.022,0.626-6.57
				c-0.934-1.47-2.938,5.114-3.074,5.707c-0.316,1.395-0.6,2.8-0.81,4.213c-0.061,0.397-0.734,0.304-0.7-0.095
				c0.161-1.875,0.231-3.777,0.15-5.657c-0.057-1.332-0.08-2.804-0.583-4.057c-0.775-1.928-1.696-0.262-2.04,0.867
				c-1.198,3.943-1.5,8.23-1.724,12.331c-0.017,0.298-0.382,0.488-0.608,0.254c-0.72-0.754-6.23-6.01-7.017-4.176
				c-0.534,1.245,1.142,3.232,1.821,4.143c0.926,1.238,1.923,2.422,2.971,3.558c1.218,1.317,0.826,1.662,0.431,3.507
				c-1.044,4.861-2.094,9.723-3.148,14.581c3.439,0.939,6.88,1.877,10.32,2.815C523.317,128.04,524.306,121.135,527.06,115.373z"/>
		</g>
		<g>
			<path fill="#FFFFFF" d="M372.884,183.726c-1.058-4.87-2.11-9.743-3.157-14.615c-0.41-1.918-0.514-1.894,0.753-3.299
				c1.063-1.181,2.118-2.389,3.023-3.696c0.371-0.536,2.999-4.741,0.501-4.025c-2.325,0.666-4.336,2.729-5.974,4.441
				c-0.225,0.235-0.591,0.045-0.607-0.253c-0.226-4.135-0.383-8.748-1.835-12.659c-0.504-1.36-1.523-2.129-2.035-0.212
				c-0.364,1.365-0.468,2.789-0.491,4.198c-0.027,1.73,0.017,3.466,0.166,5.189c0.033,0.398-0.642,0.492-0.701,0.095
				c-0.211-1.412-0.479-2.822-0.811-4.213c-0.281-1.19-0.576-2.393-1.017-3.536c-0.057-0.147-1.506-3.475-2.058-2.169
				c-0.789,1.867,0.168,4.711,0.626,6.568c0.327,1.327,0.683,2.649,1.096,3.952c0.122,0.384-0.467,0.637-0.651,0.275
				c-0.659-1.294-1.357-2.572-2.094-3.824c-0.861-1.465-2.028-4.151-3.624-4.946c-0.491-0.244,0.255,2.612,0.324,2.813
				c0.345,1.012,0.723,2.011,1.134,2.997c0.54,1.302,1.104,2.593,1.708,3.867c0.162,0.342-0.282,0.761-0.56,0.432
				c-0.798-0.954-1.64-1.886-2.533-2.752c-0.679-0.657-1.398-1.415-2.241-1.861c-1.415-0.752-0.381,1.167-0.084,1.657
				c2.115,3.492,5.186,6.482,6.784,10.271c2.453,5.81,3.537,12.323,4.131,18.593C366.065,185.919,369.476,184.823,372.884,183.726z"
				/>
		</g>
		<g>
			<path fill="#33CAD8" d="M428.19,171.137c6.192-1.304,12.908-2.778,19.278-2.131c-0.225-1.926-0.448-3.852-0.672-5.777
				c0.026,0.228-4.726,0.488-5.453,0.565c-2.226,0.236-4.444,0.529-6.655,0.886c-3.555,0.572-7.097,1.239-10.614,2.008
				c-0.915,0.198-1.828,0.401-2.738,0.617c-0.004,0-0.005,0-0.008,0c0,0.353,0,0.704,0,1.054c0,1.4,0,2.8,0,4.2
				c0,0.074-0.007,0.135-0.017,0.189c0.023-0.008,0.044-0.016,0.071-0.023C423.64,172.146,425.911,171.616,428.19,171.137z"/>
		</g>
		<g>
			<path fill="#33CAD8" d="M378.52,192.674c0.314-0.229,0.629-0.458,0.942-0.688c0.054-0.041,0.094-0.065,0.128-0.085
				c-0.087-0.452-0.175-0.902-0.262-1.354c-0.342-1.751-0.683-3.503-1.024-5.254c-0.137-0.704-0.273-1.404-0.411-2.104
				c-0.025-0.136-0.046-0.229-0.061-0.304c-0.596,0.19-1.19,0.384-1.785,0.573c-0.777,0.249-1.554,0.5-2.33,0.751
				c0.007,0.03,0.014,0.063,0.021,0.096c0.098,0.447-0.589,0.641-0.687,0.19c-0.006-0.024-0.01-0.047-0.016-0.068
				c-5.115,1.644-10.229,3.287-15.344,4.932c-0.132,0.044-0.264,0.085-0.396,0.127c0.067,0.212,0.137,0.422,0.204,0.634
				c0.526,1.636,1.055,3.269,1.582,4.904c0.226,0.703,0.452,1.406,0.68,2.107c0.045,0.141,0.09,0.281,0.135,0.422
				c0.044-0.009,0.098-0.014,0.17-0.017c0.941-0.033,1.686-0.063,2.572-0.317C367.933,195.702,373.226,194.188,378.52,192.674z"/>
		</g>
		<g>
			<g>
				<g>
					<path fill="#1B1464" d="M429.017,124.271c2.755,1.187,4.303,4.224,4.149,7.149c-0.084,1.592-0.847,3.084-0.97,4.677
						c-0.078,1.027,0.157,1.871,0.515,2.833c0.398,1.069,0.872,2.104,1.175,3.208c0.429,1.557-1.296,0.99-2.209,0.679
						c-1.74-0.596-1.439-5.141-1.687-6.611c-0.276-1.641-1.113-3.319-2.823-3.784c-1.539-0.419-3.176,0.571-4.202,1.626
						c-3.203,3.293,0.579,7.475,4.495,5.896c0.854-0.345,0.48-1.745-0.385-1.396c-1.351,0.544-3.285,0.427-3.864-1.178
						c-0.331-0.915,0.39-1.902,0.984-2.513c0.59-0.607,1.416-1.025,2.265-1.067c1.286-0.065,1.81,1.42,2.059,2.426
						c0.509,2.045,0.156,4.327,1.077,6.274c0.759,1.603,2.102,2.027,3.802,2.127c1.662,0.098,2.175-1.11,1.953-2.549
						c-0.339-2.199-1.985-4.009-1.657-6.308c0.402-2.807,1.379-4.983,0.409-7.819c-0.722-2.112-2.293-4.028-4.356-4.918
						C428.899,122.656,428.161,123.902,429.017,124.271L429.017,124.271z"/>
				</g>
			</g>
			<g>
				<g>
					<path fill="#1B1464" d="M414.574,119.317c1.682-0.006,3.322,0.94,4.874,1.492c0.882,0.312,1.257-1.085,0.384-1.396
						c-1.695-0.604-3.416-1.55-5.258-1.544C413.641,117.872,413.641,119.32,414.574,119.317L414.574,119.317z"/>
				</g>
			</g>
			<g>
				<g>
					<path fill="#1B1464" d="M424.199,121.595c2.225-0.39,3.931-1.458,5.526-3.02c0.868-0.851,1.69-1.751,2.558-2.604
						c1.197-1.175,2.897-1.644,4.485-1.994c5.127-1.131,10.577,1.476,15.084-2.149c0.351-0.278,0.248-0.946-0.146-1.135
						c-0.806-0.388-1.559-0.746-2.18-1.411c0,0.342,0,0.683,0,1.023c1.041-0.924,2.564-0.957,3.75-1.651
						c0.365-0.214,0.521-0.842,0.146-1.136c-0.943-0.739-2.184-1.198-3.375-0.862c0.271,0.353,0.543,0.708,0.816,1.062
						c0.884-1.528,3.166-1.809,3.442-3.793c0.085-0.627-0.452-1.124-1.063-0.818c-1.184,0.593-2.634,0.749-3.901,1.111
						c-1.496,0.428-2.884,0.596-4.434,0.45c-3.085-0.293-5.859-2.059-8.863-2.766c-5.457-1.283-11.329-0.71-16.715,0.643
						c-4.022,1.009-8.322,3.096-9.8,7.268c-0.686,1.937-1.605,6.923,0.977,7.853c0.879,0.317,1.255-1.081,0.384-1.396
						c-1.057-0.381-0.453-3.644-0.334-4.415c0.258-1.667,0.891-3.041,2.049-4.3c2.83-3.071,7.671-3.904,11.6-4.505
						c5.697-0.869,11.322-0.296,16.602,2.026c2.065,0.909,4.522,1.312,6.762,1.027c1.075-0.135,2.115-0.479,3.155-0.772
						c1.102-0.308,2.218-0.455,3.249-0.974c-0.353-0.272-0.707-0.543-1.062-0.816c-0.218,1.566-2.525,2.115-3.296,3.448
						c-0.316,0.547,0.201,1.237,0.816,1.063c0.663-0.186,1.438,0.076,1.969,0.491c0.049-0.379,0.097-0.757,0.146-1.136
						c-1.335,0.782-2.847,0.815-4.044,1.877c-0.302,0.267-0.256,0.749,0,1.023c0.709,0.758,1.545,1.191,2.473,1.637
						c-0.048-0.379-0.098-0.757-0.146-1.137c-2.197,1.766-4.898,1.77-7.577,1.609c-2.522-0.149-4.878-0.273-7.362,0.274
						c-2.489,0.549-4.238,1.811-5.98,3.612c-1.811,1.873-3.434,3.431-6.097,3.898C422.897,120.362,423.288,121.755,424.199,121.595
						L424.199,121.595z"/>
				</g>
			</g>
			<g>
				<g>
					<path fill="#1B1464" d="M409.878,118.177c-0.729,1.697-2.007,3.064-2.602,4.828c-0.646,1.913-0.127,4.199,0.531,6.026
						c0.756,2.099,1.954,4.067,3.019,6.02c1.361,2.498,2.562,4.521,1.214,7.324c-0.215,0.448-0.026,0.888,0.433,1.063
						c1.354,0.515,2.881-0.135,4.002-0.873c-0.362-0.208-0.725-0.417-1.088-0.625c-0.044,1.055-0.711,2.216-1.757,2.59
						c-0.871,0.312-0.495,1.71,0.385,1.396c1.679-0.602,2.747-2.244,2.819-3.986c0.021-0.532-0.638-0.921-1.089-0.623
						c-0.817,0.536-1.885,1.106-2.888,0.725c0.144,0.354,0.289,0.709,0.432,1.062c0.814-1.692,1.124-3.296,0.594-5.121
						c-0.575-1.981-1.898-3.842-2.87-5.643c-1.217-2.255-2.416-4.507-2.542-7.119c-0.123-2.549,1.722-4.139,2.655-6.316
						C411.489,118.06,410.243,117.322,409.878,118.177L409.878,118.177z"/>
				</g>
			</g>
			<g>
				<g>
					<path fill="#1B1464" d="M416.774,146.777c1.559-0.522,2.591-2.826,2.565-4.374c-0.017-0.931-1.462-0.934-1.447,0
						c0.01,0.573-0.221,1.151-0.462,1.662c-0.204,0.43-0.548,1.153-1.04,1.318C415.511,145.678,415.888,147.075,416.774,146.777
						L416.774,146.777z"/>
				</g>
			</g>
			<g>
				<g>
					<path fill="#1B1464" d="M439.714,128.254c1.947-1.391,4.387-2.632,6.822-2.693c0.931-0.023,0.934-1.47,0-1.447
						c-2.685,0.067-5.398,1.354-7.553,2.89C438.231,127.541,438.953,128.797,439.714,128.254L439.714,128.254z"/>
				</g>
			</g>
			<g>
				<g>
					<path fill="#1B1464" d="M452.763,141.576c1.006,0.019,2.528-0.018,3.325-0.706c0.95-0.821,0.262-2.011-0.208-2.899
						c-1.01-1.907-1.749-3.936-2.746-5.846c-0.559-1.069-1.241-2.051-1.767-3.143c-0.508-1.057-0.975-2.11-1.65-3.074
						c-0.531-0.758-1.786-0.036-1.248,0.729c0.871,1.244,1.427,2.658,2.109,4.008c0.758,1.498,1.666,2.853,2.324,4.41
						c0.572,1.358,1.214,2.674,1.903,3.978c0.442,0.834,0.108,0.825-0.705,0.987c-0.478,0.095-0.836,0.119-1.338,0.109
						C451.829,140.109,451.831,141.556,452.763,141.576L452.763,141.576z"/>
				</g>
			</g>
			<g>
				<g>
					<path fill="#1B1464" d="M445.046,127.928c0.035,0.067,0.068,0.134,0.099,0.203c-0.047-0.104,0.049,0.137,0.057,0.161
						c0.056,0.159,0.099,0.321,0.14,0.484c0.101,0.382,0.515,0.609,0.891,0.506c0.384-0.106,0.604-0.509,0.505-0.891
						c-0.107-0.413-0.241-0.815-0.441-1.193c-0.185-0.349-0.66-0.453-0.99-0.259C444.955,127.145,444.861,127.581,445.046,127.928
						L445.046,127.928z"/>
				</g>
			</g>
			<g>
				<g>
					<path fill="#1B1464" d="M452.039,141.592c0.747,2.357,0.627,4.845,0.911,7.277c0.268,2.297-0.127,4.304-1.718,6.054
						c-3.244,3.567-9.398,4.491-13.926,3.996c-0.927-0.102-0.919,1.347,0,1.447c5.168,0.563,11.592-0.729,15.229-4.729
						c1.461-1.604,2.04-3.72,1.963-5.853c-0.103-2.772-0.223-5.919-1.063-8.576C453.153,140.322,451.756,140.701,452.039,141.592
						L452.039,141.592z"/>
				</g>
			</g>
			<g>
				<g>
					<path fill="#1B1464" d="M419.853,148.234c2.442,5.312,4.553,11.472,4.576,17.407c0.002,0.933,1.449,0.933,1.445,0
						c-0.024-6.204-2.218-12.583-4.773-18.136C420.712,146.657,419.465,147.393,419.853,148.234L419.853,148.234z"/>
				</g>
			</g>
			<g>
				<g>
					<path fill="#1B1464" d="M448.392,122.406c-0.89-3.318-2.419-6.521-3.928-9.599c-0.411-0.835-1.659-0.103-1.25,0.731
						c1.457,2.97,2.924,6.048,3.782,9.252C447.237,123.691,448.633,123.308,448.392,122.406L448.392,122.406z"/>
				</g>
			</g>
			<g>
				<g>
					<path fill="#1B1464" d="M439.978,159.938c0.277,1.046,0.555,2.093,0.831,3.142c0.239,0.901,1.635,0.518,1.396-0.385
						c-0.279-1.047-0.555-2.096-0.833-3.144C441.135,158.651,439.739,159.035,439.978,159.938L439.978,159.938z"/>
				</g>
			</g>
			<g>
				<g>
					<path fill="#1B1464" d="M424.955,139.656c0.118,2.285-0.137,4.873-1.405,6.854c0.441,0.058,0.881,0.116,1.322,0.174
						c-0.383-1.033-0.932-2.917-2.083-3.415c-0.388-0.168-0.975-0.075-1.063,0.432c-0.272,1.537-1.513,2.653-2.949,3.169
						c0.306,0.233,0.61,0.466,0.916,0.698c0.185-1.453,0.047-3.018-0.893-4.186c-0.583-0.728-1.601,0.302-1.022,1.022
						c0.664,0.827,0.597,2.165,0.469,3.164c-0.059,0.452,0.507,0.844,0.915,0.698c1.889-0.679,3.599-2.138,3.96-4.18
						c-0.354,0.145-0.709,0.289-1.063,0.432c0.698,0.303,1.178,1.9,1.419,2.55c0.218,0.584,0.969,0.728,1.322,0.173
						c1.398-2.184,1.734-5.062,1.602-7.585C426.354,138.728,424.905,138.724,424.955,139.656L424.955,139.656z"/>
				</g>
			</g>
			<g>
				<g>
					<path fill="#1B1464" d="M452.95,144.659c0,0-2.449,1.422-7.095,0.815c0,0,2.35,3.706,7.713,2.396"/>
				</g>
				<g>
					<g>
						<path fill="#1B1464" d="M452.586,144.035c-1.949,1.093-4.607,0.959-6.73,0.717c-0.545-0.063-0.903,0.661-0.625,1.088
							c1.833,2.811,5.48,3.396,8.531,2.727c0.911-0.199,0.523-1.595-0.385-1.395c-2.377,0.521-5.439,0.174-6.897-2.063
							c-0.208,0.363-0.416,0.725-0.624,1.089c2.384,0.273,5.283,0.308,7.461-0.916C454.13,144.826,453.4,143.577,452.586,144.035
							L452.586,144.035z"/>
					</g>
				</g>
			</g>
			<g>
				<g>
					<path fill="#1B1464" d="M447.87,168.678c-5.491-0.661-11.268,0.453-16.649,1.474c-3.502,0.663-6.996,1.435-10.441,2.352
						c0.306,0.233,0.611,0.465,0.916,0.698c0-2.06,0-4.117,0-6.176c-0.177,0.232-0.354,0.465-0.531,0.697
						c8.452-2.039,17.262-3.764,25.971-3.933c-0.241-0.24-0.482-0.481-0.724-0.723c0.245,2.111,0.491,4.222,0.736,6.333
						c0.106,0.915,1.554,0.925,1.445,0c-0.244-2.111-0.489-4.222-0.735-6.333c-0.044-0.385-0.295-0.732-0.723-0.724
						c-8.836,0.172-17.781,1.916-26.355,3.983c-0.312,0.075-0.531,0.384-0.531,0.698c0,2.059,0,4.116,0,6.176
						c0,0.473,0.462,0.817,0.916,0.697c3.32-0.885,6.688-1.62,10.059-2.278c5.377-1.05,11.154-2.156,16.647-1.496
						C448.795,170.234,448.784,168.786,447.87,168.678z"/>
				</g>
			</g>
			<g>
				<g>
					<path fill="#1B1464" d="M508.985,140.416c-0.597-0.404-1.195-0.807-1.793-1.211c0.112,0.273,0.223,0.544,0.334,0.817
						c0.949-2.878,1.899-5.756,2.85-8.633c-0.297,0.168-0.594,0.336-0.89,0.505c6.017,1.64,12.035,3.281,18.052,4.922
						c-0.168-0.298-0.336-0.595-0.505-0.891c-1.002,3.153-2.006,6.307-3.009,9.459c0.297-0.168,0.595-0.337,0.891-0.506
						c-0.924-0.193-1.848-0.386-2.771-0.581c-0.91-0.191-1.298,1.204-0.385,1.396c0.924,0.193,1.848,0.388,2.771,0.581
						c0.397,0.083,0.765-0.112,0.89-0.505c1.003-3.153,2.006-6.307,3.008-9.459c0.12-0.375-0.135-0.789-0.505-0.889
						c-6.019-1.641-12.035-3.281-18.052-4.922c-0.395-0.108-0.767,0.131-0.89,0.506c-0.95,2.877-1.9,5.755-2.851,8.633
						c-0.106,0.32,0.071,0.642,0.332,0.816c0.598,0.404,1.194,0.807,1.792,1.21C509.031,142.188,509.754,140.935,508.985,140.416
						L508.985,140.416z"/>
				</g>
			</g>
			<g>
				<g>
					<path fill="#1B1464" d="M361.074,197.908c1.397,11.375,5.591,27.609,18.528,30.845c5.222,1.305,10.388-0.602,14.802-3.34
						c5.658-3.512,10.455-8.418,14.776-13.43c2.21-2.562,4.352-5.224,6.27-8.016c0.53-0.77-0.726-1.492-1.249-0.728
						c-2.058,2.989-4.375,5.816-6.762,8.55c-4.473,5.114-9.499,10.054-15.474,13.38c-4.677,2.604-10.014,3.503-14.962,1.112
						c-5.475-2.646-8.888-8.311-11.031-13.77c-1.831-4.667-2.842-9.646-3.451-14.604
						C362.409,196.995,360.961,196.984,361.074,197.908L361.074,197.908z"/>
				</g>
			</g>
			<g>
				<g>
					<path fill="#1B1464" d="M420.779,172.503c-4.761,0.745-9.277,3.831-13.158,6.528c-1.574,1.096-2.135,3.048-3.052,4.703
						c-4.918,8.864-11.661,18.7-21.301,22.808c0.354,0.143,0.708,0.289,1.062,0.433c-1.808-4.664-3.548-9.358-5.211-14.078
						c-0.308-0.871-1.706-0.496-1.396,0.387c1.663,4.719,3.403,9.411,5.211,14.075c0.184,0.474,0.605,0.629,1.063,0.433
						c9.479-4.041,16.167-13.526,21.161-22.165c0.758-1.31,1.482-2.645,2.166-3.996c0.153-0.301,0.302-0.604,0.448-0.907
						c0.165-0.345-0.462,0.298,0.164-0.149c3.871-2.764,8.445-5.927,13.226-6.675C422.084,173.755,421.692,172.361,420.779,172.503
						L420.779,172.503z"/>
				</g>
			</g>
			<g>
				<g>
					<path fill="#FFFFFF" d="M406.661,213.737c-3.475,22.407,4.601,53.294,4.601,53.294s49.882,0,53.444,0
						c3.563,0,8.312-72.924,8.312-72.924s44.261-5.221,48.933-49.112l-13.331-3.957c-6.621,21.226-21.111,24.354-43.911,29.942
						c0,0-5.703,0.319-16.839-1.581"/>
				</g>
				<g>
					<g>
						<path fill="#1B1464" d="M405.964,213.545c-1.742,11.515-0.773,23.334,0.901,34.797c0.926,6.33,2.083,12.685,3.699,18.882
							c0.081,0.31,0.379,0.53,0.697,0.53c16.473,0,32.944,0,49.417,0c1.324,0,4.162,0.606,5.064-0.668
							c1.159-1.641,1.35-4.313,1.685-6.22c1.586-8.997,2.375-18.162,3.217-27.253c1.219-13.151,2.239-26.327,3.097-39.506
							c-0.239,0.24-0.48,0.48-0.723,0.723c4.175-0.496,8.322-1.731,12.259-3.155c8.639-3.128,16.69-7.984,23.092-14.612
							c8.416-8.715,12.994-20.124,14.305-32.067c0.036-0.32-0.246-0.614-0.53-0.698c-4.443-1.318-8.887-2.637-13.332-3.955
							c-0.389-0.116-0.772,0.135-0.89,0.505c-1.896,5.995-4.786,11.597-9.402,15.946c-4.193,3.952-9.528,6.425-14.913,8.298
							c-3.068,1.068-6.205,1.939-9.348,2.765c-1.72,0.451-3.446,0.882-5.173,1.308c-1.381,0.342-3.021,1.033-4.431,1.098
							c-5.516,0.25-11.184-0.648-16.592-1.56c-0.913-0.153-1.304,1.241-0.387,1.396c5.543,0.934,11.294,1.82,16.936,1.612
							c1.147-0.043,2.398-0.546,3.511-0.819c1.896-0.465,3.791-0.935,5.682-1.422c3.304-0.85,6.591-1.767,9.823-2.857
							c5.472-1.847,10.759-4.323,15.161-8.115c4.658-4.014,7.744-9.424,9.82-15.146c0.254-0.701,0.483-1.41,0.709-2.118
							c-0.297,0.168-0.595,0.336-0.892,0.504c4.445,1.318,8.889,2.637,13.332,3.957c-0.177-0.233-0.354-0.466-0.531-0.698
							c-1.385,12.604-6.612,24.315-15.909,33.043c-6.508,6.109-14.595,10.426-23.06,13.14c-2.195,0.703-4.428,1.293-6.686,1.757
							c-0.651,0.133-1.304,0.254-1.958,0.358c-0.189,0.03-0.378,0.061-0.568,0.086c-0.174,0.024,0.188-0.022-0.028,0.002
							c-0.412,0.05-0.694,0.296-0.724,0.726c-0.996,15.292-2.186,30.58-3.703,45.83c-0.798,8.007-1.359,16.29-3.29,24.126
							c-0.19,0.774-0.38,1.6-0.776,2.242c-0.112,0.182,0.127,0.003,0.078,0.003c-0.378,0-0.757,0-1.136,0c-3.489,0-6.979,0-10.469,0
							c-13.912,0-27.824,0-41.737,0c0.233,0.176,0.465,0.353,0.698,0.529c-1.51-5.787-2.593-11.706-3.507-17.611
							c-1.793-11.573-2.854-23.656-1.094-35.296C407.497,213.018,406.104,212.626,405.964,213.545L405.964,213.545z"/>
					</g>
				</g>
			</g>
			<g>
				<g>
					<path fill="#1B1464" d="M379.04,193.625c0.435-0.317,0.87-0.637,1.306-0.954c0.283-0.207,0.401-0.469,0.332-0.816
						c-0.624-3.208-1.249-6.416-1.874-9.623c-0.073-0.376-0.536-0.621-0.891-0.508c-7.086,2.278-14.172,4.557-21.257,6.835
						c-0.363,0.115-0.631,0.502-0.507,0.891c0.93,2.885,1.86,5.768,2.79,8.652c0.097,0.301,0.368,0.543,0.698,0.532
						c3.13-0.116,5.937-1.134,8.951-1.994c3.426-0.981,6.852-1.961,10.277-2.943c0.895-0.256,0.515-1.651-0.385-1.393
						c-3.325,0.949-6.648,1.903-9.974,2.853c-1.921,0.551-3.842,1.1-5.764,1.649c-1.252,0.358-1.66,0.328-3.106,0.38
						c0.232,0.177,0.465,0.356,0.697,0.532c-0.931-2.885-1.86-5.77-2.79-8.654c-0.168,0.298-0.336,0.593-0.506,0.891
						c7.087-2.278,14.173-4.557,21.259-6.835c-0.297-0.168-0.593-0.336-0.89-0.505c0.625,3.208,1.251,6.416,1.876,9.623
						c0.11-0.272,0.222-0.546,0.332-0.816c-0.436,0.317-0.871,0.638-1.308,0.955C377.564,192.919,378.284,194.177,379.04,193.625z"
						/>
				</g>
			</g>
			<g>
				<g>
					<path fill="#1B1464" d="M410.564,266.838c-2.428,12.183-2.569,25.119-1.462,37.479c0.083,0.921,1.529,0.929,1.446,0
						c-1.095-12.222-0.99-25.045,1.411-37.093C412.141,266.312,410.746,265.925,410.564,266.838L410.564,266.838z"/>
				</g>
			</g>
			<g>
				<g>
					<path fill="#1B1464" d="M464.16,266.838c-2.428,12.183-2.569,25.119-1.462,37.479c0.082,0.921,1.529,0.929,1.446,0
						c-1.095-12.222-0.988-25.045,1.411-37.093C465.736,266.312,464.342,265.925,464.16,266.838L464.16,266.838z"/>
				</g>
			</g>
			<g>
				<g>
					<path fill="#1B1464" d="M440.232,306.975c-1.057-5.889-0.768-12.503,1.436-18.08c-0.232,0.177-0.465,0.356-0.697,0.533
						c1.821,0.077,3.658,0.024,5.472-0.169c1.609-0.171,4.402-0.433,4.947-2.327c0.259-0.896-1.137-1.277-1.395-0.384
						c-0.391,1.352-4.082,1.332-5.126,1.396c-1.295,0.08-2.603,0.091-3.898,0.036c-0.345-0.014-0.581,0.237-0.698,0.532
						c-2.302,5.822-2.536,12.712-1.436,18.85C439.001,308.276,440.396,307.888,440.232,306.975L440.232,306.975z"/>
				</g>
			</g>
			<g>
				<g>
					<rect x="414.197" y="269.136" fill="#22B573" width="13.14" height="5.568"/>
				</g>
				<g>
					<g>
						<path fill="#1B1464" d="M427.337,273.981c-4.38,0-8.76,0-13.14,0c0.241,0.24,0.48,0.48,0.723,0.723c0-1.856,0-3.712,0-5.568
							c-0.242,0.239-0.481,0.482-0.723,0.723c4.38,0,8.76,0,13.14,0c-0.241-0.24-0.481-0.483-0.723-0.723c0,1.856,0,3.712,0,5.568
							c0,0.933,1.446,0.933,1.446,0c0-1.856,0-3.712,0-5.568c0-0.395-0.329-0.723-0.724-0.723c-4.38,0-8.76,0-13.14,0
							c-0.395,0-0.725,0.328-0.725,0.723c0,1.856,0,3.712,0,5.568c0,0.395,0.33,0.723,0.725,0.723c4.38,0,8.76,0,13.14,0
							C428.271,275.427,428.271,273.981,427.337,273.981z"/>
					</g>
				</g>
			</g>
			<g>
				<g>
					<rect x="431.141" y="269.136" fill="#22B573" width="13.14" height="5.568"/>
				</g>
				<g>
					<g>
						<path fill="#1B1464" d="M444.28,273.981c-4.38,0-8.76,0-13.14,0c0.241,0.24,0.482,0.48,0.724,0.723c0-1.856,0-3.712,0-5.568
							c-0.241,0.239-0.482,0.482-0.724,0.723c4.38,0,8.76,0,13.14,0c-0.241-0.24-0.481-0.483-0.723-0.723c0,1.856,0,3.712,0,5.568
							c0,0.933,1.446,0.933,1.446,0c0-1.856,0-3.712,0-5.568c0-0.395-0.329-0.723-0.724-0.723c-4.38,0-8.76,0-13.14,0
							c-0.395,0-0.725,0.328-0.725,0.723c0,1.856,0,3.712,0,5.568c0,0.395,0.33,0.723,0.725,0.723c4.38,0,8.76,0,13.14,0
							C445.214,275.427,445.214,273.981,444.28,273.981z"/>
					</g>
				</g>
			</g>
			<g>
				<g>
					<rect x="447.449" y="269.136" fill="#22B573" width="13.14" height="5.568"/>
				</g>
				<g>
					<g>
						<path fill="#1B1464" d="M460.589,273.981c-4.38,0-8.76,0-13.14,0c0.241,0.24,0.481,0.48,0.723,0.723c0-1.856,0-3.712,0-5.568
							c-0.241,0.239-0.481,0.482-0.723,0.723c4.38,0,8.76,0,13.14,0c-0.241-0.24-0.48-0.483-0.723-0.723c0,1.856,0,3.712,0,5.568
							c0,0.933,1.447,0.933,1.447,0c0-1.856,0-3.712,0-5.568c0-0.395-0.33-0.723-0.725-0.723c-4.38,0-8.76,0-13.14,0
							c-0.395,0-0.724,0.328-0.724,0.723c0,1.856,0,3.712,0,5.568c0,0.395,0.329,0.723,0.724,0.723c4.38,0,8.76,0,13.14,0
							C461.523,275.427,461.523,273.981,460.589,273.981z"/>
					</g>
				</g>
			</g>
			<g>
				<g>
					<path fill="#1B1464" d="M473.326,195.09c0.485-2.676,0.521-5.47,0-8.147c-0.178-0.913-1.572-0.527-1.396,0.386
						c0.468,2.405,0.437,4.976,0,7.378C471.766,195.619,473.16,196.008,473.326,195.09L473.326,195.09z"/>
				</g>
			</g>
			<g>
				<g>
					<path fill="#1B1464" d="M512.679,132.016c1.09-5.012,2.171-10.026,3.248-15.04c0.142-0.665,0.659-1.854,0.466-2.557
						c-0.181-0.656-1.161-1.354-1.59-1.834c-1.049-1.172-2.047-2.391-2.933-3.69c-0.26-0.383-2.021-2.998-0.874-3.06
						c1.332-0.07,2.954,1.513,3.875,2.293c0.772,0.654,1.515,1.354,2.213,2.088c0.457,0.48,1.202,0.091,1.233-0.513
						c0.228-4.214,0.437-8.84,1.919-12.824c0.265-0.713,0.522-1.414,0.997-0.566c0.615,1.095,0.616,2.639,0.681,3.854
						c0.108,2.009,0.04,4.047-0.134,6.053c-0.07,0.81,1.301,0.998,1.421,0.193c0.156-1.046,1.997-10.434,3.136-9.942
						c0.99,0.428-0.272,5.043-0.436,5.765c-0.349,1.543-0.767,3.077-1.245,4.584c-0.247,0.779,0.948,1.29,1.322,0.557
						c0.679-1.331,1.404-2.639,2.157-3.93c0.59-1.017,1.215-2.014,1.888-2.978c0.377-0.538,0.975-1.557,1.648-1.777
						c-0.544,0.178-0.303-0.373-0.423,0.414c-0.072,0.479-0.212,0.947-0.349,1.411c-0.314,1.062-0.72,2.099-1.131,3.125
						c-0.576,1.444-1.206,2.869-1.873,4.272c-0.329,0.695,0.575,1.547,1.136,0.877c0.767-0.916,1.579-1.791,2.419-2.637
						c0.601-0.605,1.231-1.191,1.925-1.689c0.245-0.176,0.508-0.336,0.796-0.432c-0.119-0.298-0.177-0.336-0.174-0.116
						c-0.041,0.229-0.147,0.454-0.244,0.664c-1.761,3.817-5.129,6.689-6.953,10.482c-2.884,5.996-3.89,13.198-4.489,19.777
						c-0.085,0.928,1.362,0.921,1.446,0c0.702-7.716,1.947-16.338,6.588-22.725c0.793-1.091,7.145-8.215,4.441-9.423
						c-1.295-0.577-2.816,0.997-3.66,1.765c-1.117,1.018-2.147,2.151-3.117,3.31c0.378,0.293,0.758,0.585,1.135,0.877
						c0.856-1.8,1.646-3.635,2.364-5.493c0.454-1.171,2.185-4.677,0.699-5.711c-1.579-1.104-3.525,2.405-4.128,3.328
						c-1.231,1.885-2.328,3.874-3.351,5.879c0.441,0.185,0.881,0.371,1.322,0.557c0.636-2.005,1.165-4.053,1.566-6.117
						c0.253-1.297,1.259-5.515-0.837-5.988c-2.179-0.49-3.085,2.888-3.546,4.373c-0.66,2.129-1.102,4.351-1.43,6.556
						c0.475,0.065,0.947,0.128,1.422,0.192c0.218-2.512,0.278-5.078,0.015-7.586c-0.157-1.485-1.121-5.679-3.439-3.783
						c-0.82,0.671-1.136,2.06-1.396,3.022c-0.432,1.599-0.673,3.255-0.887,4.895c-0.301,2.302-0.523,4.619-0.649,6.936
						c0.412-0.169,0.823-0.339,1.235-0.51c-1.325-1.393-7.399-7.483-8.874-3.576c-0.67,1.774,1.559,4.312,2.512,5.548
						c1.065,1.383,2.22,2.708,3.439,3.959c-0.062-0.234-0.125-0.47-0.187-0.705c-1.229,5.74-2.468,11.478-3.714,17.214
						C511.084,132.541,512.48,132.929,512.679,132.016L512.679,132.016z"/>
				</g>
			</g>
			<g>
				<g>
					<path fill="#1B1464" d="M374.092,184.209c-1.248-5.737-2.485-11.475-3.716-17.214c-0.062,0.235-0.124,0.47-0.185,0.704
						c1.22-1.249,2.372-2.576,3.438-3.959c1.11-1.438,2.938-3.567,2.511-5.548c-0.474-2.205-3.407-0.856-4.501-0.164
						c-1.606,1.019-3.064,2.366-4.372,3.74c0.411,0.169,0.823,0.34,1.234,0.51c-0.12-2.214-0.331-4.426-0.607-6.625
						c-0.32-2.533-0.491-6.089-2.23-8.134c-0.626-0.736-1.556-0.611-2.246-0.072c-0.933,0.727-1.12,2.402-1.25,3.468
						c-0.317,2.6-0.247,5.272-0.021,7.879c0.473-0.063,0.947-0.128,1.421-0.191c-0.313-2.107-0.755-4.208-1.341-6.257
						c-0.436-1.527-1.379-5.178-3.634-4.671c-2.03,0.457-1.117,4.408-0.896,5.679c0.38,2.171,0.957,4.326,1.623,6.425
						c0.441-0.186,0.883-0.372,1.323-0.557c-0.745-1.462-5.103-10.867-7.409-9.258c-1.511,1.056,0.056,4.229,0.518,5.469
						c0.732,1.963,1.576,3.894,2.476,5.785c0.379-0.292,0.757-0.584,1.137-0.877c-0.905-1.079-1.869-2.112-2.884-3.089
						c-0.855-0.824-2.532-2.593-3.894-1.984c-2.701,1.207,3.644,8.334,4.439,9.422c4.654,6.364,5.887,15.022,6.589,22.724
						c0.083,0.921,1.531,0.929,1.445,0c-0.604-6.634-1.687-13.694-4.488-19.775c-1.722-3.737-4.881-6.626-6.83-10.239
						c-0.157-0.291-0.279-0.589-0.368-0.907c0.003-0.221-0.055-0.183-0.174,0.115c0.136,0.037,0.263,0.094,0.381,0.168
						c0.796,0.42,1.469,1.107,2.11,1.726c0.935,0.899,1.816,1.869,2.649,2.864c0.561,0.67,1.466-0.184,1.135-0.877
						c-0.622-1.311-1.204-2.641-1.756-3.982c-0.587-1.432-1.904-3.804-1.629-5.41c-0.413,0.074-0.521,0.139-0.325,0.195
						c0.154,0.073,0.278,0.202,0.402,0.316c0.381,0.354,0.701,0.782,1.01,1.199c0.692,0.936,1.301,1.937,1.896,2.936
						c0.82,1.377,1.594,2.784,2.322,4.211c0.372,0.732,1.567,0.222,1.32-0.558c-0.446-1.41-0.83-2.844-1.173-4.283
						c-0.293-1.222-0.544-2.46-0.678-3.711c-0.05-0.458-0.309-2.03,0.17-2.354c0.572-0.386,2.105,4.819,2.202,5.209
						c0.388,1.559,0.698,3.145,0.934,4.733c0.12,0.805,1.491,0.616,1.422-0.193c-0.165-1.904-0.212-3.827-0.148-5.738
						c0.045-1.333,0.148-2.699,0.6-3.962c0.368-1.034,0.655-0.586,1.007,0.152c1.121,2.358,1.292,5.38,1.576,7.933
						c0.188,1.694,0.335,3.397,0.428,5.1c0.033,0.604,0.777,0.993,1.235,0.512c1.569-1.649,3.592-3.785,5.858-4.356
						c1.412-0.357-0.094,2.158-0.317,2.527c-0.874,1.438-1.978,2.738-3.085,4c-0.512,0.584-1.037,1.16-1.579,1.715
						c-0.517,0.53,0.092,1.996,0.214,2.571c1.1,5.118,2.202,10.231,3.314,15.345C372.895,185.505,374.289,185.116,374.092,184.209
						L374.092,184.209z"/>
				</g>
			</g>
		</g>
	</g>
</g>
</svg>
