<?xml version="1.0" encoding="utf-8"?>
<!-- Generator: Adobe Illustrator 16.0.0, SVG Export Plug-In . SVG Version: 6.00 Build 0)  -->
<!DOCTYPE svg PUBLIC "-//W3C//DTD SVG 1.1//EN" "http://www.w3.org/Graphics/SVG/1.1/DTD/svg11.dtd">
<svg version="1.1" xmlns="http://www.w3.org/2000/svg" xmlns:xlink="http://www.w3.org/1999/xlink" x="0px" y="0px"
	 width="350.369px" height="352.344px" viewBox="0 0 350.369 352.344" enable-background="new 0 0 350.369 352.344"
	 xml:space="preserve">
<g id="Graphs">
</g>
<g id="Characters">
	<g>
		<g>
			<g>
				<g>
					<g>
						<g id="XMLID_1_">
							<g>
								<g>
									<g>
										<path fill="#FFFFFF" d="M254.048,246.856c-11.856,2.301-23.712,4.602-35.568,6.903c-0.502,0.097-1.005,0.194-1.507,0.292
											c0.837-0.162,0.946,0.035,0.394-0.052c-1.055-0.166-2.11-0.332-3.165-0.498c-4.54-0.714-9.081-1.428-13.621-2.143
											c-29.796-4.687-59.592-9.373-89.388-14.061c-5.718-0.899-11.437-1.799-17.155-2.698c-0.133,0.982-0.266,1.964-0.399,2.946
											c12.129-1.226,24.258-2.452,36.388-3.679c2.867-0.29,2.763-0.433,5.299-0.092c4.129,0.556,8.258,1.111,12.388,1.667
											c29.629,3.986,59.258,7.972,88.887,11.958c5.816,0.782,11.633,1.565,17.449,2.348c1.891,0.255,2.708-2.636,0.798-2.893
											c-22.792-3.066-45.583-6.133-68.375-9.199c-13.921-1.873-27.842-3.746-41.763-5.619
											c-6.146-0.827-11.174-1.525-17.304-0.905c-11.256,1.138-22.511,2.276-33.767,3.414c-1.548,0.157-2.196,2.664-0.399,2.946
											c22.588,3.554,45.176,7.106,67.764,10.659c14.272,2.245,28.545,4.49,42.817,6.735c5.65,0.889,11.295,2.572,16.942,1.477
											c11.361-2.205,22.723-4.41,34.084-6.615C256.744,249.381,255.938,246.489,254.048,246.856z"/>
									</g>
								</g>
								<g>
									<g>
										<path fill="#FFFFFF" d="M148.053,246.856c-5.111,0.918-10.222,1.836-15.333,2.754c-3.302,0.593-6.604,1.186-9.907,1.778
											c-0.784,0.142-1.567,0.282-2.351,0.423c0.403-0.072,0.814,0.064-0.243-0.118c-11.246-1.938-22.491-3.876-33.737-5.813
											c0,0.964,0,1.929,0,2.893c5.18-0.889,10.359-1.777,15.539-2.666c3.077-0.528,6.153-1.056,9.229-1.584
											c2.268-0.39-0.056-0.381,2.331-0.018c11.491,1.748,22.981,3.496,34.471,5.244c1.892,0.288,2.705-2.603,0.798-2.893
											c-11.627-1.769-23.254-3.538-34.881-5.307c-3.547-0.54-7.389,0.744-10.879,1.343c-5.802,0.996-11.604,1.991-17.406,2.987
											c-1.438,0.247-1.437,2.646,0,2.893c11.347,1.955,22.694,3.911,34.042,5.866c3.643,0.628,8.322-1.153,11.882-1.793
											c5.748-1.032,11.496-2.064,17.243-3.097C150.753,249.407,149.945,246.517,148.053,246.856z"/>
									</g>
								</g>
							</g>
							<g>
								<g>
									<g>
										<path fill="#FFFFFF" d="M286.657,252.094c4.735,0,6.311-3.697,7.38-7.714c1.997-7.5,3.262-15.235,4.847-22.835
											c3.516-16.858,7.014-33.719,10.518-50.58c3.224-15.509,6.438-31.021,9.694-46.523c1.229-5.854,3.026-11.792,3.129-17.786
											c0.102-5.876-4.051-7.752-9.172-7.665c-27.828,0.479-55.654,1.46-83.474,2.272c-14.879,0.434-29.759,0.874-44.638,1.341
											c-7.577,0.238-19.51-1.523-23.995,5.959c-2.361,3.94-2.759,8.89-3.721,13.318c-0.892,4.108-1.84,8.204-2.785,12.3
											c-2.827,12.251-5.723,24.486-8.622,36.72c-4.225,17.824-8.477,35.642-12.753,53.454c-0.452,1.88,2.441,2.678,2.893,0.798
											c6.036-25.14,12.038-50.288,17.945-75.458c2.709-11.546,5.068-23.194,7.863-34.716c1.3-5.359,3.626-8.495,9.32-8.906
											c1.021-0.074,2.049-0.083,3.071-0.119c4.508-0.159,9.018-0.297,13.526-0.438c32.193-1.003,64.389-1.928,96.585-2.805
											c9.937-0.271,19.876-0.6,29.815-0.738c8.859-0.124,3.972,12.904,2.833,18.272c-1.171,5.526-2.321,11.057-3.474,16.587
											c-4.541,21.772-9.057,43.548-13.584,65.323c-1.687,8.113-3.373,16.227-5.069,24.337
											c-1.129,5.399-2.163,10.823-3.425,16.193c-0.65,2.768-1.22,6.406-4.71,6.406
											C284.723,249.094,284.723,252.094,286.657,252.094L286.657,252.094z"/>
									</g>
								</g>
							</g>
						</g>
					</g>
					<g>
						<g>
							<g>
								<path fill="#FFFFFF" d="M286.156,245.975c-0.113,5.604-2.107,7.689-7.327,8.877c-3.374,0.768-6.742,1.562-10.111,2.35
									c-10.776,2.521-21.55,5.05-32.33,7.551c-12.124,2.813-24.246,5.668-36.431,8.209c-8.291,1.729-16.914,3.626-25.438,3.066
									c-9.808-0.644-19.826-3.483-29.455-5.282c-17.882-3.342-35.766-6.677-53.65-10.008c-12.428-2.314-24.856-4.628-37.287-6.929
									c-5.818-1.077-11.664-2.047-17.387-3.566c-5.472-1.453-11.443-3.425-11.515-9.871c-0.367,0.482-0.734,0.964-1.101,1.446
									c23.782-3.38,47.564-6.759,71.347-10.139c11.402-1.621,22.805-3.241,34.208-4.861c2.072-0.294,1.501-0.305,2.984-0.107
									c3.023,0.405,6.046,0.81,9.069,1.215c48.641,6.516,97.283,13.032,145.924,19.549c1.913,0.256,1.888-2.747,0-3
									c-48.641-6.517-97.283-13.033-145.924-19.549c-4.024-0.54-8.227-1.658-12.275-1.083
									c-10.973,1.559-21.945,3.119-32.917,4.678c-24.388,3.466-48.777,6.932-73.165,10.397c-0.016,0.002-0.032,0.005-0.048,0.007
									c-0.644,0.092-1.108,0.845-1.101,1.446c0.153,13.726,20.425,14.354,30.43,16.205c15.997,2.959,31.989,5.94,47.981,8.921
									c17.128,3.191,34.256,6.388,51.382,9.59c8.84,1.653,18.143,4.295,27.197,4.009c10.63-0.336,21.317-3.124,31.635-5.429
									c12.12-2.708,24.216-5.522,36.31-8.343c9.796-2.284,19.586-4.595,29.384-6.869c2.422-0.562,5.406-0.86,7.631-1.992
									c4.202-2.137,4.892-6.097,4.98-10.488C289.195,244.039,286.195,244.043,286.156,245.975z"/>
							</g>
						</g>
						<g>
							<g>
								<path fill="#FFFFFF" d="M142.9,263.025c10.606,1.875,21.229,4.137,31.922,5.48c9.917,1.247,19.983-1.267,29.649-3.26
									c23.193-4.781,46.336-9.809,69.487-14.789c1.891-0.406,1.089-3.299-0.798-2.893c-22.568,4.854-45.134,9.729-67.736,14.427
									c-9.336,1.94-18.858,4.297-28.448,3.719c-11.094-0.669-22.372-3.649-33.279-5.577
									C141.806,259.798,140.998,262.689,142.9,263.025L142.9,263.025z"/>
							</g>
						</g>
						<g>
							<g>
								<path fill="#FFFFFF" d="M132.741,261.228c1.101,0.196,2.202,0.391,3.302,0.586c0.805,0.143,1.614-0.205,1.845-1.048
									c0.202-0.731-0.242-1.702-1.047-1.845c-1.101-0.195-2.202-0.39-3.302-0.586c-0.804-0.144-1.614,0.206-1.845,1.048
									C131.492,260.115,131.935,261.084,132.741,261.228L132.741,261.228z"/>
							</g>
						</g>
						<g>
							<g>
								<path fill="#FFFFFF" d="M23.327,241.817c31.32,5.565,62.641,11.125,93.963,16.676c1.892,0.335,2.7-2.556,0.798-2.893
									c-31.323-5.551-62.644-11.11-93.963-16.676C22.233,238.589,21.424,241.479,23.327,241.817L23.327,241.817z"/>
							</g>
						</g>
					</g>
					<g>
						<g>
							<path fill="#FFFFFF" d="M309.184,111.65c-8.844,41.333-17.688,82.666-26.532,123.998c0.482-0.367,0.964-0.734,1.446-1.101
								c-46.43-6.024-92.86-12.049-139.291-18.074c-0.503-0.065-1.006-0.13-1.509-0.196c0.482,0.633,0.964,1.266,1.446,1.899
								c8.084-34.558,16.168-69.116,24.252-103.674c-0.482,0.367-0.964,0.734-1.446,1.101c47.029-0.675,94.058-1.351,141.087-2.025
								c0.664-0.01,1.328-0.019,1.992-0.029c1.933-0.028,1.936-3.028,0-3c-47.029,0.675-94.058,1.351-141.087,2.025
								c-0.664,0.01-1.328,0.02-1.992,0.029c-0.648,0.009-1.293,0.448-1.446,1.101c-8.084,34.558-16.168,69.116-24.252,103.674
								c-0.244,1.04,0.468,1.772,1.446,1.899c46.43,6.024,92.86,12.049,139.291,18.074c0.503,0.065,1.006,0.13,1.509,0.196
								c0.624,0.081,1.321-0.515,1.446-1.101c8.844-41.333,17.688-82.666,26.532-123.998
								C312.48,110.561,309.589,109.759,309.184,111.65z"/>
						</g>
					</g>
					<g>
						<g>
							<path fill="#FFFFFF" d="M112.743,244.261c11.684,2.328,23.584,3.415,35.311,5.488c1.892,0.335,2.7-2.557,0.798-2.893
								c-11.727-2.073-23.627-3.16-35.311-5.488C111.651,240.991,110.846,243.883,112.743,244.261L112.743,244.261z"/>
						</g>
					</g>
				</g>
			</g>
			<g>
				<g>
					<path fill="#FFFFFF" d="M175.185,0.991C131.018,1.167,88.508,17.847,56.02,47.766c-32.146,29.604-51.833,71-55.463,114.438
						c-3.694,44.2,10.249,88.535,37.691,123.219c27.124,34.283,67.151,57.184,110.257,63.9c43.98,6.854,89.536-3.796,126.168-28.948
						c35.649-24.478,61.119-62.167,71.097-104.169c10.314-43.416,3.038-89.95-19.321-128.452
						c-21.658-37.295-57.296-65.422-98.259-78.6C211.097,3.655,193.118,1.062,175.185,0.991c-1.935-0.008-1.934,2.992,0,3
						c46.073,0.183,90.215,18.658,122.672,51.358c32.42,32.663,50.034,77.753,49.487,123.638
						c-0.546,45.856-20.281,89.954-53.212,121.676c-33.197,31.978-78.633,48.877-124.568,47.6
						c-45.772-1.273-89.492-21.704-120.665-55.049C17.377,259.496,1.193,213.724,3.203,167.757
						C5.122,123.875,24.7,82.06,56.238,51.68C88.031,21.054,131.16,4.166,175.185,3.991C177.119,3.983,177.12,0.983,175.185,0.991z"
						/>
				</g>
			</g>
		</g>
		<g>
			<g>
				<path fill="#FFFFFF" d="M196.8,167.397c13.532-0.378,27.149-0.553,40.648,0.615c2.741,0.237,5.617,0.454,8.293,1.113
					c-0.568-0.14-1.007,4.499-1.062,5.074c-0.858,9.123-2.533,18.151-4.316,27.131c0.482-0.367,0.964-0.734,1.446-1.101
					c-16.99-2.145-34.058-3.493-51.127-4.807c0.5,0.5,1,1,1.5,1.5c0.553-10.431,3.861-20.478,6.064-30.627
					c0.41-1.886-2.482-2.688-2.893-0.798c-2.262,10.42-5.604,20.714-6.171,31.425c-0.046,0.863,0.72,1.44,1.5,1.5
					c17.07,1.313,34.138,2.662,51.127,4.807c0.618,0.078,1.33-0.512,1.446-1.101c1.968-9.912,3.165-19.829,4.641-29.805
					c0.506-3.421,1.435-5.652-2.793-6.384c-15.764-2.731-32.383-1.987-48.304-1.542C194.869,164.452,194.864,167.452,196.8,167.397
					L196.8,167.397z"/>
			</g>
		</g>
		<g>
			<g>
				<path fill="#FFFFFF" d="M212.873,175.134c-1.723,1.75-2.101,4.041-1.418,6.364c0.18,0.614,0.229-0.998-0.017-0.351
					c-0.194,0.515-0.38,1.033-0.564,1.551c-0.5,1.402-0.977,2.825-1.264,4.288c-0.173,0.878,0.245,1.519,1.047,1.845
					c1.439,0.586,2.968,0.648,4.476,0.959c0.823,0.17,1.588-0.229,1.845-1.047c0.746-2.374,1.32-4.996,1.034-7.492
					c-0.5,0.5-1,1-1.5,1.5c3.426-0.139,6.222-2.83,4.768-6.375C219.715,172.561,215.646,172.987,212.873,175.134
					c-1.528,1.183,0.612,3.29,2.121,2.121c3.284-2.542,5.216,2.346,1.518,2.495c-0.744,0.03-1.596,0.663-1.5,1.5
					c0.26,2.267-0.25,4.54-0.926,6.694c0.615-0.349,1.23-0.698,1.845-1.047c-1.508-0.311-3.037-0.373-4.476-0.959
					c0.349,0.615,0.698,1.23,1.047,1.845c0.393-2,1.117-3.935,1.829-5.839c0.636-1.701-1.002-2.998,0.663-4.689
					C216.352,175.876,214.232,173.753,212.873,175.134z"/>
			</g>
		</g>
		<g>
			<g>
				<path fill="#FFFFFF" d="M239.275,164.447c1.587-9.939,3.601-25.045-9.163-27.986c-4.947-1.14-12.121-0.845-16.203,2.494
					c-2.774,2.268-3.341,5.861-4.359,9.155c-1.489,4.819-2.773,9.704-4.472,14.456c-0.653,1.827,2.247,2.605,2.893,0.798
					c2.067-5.782,3.596-11.745,5.457-17.594c2.185-6.867,9.589-7.559,15.888-6.416c10.857,1.972,8.303,16.557,7.067,24.295
					C236.08,165.541,238.971,166.353,239.275,164.447L239.275,164.447z"/>
			</g>
		</g>
	</g>
</g>
</svg>
