<?xml version="1.0" encoding="utf-8"?>
<!-- Generator: Adobe Illustrator 16.0.0, SVG Export Plug-In . SVG Version: 6.00 Build 0)  -->
<!DOCTYPE svg PUBLIC "-//W3C//DTD SVG 1.1//EN" "http://www.w3.org/Graphics/SVG/1.1/DTD/svg11.dtd">
<svg version="1.1" xmlns="http://www.w3.org/2000/svg" xmlns:xlink="http://www.w3.org/1999/xlink" x="0px" y="0px"
	 width="350.368px" height="350.397px" viewBox="0 0 350.368 350.397" enable-background="new 0 0 350.368 350.397"
	 xml:space="preserve">
<g id="Graphs">
</g>
<g id="Characters">
	<g>
		<g>
			<g>
				<path fill="#FFFFFF" d="M0,175.185c0.175,44.167,16.855,86.676,46.774,119.164c29.604,32.146,71,51.833,114.439,55.463
					c44.2,3.693,88.533-10.248,123.218-37.69c34.283-27.124,57.184-67.151,63.901-110.257c6.853-43.98-3.796-89.535-28.948-126.167
					c-24.478-35.649-62.167-61.119-104.169-71.097C171.8-5.713,125.265,1.563,86.764,23.922
					C49.468,45.579,21.341,81.218,8.163,122.181C2.664,139.273,0.071,157.252,0,175.185c-0.008,1.935,2.992,1.934,3,0
					c0.183-46.073,18.658-90.214,51.358-122.671C87.021,20.094,132.113,2.48,177.998,3.027
					c45.856,0.546,89.953,20.281,121.675,53.212c31.977,33.196,48.877,78.632,47.599,124.567
					c-1.273,45.771-21.704,89.491-55.049,120.664c-33.718,31.521-79.491,47.705-125.457,45.695
					c-43.883-1.919-85.698-21.496-116.078-53.034C20.062,262.338,3.175,219.209,3,175.185C2.992,173.251-0.008,173.25,0,175.185z"/>
			</g>
		</g>
		<g>
			<g>
				<g>
					<g>
						<path fill="#FFFFFF" d="M287.554,225.04c-22.469,0-44.938,0-67.407,0c0.5,0.5,1,1,1.5,1.5c0-48.003,0-96.007,0-144.01
							c0-25.387,0-50.775,0-76.162c0-1.935-3-1.935-3,0c0,48.003,0,96.007,0,144.01c0,25.387,0,50.775,0,76.162
							c0,0.818,0.682,1.5,1.5,1.5c22.469,0,44.938,0,67.407,0C289.488,228.04,289.488,225.04,287.554,225.04L287.554,225.04z"/>
					</g>
				</g>
				<g>
					<g>
						<path fill="#FFFFFF" d="M336.99,225.04c-6.284,0-12.567,0-18.851,0c-1.935,0-1.935,3,0,3c6.284,0,12.567,0,18.851,0
							C338.925,228.04,338.925,225.04,336.99,225.04L336.99,225.04z"/>
					</g>
				</g>
				<g>
					<g>
						<g>
							<g>
								<path fill="#33AAEE" d="M283.616,191.521c-5.791,0-11.581,0-17.372,0c-3.312,0-6.624,0-9.936,0c-0.773,0-1.546,0-2.319,0
									c-0.021,0,0.315,0.85,0.315,0.124c0-8.565,0-17.13,0-25.695c0-30.035,0-60.071,0-90.106c0-3.752,0-7.504,0-11.256
									c0-0.55,0-1.101,0-1.651c0,0.718-0.462,0.476,0.961,0.476c1.525,0,3.051,0,4.576,0c7.279,0,14.557,0,21.835,0
									c0.632,0,1.264,0,1.896,0c-0.511,0-0.443-0.835-0.443-0.124c0,1.036,0,2.073,0,3.109c0,27.55,0,55.1,0,82.649
									c0,14.32,0,28.64,0,42.96c0,0.627,0.973,0.627,0.973,0c0-43.027,0-86.054,0-129.081c0-0.265-0.221-0.486-0.486-0.486
									c-9.933,0-19.865,0-29.798,0c-0.265,0-0.486,0.221-0.486,0.486c0,43.027,0,86.054,0,129.081
									c0,0.265,0.221,0.486,0.486,0.486c9.933,0,19.865,0,29.798,0C284.243,192.494,284.243,191.521,283.616,191.521z"/>
							</g>
						</g>
						<g>
							<g>
								<path fill="#33AAEE" d="M299.875,192.008c0-9.257,0-18.514,0-27.771c0-0.627-0.973-0.627-0.973,0c0,9.257,0,18.514,0,27.771
									C298.902,192.635,299.875,192.635,299.875,192.008L299.875,192.008z"/>
							</g>
						</g>
						<g>
							<g>
								<path fill="#33AAEE" d="M328.701,168.776c0,5.365,0,10.73,0,16.095c0,2.317,0,4.634,0,6.951c0,0.102,0.801-0.3-0.104-0.3
									c-0.778,0-1.556,0-2.333,0c-1.281,0-2.562,0-3.843,0c-0.627,0-0.627,0.973,0,0.973c2.255,0,4.511,0,6.767,0
									c0.265,0,0.486-0.221,0.486-0.486c0-7.744,0-15.488,0-23.232C329.674,168.149,328.701,168.149,328.701,168.776
									L328.701,168.776z"/>
							</g>
						</g>
						<g>
							<g>
								<path fill="#33AAEE" d="M328.701,99.348c0,14.951,0,29.901,0,44.852c0,0.627,0.973,0.627,0.973,0
									c0-14.951,0-29.901,0-44.852C329.674,98.721,328.701,98.721,328.701,99.348L328.701,99.348z"/>
							</g>
						</g>
						<g>
							<g>
								<path fill="#33AAEE" d="M299.875,153.72c0-15.96,0-31.92,0-47.881c0-10.586,0-21.172,0-31.758c0-3.062,0-6.125,0-9.187
									c0-0.613,0-1.226,0-1.839c0,0.111-0.772,0.357,0.357,0.357c1.138,0,2.275,0,3.413,0c0.627,0,0.627-0.973,0-0.973
									c-1.419,0-2.838,0-4.257,0c-0.265,0-0.486,0.221-0.486,0.486c0,30.265,0,60.529,0,90.793
									C298.902,154.347,299.875,154.347,299.875,153.72L299.875,153.72z"/>
							</g>
						</g>
					</g>
					<g>
						<g>
							<g>
								<path fill="#FFFFFF" d="M283.616,190.508c-9.933,0-19.865,0-29.798,0c0.5,0.5,1,1,1.5,1.5c0-43.027,0-86.054,0-129.081
									c-0.5,0.5-1,1-1.5,1.5c9.933,0,19.865,0,29.798,0c-0.5-0.5-1-1-1.5-1.5c0,43.027,0,86.054,0,129.081c0,1.935,3,1.935,3,0
									c0-43.027,0-86.054,0-129.081c0-0.818-0.682-1.5-1.5-1.5c-9.933,0-19.865,0-29.798,0c-0.818,0-1.5,0.682-1.5,1.5
									c0,43.027,0,86.054,0,129.081c0,0.818,0.682,1.5,1.5,1.5c9.933,0,19.865,0,29.798,0
									C285.551,193.508,285.551,190.508,283.616,190.508z"/>
							</g>
							<g>
								<g>
									<path fill="#FFFFFF" d="M283.616,190.021c-9.875,0-19.751,0-29.626,0c-0.909,0-1.793,0.971-1.446,1.899
										c0.104,0.279,0.207,0.529,0.38,0.772c0.735,1.039,2.351,0.959,2.741-0.358c1.07-3.605,0.14-8.781,0.14-12.549
										c0-5.917,0-11.835,0-17.753c0-11.1,0-22.2,0-33.3c0-21.932,0-43.864,0-65.795c0-1.646-2.688-2.108-2.946-0.399
										c-0.022,0.148-0.045,0.295-0.067,0.443c-0.095,0.629,0.039,1.385,0.689,1.694c2.58,1.225,7.536,0.238,10.332,0.238
										c6.587,0,13.174,0,19.761,0c1.473,0,2.074-2.062,0.757-2.795c0.032,0.043,0.064,0.087,0.097,0.13
										c-0.646-1.412-2.789-0.645-2.795,0.757c-0.095,22.12-0.001,44.243-0.001,66.364c0,11.767,0,23.533,0,35.3
										c0,5.858,0,11.717,0,17.575c0,2.985-1.402,9.044,0.926,11.294c0.595,0.575,1.526,0.575,2.121,0
										c1.181-1.142,0.926-1.725,0.926-3.517c0-3.972,0-7.943,0-11.915c0-7.943,0-15.887,0-23.831c0-15.887,0-31.774,0-47.661
										c0-7.282,0-14.563,0-21.845c0-3.972,0-7.943,0-11.915c0-3.092,0.764-7.356-0.054-10.328
										c-0.211-0.767-1.114-1.587-1.933-1.587c-3.973,0-7.946,0-11.919,0c-3.973,0-7.946,0-11.919,0
										c-1.686,0-5.688-0.893-7.02,0.439c-1.17,1.17-0.926,1.716-0.926,3.533c0,3.972,0,7.943,0,11.915c0,7.943,0,15.887,0,23.831
										c0,15.887,0,31.774,0,47.661c0,7.943,0,15.887,0,23.831c0,3.972,0,7.943,0,11.915c0,2.188-0.913,6.792,0.205,8.701
										c0.879,1.5,2.209,1.229,3.768,1.229c3.973,0,7.946,0,11.919,0s7.946,0,11.919,0c2.003,0,4.034,0.595,5.504-0.926
										c0.575-0.595,0.575-1.526,0-2.121c-0.157-0.162-0.313-0.324-0.47-0.486c-1.347-1.393-3.466,0.73-2.121,2.121
										c0.157,0.162,0.313,0.324,0.47,0.486c0-0.707,0-1.414,0-2.121c-0.769,0.795-6.198,0.047-7.356,0.047
										c-3.311,0-6.622,0-9.933,0c-3.311,0-6.622,0-9.933,0c-1.783,0-0.973-7.719-0.973-8.916c0-13.239,0-26.478,0-39.717
										c0-25.816,0-51.632,0-77.449c0-1.787,14.993-0.972,16.865-0.972c3.311,0,6.622,0,9.933,0c1.783,0,0.973,7.719,0.973,8.916
										c0,13.239,0,26.478,0,39.717s0,26.478,0,39.717c0,6.62,0,13.239,0,19.859c0,3.31,0,6.619,0,9.929
										c0,1.487,0.951,8.374-0.047,9.339c0.707,0,1.414,0,2.121,0c-0.782-0.756-0.047-6.083-0.047-7.221c0-2.604,0-5.207,0-7.811
										c0-5.208,0-10.415,0-15.622c0-11.121,0-22.242,0-33.363c0-21.464-0.09-42.932,0.001-64.396
										c-0.932,0.252-1.864,0.504-2.795,0.757c0.216,0.473,0.535,0.699,0.98,0.946c0.252-0.932,0.504-1.864,0.757-2.795
										c-5.264,0-10.527,0-15.791,0c-2.647,0-5.293,0-7.94,0c-0.947,0-4.167,0.494-4.847,0.171
										c0.23,0.564,0.459,1.129,0.689,1.694c0.022-0.147,0.045-0.295,0.067-0.442c-0.982-0.133-1.964-0.266-2.946-0.399
										c0,21.279,0,42.558,0,63.837c0,10.447,0,20.894,0,31.341c0,5.247,0,10.495,0,15.742c0,2.635,0,5.271,0,7.906
										c0,2.864,0.779,7.038-0.033,9.775c0.914-0.12,1.828-0.239,2.742-0.358c-0.026-0.019-0.052-0.037-0.078-0.056
										c-0.482,0.633-0.964,1.266-1.446,1.899c9.875,0,19.751,0,29.626,0C285.551,193.021,285.551,190.021,283.616,190.021z"/>
								</g>
							</g>
						</g>
						<g>
							<g>
								<path fill="#FFFFFF" d="M300.889,192.008c0-9.257,0-18.514,0-27.771c0-1.935-3-1.935-3,0c0,9.257,0,18.514,0,27.771
									C297.889,193.942,300.889,193.942,300.889,192.008L300.889,192.008z"/>
							</g>
							<g>
								<g>
									<path fill="#FFFFFF" d="M301.375,192.008c0-5.951,0-11.902,0-17.853c0-3.012,1.422-9.179-0.926-11.449
										c-0.595-0.575-1.526-0.575-2.121,0c-1.18,1.141-0.926,1.724-0.926,3.514c0,3.967,0,7.935,0,11.902c0,3.306,0,6.612,0,9.918
										c0,2.002-0.594,4.029,0.926,5.498c0.595,0.575,1.526,0.575,2.121,0c0.162-0.157,0.324-0.313,0.486-0.47
										c1.393-1.347-0.73-3.466-2.121-2.121c-0.162,0.157-0.324,0.313-0.486,0.47c0.707,0,1.414,0,2.121,0
										c-0.573-0.555-0.047-4.586-0.047-5.36c0-2.645,0-5.29,0-7.935c0-1.984,0-3.968,0-5.951c0-1.156-0.747-6.577,0.047-7.344
										c-0.707,0-1.414,0-2.121,0c0.573,0.555,0.047,4.586,0.047,5.36c0,2.645,0,5.29,0,7.935c0,4.628,0,9.257,0,13.885
										C298.375,193.942,301.375,193.942,301.375,192.008z"/>
								</g>
							</g>
						</g>
						<g>
							<g>
								<path fill="#FFFFFF" d="M327.688,168.776c0,7.744,0,15.488,0,23.232c0.5-0.5,1-1,1.5-1.5c-2.255,0-4.511,0-6.767,0
									c-1.935,0-1.935,3,0,3c2.255,0,4.511,0,6.767,0c0.818,0,1.5-0.682,1.5-1.5c0-7.744,0-15.488,0-23.232
									C330.688,166.841,327.688,166.841,327.688,168.776L327.688,168.776z"/>
							</g>
							<g>
								<g>
									<path fill="#FFFFFF" d="M327.201,168.776c0,7.682,0,15.364,0,23.046c0,1.036,0.952,1.624,1.899,1.446
										c0.414-0.078,0.708-0.277,0.987-0.585c0.723-0.799,0.491-2.237-0.662-2.507c-2.236-0.523-6.825-0.997-8.535,0.772
										c-0.575,0.595-0.575,1.526,0,2.121c1.877,1.942,5.832,0.926,8.297,0.926c2.05,0,1.986-2.439,1.986-3.773
										c0-4.766,0-9.531,0-14.296c0-2.537,1.075-6.745-0.926-8.679c-0.595-0.575-1.526-0.575-2.121,0
										c-0.162,0.157-0.324,0.313-0.486,0.47c-1.393,1.347,0.73,3.466,2.121,2.121c0.162-0.157,0.324-0.313,0.486-0.47
										c-0.707,0-1.414,0-2.121,0c0.717,0.693,0.047,5.519,0.047,6.558c0,2.383,0,4.766,0,7.148c0,2.383,0,4.766,0,7.148
										c0,1.138-4.693,1.212-5.163,0.727c0,0.707,0,1.414,0,2.121c0.5-0.517,4.853-0.179,5.616,0
										c-0.22-0.836-0.441-1.671-0.662-2.507c0.112-0.062,0.224-0.124,0.336-0.186c0.633,0.482,1.266,0.964,1.899,1.446
										c0-7.682,0-15.364,0-23.046C330.201,166.841,327.201,166.841,327.201,168.776z"/>
								</g>
							</g>
						</g>
						<g>
							<g>
								<path fill="#FFFFFF" d="M327.688,99.348c0,14.951,0,29.901,0,44.852c0,1.935,3,1.935,3,0c0-14.951,0-29.901,0-44.852
									C330.688,97.413,327.688,97.413,327.688,99.348L327.688,99.348z"/>
							</g>
							<g>
								<g>
									<path fill="#FFFFFF" d="M327.201,99.348c0,8.45,0,16.901,0,25.351c0,4.55,0,9.101,0,13.651
										c0,2.318-0.903,5.612,0.926,7.381c0.595,0.575,1.526,0.575,2.121,0c1.829-1.769,0.926-5.062,0.926-7.381
										c0-5.2,0-10.401,0-15.601s0-10.4,0-15.601c0-2.659,1.173-7.302-0.926-9.331c-0.595-0.575-1.526-0.575-2.121,0
										c-0.162,0.157-0.324,0.313-0.486,0.47c-1.393,1.347,0.73,3.466,2.121,2.121c0.162-0.157,0.324-0.313,0.486-0.47
										c-0.707,0-1.414,0-2.121,0c0.98,0.947,0.047,7.701,0.047,9.16c0,3.9,0,7.8,0,11.701c0,3.9,0,7.8,0,11.7
										c0,1.771,1.128,9.974-0.047,11.11c0.707,0,1.414,0,2.121,0c-0.98-0.948-0.047-7.701-0.047-9.16c0-3.9,0-7.8,0-11.701
										c0-7.8,0-15.601,0-23.401C330.201,97.413,327.201,97.413,327.201,99.348z"/>
								</g>
							</g>
						</g>
						<g>
							<g>
								<path fill="#FFFFFF" d="M300.889,153.72c0-30.265,0-60.529,0-90.793c-0.5,0.5-1,1-1.5,1.5c1.419,0,2.838,0,4.257,0
									c1.935,0,1.935-3,0-3c-1.419,0-2.838,0-4.257,0c-0.818,0-1.5,0.682-1.5,1.5c0,30.265,0,60.529,0,90.793
									C297.889,155.655,300.889,155.655,300.889,153.72L300.889,153.72z"/>
							</g>
							<g>
								<g>
									<path fill="#FFFFFF" d="M301.375,153.72c0-30.222,0-60.443,0-90.665c0-1.362-1.608-1.915-2.561-1.061
										c-0.194,0.174-0.349,0.362-0.472,0.593c-0.579,1.082,0.169,2.128,1.295,2.257c1.922,0.22,4.116,0.614,5.539-0.858
										c0.575-0.595,0.575-1.526,0-2.121c-1.38-1.427-4.388-1.367-6.187-0.872c-2.403,0.661-1.587,4.216-1.587,5.88
										c0,10.526,0,21.053,0,31.58s0,21.054,0,31.58c0,5.264,0,10.527,0,15.791c0,2.676-1.187,7.383,0.926,9.426
										c0.595,0.575,1.526,0.575,2.121,0c0.162-0.157,0.324-0.313,0.486-0.47c1.393-1.347-0.73-3.466-2.121-2.121
										c-0.162,0.157-0.324,0.313-0.486,0.47c0.707,0,1.414,0,2.121,0c-1.19-1.15-0.047-9.459-0.047-11.252
										c0-3.947,0-7.895,0-11.843c0-7.895,0-15.79,0-23.685s0-15.79,0-23.685c0-3.948,0-7.895,0-11.843c0-1.974,0-3.947,0-5.921
										c0-1.22,2.064-1.521,2.653-0.913c0-0.707,0-1.414,0-2.121c-0.449,0.464-2.795,0.05-3.417-0.021
										c0.432,0.752,0.864,1.504,1.295,2.257c0.001,0.005,0.001,0.01,0.002,0.014c-0.854-0.354-1.707-0.707-2.561-1.061
										c0,30.222,0,60.443,0,90.665C298.375,155.655,301.375,155.655,301.375,153.72z"/>
								</g>
							</g>
						</g>
					</g>
				</g>
				<g>
					<g>
						<g>
							<path fill="#FFFFFF" d="M335.331,163.958c4.091,0,8.182,0,12.273,0c1.935,0,1.935-3,0-3c-4.091,0-8.182,0-12.273,0
								C333.396,160.958,333.396,163.958,335.331,163.958L335.331,163.958z"/>
						</g>
					</g>
					<g>
						<g>
							<path fill="#FFFFFF" d="M244.846,163.958c17.468,0,34.936,0,52.403,0c1.935,0,1.935-3,0-3c-17.468,0-34.936,0-52.403,0
								C242.911,160.958,242.911,163.958,244.846,163.958L244.846,163.958z"/>
						</g>
					</g>
					<g>
						<g>
							<path fill="#FFFFFF" d="M244.846,128.968c32.253,0,64.506,0,96.759,0c1.935,0,1.935-3,0-3c-32.253,0-64.506,0-96.759,0
								C242.911,125.968,242.911,128.968,244.846,128.968L244.846,128.968z"/>
						</g>
					</g>
					<g>
						<g>
							<path fill="#FFFFFF" d="M244.846,93.978c27.586,0,55.172,0,82.759,0c1.935,0,1.935-3,0-3c-27.586,0-55.172,0-82.759,0
								C242.911,90.978,242.911,93.978,244.846,93.978L244.846,93.978z"/>
						</g>
					</g>
				</g>
			</g>
			<g>
				<g>
					<g>
						<path fill="#FFFFFF" d="M145.404,225.04c-45.547,0-91.095,0-136.643,0c-0.114,0-0.228,0-0.342,0c-1.935,0-1.935,3,0,3
							c45.547,0,91.095,0,136.643,0c0.114,0,0.228,0,0.342,0C147.339,228.04,147.339,225.04,145.404,225.04L145.404,225.04z"/>
					</g>
				</g>
				<g>
					<g>
						<path fill="#FFFFFF" d="M165.224,6.367c0,47.074,0,94.148,0,141.223c0,0.749,0,1.497,0,2.245c0,1.935,3,1.935,3,0
							c0-47.074,0-94.148,0-141.223c0-0.749,0-1.497,0-2.245C168.224,4.433,165.224,4.433,165.224,6.367L165.224,6.367z"/>
					</g>
				</g>
				<g>
					<g>
						<path fill="#FFFFFF" d="M53.866,63.363c-4.074,0-8.148,0-12.223,0c-1.935,0-1.935,3,0,3c4.074,0,8.148,0,12.223,0
							C55.801,66.363,55.801,63.363,53.866,63.363L53.866,63.363z"/>
					</g>
				</g>
				<g>
					<g>
						<path fill="#FFFFFF" d="M5.42,212.38c25.055,0,50.111,0,75.166,0c0.818,0,1.5-0.682,1.5-1.5c0-41.134,0-82.268,0-123.402
							c0-1.935-3-1.935-3,0c0,41.134,0,82.268,0,123.402c0.5-0.5,1-1,1.5-1.5c-25.055,0-50.111,0-75.166,0
							C3.485,209.38,3.485,212.38,5.42,212.38L5.42,212.38z"/>
					</g>
				</g>
				<g>
					<g>
						<path fill="#FFFFFF" d="M18.714,116.019c1.779,13.032,3.558,26.065,5.337,39.098c0.172,1.265,2.229,1.479,2.742,0.358
							c8.044-17.597,16.088-35.194,24.133-52.791c0.798-1.746-1.787-3.271-2.591-1.514c-8.044,17.597-16.088,35.194-24.133,52.791
							c0.914,0.119,1.828,0.239,2.742,0.358c-1.779-13.032-3.558-26.065-5.337-39.098C21.346,113.312,18.456,114.127,18.714,116.019
							L18.714,116.019z"/>
					</g>
				</g>
				<g>
					<g>
						<path fill="#FFFFFF" d="M13.66,116.907c0.208,3.866,2.971,6.628,6.837,6.836c3.857,0.208,6.646-3.283,6.837-6.836
							c0.208-3.858-3.283-6.647-6.837-6.838C16.639,109.861,13.852,113.354,13.66,116.907c-0.104,1.934,2.896,1.924,3,0
							c0.266-4.949,7.408-4.948,7.674,0c0.267,4.949-7.409,4.923-7.674,0C16.557,114.983,13.556,114.973,13.66,116.907z"/>
					</g>
				</g>
				<g>
					<g>
						<path fill="#FFFFFF" d="M18.66,155.003c0.208,3.866,2.97,6.63,6.837,6.839c3.858,0.208,6.646-3.286,6.837-6.839
							c0.208-3.857-3.285-6.644-6.837-6.835C21.64,147.96,18.852,151.45,18.66,155.003c-0.104,1.934,2.896,1.924,3,0
							c0.267-4.945,7.407-4.945,7.674,0c0.267,4.952-7.409,4.925-7.674,0C21.557,153.079,18.556,153.069,18.66,155.003z"/>
					</g>
				</g>
				<g>
					<g>
						<path fill="#FFFFFF" d="M42.792,101.926c0.208,3.867,2.972,6.627,6.838,6.835c3.857,0.208,6.646-3.282,6.837-6.835
							c0.208-3.858-3.283-6.646-6.837-6.838C45.771,94.88,42.983,98.372,42.792,101.926c-0.104,1.934,2.896,1.924,3,0
							c0.266-4.948,7.409-4.948,7.675,0s-7.41,4.922-7.675,0C45.688,100.002,42.688,99.992,42.792,101.926z"/>
					</g>
				</g>
				<g>
					<g>
						<path fill="#FFFFFF" d="M108.268,97.8c10.125,0,20.25,0,30.375,0c1.935,0,1.935-3,0-3c-10.125,0-20.25,0-30.375,0
							C106.333,94.8,106.333,97.8,108.268,97.8L108.268,97.8z"/>
					</g>
				</g>
				<g>
					<g>
						<path fill="#FFFFFF" d="M108.268,109.755c10.125,0,20.25,0,30.375,0c1.935,0,1.935-3,0-3c-10.125,0-20.25,0-30.375,0
							C106.333,106.755,106.333,109.755,108.268,109.755L108.268,109.755z"/>
					</g>
				</g>
				<g>
					<g>
						<path fill="#FFFFFF" d="M108.268,121.712c10.125,0,20.25,0,30.375,0c1.935,0,1.935-3,0-3c-10.125,0-20.25,0-30.375,0
							C106.333,118.712,106.333,121.712,108.268,121.712L108.268,121.712z"/>
					</g>
				</g>
				<g>
					<g>
						<path fill="#FFFFFF" d="M108.268,133.667c10.125,0,20.25,0,30.375,0c1.935,0,1.935-3,0-3c-10.125,0-20.25,0-30.375,0
							C106.333,130.667,106.333,133.667,108.268,133.667L108.268,133.667z"/>
					</g>
				</g>
				<g>
					<g>
						<path fill="#FFFFFF" d="M108.268,145.623c10.125,0,20.25,0,30.375,0c1.935,0,1.935-3,0-3c-10.125,0-20.25,0-30.375,0
							C106.333,142.623,106.333,145.623,108.268,145.623L108.268,145.623z"/>
					</g>
				</g>
				<g>
					<g>
						<path fill="#FFFFFF" d="M108.268,157.579c10.125,0,20.25,0,30.375,0c1.935,0,1.935-3,0-3c-10.125,0-20.25,0-30.375,0
							C106.333,154.579,106.333,157.579,108.268,157.579L108.268,157.579z"/>
					</g>
				</g>
				<g>
					<g>
						<path fill="#FFFFFF" d="M108.268,169.534c10.125,0,20.25,0,30.375,0c1.935,0,1.935-3,0-3c-10.125,0-20.25,0-30.375,0
							C106.333,166.534,106.333,169.534,108.268,169.534L108.268,169.534z"/>
					</g>
				</g>
				<g>
					<g>
						<path fill="#FFFFFF" d="M108.268,181.489c10.125,0,20.25,0,30.375,0c1.935,0,1.935-3,0-3c-10.125,0-20.25,0-30.375,0
							C106.333,178.489,106.333,181.489,108.268,181.489L108.268,181.489z"/>
					</g>
				</g>
				<g>
					<g>
						<path fill="#FFFFFF" d="M108.268,193.444c10.125,0,20.25,0,30.375,0c1.935,0,1.935-3,0-3c-10.125,0-20.25,0-30.375,0
							C106.333,190.444,106.333,193.444,108.268,193.444L108.268,193.444z"/>
					</g>
				</g>
				<g>
					<g>
						<path fill="#FFFFFF" d="M108.268,205.401c10.125,0,20.25,0,30.375,0c1.935,0,1.935-3,0-3c-10.125,0-20.25,0-30.375,0
							C106.333,202.401,106.333,205.401,108.268,205.401L108.268,205.401z"/>
					</g>
				</g>
				<g>
					<g>
						<g>
							<path fill="#FFFFFF" d="M56.834,49.659c0.149,15.95,7.118,28.187,22.143,34.217c13.851,5.559,29.44,3.566,39.196-8.209
								c8.026-9.687,10.086-23.404,7.897-35.487c-2.546-14.054-12.958-23.565-27.382-24.074c-1.936-0.068-1.929,2.932,0,3
								c27.433,0.968,30.882,35.574,17.841,53.817c-8.293,11.603-22.633,12.728-35.296,8.592
								c-14.618-4.774-21.261-17.05-21.4-31.855C59.816,47.726,56.816,47.724,56.834,49.659L56.834,49.659z"/>
						</g>
					</g>
					<g>
						<g>
							<path fill="#FFFFFF" d="M86.596,59.354c-0.47,1.318-1.332,3.05-0.742,4.459c0.832,1.987,3.155,2.169,5.042,2.268
								c0.879,0.046,1.419-0.722,1.5-1.5c0.121-1.162,0.047-2.357,0-3.522c-0.02-0.492-0.263-1.075-0.743-1.295
								c-0.951-0.436-1.902-0.871-2.854-1.307c-0.744-0.34-1.609-0.219-2.053,0.539c-0.382,0.652-0.205,1.711,0.538,2.052
								c0.951,0.436,1.902,0.871,2.854,1.307c-0.248-0.432-0.495-0.864-0.743-1.295c0.047,1.165,0.121,2.36,0,3.522
								c0.5-0.5,1-1,1.5-1.5c-0.695-0.037-1.367-0.09-2.037-0.283c-0.069-0.02-0.405-0.234-0.231-0.085
								c-0.17-0.146,0.122,0.441,0.02-0.013c0.109,0.484,0.071-0.348,0.014,0.049c0.037-0.254,0.111-0.502,0.183-0.748
								c0.184-0.626,0.426-1.236,0.645-1.85C90.14,58.324,87.241,57.545,86.596,59.354z"/>
						</g>
					</g>
					<g>
						<g>
							<path fill="#FFFFFF" d="M99.654,60.245c0.996,0.873,1.637,2.186,2.087,3.418c0.349-0.615,0.698-1.23,1.047-1.845
								c-1.938,0.622-3.997,0.871-5.903,1.589c0.633,0.482,1.266,0.964,1.899,1.446c0.109-1.399,0.217-2.797,0.326-4.196
								c-0.248,0.432-0.495,0.863-0.743,1.295c1.035-0.491,2.069-0.981,3.104-1.472c1.747-0.829,0.224-3.415-1.515-2.591
								c-1.035,0.491-2.069,0.981-3.104,1.472c-0.492,0.234-0.704,0.794-0.743,1.295c-0.109,1.399-0.217,2.797-0.326,4.196
								c-0.072,0.921,1.022,1.776,1.899,1.446c1.906-0.718,3.965-0.967,5.903-1.589c0.729-0.233,1.337-1.053,1.047-1.845
								c-0.621-1.7-1.476-3.53-2.858-4.741C100.327,56.854,98.197,58.968,99.654,60.245z"/>
						</g>
					</g>
					<g>
						<g>
							<path fill="#FFFFFF" d="M89.6,64.9c1.48,2.268,1.682,5.06,2.205,7.655c0.283,1.408,2.658,1.466,2.893,0
								c0.397-2.48,0.938-5.146,3.344-6.406c1.714-0.898,0.197-3.487-1.515-2.591c-3.118,1.634-4.199,4.927-4.722,8.199
								c0.964,0,1.928,0,2.893,0c-0.578-2.869-0.87-5.862-2.506-8.372C91.138,61.772,88.54,63.274,89.6,64.9L89.6,64.9z"/>
						</g>
					</g>
					<g>
						<g>
							<path fill="#FFFFFF" d="M103.009,64.71c5.561,1.425,9.212,6.513,10.791,11.791c0.553,1.849,3.449,1.061,2.893-0.798
								c-1.875-6.269-6.306-12.2-12.885-13.886C101.932,61.337,101.136,64.23,103.009,64.71L103.009,64.71z"/>
						</g>
					</g>
					<g>
						<g>
							<path fill="#FFFFFF" d="M85.682,62.467c-6.72,4.199-9.369,11.622-9.514,19.27c-0.037,1.936,2.963,1.932,3,0
								c0.125-6.556,2.223-13.052,8.029-16.679C88.833,64.035,87.328,61.439,85.682,62.467L85.682,62.467z"/>
						</g>
					</g>
					<g>
						<g>
							<path fill="#FFFFFF" d="M86.387,47.191c0.655,2.06,2.601,2.859,4.618,2.341c1.873-0.481,1.078-3.375-0.798-2.893
								c-0.098,0.027-0.196,0.05-0.296,0.069c0.155-0.016,0.144-0.016-0.035-0.001c-0.093,0.004-0.187,0.004-0.279-0.001
								c0.323,0.009-0.053-0.018-0.125-0.037c-0.165-0.057-0.163-0.056,0.004,0.002c-0.34-0.171,0.175,0.191-0.103-0.075
								c0.09,0.137,0.086,0.132-0.011-0.016c-0.214-0.326,0.046,0.218-0.083-0.188c-0.248-0.778-1.033-1.271-1.845-1.047
								C86.67,45.556,86.139,46.412,86.387,47.191L86.387,47.191z"/>
						</g>
					</g>
					<g>
						<g>
							<path fill="#FFFFFF" d="M89.319,52.31c2.389,1.604,5.2,0.774,7.028-1.252c1.292-1.432-0.823-3.561-2.121-2.121
								c-0.972,1.078-2.093,1.655-3.392,0.782C89.222,48.637,87.722,51.237,89.319,52.31L89.319,52.31z"/>
						</g>
					</g>
					<g>
						<g>
							<path fill="#FFFFFF" d="M95.286,45.008c1.935,0,1.935-3,0-3S93.352,45.008,95.286,45.008L95.286,45.008z"/>
						</g>
					</g>
					<g>
						<g>
							<path fill="#FFFFFF" d="M86.066,44.788c1.935,0,1.935-3,0-3S84.132,44.788,86.066,44.788L86.066,44.788z"/>
						</g>
					</g>
					<g>
						<g>
							<path fill="#FFFFFF" d="M81.495,40.025c0.463,6.507,0.215,17.604,9.235,18.01c3.484,0.157,7.055-0.187,9.635-2.752
								c2.499-2.484,2.681-6.81,2.976-10.077c-0.367,0.482-0.734,0.964-1.101,1.446c2.749-0.564,4.968-3.766,3.338-6.5
								c-1.98-3.321-6.095-2.144-7.603,0.991c0.914,0.386,1.828,0.771,2.742,1.156c0.645-2.872-1.879-5.217-1.192-7.893
								c0.482-1.875-2.412-2.67-2.893-0.798c-0.302,1.175-0.572,2.174-0.235,3.4c0.411,1.494,1.806,2.811,1.428,4.493
								c-0.357,1.59,1.974,2.753,2.742,1.156c1.274,0.654,1.566,1.021,0.876,1.102c-0.69,0.142-1.043,0.809-1.101,1.446
								c-0.237,2.632-0.391,5.776-2.097,7.956c-1.729,2.208-5.707,2.135-8.157,1.774c-5.992-0.883-5.283-10.58-5.592-14.911
								C84.358,38.107,81.357,38.093,81.495,40.025L81.495,40.025z"/>
						</g>
					</g>
					<g>
						<g>
							<path fill="#FFFFFF" d="M93.937,32.517c-1.449,1.932-5.496,0.737-7.548,1.146c-2.512,0.499-4.842,2.351-5.433,4.903
								c-0.437,1.883,2.456,2.682,2.893,0.798c0.802-3.46,4.854-2.695,7.471-2.88c2.089-0.148,3.926-0.744,5.208-2.452
								C97.69,32.482,95.083,30.989,93.937,32.517L93.937,32.517z"/>
						</g>
					</g>
					<g>
						<g>
							<path fill="#FFFFFF" d="M104.55,39.299c-0.757-3.215,2.029-8.212-2.811-9.506c-1.226-0.328-1.945-2.631-3.57-3.112
								c-2.863-0.847-5.748-0.594-8.681-0.264c-6.36,0.717-18.333,16.393-6.985,16.677c1.936,0.048,1.931-2.952,0-3
								c-4.773-0.119,2.318-7.567,2.941-8.11c3.097-2.698,6.802-3.31,10.815-2.739c0.568,0.081,5.338,4.057,5.593,4.901
								c0.567,1.878-0.666,3.954-0.195,5.951C102.101,41.979,104.993,41.181,104.55,39.299L104.55,39.299z"/>
						</g>
					</g>
					<g>
						<g>
							<path fill="#FFFFFF" d="M99.698,51.722c0.044,1.669,1.011,3.149,2.785,3.244c0.817,0.043,1.5-0.715,1.5-1.5
								c0-0.851-0.684-1.457-1.5-1.5c0.343,0.018-0.127-0.121,0.183,0.047c0.298,0.161-0.051-0.145,0.126,0.117
								c-0.213-0.313,0.067,0.265-0.054-0.114c-0.025-0.088-0.045-0.177-0.06-0.267c0.026,0.166,0.033,0.157,0.02-0.026
								c-0.021-0.817-0.666-1.5-1.5-1.5C100.397,50.222,99.677,50.904,99.698,51.722L99.698,51.722z"/>
						</g>
					</g>
					<g>
						<g>
							<path fill="#FFFFFF" d="M101.138,59.707c-0.187-1.496-0.359-2.993-0.46-4.497c-0.129-1.919-3.13-1.932-3,0
								c0.101,1.504,0.273,3.001,0.46,4.497c0.101,0.811,0.605,1.5,1.5,1.5C100.378,61.207,101.239,60.521,101.138,59.707
								L101.138,59.707z"/>
						</g>
					</g>
					<g>
						<g>
							<path fill="#FFFFFF" d="M104.158,78.187c0.467,1.601,0.943,3.184,1.71,4.672c0.887,1.72,3.476,0.203,2.591-1.514
								c-0.646-1.254-1.015-2.607-1.409-3.956C106.51,75.536,103.615,76.325,104.158,78.187L104.158,78.187z"/>
						</g>
					</g>
					<g>
						<g>
							<path fill="#FFFFFF" d="M80.11,78.766c-0.432,1.369-0.437,2.66-0.513,4.07c-0.104,1.934,2.896,1.924,3,0
								c0.07-1.288,0.031-2.087,0.405-3.272C83.587,77.713,80.69,76.928,80.11,78.766L80.11,78.766z"/>
						</g>
					</g>
				</g>
			</g>
		</g>
		<g>
			<g>
				<g>
					<g>
						<path fill="#FFFFFF" d="M168.25,186.547c6.546,3.146,6.973,9.629,5.374,15.885c-0.938,3.667-0.083,6.185,1.278,9.599
							c0.798,2.002,1.727,4.486-1.704,3.6c-2.445-0.632-2.324-5.674-2.495-7.499c-0.285-3.039-0.799-5.858-2.971-8.119
							c-3.347-3.484-9.494,0.474-10.812,4.057c-2.125,5.776,4.101,9.385,9.117,7.496c1.792-0.675,1.017-3.576-0.798-2.893
							c-7.19,2.707-6.834-6.518-0.765-6.903c3.711-0.236,3.443,9.088,3.853,11.44c0.639,3.662,5.691,8.263,9.484,5.191
							c1.628-1.319,1.232-3.254,0.738-5.08c-1.24-4.579-2.926-6.597-1.642-11.618c1.779-6.96-0.27-14.444-7.142-17.748
							C168.029,183.123,166.507,185.709,168.25,186.547L168.25,186.547z"/>
					</g>
				</g>
				<g>
					<g>
						<path fill="#FFFFFF" d="M145.398,178.695c2.642-0.009,5.24,1.5,7.678,2.367c1.828,0.65,2.607-2.249,0.798-2.893
							c-2.737-0.974-5.503-2.485-8.476-2.475C143.464,175.702,143.463,178.702,145.398,178.695L145.398,178.695z"/>
					</g>
				</g>
				<g>
					<g>
						<path fill="#FFFFFF" d="M160.837,182.317c3.469-0.694,6.088-2.209,8.661-4.607c3.785-3.528,6.288-6.398,11.58-7.583
							c8.124-1.818,16.43,2.266,23.701-3.237c0.811-0.614,1.122-2.045,0-2.591c-1.268-0.513-2.403-1.245-3.406-2.194
							c-0.101,0.785-0.202,1.57-0.303,2.356c1.848-1.407,4.156-1.763,6.215-2.813c1.064-0.543,0.877-2.003,0-2.591
							c-1.73-1.157-3.388-1.544-5.417-1.229c0.565,0.734,1.129,1.469,1.694,2.203c1.704-2.501,4.767-2.938,5.521-6.131
							c0.328-1.387-1.021-2.199-2.204-1.694c-5.02,2.144-10.884,3.046-16.177,1.837c-5.179-1.184-9.653-3.719-15.044-4.494
							c-8.493-1.221-17.672,0.017-25.811,2.625c-5.696,1.826-11.439,5.655-13.048,11.741c-0.846,3.203-2.19,10.177,1.663,11.983
							c1.741,0.815,3.265-1.77,1.515-2.591c-1.826-0.855-0.834-5.562-0.605-7.021c0.458-2.927,1.822-5.162,3.955-7.233
							c5.176-5.028,14.633-6.106,21.418-6.738c4.532-0.421,9.095-0.135,13.561,0.694c4.067,0.754,7.69,2.698,11.599,3.927
							c5.956,1.873,12.915,0.242,18.489-2.139c-0.735-0.565-1.469-1.129-2.204-1.694c-0.523,2.211-3.935,3.53-5.219,5.416
							c-0.826,1.212,0.529,2.384,1.694,2.203c1.163-0.169,2.198,0.14,3.104,0.928c0-0.864,0-1.727,0-2.591
							c-2.155,1.101-4.27,1.334-6.215,2.813c-0.733,0.558-1.079,1.635-0.303,2.356c1.271,1.183,2.434,1.897,4.012,2.664
							c0-0.864,0-1.727,0-2.591c-6.878,5.206-16.403,1.462-24.357,3.242c-7.929,1.775-10.959,10.299-18.868,11.882
							C158.144,179.804,158.948,182.696,160.837,182.317L160.837,182.317z"/>
					</g>
				</g>
				<g>
					<g>
						<path fill="#FFFFFF" d="M137.61,176.356c-2.585,5.539-5.303,8.451-4.152,14.921c1.412,7.935,11.231,15.436,7.6,23.662
							c-0.402,0.912-0.095,1.871,0.896,2.204c2.354,0.79,4.648-0.24,6.65-1.425c-0.752-0.432-1.505-0.864-2.257-1.295
							c-0.317,2.064-1.285,3.38-2.906,3.946c-1.767,0.778-0.239,3.362,1.515,2.591c2.759-1.214,4.056-3.667,4.391-6.537
							c0.136-1.165-1.363-1.825-2.257-1.295c-1.359,0.806-2.713,1.667-4.338,1.123c0.299,0.734,0.598,1.469,0.896,2.204
							c2.44-5.53,0.879-9.3-1.936-14.356c-2.076-3.729-4.221-7.484-5.362-11.618c-1.438-5.207,1.856-8.339,3.85-12.609
							C141.014,176.129,138.428,174.604,137.61,176.356L137.61,176.356z"/>
					</g>
				</g>
				<g>
					<g>
						<path fill="#FFFFFF" d="M148.999,222.467c2.634-0.882,4.388-4.675,4.343-7.309c-0.033-1.933-3.033-1.936-3,0
							c0.015,0.853-0.331,1.714-0.689,2.474c-0.272,0.577-0.78,1.717-1.452,1.942C146.376,220.186,147.159,223.083,148.999,222.467
							L148.999,222.467z"/>
					</g>
				</g>
				<g>
					<g>
						<path fill="#FFFFFF" d="M185.657,192.898c3.053-2.179,6.883-4.151,10.703-4.247c1.931-0.049,1.936-3.049,0-3
							c-4.341,0.109-8.732,2.169-12.217,4.656C182.583,191.42,184.078,194.024,185.657,192.898L185.657,192.898z"/>
					</g>
				</g>
				<g>
					<g>
						<path fill="#FFFFFF" d="M206.287,214.184c2.882,0.047,7.877-0.771,6.006-4.777c-3.232-6.919-6.34-14.354-10.56-20.725
							c-1.063-1.604-3.663-0.104-2.591,1.515c2.558,3.861,4.893,8.446,6.757,12.689c0.934,2.126,1.849,4.24,2.933,6.296
							c1.124,2.129-0.926,2.028-2.545,2.002C204.352,211.152,204.354,214.152,206.287,214.184L206.287,214.184z"/>
					</g>
				</g>
				<g>
					<g>
						<path fill="#FFFFFF" d="M193.683,192.255c0.189,0.361,0.305,0.767,0.438,1.269c0.209,0.79,1.063,1.263,1.845,1.047
							c0.793-0.218,1.256-1.055,1.047-1.845c-0.182-0.687-0.409-1.353-0.74-1.985c-0.379-0.724-1.372-0.937-2.053-0.538
							C193.492,190.63,193.304,191.531,193.683,192.255L193.683,192.255z"/>
					</g>
				</g>
				<g>
					<g>
						<path fill="#FFFFFF" d="M204.8,213.96c1.798,6.136,3.217,15.971-1.341,21.065c-5.022,5.613-14.814,6.794-21.817,6.123
							c-1.926-0.185-1.908,2.817,0,3c8.604,0.825,18.801-1.26,24.79-7.952c2.306-2.577,3.024-5.972,2.967-9.321
							c-0.075-4.449-0.451-9.428-1.706-13.713C207.15,211.31,204.254,212.099,204.8,213.96L204.8,213.96z"/>
					</g>
				</g>
				<g>
					<g>
						<path fill="#FFFFFF" d="M153.513,224.631c3.839,8.46,7.178,18.147,7.249,27.577c0.015,1.934,3.015,1.935,3,0
							c-0.075-10-3.583-20.112-7.658-29.092C155.306,221.357,152.721,222.884,153.513,224.631L153.513,224.631z"/>
					</g>
				</g>
				<g>
					<g>
						<path fill="#FFFFFF" d="M199.651,183.183c-1.434-5.318-3.878-10.45-6.297-15.385c-0.852-1.737-3.439-0.216-2.591,1.515
							c2.312,4.714,4.625,9.587,5.996,14.668C197.262,185.846,200.156,185.053,199.651,183.183L199.651,183.183z"/>
					</g>
				</g>
				<g>
					<g>
						<path fill="#FFFFFF" d="M185.566,243.209c0.442,1.67,0.884,3.34,1.326,5.011c0.495,1.869,3.388,1.075,2.893-0.798
							c-0.442-1.67-0.884-3.34-1.326-5.011C187.964,240.542,185.071,241.336,185.566,243.209L185.566,243.209z"/>
					</g>
				</g>
				<g>
					<g>
						<path fill="#FFFFFF" d="M161.603,210.779c0.186,3.584-0.2,7.642-2.193,10.752c0.914,0.12,1.828,0.239,2.742,0.358
							c-0.641-1.724-1.56-4.818-3.481-5.651c-0.805-0.348-2.018-0.152-2.204,0.896c-0.412,2.328-2.276,4.027-4.46,4.812
							c0.633,0.482,1.266,0.964,1.899,1.446c0.31-2.419,0.034-4.979-1.523-6.92c-1.211-1.509-3.319,0.628-2.121,2.121
							c0.986,1.229,0.834,3.32,0.645,4.799c-0.12,0.937,1.054,1.75,1.899,1.446c3.117-1.12,5.958-3.529,6.555-6.907
							c-0.734,0.299-1.469,0.598-2.204,0.896c0.783,0.339,1.716,2.817,2.103,3.858c0.451,1.213,2.005,1.508,2.742,0.358
							c2.261-3.531,2.814-8.188,2.602-12.267C164.502,208.855,161.502,208.845,161.603,210.779L161.603,210.779z"/>
					</g>
				</g>
				<g>
					<g>
						<path fill="#FFFFFF" d="M205.83,217.46c-3.051,1.712-7.24,1.476-10.557,1.095c-1.129-0.13-1.874,1.371-1.295,2.257
							c3.012,4.618,8.971,5.611,13.995,4.508c1.889-0.415,1.088-3.307-0.798-2.893c-3.738,0.821-8.517,0.073-10.606-3.129
							c-0.432,0.752-0.864,1.504-1.295,2.257c3.868,0.444,8.543,0.476,12.072-1.504C209.031,219.104,207.519,216.513,205.83,217.46
							L205.83,217.46z"/>
					</g>
				</g>
				<g>
					<g>
						<path fill="#FFFFFF" d="M198.486,256.705c-14.148-1.583-29.677,2.495-43.287,6.113c0.633,0.482,1.266,0.964,1.899,1.446
							c0-3.282,0-6.564,0-9.847c-0.367,0.482-0.734,0.964-1.101,1.446c13.472-3.242,27.443-5.931,41.317-6.257c-0.5-0.5-1-1-1.5-1.5
							c0.391,3.366,0.781,6.732,1.172,10.098c0.22,1.898,3.223,1.919,3,0c-0.391-3.366-0.781-6.732-1.172-10.098
							c-0.092-0.796-0.612-1.521-1.5-1.5c-14.133,0.332-28.395,3.062-42.115,6.364c-0.646,0.155-1.101,0.796-1.101,1.446
							c0,3.282,0,6.564,0,9.847c0,0.981,0.957,1.696,1.899,1.446c13.405-3.563,28.565-7.563,42.489-6.006
							C200.407,259.919,200.387,256.917,198.486,256.705z"/>
					</g>
				</g>
				<g>
					<g>
						<path fill="#FFFFFF" d="M296.106,211.689c-0.952-0.643-1.904-1.285-2.856-1.928c0.229,0.565,0.459,1.129,0.689,1.694
							c1.515-4.589,3.029-9.178,4.544-13.767c-0.615,0.349-1.23,0.698-1.845,1.047c9.595,2.616,19.189,5.232,28.784,7.848
							c-0.349-0.615-0.698-1.23-1.047-1.845c-1.599,5.027-3.198,10.054-4.797,15.08c0.615-0.349,1.23-0.698,1.845-1.047
							c-1.473-0.309-2.945-0.618-4.418-0.926c-1.888-0.396-2.69,2.496-0.798,2.893c1.473,0.309,2.945,0.618,4.418,0.926
							c0.825,0.173,1.586-0.232,1.845-1.047c1.599-5.027,3.198-10.054,4.797-15.08c0.248-0.778-0.282-1.637-1.047-1.845
							c-9.595-2.616-19.189-5.232-28.784-7.848c-0.819-0.223-1.589,0.271-1.845,1.047c-1.515,4.589-3.029,9.178-4.544,13.767
							c-0.22,0.665,0.149,1.33,0.689,1.694c0.952,0.643,1.904,1.285,2.856,1.928C296.2,215.366,297.7,212.765,296.106,211.689
							L296.106,211.689z"/>
					</g>
				</g>
				<g>
					<g>
						<path fill="#FFFFFF" d="M122.435,341.075c9.721-7.396,18.692-16.815,24.66-27.577c0.938-1.693-1.652-3.206-2.591-1.514
							c-5.711,10.299-14.268,19.413-23.584,26.501C119.403,339.639,120.894,342.248,122.435,341.075L122.435,341.075z"/>
					</g>
				</g>
				<g>
					<g>
						<path fill="#FFFFFF" d="M61.249,305.163c1.935,0,1.935-3,0-3S59.314,305.163,61.249,305.163L61.249,305.163z"/>
					</g>
				</g>
				<g>
					<g>
						<path fill="#FFFFFF" d="M155.2,262.818c-7.602,1.316-14.657,6.026-20.899,10.333c-2.467,1.702-3.211,4.172-4.637,6.797
							c-7.885,14.512-18.741,30.369-34.356,37.18c0.735,0.299,1.469,0.598,2.204,0.896c-2.88-7.439-5.651-14.923-8.308-22.445
							c-0.64-1.812-3.539-1.032-2.893,0.797c2.656,7.522,5.427,15.006,8.308,22.445c0.377,0.976,1.256,1.31,2.204,0.896
							c14.915-6.505,25.39-21.054,33.402-34.666c1.319-2.242,2.564-4.529,3.75-6.844c0.272-0.532,0.538-1.068,0.799-1.606
							c0.465-0.956-0.861,0.49,0.178-0.254c6.21-4.447,13.413-9.314,21.045-10.637C157.901,265.38,157.091,262.49,155.2,262.818
							L155.2,262.818z"/>
					</g>
				</g>
				<g>
					<g>
						<path fill="#FFFFFF" d="M237.093,338.063c1.09-13.48,2.11-26.968,2.991-40.464c-0.5,0.5-1,1-1.5,1.5
							c13.186-1.584,26.363-6.865,37.718-13.553c24.256-14.286,38.664-38.487,41.804-66.254c0.075-0.662-0.515-1.272-1.101-1.446
							c-7.086-2.103-14.171-4.205-21.257-6.307c-0.809-0.24-1.6,0.282-1.845,1.047c-3.094,9.652-7.699,18.5-15.146,25.497
							c-6.747,6.339-15.447,10.187-24.092,13.161c-4.79,1.647-9.688,2.98-14.584,4.265c-4.608,1.209-10.144,3.517-14.883,3.724
							c-8.75,0.382-17.726-1.044-26.311-2.474c-1.892-0.315-2.703,2.575-0.798,2.893c8.884,1.479,18.067,2.906,27.108,2.581
							c4.622-0.165,9.887-2.344,14.375-3.492c5.729-1.465,11.422-3.066,17.016-4.99c8.858-3.047,17.289-7.248,24.292-13.545
							c7.901-7.105,12.72-16.845,15.917-26.821c-0.615,0.349-1.23,0.698-1.845,1.047c7.086,2.103,14.171,4.205,21.257,6.307
							c-0.367-0.482-0.734-0.964-1.101-1.446c-3.113,27.527-17.796,50.673-41.804,64.53c-10.273,5.93-23.609,10.942-34.718,12.277
							c-0.855,0.103-1.442,0.607-1.5,1.5c-0.881,13.496-1.901,26.983-2.991,40.464C233.937,339.993,236.938,339.977,237.093,338.063
							L237.093,338.063z"/>
					</g>
				</g>
				<g>
					<g>
						<path fill="#FFFFFF" d="M88.915,297.128c0.694-0.507,1.389-1.015,2.084-1.522c0.584-0.427,0.83-0.972,0.689-1.693
							c-0.997-5.114-1.994-10.229-2.991-15.342c-0.152-0.779-1.11-1.284-1.845-1.048c-11.298,3.632-22.596,7.263-33.894,10.895
							c-0.751,0.241-1.306,1.042-1.047,1.845c1.482,4.6,2.965,9.199,4.448,13.799c0.2,0.621,0.762,1.127,1.446,1.102
							c4.751-0.175,8.918-1.633,13.5-2.944c5.75-1.646,11.501-3.292,17.252-4.938c1.856-0.531,1.066-3.426-0.798-2.893
							c-5.123,1.467-10.247,2.933-15.37,4.399c-4.933,1.412-9.742,3.197-14.583,3.376c0.482,0.367,0.964,0.734,1.446,1.102
							c-1.482-4.6-2.965-9.199-4.448-13.799c-0.349,0.614-0.698,1.229-1.047,1.845c11.298-3.632,22.596-7.263,33.894-10.895
							c-0.615-0.349-1.23-0.698-1.845-1.048c0.997,5.114,1.994,10.229,2.991,15.342c0.229-0.564,0.459-1.129,0.689-1.693
							c-0.694,0.507-1.389,1.015-2.084,1.522C85.855,295.667,87.349,298.272,88.915,297.128z"/>
					</g>
				</g>
				<g>
					<g>
						<path fill="#FFFFFF" d="M239.41,299.259c0.786-4.33,0.841-8.842,0-13.174c-0.368-1.898-3.259-1.093-2.893,0.797
							c0.732,3.771,0.683,7.815,0,11.58C236.174,300.353,239.065,301.162,239.41,299.259L239.41,299.259z"/>
					</g>
				</g>
				<g>
					<g>
						<path fill="#FFFFFF" d="M302.153,198.69c1.712-7.875,3.412-15.753,5.104-23.633c0.536-2.494,1.469-4.161-0.354-6.097
							c-2.991-3.176-6.758-6.928-8-11.21c-0.38-1.312,6.108,2.955,6.317,3.131c1.181,1,2.307,2.082,3.377,3.199
							c0.95,0.993,2.492,0.194,2.561-1.061c0.345-6.302,0.872-12.776,2.551-18.875c0.298-1.081,0.933-3.848,1.751-1.521
							c0.735,2.09,0.724,4.489,0.788,6.678c0.079,2.716-0.034,5.458-0.265,8.165c-0.143,1.677,2.696,2.069,2.946,0.399
							c0.312-2.079,0.722-4.141,1.172-6.193c0.343-1.565,0.763-3.11,1.226-4.644c0.21-0.698,2.287-4.25,2.117-4.676
							c1.683,4.188-1.559,11.855-2.862,15.977c-0.511,1.615,1.965,2.675,2.742,1.156c2.32-4.542,4.764-9.695,8.387-13.338
							c-0.506-0.931-0.722-0.909-0.647,0.065c-0.117,0.747-0.356,1.481-0.568,2.205c-0.524,1.788-1.231,3.528-1.926,5.255
							c-0.858,2.134-1.8,4.24-2.786,6.319c-0.682,1.44,1.189,3.207,2.356,1.817c1.065-1.269,2.188-2.485,3.336-3.68
							c0.909-0.946,1.875-1.829,2.873-2.679c2.422-2.062,0.313,0.131-0.493,1.445c-3.334,5.432-7.866,10.005-10.441,15.895
							c-4.09,9.355-5.652,20.189-6.583,30.308c-0.177,1.927,2.824,1.91,3,0c0.51-5.537,1.422-11.047,2.568-16.485
							c1.795-8.521,4.787-15.375,9.934-22.347c1.038-1.406,9.569-11.312,4.739-12.79c-4.025-1.231-8.897,5.645-11.053,8.212
							c0.785,0.606,1.57,1.212,2.356,1.817c1.281-2.703,8.849-16.332,4.75-18.346c-4.902-2.409-10.801,11.697-12.392,14.812
							c0.914,0.386,1.828,0.771,2.742,1.156c1.045-3.308,6.473-17.951,1.091-19.655c-6.233-1.973-7.991,14.009-8.528,17.595
							c0.982,0.133,1.964,0.266,2.946,0.399c0.213-2.506,1.198-23.437-5.71-18.641c-3.267,2.269-3.508,9.006-3.992,12.468
							c-0.543,3.886-0.91,7.809-1.124,11.727c0.854-0.354,1.707-0.707,2.561-1.061c-2.885-3.015-6.66-6.868-10.905-7.691
							c-5.107-0.991-3.828,4.914-2.415,7.464c1.308,2.36,3.13,4.487,4.867,6.539c0.812,0.96,1.661,1.889,2.517,2.811
							c1.314,1.415,0.322-0.271,0.327-0.295c-1.936,9.038-3.885,18.074-5.849,27.105C298.851,199.778,301.743,200.58,302.153,198.69
							L302.153,198.69z"/>
					</g>
				</g>
				<g>
					<g>
						<path fill="#FFFFFF" d="M81.185,281.723c-1.934-8.896-3.854-17.794-5.762-26.694c-0.352-1.64-1.114,1.307-0.09,0.232
							c0.772-0.81,1.518-1.644,2.259-2.482c1.997-2.258,3.878-4.644,5.453-7.217c1.702-2.781,2.587-7.481-2.017-7.518
							c-4.13-0.033-8.69,5.015-11.303,7.745c0.854,0.354,1.707,0.707,2.561,1.061c-0.215-3.918-0.582-7.84-1.125-11.726
							c-0.484-3.462-0.725-10.199-3.992-12.467c-6.907-4.797-5.925,16.136-5.712,18.641c0.982-0.133,1.964-0.266,2.946-0.399
							c-0.472-3.147-2.433-19.519-8.156-17.711c-5.879,1.856-0.46,16.041,0.719,19.771c0.914-0.385,1.828-0.771,2.742-1.156
							c-1.452-2.841-7.601-17.169-12.152-14.931c-4.463,2.195,3.105,15.496,4.512,18.464c0.786-0.605,1.571-1.211,2.356-1.817
							c-1.89-2.25-7.048-9.436-10.667-8.331c-5.152,1.574,2.287,10.077,3.614,11.901c5.158,7.088,8.402,13.542,10.408,22.157
							c1.35,5.799,2.288,11.753,2.834,17.683c0.176,1.91,3.178,1.927,3,0c-0.929-10.084-2.625-20.535-6.434-29.951
							c-2.305-5.697-6.58-10.305-9.997-15.34c-0.775-1.141-1.541-2.34-2.07-3.619c0.471,1.139,2.083,2.204,3.152,3.233
							c1.429,1.376,2.764,2.868,4.04,4.387c1.167,1.39,3.039-0.377,2.356-1.817c-2.084-4.397-4.999-9.594-5.36-14.518
							c-0.723,0.403-0.763,0.779-0.119,1.126c0.669,0.673,1.206,1.478,1.752,2.25c1.119,1.58,2.1,3.261,3.075,4.932
							c1.091,1.87,2.126,3.777,3.111,5.705c0.776,1.52,3.252,0.459,2.742-1.156c-1.474-4.663-3.994-11.093-2.861-15.977
							c-0.119,0.511,1.622,3.223,1.826,3.79c0.647,1.796,1.086,3.672,1.516,5.529c0.473,2.044,0.86,4.118,1.171,6.193
							c0.25,1.67,3.089,1.278,2.946-0.399c-0.231-2.714-0.3-5.442-0.264-8.165c0.026-1.998,0.18-3.991,0.591-5.948
							c0.644-3.064,1.416-0.934,1.949,0.791c1.852,5.989,2.21,12.64,2.552,18.874c0.069,1.254,1.61,2.054,2.561,1.061
							c0.859-0.897,1.764-1.746,2.68-2.584c0.367-0.335,7.23-5.185,7.014-3.746c-0.618,4.11-5.296,8.301-8,11.211
							c-1.812,1.951-0.893,3.585-0.354,6.096c1.692,7.88,3.393,15.758,5.105,23.633C78.703,284.411,81.595,283.609,81.185,281.723
							L81.185,281.723z"/>
					</g>
				</g>
			</g>
		</g>
	</g>
</g>
</svg>
