<?xml version="1.0" encoding="utf-8"?>
<!-- Generator: Adobe Illustrator 16.0.0, SVG Export Plug-In . SVG Version: 6.00 Build 0)  -->
<!DOCTYPE svg PUBLIC "-//W3C//DTD SVG 1.1//EN" "http://www.w3.org/Graphics/SVG/1.1/DTD/svg11.dtd">
<svg version="1.1" xmlns="http://www.w3.org/2000/svg" xmlns:xlink="http://www.w3.org/1999/xlink" x="0px" y="0px"
	 width="350.368px" height="350.397px" viewBox="0 0 350.368 350.397" enable-background="new 0 0 350.368 350.397"
	 xml:space="preserve">
<g id="Graphs">
</g>
<g id="Characters">
	<g>
		<g>
			<g>
				<g>
					<path fill="#FFFFFF" d="M0.003,175.199c0.175,44.167,16.855,86.676,46.774,119.164c29.604,32.146,71,51.832,114.439,55.462
						c44.2,3.694,88.533-10.248,123.218-37.69c34.283-27.123,57.184-67.15,63.901-110.256c6.853-43.98-3.796-89.535-28.949-126.167
						C294.91,40.062,257.221,14.593,215.219,4.615c-43.416-10.314-89.95-3.037-128.451,19.321
						C49.472,45.593,21.345,81.231,8.167,122.194C2.667,139.287,0.075,157.266,0.003,175.199c-0.008,1.935,2.992,1.934,3,0
						c0.183-46.073,18.658-90.214,51.358-122.671c32.664-32.42,77.754-50.034,123.639-49.487
						c45.856,0.546,89.953,20.281,121.675,53.212c31.977,33.196,48.877,78.632,47.599,124.567
						c-1.273,45.771-21.704,89.491-55.049,120.663c-33.718,31.521-79.491,47.705-125.457,45.695
						c-43.882-1.919-85.697-21.496-116.078-53.034C20.066,262.351,3.178,219.223,3.003,175.199
						C2.996,173.265-0.004,173.264,0.003,175.199z"/>
				</g>
			</g>
			<g>
				<g id="XMLID_2_">
					<g>
						<path fill="none" stroke="#FFFFFF" stroke-miterlimit="10" d="M304.031,247.251c0,0,14.135-3.463,25.486-9.957"/>
						<path fill="none" stroke="#FFFFFF" stroke-miterlimit="10" d="M302.894,159.648c-14.799,6.68-22.697,11.14-29.412,14.497"/>
						<path fill="none" stroke="#FFFFFF" stroke-miterlimit="10" d="M300.196,240.486c-11.12,3.992-22.003,5.799-33.123,10.072
							c-7.702,3.141-15.972,4.853-22.818,9.131"/>
						<path fill="none" stroke="#FFFFFF" stroke-miterlimit="10" d="M237.687,261.964c1.183,0.887,3.659,1.294,4.842,1.883"/>
					</g>
				</g>
				<g id="XMLID_1_">
					<g>
						<path fill="none" stroke="#FFFFFF" stroke-miterlimit="10" d="M300.196,240.486c-11.12,3.992-22.003,5.799-33.123,10.072
							c-7.702,3.141-15.972,4.853-22.818,9.131"/>
						<path fill="none" stroke="#FFFFFF" stroke-miterlimit="10" d="M237.687,261.964c1.183,0.887,3.659,1.294,4.842,1.883"/>
					</g>
				</g>
				<g>
					<g>
						<g>
							<path fill="#FFFFFF" d="M164.422,290.524c9.275,2.654,18.557,5.335,27.947,7.554c6.31,1.49,11.72,1.214,17.683-1.766
								c3.359-1.678,6.233-4.456,9.194-6.715c2.677-2.041,5.691-3.55,8.38-5.536c5.129-3.79-0.488-9.147-3.69-11.854
								c-1.467-1.24-3.601,0.87-2.121,2.121c1.75,1.479,6.942,5.187,3.812,7.5c-1.704,1.26-3.693,2.229-5.452,3.417
								c-5.146,3.476-9.398,8.098-15.458,9.996c-5.817,1.821-10.834,0.164-16.527-1.28c-7.698-1.953-15.336-4.146-22.97-6.33
								C163.355,287.098,162.565,289.993,164.422,290.524L164.422,290.524z"/>
						</g>
					</g>
					<g>
						<g>
							<path fill="#FFFFFF" d="M108.391,251.928c4.149,5.461,9.107,10.131,14.285,14.606c1.456,1.259,3.587-0.854,2.121-2.121
								c-4.963-4.29-9.833-8.759-13.815-13.999C109.827,248.896,107.22,250.387,108.391,251.928L108.391,251.928z"/>
						</g>
					</g>
					<g>
						<g>
							<path fill="#FFFFFF" d="M7.23,222.481c21.264,2.978,42.671,5.006,63.895,8.25c9.778,1.495,21.865,3.009,29.024,10.619
								c1.328,1.412,3.445-0.714,2.121-2.121c-7.149-7.6-18.582-9.459-28.385-11.079c-21.827-3.606-43.95-5.494-65.857-8.562
								C6.137,219.323,5.321,222.214,7.23,222.481L7.23,222.481z"/>
						</g>
					</g>
					<g>
						<g>
							<path fill="#FFFFFF" d="M183.604,192.255c-10.297-9.709-22.316-19.045-36.58-21.614c-6.185-1.114-12.496-0.453-18.64,0.576
								c-4.263,0.714-9.312,2.888-13.626,2.52c-4.076-0.348-8.13-0.901-12.168-1.544c-33.619-5.359-65.717-18.933-97.929-29.425
								c-1.845-0.601-2.629,2.296-0.798,2.893c30.981,10.091,61.633,22.621,93.754,28.697c3.233,0.611,6.487,1.108,9.748,1.551
								c2.64,0.358,6.592,1.5,9.199,0.896c7.702-1.786,15.429-3.626,23.372-3.74c16.229-0.233,30.316,10.724,41.548,21.313
								C182.889,195.702,185.014,193.585,183.604,192.255L183.604,192.255z"/>
						</g>
					</g>
					<g>
						<g>
							<path fill="#FFFFFF" d="M223.624,265.826c-1.602,0.993-3.341,0.82-4.979,1.696c-2.158,1.153-4.038,3.761-5.783,5.454
								c-5.417,5.259-11.216,9.583-18.457,11.953c-1.83,0.599-1.046,3.496,0.798,2.893c5.761-1.886,10.718-4.852,15.375-8.705
								c2.696-2.23,5.162-4.745,7.652-7.198c2.081-2.049,4.565-2.05,6.906-3.503C226.777,267.398,225.272,264.802,223.624,265.826
								L223.624,265.826z"/>
						</g>
					</g>
					<g>
						<g>
							<path fill="#FFFFFF" d="M222.119,274.563c7.21,3.718,13.866,8.504,21.842,4.835c4.118-1.894,7.892-6.148,8.133-10.878
								c0.252-4.934-2.881-7.98-7.085-10.13c-0.466-0.238-1.052-0.302-1.514,0c-1.938,1.267-4.086,2.707-6.536,1.618
								c-2.758-1.225-5.544-2.39-8.312-3.591c-5.67-2.461-11.097-5.258-16.115-8.885c-5.647-4.081-10.674-9.399-14.62-15.121
								c-2.396-3.475-4.301-7.2-7.001-10.47c-3.863-4.677-9.428-7.88-14.416-11.198c-5.249-3.491-10.654-6.749-16.135-9.86
								c-2.079-1.18-4.257-2.218-6.27-3.508c-2.198-1.408-4.167-4.148-4.486-6.758c-0.476-3.885,5.149-2.361,7.023-1.82
								c9.72,2.806,18.546,7.488,28.616,9.143c13.687,2.248,28.139,1.108,41.792-0.817c17.042-2.403,32.924-9.908,48.497-16.879
								c0.026-0.012,0.052-0.023,0.078-0.035c1.763-0.79,0.236-3.375-1.514-2.591c-16.516,7.402-32.936,14.757-51.063,17.039
								c-14.688,1.849-30.244,2.536-44.68-1.229c-8.214-2.143-15.992-7.425-24.496-8.343c-7.729-0.834-8.666,6.846-4.606,11.733
								c4.553,5.481,12.774,8.404,18.702,12.036c6.191,3.793,12.976,7.684,18.345,12.601c3.587,3.285,5.83,7.48,8.401,11.529
								c6.292,9.909,15.688,17.756,26.065,23.073c5.147,2.637,11.591,6.358,17.249,7.499c1.647,0.332,3.455-0.657,4.885-1.344
								c0.674-0.324,1.315-0.729,1.948-1.124c-0.818,0.512,2.377,2.416,3.138,3.181c5.365,5.386-4.23,13.342-9.444,13.808
								c-4.848,0.434-10.862-4.017-14.908-6.103C221.916,271.087,220.398,273.676,222.119,274.563L222.119,274.563z"/>
						</g>
					</g>
				</g>
				<g>
					<g>
						<g>
							<path fill="#FFFFFF" d="M341.853,134.922c-16.845,8.116-32.902,17.927-49.182,27.098c-3.979,2.242-7.97,4.464-11.983,6.646
								c-2.186,1.188-7.109,2.648-8.503,4.72c-1.105,1.644,1.407,5.895,1.976,7.336c8.938,22.667,19.084,44.848,28.572,67.286
								c0.259,0.612,1.108,0.847,1.694,0.689c6.808-1.824,13.332-4.268,19.64-7.412c6.67-3.324,12.579-7.938,19.3-11.165
								c1.744-0.837,0.221-3.424-1.514-2.591c-6.202,2.978-11.749,7.081-17.779,10.372c-6.444,3.516-13.37,6.008-20.445,7.903
								c0.565,0.229,1.129,0.459,1.694,0.689c-9.139-21.612-18.786-43.013-27.556-64.78c-0.692-1.718-1.373-3.442-2.019-5.178
								c-0.205-0.55-0.399-1.103-0.583-1.66c-0.504-1.525,0.169,0.01-0.147,0.169c7.301-3.675,14.409-7.749,21.526-11.764
								c15.49-8.74,30.789-18.043,46.824-25.769C345.109,136.673,343.587,134.087,341.853,134.922L341.853,134.922z"/>
						</g>
					</g>
					<g>
						<g>
							<path fill="#FFFFFF" d="M300.326,238.845c-9.906,3.46-20.188,5.65-30.134,8.986c-8.913,2.989-18.57,5.757-26.698,10.559
								c-1.664,0.983-0.156,3.577,1.514,2.591c8.382-4.951,18.538-7.76,27.748-10.849c9.355-3.138,19.044-5.138,28.368-8.394
								C302.938,241.104,302.158,238.206,300.326,238.845L300.326,238.845z"/>
						</g>
					</g>
					<g>
						<g>
							<path fill="#FFFFFF" d="M108.727,250.767c9.261-2.785,21.897-3.283,28.9-10.77c1.934-2.067,2.583-5.783-0.053-7.589
								c-3.273-2.241-8.142-1.547-11.811-1.011c-8.916,1.303-19.721,3.317-26.519,9.696c-3.958,3.714-4.182,9.257-1.521,13.751
								c3.274,5.531,10.761,4.886,16.037,3.548c1.874-0.475,1.079-3.369-0.798-2.893c-6.143,1.558-13.119,1.17-14.094-6.427
								c-0.684-5.329,5.841-8.79,9.913-10.44c5.271-2.137,11.215-3.296,16.797-4.2c3.029-0.49,7.173-1.186,10.043,0.265
								c3.639,1.84-4.481,6.296-5.663,6.853c-6.958,3.275-14.731,4.129-22.029,6.324
								C106.081,248.43,106.869,251.325,108.727,250.767L108.727,250.767z"/>
						</g>
					</g>
					<g>
						<g>
							<path fill="#FFFFFF" d="M132.994,280.214c6.146-4.003,11.895-8.568,17.794-12.918c2.801-2.066,14.555-12.163,17.111-6.037
								c1.891,4.533-7.505,10.843-10.228,13.339c-4.449,4.079-9.303,8.29-13.249,12.851c-1.259,1.455,0.854,3.587,2.121,2.121
								c5.262-6.082,11.807-11.52,17.788-16.921c3.124-2.821,9.149-8.645,5.94-13.43c-3.425-5.107-9.233-2.312-13.491,0.233
								c-8.896,5.318-16.614,12.514-25.3,18.172C129.866,278.675,131.368,281.274,132.994,280.214L132.994,280.214z"/>
						</g>
					</g>
					<g>
						<g>
							<path fill="#FFFFFF" d="M135.648,278.33c3.508-5.448,6.734-11.098,9.905-16.747c3.019-5.378,6.034-10.843,7.185-16.968
								c0.609-3.236-0.326-9.958-5.298-8.65c-5.436,1.431-9.725,7.766-13.069,11.847c-3.464,4.226-6.847,8.552-10.21,12.86
								c-3.059,3.918-7.755,9.966-5.747,15.287c0.749,1.983,2.674,2.938,4.542,3.601c4.014,1.424,5.425,1.395,6.437,5.755
								c1.753,7.552,7.173,8.657,13.936,6.312c-0.615-0.349-1.23-0.698-1.845-1.048c0.878,3.406,1.763,7.44,5.145,9.203
								c3.037,1.583,7.335-0.202,10.043-1.666c7.335-3.964,14.136-11.062,19.32-17.48c3.615-4.476,1.765-9.528-4.501-8.562
								c-3.823,0.59-7.549,3.013-10.846,4.891c-5.492,3.128-10.708,6.684-15.919,10.252c-1.586,1.085-0.087,3.687,1.514,2.59
								c5.921-4.053,11.873-8.012,18.145-11.506c2.51-1.399,5.096-2.668,7.904-3.333c5.242-1.243,1.603,3.549,0.519,4.837
								c-3.987,4.738-8.681,9.006-13.511,12.863c-2.369,1.892-4.734,3.329-7.63,4.265c-5.237,1.692-6.281-3.24-7.29-7.149
								c-0.194-0.754-1.081-1.312-1.845-1.048c-4.111,1.426-8.302,2.246-9.953-2.973c-0.579-1.831-0.758-3.711-1.576-5.468
								c-1.793-3.854-8.471-1.886-9.961-5.835c-1.583-4.191,4.602-10.928,6.957-13.817c2.405-2.95,4.719-5.966,7.081-8.951
								c3.127-3.952,6.375-7.921,10.233-11.188c2.851-2.413,4.847-1.21,4.615,2.671c-0.151,2.537-1.19,5.137-2.118,7.476
								c-3.617,9.121-9.452,17.936-14.751,26.167C132.007,278.448,134.605,279.951,135.648,278.33L135.648,278.33z"/>
						</g>
					</g>
					<g>
						<g>
							<path fill="#FFFFFF" d="M155.058,185.318c-4.127,0.25-5.436,5.116-2.507,7.818c3.584,3.308,9.963,0.756,12.292-2.786
								c1.066-1.622-1.533-3.123-2.591-1.515c-1.3,1.978-3.929,3.016-6.246,2.652c-0.993-0.156-1.771-0.607-2.058-1.594
								c-0.24-0.825,0.294-1.527,1.109-1.576C156.98,188.202,156.991,185.201,155.058,185.318L155.058,185.318z"/>
						</g>
					</g>
					<g>
						<g>
							<path fill="#FFFFFF" d="M236.927,263.257c1.459,1.014,3.271,1.147,4.842,1.885c1.74,0.817,3.264-1.769,1.514-2.59
								c-1.557-0.731-3.418-0.896-4.842-1.885C236.848,259.561,235.35,262.163,236.927,263.257L236.927,263.257z"/>
						</g>
					</g>
				</g>
				<g>
					<g>
						<path fill="#FFFFFF" d="M316.097,211.857c-1.321,2.988-1.469,6.54,1.753,8.32c2.471,1.365,5.68,0.75,7.699-1.102
							c1.682-1.542,2.707-4.169,2.056-6.409c-0.901-3.103-4.508-3.263-7.137-2.871c-1.908,0.284-1.094,3.174,0.798,2.893
							c1.07-0.159,3.107-0.392,3.503,0.971c0.288,0.991-0.391,2.225-1.01,2.951c-0.914,1.071-2.292,1.482-3.668,1.212
							c-2.305-0.453-2.181-2.691-1.402-4.451C319.462,211.619,316.878,210.091,316.097,211.857L316.097,211.857z"/>
					</g>
				</g>
			</g>
		</g>
		<g>
			<g>
				<g>
					<path fill="#FFFFFF" d="M127.176,130.268c4.878,9.129,10.888,17.465,19.718,23.105c7.634,4.876,17.588,7.524,26.508,8.574
						c20.606,2.425,41.547-3.22,56.004-18.605c13.661-14.539,17.426-35.203,13.163-54.264c-4.841-21.646-24.224-40.722-45.99-45.036
						c-21.441-4.249-50.252,1.872-64.087,19.992C118.583,82.253,116.89,109.997,127.176,130.268
						c0.876,1.726,3.464,0.207,2.591-1.514c-10.208-20.118-7.997-48.809,7.517-65.727c15.15-16.521,44.692-21.022,65.327-14.333
						c25.089,8.133,40.288,34.839,38.581,60.25c-1.479,22.024-16.826,40.254-37.372,47.346c-14.169,4.891-29.328,3.78-43.515-0.329
						c-14.426-4.179-23.617-14.256-30.538-27.207C128.854,127.047,126.265,128.563,127.176,130.268z"/>
				</g>
			</g>
			<g>
				<g>
					<path fill="#FFFFFF" d="M232.964,104.072c-0.015-10.042-1.674-19.703-7.72-27.945c-5.799-7.906-14.377-14.313-23.155-18.502
						c-17.467-8.335-38.156-6.311-53.008,6.24c-17.3,14.62-20.734,39.238-11.903,59.306c9.08,20.634,33.953,31.696,55.709,29.493
						C215.729,150.351,232.42,125.765,232.964,104.072c0.049-1.936-2.952-1.931-3,0c-0.317,12.629-6.161,24.568-14.704,33.693
						c-9.097,9.716-20.926,13.211-33.953,11.819c-12.406-1.326-25.286-7.137-33.985-16.134
						c-9.671-10.001-13.794-26.288-11.585-39.783c3.676-22.453,23.252-38.748,45.868-38.13
						c21.299,0.582,44.227,17.064,47.763,38.633c0.535,3.261,0.591,6.606,0.596,9.902
						C229.967,106.006,232.967,106.006,232.964,104.072z"/>
				</g>
			</g>
			<g>
				<g>
					<path fill="#FFFFFF" d="M209.061,85.831c-0.97-4.477-13.034-3.164-16.163-3.247c-0.609-0.016-1.218-0.044-1.827-0.082
						c-0.427-0.027,0.325,0.711,0.04-0.477c-0.431-1.798-0.524-3.694-0.843-5.515c-0.771-4.403-3.57-3.751-7.491-3.834
						c-3.118-0.066-4.896,0.686-5.653,3.875c-0.338,1.427,0.079,5.29-2.104,5.471c-3.019,0.25-6.064,0.294-9.091,0.4
						c-9.368,0.329-10.387,8.564-9.863,16.666c0.536,8.291,6.968,9.989,14.228,9.76c7.296-0.23,14.55-0.894,21.862-0.687
						c0.638,0.019,5.742,0.316,5.791,1.98c0.063,2.179-1.767,2.683-3.59,2.688c-2.485,0.008-5.023-0.342-7.506-0.471
						c-6.013-0.314-12.044-0.44-18.061-0.167c-3.751,0.169-9.146-0.38-11.58,3.088c-1.486,2.119-0.653,6.414,1.193,8.055
						c2.254,2.004,6.685,0.745,9.371,0.707c1.982-0.028,3.964-0.038,5.947-0.005c2.718,0.045,3.06,1.229,3.116,3.779
						c0.053,2.413,0.485,4.05,2.876,4.823c1.85,0.598,6.969,0.259,8.44-1.204c1.934-1.922-0.499-8.135,1.956-8.855
						c5.703-1.674,12.473,1.027,16.471-4.404c3.51-4.767,3.193-12.928-0.454-17.437c-3.795-4.694-14.053-3.315-19.151-3.136
						c-3.332,0.117-6.685,0.224-10.012,0.432c-1.914,0.119-3.774,0.449-5.701,0.456c-2.45,0.11-3.595-1.155-3.434-3.794
						c0.646-2.945,3.592-2.413,5.657-2.372c8.098,0.159,16.12,1.278,24.233,0.699c4.543-0.324,10.761-1.354,11.396-6.792
						c0.224-1.919-2.778-1.897-3,0c-0.81,6.932-23.502,3.623-27.983,3.339c-3.431-0.216-9.026-1.391-11.783,1.366
						c-2.261,2.261-2.434,6.576-0.183,8.769c2.754,2.682,7.461,1.712,10.797,1.329c4.545-0.522,9.325-0.456,13.896-0.535
						c4.363-0.075,11.341-0.72,13.966,3.55c2.442,3.973,1.445,13.446-3.865,14.509c-4.064,0.813-8.337,0.156-12.35,1.334
						c-4.107,1.206-1.056,8.758-2.784,9.314c-1.479,0.476-3.073,0.581-4.613,0.604c-1.931,0.028-1.372-1.829-1.399-3.077
						c-0.034-1.551-0.135-2.921-0.842-4.309c-1.282-2.517-7.974-1.417-10.062-1.398c-1.924,0.018-3.807,0.062-5.721,0.249
						c-4.505,0.441-4.713-5.107-0.31-5.689c6.45-0.853,13.163-0.616,19.646-0.411c5.661,0.179,17.741,3.626,18.423-5.033
						c0.284-3.611-4.519-4.602-7.176-4.837c-8.698-0.771-17.415,0.59-26.109,0.586c-7.696-0.003-8.876-4.823-8.635-11.555
						c0.118-3.285,0.576-7.777,4.315-8.748c3.291-0.854,7.406-0.333,10.807-0.512c3.713-0.195,5.136-1.952,5.581-5.609
						c0.521-4.283,2.238-3.815,6.208-3.718c2.153,0.052,2.01,5.563,2.28,7.075c0.539,3.019,2.929,2.715,5.452,2.782
						c1.667,0.044,12.24-0.168,12.498,1.024C206.578,88.519,209.47,87.717,209.061,85.831z"/>
				</g>
			</g>
			<g>
				<g>
					<path fill="#FFFFFF" d="M177.301,45.176c0.421,2.951,0.412,5.943,0.413,8.917c0,1.935,3,1.935,3,0
						c-0.001-3.256-0.06-6.487-0.521-9.715C179.921,42.469,177.031,43.284,177.301,45.176L177.301,45.176z"/>
				</g>
			</g>
			<g id="states_1_">
				<g>
					<g>
						<path fill="#FFFFFF" d="M229.943,96.651c0.805,3.752,4.42,5.111,7.902,4.309c3.756-0.865,5.383-4.758,5.462-8.201
							c0.045-1.936-2.955-1.932-3,0c-0.051,2.207-0.644,3.88-2.619,5.009c-1.946,1.112-4.374,0.315-4.853-1.915
							C232.43,93.962,229.538,94.765,229.943,96.651L229.943,96.651z"/>
					</g>
				</g>
				<g opacity="0.5">
					<g>
						<path fill="#FFFFFF" d="M213.163,67.734c3.163,1.385,6.558,1.01,9.155-1.341c2.606-2.36,2.461-6.142,0.584-8.864
							c-1.09-1.582-3.692-0.083-2.591,1.514c1.21,1.755,1.445,3.617-0.115,5.229c-1.399,1.445-3.747,1.649-5.521,0.872
							C212.922,64.375,211.394,66.96,213.163,67.734L213.163,67.734z"/>
					</g>
				</g>
				<g opacity="0.5">
					<g>
						<path fill="#FFFFFF" d="M220.427,131.479c-1.438,3.394-1.946,7.631,2.178,9.312c4.25,1.733,7.823,0.564,10.766-2.875
							c1.25-1.461-0.861-3.593-2.121-2.121c-1.569,1.833-3.303,3.264-5.833,2.778c-1.111-0.214-2.567-0.682-3.033-1.819
							c-0.473-1.155,0.188-2.708,0.634-3.762C223.763,131.233,221.18,129.703,220.427,131.479L220.427,131.479z"/>
					</g>
				</g>
				<g opacity="0.5">
					<g>
						<path fill="#FFFFFF" d="M185.968,150.19c-4.076-0.459-7.833,1.745-8.281,5.995c-0.466,4.415,5.029,6.287,8.547,6.384
							c1.936,0.054,1.931-2.947,0-3c-1.697-0.047-5.41-0.737-5.555-2.884c-0.2-2.952,2.961-3.758,5.29-3.495
							C187.889,153.407,187.868,150.404,185.968,150.19L185.968,150.19z"/>
					</g>
				</g>
				<g opacity="0.5">
					<g>
						<path fill="#FFFFFF" d="M153.525,139.063c-3.199-0.884-6.911-0.996-9.721,1.025c-2.861,2.057-3.097,5.607-2.141,8.739
							c0.563,1.845,3.459,1.058,2.893-0.798c-0.673-2.206-0.722-4.467,1.432-5.798c1.963-1.213,4.646-0.854,6.74-0.276
							C154.596,142.472,155.388,139.577,153.525,139.063L153.525,139.063z"/>
					</g>
				</g>
				<g opacity="0.5">
					<g>
						<path fill="#FFFFFF" d="M135.706,108.665c-2.098-6.177-12.734-6.508-14.307,0.233c-0.439,1.882,2.453,2.681,2.893,0.798
							c0.861-3.691,7.332-3.736,8.521-0.233C133.432,111.284,136.33,110.502,135.706,108.665L135.706,108.665z"/>
					</g>
				</g>
				<g opacity="0.5">
					<g>
						<path fill="#FFFFFF" d="M133.385,67.734c4.103-2.721,9.057-1.249,8.713,4.211c-0.122,1.933,2.879,1.921,3,0
							c0.484-7.686-7.269-10.753-13.227-6.802C130.268,66.208,131.768,68.807,133.385,67.734L133.385,67.734z"/>
					</g>
				</g>
			</g>
		</g>
	</g>
</g>
</svg>
