<?xml version="1.0" encoding="UTF-8"?>
<svg width="448px" height="556px" viewBox="0 0 448 556" version="1.1" xmlns="http://www.w3.org/2000/svg" xmlns:xlink="http://www.w3.org/1999/xlink">
    <!-- Generator: Sketch 44.1 (41455) - http://www.bohemiancoding.com/sketch -->
    <title>Group 2</title>
    <desc>Created with Sketch.</desc>
    <defs></defs>
    <g id="Page-1" stroke="none" stroke-width="1" fill="none" fill-rule="evenodd">
        <g id="Group-2">
            <g id="Group">
                <path d="M360,32 L216,32 C216,40.836 208.836,48 200,48 C191.164,48 184,40.836 184,32 L40,32 C17.945,32 0,49.945 0,72 L0,472 C0,494.055 17.945,512 40,512 L360,512 C382.055,512 400,494.055 400,472 L400,72 C400,49.945 382.054,32 360,32 Z M360,464 C360,468.418 356.418,472 352,472 L48,472 C43.582,472 40,468.418 40,464 L40,80 C40,75.582 43.582,72 48,72 L352,72 C356.418,72 360,75.582 360,80 L360,464 Z" id="Shape" fill="#9F6459" fill-rule="nonzero"></path>
                <path d="M248,16 L227.609,16 C221.969,6.242 211.484,0 200,0 C188.516,0 178.031,6.242 172.391,16 L152,16 C129.945,16 112,33.945 112,56 L112,88 C112,92.418 115.578,96 120,96 L280,96 C284.422,96 288,92.418 288,88 L288,56 C288,33.945 270.055,16 248,16 Z M200,40 C195.582,40 192,36.418 192,32 C192,27.582 195.582,24 200,24 C204.418,24 208,27.582 208,32 C208,36.418 204.418,40 200,40 Z" id="Shape" fill="#B9BBC1" fill-rule="nonzero"></path>
                <rect id="Rectangle" fill="#D8D8D8" x="191.550201" y="146" width="152.449799" height="24" rx="10"></rect>
                <rect id="Rectangle-Copy-8" fill="#D8D8D8" x="191.550201" y="106" width="152.449799" height="24" rx="10"></rect>
                <rect id="Rectangle-2" fill="#D8D8D8" x="52" y="107" width="118" height="136"></rect>
                <rect id="Rectangle-Copy" fill="#D8D8D8" x="191.550201" y="186" width="152.449799" height="24" rx="10"></rect>
                <rect id="Rectangle-Copy-3" fill="#D8D8D8" x="191.550201" y="226" width="152.449799" height="24" rx="10"></rect>
                <rect id="Rectangle-Copy-2" fill="#D8D8D8" x="52" y="266" width="292" height="24" rx="10"></rect>
                <rect id="Rectangle-Copy-7" fill="#D8D8D8" x="51.7678259" y="306" width="292.232174" height="24" rx="10"></rect>
                <rect id="Rectangle-Copy-6" fill="#D8D8D8" x="51.7678259" y="346" width="292.232174" height="24" rx="10"></rect>
                <rect id="Rectangle-Copy-4" fill="#D8D8D8" x="204.449799" y="426" width="139.550201" height="24" rx="10"></rect>
                <rect id="Rectangle-Copy-5" fill="#D8D8D8" x="52" y="426" width="139.550201" height="24" rx="10"></rect>
            </g>
            <g id="no" transform="translate(171.000000, 279.000000)" fill-rule="nonzero">
                <path d="M138.298458,0.892665444 C62.1340429,0.892665444 0.391349706,62.6402101 0.391349706,138.806242 C0.391349706,185.659858 23.7769203,227.028109 59.4883896,251.953205 C81.8292829,267.547358 108.984424,276.718202 138.298458,276.718202 C167.617343,276.718202 194.774102,267.547358 217.123081,251.953205 C252.836167,227.028109 276.221738,185.663092 276.221738,138.806242 C276.221738,62.6402101 214.474193,0.892665444 138.298458,0.892665444" id="Fill-63" fill="#AF2A30"></path>
                <path d="M204.734113,218.795211 C201.265332,218.795211 197.791699,217.470767 195.146046,214.823497 L62.287672,81.9651233 C56.9898966,76.6673479 56.9898966,68.0835288 62.287672,62.7889877 C67.5805959,57.5041495 76.1595636,57.5041495 81.4541047,62.7889877 L214.325415,195.655447 C219.608636,200.948371 219.608636,209.528956 214.325415,214.823497 C211.665208,217.470767 208.207746,218.795211 204.734113,218.795211" id="Fill-64" fill="#FFFFFF"></path>
                <path d="M71.878974,218.795211 C68.403724,218.795211 64.9333253,217.470767 62.287672,214.823497 C56.9898966,209.528956 56.9898966,200.948371 62.287672,195.655447 L195.146046,62.7889877 C200.440587,57.5041495 209.01632,57.5041495 214.325415,62.7889877 C219.608636,68.0835288 219.608636,76.6673479 214.325415,81.9651233 L81.4541047,214.823497 C78.8084513,217.470767 75.3348183,218.795211 71.878974,218.795211" id="Fill-65" fill="#FFFFFF"></path>
            </g>
        </g>
    </g>
</svg>