<?xml version="1.0" encoding="UTF-8" standalone="no"?>
<svg width="449px" height="464px" viewBox="0 0 449 464" version="1.1" xmlns="http://www.w3.org/2000/svg" xmlns:xlink="http://www.w3.org/1999/xlink">
    <!-- Generator: Sketch 45.2 (43514) - http://www.bohemiancoding.com/sketch -->
    <title>like</title>
    <desc>Created with Sketch.</desc>
    <defs></defs>
    <g id="Page-1" stroke="none" stroke-width="1" fill="none" fill-rule="evenodd">
        <g id="like" transform="translate(224.500000, 232.279419) scale(-1, 1) translate(-224.500000, -232.279419) translate(0.000000, 0.279419)" fill-rule="nonzero">
            <path d="M304.317804,230.899261 L186.684875,230.899261 C180.554446,230.899261 175.182401,226.798734 173.566082,220.885503 C171.949763,214.972272 174.489176,208.708809 179.766196,205.589295 C231.018721,175.304576 257.640929,139.97723 261.152305,97.5891218 C262.376762,82.8784445 275.479265,71.1280026 290.352842,71.3225763 C305.529591,71.5651147 319.747951,77.6484843 330.397016,88.4541125 C341.054225,99.2696957 346.927636,113.592131 346.933066,128.78155 C346.933066,128.78336 346.933066,128.78517 346.933066,128.78698 L346.933066,133.356294 C346.933066,170.461048 335.942819,194.119401 315.664618,224.796887 C313.14421,228.607817 308.884403,230.899261 304.317804,230.899261 Z" id="Shape" fill="#FFC380"></path>
            <path d="M448.480631,246.313119 C448.480631,222.815855 429.364443,203.698762 405.866274,203.698762 L186.684875,203.698762 C184.249536,203.698762 181.858542,204.352168 179.763481,205.592009 C164.377678,214.689009 148.842551,222.177834 136.359969,228.196949 C132.006043,230.29563 127.893751,232.278472 124.15341,234.14819 C119.546086,236.452305 116.635625,241.160988 116.635625,246.313119 L116.635625,420.396858 C116.635625,425.548989 119.546086,430.257672 124.15341,432.561787 C179.10736,460.03469 224.787837,463.356922 278.056688,463.356922 C286.305708,463.356922 294.742062,463.277283 303.417335,463.195834 C313.012081,463.105334 322.93172,463.011215 333.331911,463.011215 L376.327271,463.011215 C399.824534,463.011215 418.941627,443.895027 418.941627,420.396858 C418.941627,412.49626 416.781407,405.091599 413.018442,398.741257 C425.262105,391.246096 433.448681,377.746301 433.448681,362.368643 C433.448681,354.468046 431.28846,347.063385 427.525495,340.713042 C439.769159,333.217882 447.955735,319.718086 447.955735,304.340429 C447.955735,293.288642 443.726698,283.206104 436.802589,275.626779 C444.342999,267.680027 448.480631,257.315131 448.480631,246.313119 Z" id="Shape" fill="#FFCF99"></path>
            <g id="Group" transform="translate(173.758846, 0.000000)" fill="#29CCB1">
                <path d="M246.432578,127.710037 L217.418471,127.710037 C209.907926,127.710037 203.818221,121.620332 203.818221,114.109787 C203.818221,106.599242 209.907926,100.509537 217.418471,100.509537 L246.432578,100.509537 C253.943123,100.509537 260.032828,106.599242 260.032828,114.109787 C260.032828,121.620332 253.944028,127.710037 246.432578,127.710037 Z" id="Shape"></path>
                <path d="M43.3347322,127.710037 L14.3206249,127.710037 C6.81007977,127.710037 0.720375215,121.620332 0.720375215,114.109787 C0.720375215,106.599242 6.81007977,100.509537 14.3206249,100.509537 L43.3347322,100.509537 C50.8452773,100.509537 56.9349818,106.599242 56.9349818,114.109787 C56.9349818,121.620332 50.8470873,127.710037 43.3347322,127.710037 Z" id="Shape"></path>
                <path d="M86.869468,52.3321824 C82.1680243,52.3321824 77.5978046,49.8932236 75.0792063,45.5302476 L60.5721527,20.4030895 C56.8164276,13.8988977 59.0454278,5.58019294 65.5496196,1.82537288 C72.0538114,-1.93035218 80.3725162,0.298648016 84.1273362,6.80283982 L98.6343899,31.9299979 C102.390115,38.4341897 100.161115,46.7528945 93.6569229,50.5077145 C91.5157072,51.7448413 89.1762977,52.3321824 86.869468,52.3321824 Z" id="Shape"></path>
                <path d="M173.88464,52.3321824 C171.576905,52.3321824 169.238401,51.7448413 167.097185,50.5077145 C160.592993,46.7519895 158.363993,38.4341897 162.119718,31.9299979 L176.626772,6.80283982 C180.381592,0.298648016 188.700297,-1.93216217 195.204488,1.82537288 C201.70868,5.58109793 203.93768,13.8988977 200.181955,20.4030895 L185.674902,45.5302476 C183.158113,49.8932236 178.585179,52.3321824 173.88464,52.3321824 Z" id="Shape"></path>
            </g>
            <path d="M85.6241963,391.554699 L85.6241963,463.183164 L58.423697,463.183164 L58.423697,391.554699 C58.423697,384.047774 64.5170215,377.95445 72.0239466,377.95445 C79.5308718,377.95445 85.6241963,384.047774 85.6241963,391.554699 Z" id="SVGCleanerId_0" fill="#73C3FF"></path>
            <g id="Group" transform="translate(173.758846, 0.000000)" fill="#29CCB1">
                <path d="M246.432578,127.710037 L217.418471,127.710037 C209.907926,127.710037 203.818221,121.620332 203.818221,114.109787 C203.818221,106.599242 209.907926,100.509537 217.418471,100.509537 L246.432578,100.509537 C253.943123,100.509537 260.032828,106.599242 260.032828,114.109787 C260.032828,121.620332 253.944028,127.710037 246.432578,127.710037 Z" id="Shape"></path>
                <path d="M43.3347322,127.710037 L14.3206249,127.710037 C6.81007977,127.710037 0.720375215,121.620332 0.720375215,114.109787 C0.720375215,106.599242 6.81007977,100.509537 14.3206249,100.509537 L43.3347322,100.509537 C50.8452773,100.509537 56.9349818,106.599242 56.9349818,114.109787 C56.9349818,121.620332 50.8470873,127.710037 43.3347322,127.710037 Z" id="Shape"></path>
                <path d="M86.869468,52.3321824 C82.1680243,52.3321824 77.5978046,49.8932236 75.0792063,45.5302476 L60.5721527,20.4030895 C56.8164276,13.8988977 59.0454278,5.58019294 65.5496196,1.82537288 C72.0538114,-1.93035218 80.3725162,0.298648016 84.1273362,6.80283982 L98.6343899,31.9299979 C102.390115,38.4341897 100.161115,46.7528945 93.6569229,50.5077145 C91.5157072,51.7448413 89.1762977,52.3321824 86.869468,52.3321824 Z" id="Shape"></path>
                <path d="M173.88464,52.3321824 C171.576905,52.3321824 169.238401,51.7448413 167.097185,50.5077145 C160.592993,46.7519895 158.363993,38.4341897 162.119718,31.9299979 L176.626772,6.80283982 C180.381592,0.298648016 188.700297,-1.93216217 195.204488,1.82537288 C201.70868,5.58109793 203.93768,13.8988977 200.181955,20.4030895 L185.674902,45.5302476 C183.158113,49.8932236 178.585179,52.3321824 173.88464,52.3321824 Z" id="Shape"></path>
            </g>
            <path d="M85.6241963,391.554699 L85.6241963,463.183164 L58.423697,463.183164 L58.423697,391.554699 C58.423697,384.047774 64.5170215,377.95445 72.0239466,377.95445 C79.5308718,377.95445 85.6241963,384.047774 85.6241963,391.554699 Z" id="SVGCleanerId_0_1_" fill="#73C3FF"></path>
            <path d="M130.052161,203.698762 L13.996637,203.698762 C6.4897119,203.698762 0.396387367,209.792087 0.396387367,217.299012 L0.396387367,449.41006 C0.396387367,456.926035 6.4897119,463.01031 13.996637,463.182259 L101.038054,463.182259 C117.711663,463.01031 132.173467,453.390224 139.164546,439.408972 C142.038807,433.6876 143.652411,427.223227 143.652411,420.395953 L143.652411,217.299012 C143.652411,209.791182 137.559086,203.698762 130.052161,203.698762 Z" id="Shape" fill="#44A4EC"></path>
            <path d="M85.6241963,390.647895 L85.6241963,463.183164 L58.423697,463.183164 L58.423697,390.647895 C58.423697,383.14097 64.5170215,377.047646 72.0239466,377.047646 C79.5308718,377.047646 85.6241963,383.14097 85.6241963,390.647895 Z" id="Shape" fill="#73C3FF"></path>
        </g>
    </g>
</svg>