<?xml version="1.0" encoding="UTF-8"?>
<svg width="171px" height="172px" viewBox="0 0 171 172" version="1.1" xmlns="http://www.w3.org/2000/svg" xmlns:xlink="http://www.w3.org/1999/xlink">
    <!-- Generator: Sketch 44.1 (41455) - http://www.bohemiancoding.com/sketch -->
    <title>Group</title>
    <desc>Created with Sketch.</desc>
    <defs></defs>
    <g id="Page-1" stroke="none" stroke-width="1" fill="none" fill-rule="evenodd">
        <g id="Group">
            <path d="M85.52,0.552 C38.422,0.552 0.242,38.735 0.242,85.834 C0.242,114.807 14.703,140.388 36.786,155.801 C50.601,165.444 67.393,171.115 85.52,171.115 C103.65,171.115 120.443,165.444 134.263,155.801 C156.347,140.388 170.808,114.809 170.808,85.834 C170.808,38.735 132.625,0.552 85.52,0.552" id="Fill-63" fill="#AF2A30"></path>
            <path d="M126.602,135.297 C124.457,135.297 122.309,134.478 120.673,132.841 L38.517,50.685 C35.241,47.409 35.241,42.101 38.517,38.827 C41.79,35.559 47.095,35.559 50.369,38.827 L132.533,120.988 C135.8,124.261 135.8,129.567 132.533,132.841 C130.888,134.478 128.75,135.297 126.602,135.297" id="Fill-64" fill="#FFFFFF"></path>
            <path d="M44.448,135.297 C42.299,135.297 40.153,134.478 38.517,132.841 C35.241,129.567 35.241,124.261 38.517,120.988 L120.673,38.827 C123.947,35.559 129.25,35.559 132.533,38.827 C135.8,42.101 135.8,47.409 132.533,50.685 L50.369,132.841 C48.733,134.478 46.585,135.297 44.448,135.297" id="Fill-65" fill="#FFFFFF"></path>
        </g>
    </g>
</svg>