<?xml version="1.0" encoding="UTF-8"?>
<svg width="80px" height="105px" viewBox="0 0 80 105" version="1.1" xmlns="http://www.w3.org/2000/svg" xmlns:xlink="http://www.w3.org/1999/xlink">
    <!-- Generator: Sketch 42 (36781) - http://www.bohemiancoding.com/sketch -->
    <title>Group 4</title>
    <desc>Created with Sketch.</desc>
    <defs></defs>
    <g id="Page-1" stroke="none" stroke-width="1" fill="none" fill-rule="evenodd">
        <g id="Desktop-HD" transform="translate(-337.000000, -89.000000)" fill="#828282">
            <g id="Group-4" transform="translate(337.000000, 89.000000)">
                <g id="Group">
                    <g id="Vector" transform="translate(19.000000, 0.000000)">
                        <g id="path40_fill-link" transform="translate(0.471500, 0.238000)">
                            <path d="M20.5316,41.0632 C31.8529,41.0632 41.0632,31.8529 41.0632,20.5316 C41.0632,9.21029 31.8529,0 20.5316,0 C9.21029,0 1.49673724e-07,9.21029 1.49673724e-07,20.5316 C1.49673724e-07,31.8529 9.21029,41.0632 20.5316,41.0632 Z" id="path40_fill"></path>
                        </g>
                    </g>
                    <g id="Vector" transform="translate(0.000000, 49.000000)">
                        <g id="path41_fill-link" transform="translate(0.000000, 0.360000)">
                            <path d="M67.5538,1.89068 C67.545,1.88788 67.5282,1.88157 67.5195,1.87947 C64.8462,1.22647 56.6599,0.0812755 56.6599,0.0812755 C55.7357,-0.203185 54.7482,0.286215 54.4157,1.1981 L42.0935,35.0072 C41.3827,36.9575 38.6243,36.9575 37.9135,35.0072 L25.5913,1.1981 C25.323,0.461725 24.6279,-2.43754005e-06 23.8831,-2.43754005e-06 C23.7066,-2.43754005e-06 15.2894,1.18023 12.4872,1.87702 C4.82987,3.78101 -1.06909283e-07,11.3108 -1.06909283e-07,19.158 L-1.06909283e-07,47.2895 C-1.06909283e-07,51.5052 3.41773,54.923 7.63349,54.923 L72.3665,54.923 C76.5823,54.923 80,51.5052 80,47.2895 L80,19.0645 C79.9996,11.2513 74.9806,4.31735 67.5538,1.89068 Z" id="path41_fill"></path>
                        </g>
                    </g>
                    <g id="Vector" transform="translate(34.000000, 47.000000)">
                        <g id="path42_fill-link" transform="translate(0.681500, 0.991000)">
                            <path d="M9.96862,0.80539 C9.47677,0.269399 8.75791,-1.62501999e-06 8.03064,-1.62501999e-06 L2.60592,-1.62501999e-06 C1.87866,-1.62501999e-06 1.15945,0.269749 0.667949,0.80539 C-0.0932985,1.63495 -0.204,2.8334 0.336546,3.7698 L3.2365,8.14146 L1.87901,19.5935 L4.55231,26.705 C4.81295,27.4203 5.82432,27.4203 6.08496,26.705 L8.75826,19.5935 L7.40077,8.14146 L10.3007,3.7698 C10.8406,2.8334 10.7299,1.63495 9.96862,0.80539 Z" id="path42_fill"></path>
                        </g>
                    </g>
                </g>
            </g>
        </g>
    </g>
</svg>