<?xml version="1.0" encoding="UTF-8"?>
<svg width="100px" height="102px" viewBox="0 0 100 102" version="1.1" xmlns="http://www.w3.org/2000/svg" xmlns:xlink="http://www.w3.org/1999/xlink">
    <!-- Generator: Sketch 42 (36781) - http://www.bohemiancoding.com/sketch -->
    <title>Group 2</title>
    <desc>Created with Sketch.</desc>
    <defs>
        <polygon id="path-1" points="0.544 0.706 82.52 0.706 82.52 82.682 0.544 82.682"></polygon>
        <polygon id="path-3" points="0.544 0.706 82.52 0.706 82.52 82.682 0.544 82.682"></polygon>
        <polygon id="path-5" points="0.544 0.706 82.52 0.706 82.52 82.682 0.544 82.682"></polygon>
        <polygon id="path-7" points="0.544 0.706 82.52 0.706 82.52 82.682 0.544 82.682"></polygon>
        <polygon id="path-9" points="0.544 0.706 82.52 0.706 82.52 82.682 0.544 82.682"></polygon>
        <polygon id="path-11" points="0.544 0.706 82.52 0.706 82.52 82.682 0.544 82.682"></polygon>
        <polygon id="path-13" points="0.544 0.706 82.52 0.706 82.52 82.682 0.544 82.682"></polygon>
        <polygon id="path-15" points="0.544 0.706 82.52 0.706 82.52 82.682 0.544 82.682"></polygon>
        <polygon id="path-17" points="0.544 0.706 82.52 0.706 82.52 82.682 0.544 82.682"></polygon>
        <polygon id="path-19" points="0.544 0.706 82.52 0.706 82.52 82.682 0.544 82.682"></polygon>
        <polygon id="path-21" points="0.544 0.706 82.52 0.706 82.52 82.682 0.544 82.682"></polygon>
        <polygon id="path-23" points="0.544 0.706 82.52 0.706 82.52 82.682 0.544 82.682"></polygon>
        <polygon id="path-25" points="0.544 0.706 82.52 0.706 82.52 82.682 0.544 82.682"></polygon>
        <polygon id="path-27" points="0.544 0.706 82.52 0.706 82.52 82.682 0.544 82.682"></polygon>
        <polygon id="path-29" points="0.544 0.706 82.52 0.706 82.52 82.682 0.544 82.682"></polygon>
    </defs>
    <g id="Page-1" stroke="none" stroke-width="1" fill="none" fill-rule="evenodd">
        <g id="Desktop-HD" transform="translate(-796.000000, -98.000000)">
            <g id="Group-2" transform="translate(795.000000, 98.000000)">
                <g id="Group" transform="translate(1.000000, 0.000000)" fill="#828282">
                    <g id="Vector">
                        <g transform="translate(17.000000, 0.000000)">
                            <g id="path52_fill-link" transform="translate(0.085000, 0.706000)">
                                <path d="M7.15979,27.4333 L7.15979,59.1162 L14.0335,59.1162 L14.0335,22.7943 L35.0145,8.36976 L55.5282,22.773 L55.5282,67.4475 C57.28,65.9981 59.0154,64.53 60.6918,62.9913 C61.2698,62.4609 61.8378,61.9231 62.4027,61.3853 L62.4027,27.062 L66.5072,29.8696 L70.3871,24.1961 L36.9868,1.35425 L35.0571,0 L33.0905,1.35261 L17.6577,11.916 L17.6577,6.53923 L9.00671,6.53923 L9.00671,17.8396 L-5.2535961e-07,24.0059 L3.88321,29.677 L7.15979,27.4333 Z" id="path52_fill"></path>
                            </g>
                        </g>
                        <g transform="translate(42.000000, 25.000000)">
                            <g id="path53_fill-link" transform="translate(0.423000, 0.891000)">
                                <path d="M11.0881,33.1651 L11.0881,29.0474 C15.0811,28.1555 17.6265,25.2634 17.6265,21.5327 C17.6265,17.7929 15.6017,15.4394 10.8807,13.6679 C7.70084,12.3964 6.68023,11.6472 6.68023,10.5872 C6.68023,9.36905 7.76805,8.64438 9.58956,8.64438 C11.8603,8.64438 13.3965,9.35921 14.313,9.78713 L15.3336,10.256 L16.8067,5.23827 L16.2362,4.953 C14.7213,4.19636 13.1449,3.77172 11.3225,3.63564 L11.3225,-3.50240043e-07 L6.62449,-3.50240043e-07 L6.62449,3.93157 C2.76588,4.84233 0.395946,7.5541 0.395946,11.1283 C0.395946,15.5681 4.03404,17.4822 7.58935,18.7692 C10.852,19.9612 11.3029,21.0064 11.3029,21.9589 C11.3029,23.3509 9.99207,24.251 7.96644,24.251 C6.09984,24.251 4.04224,23.669 2.32156,22.6549 L1.47229,22.1532 L-2.00137038e-07,27.2735 L0.464805,27.5833 C1.86086,28.5146 4.12668,29.1901 6.39086,29.3712 L6.39086,33.1659 L11.0881,33.1659 L11.0881,33.1651 Z" id="path53_fill"></path>
                            </g>
                        </g>
                        <g transform="translate(0.000000, 61.000000)">
                            <g id="path54_fill-link" transform="translate(0.029000, 0.809000)">
                                <path d="M99.4985,13.0998 C99.314,10.8692 97.6729,9.13542 95.2661,7.21718 C93.5806,5.87523 90.3172,4.30948 86.6594,4.30948 C83.5648,4.30948 79.0799,5.43091 75.2705,10.7667 C71.8439,15.141 67.5483,16.9133 64.061,17.5831 C64.3734,16.801 64.5767,15.8624 64.5832,14.5368 C64.6136,7.11553 58.7006,1.53869 50.5235,1.5018 L21.3326,1.5264 C18.593,1.5264 15.8968,2.33468 13.6236,3.79795 L13.6236,1.65113011e-06 L6.25368557e-09,1.65113011e-06 L6.25368557e-09,39.3805 L13.6228,39.3805 L13.6228,35.1964 C14.1376,35.4506 14.8467,35.9654 14.8467,35.9654 C17.192,37.259 20.8269,38.8477 24.5346,38.8477 L51.3515,38.8477 C74.4523,38.8477 90.4008,25.9061 96.1842,19.4956 C97.9147,17.5781 99.7043,15.5951 99.4985,13.0998 Z M9.06,8.69849 L4.29801,8.69849 L4.29801,3.93567 L9.06,3.93567 L9.06,8.69849 Z M92.6502,16.305 C87.2914,22.245 72.5423,34.0857 51.3515,34.0857 L24.5346,34.0857 C20.0005,34.0857 15.118,30.5394 15.0738,30.5049 C14.6557,30.1967 14.1581,30.0393 13.6564,30.0393 C13.6457,30.0393 13.6343,30.0426 13.622,30.0426 L13.622,9.05836 C14.1433,9.06656 14.6631,8.91818 15.0934,8.59109 L15.614,8.19843 C17.2338,6.96797 19.2636,6.28921 21.3203,6.28921 L50.4997,6.26379 C55.1552,6.28347 59.8442,8.95835 59.8196,14.5171 C59.8196,17.7273 57.6792,17.8929 57.5644,17.9208 L36.1761,17.9208 C34.8612,17.9208 33.7955,18.9873 33.7955,20.3014 C33.7955,21.6155 34.8612,22.6811 36.1761,22.6811 L58.8769,22.6811 L60.1418,22.6779 C63.7061,22.6771 72.68,21.8352 79.0569,13.6539 C79.0774,13.6261 79.1004,13.5974 79.1192,13.5687 C81.2383,10.5831 83.7755,9.06983 86.6578,9.06983 C89.2605,9.06983 91.4853,10.2946 92.2977,10.9414 C94.6832,12.8416 94.7496,13.4646 94.7513,13.4892 C94.7595,13.9671 93.2265,15.6656 92.6502,16.305 Z" id="path54_fill"></path>
                            </g>
                        </g>
                    </g>
                </g>
                <g id="Group-Clipped">
                    <mask id="mask-2" fill="white">
                        <use xlink:href="#path-1"></use>
                    </mask>
                    <g id="Shape"></g>
                </g>
                <g id="Group-Clipped">
                    <mask id="mask-4" fill="white">
                        <use xlink:href="#path-3"></use>
                    </mask>
                    <g id="Shape"></g>
                </g>
                <g id="Group-Clipped">
                    <mask id="mask-6" fill="white">
                        <use xlink:href="#path-5"></use>
                    </mask>
                    <g id="Shape"></g>
                </g>
                <g id="Group-Clipped">
                    <mask id="mask-8" fill="white">
                        <use xlink:href="#path-7"></use>
                    </mask>
                    <g id="Shape"></g>
                </g>
                <g id="Group-Clipped">
                    <mask id="mask-10" fill="white">
                        <use xlink:href="#path-9"></use>
                    </mask>
                    <g id="Shape"></g>
                </g>
                <g id="Group-Clipped">
                    <mask id="mask-12" fill="white">
                        <use xlink:href="#path-11"></use>
                    </mask>
                    <g id="Shape"></g>
                </g>
                <g id="Group-Clipped">
                    <mask id="mask-14" fill="white">
                        <use xlink:href="#path-13"></use>
                    </mask>
                    <g id="Shape"></g>
                </g>
                <g id="Group-Clipped">
                    <mask id="mask-16" fill="white">
                        <use xlink:href="#path-15"></use>
                    </mask>
                    <g id="Shape"></g>
                </g>
                <g id="Group-Clipped">
                    <mask id="mask-18" fill="white">
                        <use xlink:href="#path-17"></use>
                    </mask>
                    <g id="Shape"></g>
                </g>
                <g id="Group-Clipped">
                    <mask id="mask-20" fill="white">
                        <use xlink:href="#path-19"></use>
                    </mask>
                    <g id="Shape"></g>
                </g>
                <g id="Group-Clipped">
                    <mask id="mask-22" fill="white">
                        <use xlink:href="#path-21"></use>
                    </mask>
                    <g id="Shape"></g>
                </g>
                <g id="Group-Clipped">
                    <mask id="mask-24" fill="white">
                        <use xlink:href="#path-23"></use>
                    </mask>
                    <g id="Shape"></g>
                </g>
                <g id="Group-Clipped">
                    <mask id="mask-26" fill="white">
                        <use xlink:href="#path-25"></use>
                    </mask>
                    <g id="Shape"></g>
                </g>
                <g id="Group-Clipped">
                    <mask id="mask-28" fill="white">
                        <use xlink:href="#path-27"></use>
                    </mask>
                    <g id="Shape"></g>
                </g>
                <g id="Group-Clipped">
                    <mask id="mask-30" fill="white">
                        <use xlink:href="#path-29"></use>
                    </mask>
                    <g id="Shape"></g>
                </g>
            </g>
        </g>
    </g>
</svg>