<?xml version="1.0" encoding="UTF-8"?>
<svg width="101px" height="101px" viewBox="0 0 101 101" version="1.1" xmlns="http://www.w3.org/2000/svg" xmlns:xlink="http://www.w3.org/1999/xlink">
    <!-- Generator: Sketch 42 (36781) - http://www.bohemiancoding.com/sketch -->
    <title>question-mark-on-a-circular-black-background</title>
    <desc>Created with Sketch.</desc>
    <defs>
        <polygon id="path-1" points="0.5 0.937 23.303 0.937 23.303 23.74 0.5 23.74"></polygon>
        <polygon id="path-3" points="0.5 0.937 23.303 0.937 23.303 23.74 0.5 23.74"></polygon>
        <polygon id="path-5" points="0.5 0.937 23.303 0.937 23.303 23.74 0.5 23.74"></polygon>
        <polygon id="path-7" points="0.5 0.937 23.303 0.937 23.303 23.74 0.5 23.74"></polygon>
        <polygon id="path-9" points="0.5 0.937 23.303 0.937 23.303 23.74 0.5 23.74"></polygon>
        <polygon id="path-11" points="0.5 0.937 23.303 0.937 23.303 23.74 0.5 23.74"></polygon>
        <polygon id="path-13" points="0.5 0.937 23.303 0.937 23.303 23.74 0.5 23.74"></polygon>
        <polygon id="path-15" points="0.5 0.937 23.303 0.937 23.303 23.74 0.5 23.74"></polygon>
        <polygon id="path-17" points="0.5 0.937 23.303 0.937 23.303 23.74 0.5 23.74"></polygon>
        <polygon id="path-19" points="0.5 0.937 23.303 0.937 23.303 23.74 0.5 23.74"></polygon>
        <polygon id="path-21" points="0.5 0.937 23.303 0.937 23.303 23.74 0.5 23.74"></polygon>
        <polygon id="path-23" points="0.5 0.937 23.303 0.937 23.303 23.74 0.5 23.74"></polygon>
        <polygon id="path-25" points="0.5 0.937 23.303 0.937 23.303 23.74 0.5 23.74"></polygon>
        <polygon id="path-27" points="0.5 0.937 23.303 0.937 23.303 23.74 0.5 23.74"></polygon>
        <polygon id="path-29" points="0.5 0.937 23.303 0.937 23.303 23.74 0.5 23.74"></polygon>
    </defs>
    <g id="Page-1" stroke="none" stroke-width="1" fill="none" fill-rule="evenodd">
        <g id="Desktop-HD" transform="translate(-819.000000, -258.000000)">
            <g id="question-mark-on-a-circular-black-background" transform="translate(819.000000, 258.000000)">
                <g id="Group" fill="#828282">
                    <g id="Vector">
                        <g id="path133_fill-link" transform="translate(0.500000, 0.937000)">
                            <path d="M93.296,24.9019 C88.8248,17.2418 82.7598,11.1768 75.0994,6.70578 C67.4377,2.23496 59.0739,0 50.0016,0 C40.9302,0 32.5639,2.23496 24.9035,6.70578 C17.2428,11.1762 11.1777,17.2412 6.70647,24.9019 C2.23496,32.5632 0,40.9295 0,50.0002 C0,59.0714 2.23564,67.4364 6.70578,75.0981 C11.1768,82.7582 17.2418,88.8232 24.9026,93.2947 C32.5639,97.7653 40.9295,100 50.0007,100 C59.0719,100 67.4384,97.7653 75.0992,93.2947 C82.7595,88.8248 88.8243,82.7582 93.2951,75.0981 C97.7653,67.437 100,59.0709 100,50.0002 C100,40.9286 97.7653,32.562 93.296,24.9019 Z M58.3355,81.2504 C58.3355,81.8574 58.139,82.357 57.7488,82.747 C57.3602,83.1371 56.8606,83.3323 56.2536,83.3323 L43.7521,83.3323 C43.1446,83.3323 42.6452,83.1371 42.2546,82.747 C41.8638,82.3568 41.6686,81.8574 41.6686,81.2504 L41.6686,68.7489 C41.6686,68.1419 41.8635,67.6423 42.2546,67.2523 C42.6452,66.8628 43.1446,66.6679 43.7521,66.6679 L56.2536,66.6679 C56.8606,66.6679 57.3602,66.8628 57.7488,67.2523 C58.139,67.6425 58.3355,68.1419 58.3355,68.7489 L58.3355,81.2504 Z M74.188,42.7732 C73.6448,44.3792 73.0378,45.6929 72.3651,46.7124 C71.6926,47.7324 70.7262,48.7743 69.467,49.8372 C68.2105,50.9005 67.2115,51.6605 66.4718,52.1171 C65.7352,52.572 64.6708,53.1918 63.2834,53.9721 C61.8507,54.796 60.669,55.8707 59.7363,57.1951 C58.803,58.5186 58.3364,59.5925 58.3364,60.4163 C58.3364,61.0252 58.1399,61.5244 57.7495,61.9147 C57.3602,62.3049 56.8608,62.4999 56.2536,62.4999 L43.7528,62.4999 C43.1453,62.4999 42.6459,62.3049 42.2553,61.9147 C41.8642,61.5244 41.6697,61.0252 41.6697,60.4163 L41.6697,58.0724 C41.6697,55.1645 42.8083,52.4397 45.0872,49.9015 C47.3662,47.3621 49.8728,45.4849 52.6076,44.2695 C54.6895,43.315 56.1658,42.3381 57.0337,41.34 C57.903,40.3419 58.3369,39.0168 58.3369,37.3683 C58.3369,35.9356 57.5224,34.6554 55.8944,33.5262 C54.2665,32.3981 52.4124,31.8339 50.3284,31.8339 C48.0708,31.8339 46.2051,32.355 44.729,33.3971 C43.2963,34.4381 41.4305,36.435 39.1299,39.3859 C38.7392,39.9072 38.1965,40.1683 37.5019,40.1683 C36.9811,40.1683 36.5686,40.0384 36.2651,39.7786 L27.6719,33.2678 C26.6738,32.4863 26.5002,31.5753 27.1506,30.5335 C32.7068,21.2885 40.7578,16.6661 51.3043,16.6661 C55.0813,16.6661 58.7711,17.5561 62.3733,19.3359 C65.9753,21.1148 68.9815,23.6325 71.3911,26.8881 C73.7978,30.1426 75.0043,33.6805 75.0043,37.5001 C75.0011,39.4097 74.7289,41.1667 74.188,42.7732 Z" id="path133_fill"></path>
                        </g>
                    </g>
                </g>
                <g id="Group-Clipped">
                    <mask id="mask-2" fill="white">
                        <use xlink:href="#path-1"></use>
                    </mask>
                    <g id="Shape"></g>
                </g>
                <g id="Group-Clipped">
                    <mask id="mask-4" fill="white">
                        <use xlink:href="#path-3"></use>
                    </mask>
                    <g id="Shape"></g>
                </g>
                <g id="Group-Clipped">
                    <mask id="mask-6" fill="white">
                        <use xlink:href="#path-5"></use>
                    </mask>
                    <g id="Shape"></g>
                </g>
                <g id="Group-Clipped">
                    <mask id="mask-8" fill="white">
                        <use xlink:href="#path-7"></use>
                    </mask>
                    <g id="Shape"></g>
                </g>
                <g id="Group-Clipped">
                    <mask id="mask-10" fill="white">
                        <use xlink:href="#path-9"></use>
                    </mask>
                    <g id="Shape"></g>
                </g>
                <g id="Group-Clipped">
                    <mask id="mask-12" fill="white">
                        <use xlink:href="#path-11"></use>
                    </mask>
                    <g id="Shape"></g>
                </g>
                <g id="Group-Clipped">
                    <mask id="mask-14" fill="white">
                        <use xlink:href="#path-13"></use>
                    </mask>
                    <g id="Shape"></g>
                </g>
                <g id="Group-Clipped">
                    <mask id="mask-16" fill="white">
                        <use xlink:href="#path-15"></use>
                    </mask>
                    <g id="Shape"></g>
                </g>
                <g id="Group-Clipped">
                    <mask id="mask-18" fill="white">
                        <use xlink:href="#path-17"></use>
                    </mask>
                    <g id="Shape"></g>
                </g>
                <g id="Group-Clipped">
                    <mask id="mask-20" fill="white">
                        <use xlink:href="#path-19"></use>
                    </mask>
                    <g id="Shape"></g>
                </g>
                <g id="Group-Clipped">
                    <mask id="mask-22" fill="white">
                        <use xlink:href="#path-21"></use>
                    </mask>
                    <g id="Shape"></g>
                </g>
                <g id="Group-Clipped">
                    <mask id="mask-24" fill="white">
                        <use xlink:href="#path-23"></use>
                    </mask>
                    <g id="Shape"></g>
                </g>
                <g id="Group-Clipped">
                    <mask id="mask-26" fill="white">
                        <use xlink:href="#path-25"></use>
                    </mask>
                    <g id="Shape"></g>
                </g>
                <g id="Group-Clipped">
                    <mask id="mask-28" fill="white">
                        <use xlink:href="#path-27"></use>
                    </mask>
                    <g id="Shape"></g>
                </g>
                <g id="Group-Clipped">
                    <mask id="mask-30" fill="white">
                        <use xlink:href="#path-29"></use>
                    </mask>
                    <g id="Shape"></g>
                </g>
            </g>
        </g>
    </g>
</svg>