<?xml version="1.0" encoding="UTF-8"?>
<svg width="101px" height="101px" viewBox="0 0 101 101" version="1.1" xmlns="http://www.w3.org/2000/svg" xmlns:xlink="http://www.w3.org/1999/xlink">
    <!-- Generator: Sketch 42 (36781) - http://www.bohemiancoding.com/sketch -->
    <title>Group 7</title>
    <desc>Created with Sketch.</desc>
    <defs></defs>
    <g id="Page-1" stroke="none" stroke-width="1" fill="none" fill-rule="evenodd">
        <g id="Desktop-HD" transform="translate(-466.000000, -258.000000)" fill="#828282">
            <g id="Group-7" transform="translate(466.000000, 258.000000)">
                <g id="Group" transform="translate(-0.000000, 0.000000)">
                    <g id="Vector" transform="translate(0.000000, 41.000000)">
                        <g id="path123_fill-link" transform="translate(0.146500, 0.494000)">
                            <path d="M54.4371,35.6851 L50.748,33.5545 C50.997,32.1994 51.1443,30.815 51.1443,29.3916 C51.1443,27.9682 50.9968,26.5868 50.748,25.2314 L54.4336,23.1043 C55.2192,22.6522 55.7887,21.906 56.0248,21.0318 C56.2599,20.1581 56.136,19.2255 55.6839,18.4426 L51.3633,10.9578 C50.421,9.32457 48.333,8.76533 46.6998,9.70767 L43.0233,11.8315 C40.9093,10.0381 38.4678,8.62368 35.8039,7.67176 L35.8039,3.41278 C35.8039,1.52811 34.2782,-7.22526011e-07 32.3927,-7.22526011e-07 L23.7486,-7.22526011e-07 C21.8666,-7.22526011e-07 20.3346,1.5279 20.3346,3.41278 L20.3346,7.67176 C17.6707,8.62368 15.2358,10.0381 13.1213,11.8315 L9.4391,9.70767 C7.80588,8.76533 5.72078,9.32457 4.77845,10.9578 L0.457625,18.4401 C-0.484506,20.0729 0.074935,22.1582 1.7053,23.1006 L5.39075,25.2312 C5.14848,26.5866 4.99806,27.9678 4.99806,29.3914 C4.99806,30.815 5.14848,32.2025 5.39075,33.5583 L1.7053,35.6887 C0.074935,36.6311 -0.484506,38.7164 0.457625,40.3492 L4.77477,47.8315 C5.23033,48.6145 5.97305,49.1866 6.84987,49.4225 C7.72383,49.655 8.65698,49.5341 9.4391,49.0792 L13.1282,46.951 C15.236,48.7449 17.6738,50.1593 20.335,51.108 L20.335,55.3665 C20.335,57.2512 21.867,58.7805 23.749,58.7805 L32.3931,58.7805 C34.2786,58.7805 35.8043,57.2514 35.8043,55.3665 L35.8043,51.108 C38.4682,50.1593 40.9097,48.7449 43.0176,46.951 L46.7031,49.0794 C48.3334,50.0217 50.4214,49.4621 51.3637,47.8317 L55.6844,40.3494 C56.6261,38.7164 56.0703,36.6282 54.4371,35.6851 Z M28.0729,43.9075 C20.0695,43.9075 13.5599,37.3938 13.5599,29.3916 C13.5599,21.3894 20.0697,14.8757 28.0729,14.8757 C36.0782,14.8757 42.5888,21.3894 42.5888,29.3916 C42.5888,37.3938 36.0782,43.9075 28.0729,43.9075 Z" id="path123_fill"></path>
                        </g>
                    </g>
                    <g id="Vector" transform="translate(17.000000, 59.000000)">
                        <g id="path124_fill-link" transform="translate(0.058100, 0.721000)">
                            <path d="M11.1613,-1.99317992e-06 C5.00803,-1.99317992e-06 7.72355634e-07,5.00763 7.72355634e-07,11.1645 C7.72355634e-07,17.3206 5.00783,22.3283 11.1613,22.3283 C17.3174,22.3283 22.3252,17.3206 22.3252,11.1645 C22.3254,5.00763 17.3174,-1.99317992e-06 11.1613,-1.99317992e-06 Z" id="path124_fill"></path>
                        </g>
                    </g>
                    <g id="Vector" transform="translate(18.000000, 0.000000)">
                        <g id="path125_fill-link" transform="translate(0.515700, 0.650000)">
                            <path d="M77.8711,61.8179 C74.5026,58.1908 69.6917,56.7217 65.1486,57.4544 L28.0418,17.5006 C29.1062,13.0271 27.9999,8.1203 24.6353,4.50036 C21.6597,1.29965 17.5651,-0.189884 13.5196,0.0193201 C12.9891,0.0456492 12.5182,0.379355 12.3221,0.874096 C12.119,1.36843 12.2239,1.93399 12.5838,2.32709 L16.4952,6.53627 C16.8452,6.9157 17.0348,7.41677 17.0156,7.93355 C16.9954,8.45135 16.7731,8.93487 16.3931,9.28858 L9.14078,16.0215 C8.35499,16.7517 7.12385,16.706 6.39113,15.9206 L2.4832,11.7106 C2.11582,11.3175 1.56005,11.1741 1.05245,11.338 C0.54567,11.501 0.178492,11.9466 0.113588,12.476 C-0.391359,16.4927 0.780795,20.6819 3.75884,23.8834 C7.12345,27.503 11.9317,28.9725 16.4748,28.2398 L53.5881,68.1963 C52.5209,72.6749 53.6273,77.5807 56.9956,81.2106 C59.9675,84.4021 64.0583,85.8845 68.1038,85.6777 C68.6369,85.6526 69.1021,85.3253 69.3051,84.8279 C69.5082,84.3327 69.4035,83.7635 69.0372,83.3704 L65.1321,79.1645 C64.402,78.3828 64.441,77.1422 65.2331,76.4087 L72.4801,69.6793 C73.272,68.9465 74.4997,68.9925 75.2359,69.7813 L79.1438,73.9901 C79.5102,74.3828 80.0668,74.5306 80.5736,74.3665 C81.0787,74.1971 81.4451,73.755 81.5169,73.2284 C82.0239,69.2119 80.8428,65.0186 77.8711,61.8179 Z" id="path125_fill"></path>
                        </g>
                    </g>
                </g>
            </g>
        </g>
    </g>
</svg>