<?xml version="1.0" encoding="UTF-8"?>
<svg width="99px" height="95px" viewBox="0 0 99 95" version="1.1" xmlns="http://www.w3.org/2000/svg" xmlns:xlink="http://www.w3.org/1999/xlink">
    <!-- Generator: Sketch 42 (36781) - http://www.bohemiancoding.com/sketch -->
    <title>Group 3</title>
    <desc>Created with Sketch.</desc>
    <defs></defs>
    <g id="Page-1" stroke="none" stroke-width="1" fill="none" fill-rule="evenodd">
        <g id="Desktop-HD" transform="translate(-646.000000, -98.000000)">
            <g id="Group-3" transform="translate(646.000000, 98.000000)">
                <g id="path33_fill-link" transform="translate(50.052000, 4.141000)" fill="#C4C4C4">
                    <polygon id="path33_fill" points="0 55.8795 0 0 30.566 0 45.467 14.9267 45.467 55.8795"></polygon>
                </g>
                <g id="path34_stroke-link" transform="translate(49.052000, 3.141000)" fill="#000000">
                    <path d="M1,1 L1,0.5 L0.5,0.5 L0.5,1 L1,1 Z M1,56.8795 L0.5,56.8795 L0.5,57.3795 L1,57.3795 L1,56.8795 Z M46.467,56.8795 L46.467,57.3795 L46.967,57.3795 L46.967,56.8795 L46.467,56.8795 Z M46.467,15.9267 L46.967,15.9267 L46.967,15.7199 L46.8208,15.5735 L46.467,15.9267 Z M31.566,1 L31.9199,0.646752 L31.7734,0.5 L31.566,0.5 L31.566,1 Z M0.5,1 L0.5,56.8795 L1.5,56.8795 L1.5,1 L0.5,1 Z M1,57.3795 L46.467,57.3795 L46.467,56.3795 L1,56.3795 L1,57.3795 Z M46.967,56.8795 L46.967,15.9267 L45.967,15.9267 L45.967,56.8795 L46.967,56.8795 Z M46.8208,15.5735 L31.9199,0.646752 L31.2122,1.353248 L46.1131,16.28 L46.8208,15.5735 Z M31.566,0.5 L1,0.5 L1,1.5 L31.566,1.5 L31.566,0.5 Z" id="path34_stroke"></path>
                </g>
                <g id="path35_fill-link" transform="translate(47.481000, 0.696000)" fill="#4F4F4F">
                    <path d="M49.9199,18.407 C49.3918,17.1154 48.7583,16.0932 48.0184,15.3396 L35.6572,2.74462 C34.9173,1.99173 33.9143,1.34559 32.6464,0.80704 C31.379,0.269061 30.2168,0 29.1608,0 L3.80321,0 C2.74691,0 1.8488,0.376515 1.10931,1.13011 C0.369678,1.88328 1.99037459e-07,2.79834 1.99037459e-07,3.87501 L1.99037459e-07,58.1281 C1.99037459e-07,59.2051 0.369678,60.1201 1.10931,60.8734 C1.84894,61.6263 2.74691,62.0033 3.80335,62.0033 L46.9092,62.0033 C47.9654,62.0033 48.8629,61.6263 49.6023,60.8734 C50.3417,60.1195 50.7116,59.2051 50.7116,58.1281 L50.7116,21.9593 C50.712,20.8828 50.448,19.6985 49.9199,18.407 Z M30.4276,5.48951 C31.1932,5.75857 31.7345,6.05492 32.0518,6.37743 L44.4529,19.0127 C44.7692,19.3359 45.0599,19.8873 45.3238,20.6678 L30.4276,20.6678 L30.4276,5.48951 Z M45.6412,56.8365 L5.07099,56.8365 L5.07099,5.16701 L25.3558,5.16701 L25.3558,21.9598 C25.3558,23.0363 25.7252,23.9511 26.4648,24.7046 C27.2047,25.4578 28.1023,25.8349 29.1593,25.8349 L45.6412,25.8349 L45.6412,56.8365 Z" id="path35_fill"></path>
                </g>
                <g id="path33_fill-link" transform="translate(26.363000, 20.000000)" fill="#C4C4C4">
                    <polygon id="path33_fill" points="0 55.8795 0 0 30.566 0 45.467 14.9267 45.467 55.8795"></polygon>
                </g>
                <g id="path34_stroke-link" transform="translate(25.363000, 19.000000)" fill="#000000">
                    <path d="M1,1 L1,0.5 L0.5,0.5 L0.5,1 L1,1 Z M1,56.8795 L0.5,56.8795 L0.5,57.3795 L1,57.3795 L1,56.8795 Z M46.467,56.8795 L46.467,57.3795 L46.967,57.3795 L46.967,56.8795 L46.467,56.8795 Z M46.467,15.9267 L46.967,15.9267 L46.967,15.7199 L46.8208,15.5735 L46.467,15.9267 Z M31.566,1 L31.9199,0.646752 L31.7734,0.5 L31.566,0.5 L31.566,1 Z M0.5,1 L0.5,56.8795 L1.5,56.8795 L1.5,1 L0.5,1 Z M1,57.3795 L46.467,57.3795 L46.467,56.3795 L1,56.3795 L1,57.3795 Z M46.967,56.8795 L46.967,15.9267 L45.967,15.9267 L45.967,56.8795 L46.967,56.8795 Z M46.8208,15.5735 L31.9199,0.646752 L31.2122,1.353248 L46.1131,16.28 L46.8208,15.5735 Z M31.566,0.5 L1,0.5 L1,1.5 L31.566,1.5 L31.566,0.5 Z" id="path34_stroke"></path>
                </g>
                <g id="path35_fill-link" transform="translate(23.793000, 16.556000)" fill="#4F4F4F">
                    <path d="M49.9199,18.407 C49.3918,17.1154 48.7583,16.0932 48.0184,15.3396 L35.6572,2.74462 C34.9173,1.99173 33.9143,1.34559 32.6464,0.80704 C31.379,0.269061 30.2168,0 29.1608,0 L3.80321,0 C2.74691,0 1.8488,0.376515 1.10931,1.13011 C0.369678,1.88328 1.99037459e-07,2.79834 1.99037459e-07,3.87501 L1.99037459e-07,58.1281 C1.99037459e-07,59.2051 0.369678,60.1201 1.10931,60.8734 C1.84894,61.6263 2.74691,62.0033 3.80335,62.0033 L46.9092,62.0033 C47.9654,62.0033 48.8629,61.6263 49.6023,60.8734 C50.3417,60.1195 50.7116,59.2051 50.7116,58.1281 L50.7116,21.9593 C50.712,20.8828 50.448,19.6985 49.9199,18.407 Z M30.4276,5.48951 C31.1932,5.75857 31.7345,6.05492 32.0518,6.37743 L44.4529,19.0127 C44.7692,19.3359 45.0599,19.8873 45.3238,20.6678 L30.4276,20.6678 L30.4276,5.48951 Z M45.6412,56.8365 L5.07099,56.8365 L5.07099,5.16701 L25.3558,5.16701 L25.3558,21.9598 C25.3558,23.0363 25.7252,23.9511 26.4648,24.7046 C27.2047,25.4578 28.1023,25.8349 29.1593,25.8349 L45.6412,25.8349 L45.6412,56.8365 Z" id="path35_fill"></path>
                </g>
                <g id="path33_fill-link" transform="translate(2.674000, 35.860000)" fill="#C4C4C4">
                    <polygon id="path33_fill" points="0 55.8795 0 0 30.566 0 45.467 14.9267 45.467 55.8795"></polygon>
                </g>
                <g id="path34_stroke-link" transform="translate(1.674000, 34.860000)" fill="#000000">
                    <path d="M1,1 L1,0.5 L0.5,0.5 L0.5,1 L1,1 Z M1,56.8795 L0.5,56.8795 L0.5,57.3795 L1,57.3795 L1,56.8795 Z M46.467,56.8795 L46.467,57.3795 L46.967,57.3795 L46.967,56.8795 L46.467,56.8795 Z M46.467,15.9267 L46.967,15.9267 L46.967,15.7199 L46.8208,15.5735 L46.467,15.9267 Z M31.566,1 L31.9199,0.646752 L31.7734,0.5 L31.566,0.5 L31.566,1 Z M0.5,1 L0.5,56.8795 L1.5,56.8795 L1.5,1 L0.5,1 Z M1,57.3795 L46.467,57.3795 L46.467,56.3795 L1,56.3795 L1,57.3795 Z M46.967,56.8795 L46.967,15.9267 L45.967,15.9267 L45.967,56.8795 L46.967,56.8795 Z M46.8208,15.5735 L31.9199,0.646752 L31.2122,1.353248 L46.1131,16.28 L46.8208,15.5735 Z M31.566,0.5 L1,0.5 L1,1.5 L31.566,1.5 L31.566,0.5 Z" id="path34_stroke"></path>
                </g>
                <g id="path35_fill-link" transform="translate(0.104000, 32.415000)" fill="#4F4F4F">
                    <path d="M49.9199,18.407 C49.3918,17.1154 48.7583,16.0932 48.0184,15.3396 L35.6572,2.74462 C34.9173,1.99173 33.9143,1.34559 32.6464,0.80704 C31.379,0.269061 30.2168,0 29.1608,0 L3.80321,0 C2.74691,0 1.8488,0.376515 1.10931,1.13011 C0.369678,1.88328 1.99037459e-07,2.79834 1.99037459e-07,3.87501 L1.99037459e-07,58.1281 C1.99037459e-07,59.2051 0.369678,60.1201 1.10931,60.8734 C1.84894,61.6263 2.74691,62.0033 3.80335,62.0033 L46.9092,62.0033 C47.9654,62.0033 48.8629,61.6263 49.6023,60.8734 C50.3417,60.1195 50.7116,59.2051 50.7116,58.1281 L50.7116,21.9593 C50.712,20.8828 50.448,19.6985 49.9199,18.407 Z M30.4276,5.48951 C31.1932,5.75857 31.7345,6.05492 32.0518,6.37743 L44.4529,19.0127 C44.7692,19.3359 45.0599,19.8873 45.3238,20.6678 L30.4276,20.6678 L30.4276,5.48951 Z M45.6412,56.8365 L5.07099,56.8365 L5.07099,5.16701 L25.3558,5.16701 L25.3558,21.9598 C25.3558,23.0363 25.7252,23.9511 26.4648,24.7046 C27.2047,25.4578 28.1023,25.8349 29.1593,25.8349 L45.6412,25.8349 L45.6412,56.8365 Z" id="path35_fill"></path>
                </g>
            </g>
        </g>
    </g>
</svg>