<svg width="31" height="37" viewBox="0 0 31 37" version="1.1" xmlns="http://www.w3.org/2000/svg" xmlns:xlink="http://www.w3.org/1999/xlink" xmlns:figma="http://www.figma.com/figma/ns">
<title>check</title>
<desc>Created using Figma</desc>
<g id="Canvas" transform="translate(-4264 -88)" figma:type="canvas">
<g id="check" style="mix-blend-mode:normal;" figma:type="frame">
<g id="Group" style="mix-blend-mode:normal;" figma:type="frame">
<g id="Vector" style="mix-blend-mode:normal;" figma:type="vector">
<use xlink:href="#path0_fill" transform="translate(4286.47 108.995)" fill="#4F4F4F" style="mix-blend-mode:normal;"/>
</g>
<g id="Vector" style="mix-blend-mode:normal;" figma:type="vector">
<use xlink:href="#path1_fill" transform="translate(4274.98 117.116)" fill="#4F4F4F" style="mix-blend-mode:normal;"/>
</g>
<g id="Vector" style="mix-blend-mode:normal;" figma:type="vector">
<use xlink:href="#path2_fill" transform="translate(4274.98 115.025)" fill="#4F4F4F" style="mix-blend-mode:normal;"/>
</g>
<g id="Vector" style="mix-blend-mode:normal;" figma:type="vector">
<use xlink:href="#path3_fill" transform="translate(4277.35 93.6917)" fill="#4F4F4F" style="mix-blend-mode:normal;"/>
</g>
<g id="Vector" style="mix-blend-mode:normal;" figma:type="vector">
<use xlink:href="#path4_fill" transform="translate(4274.98 99.9888)" fill="#4F4F4F" style="mix-blend-mode:normal;"/>
</g>
<g id="Vector" style="mix-blend-mode:normal;" figma:type="vector">
<use xlink:href="#path5_fill" transform="translate(4274.98 102.302)" fill="#4F4F4F" style="mix-blend-mode:normal;"/>
</g>
<g id="Vector" style="mix-blend-mode:normal;" figma:type="vector">
<use xlink:href="#path6_fill" transform="translate(4274.98 104.615)" fill="#4F4F4F" style="mix-blend-mode:normal;"/>
</g>
<g id="Vector" style="mix-blend-mode:normal;" figma:type="vector">
<use xlink:href="#path7_fill" transform="translate(4270.28 88.1656)" fill="#4F4F4F" style="mix-blend-mode:normal;"/>
</g>
</g>
<mask id="mask0_alpha" mask-type="alpha">
<path d="M 4264.95 88.1656L 4273.21 88.1656L 4273.21 96.7335L 4264.95 96.7335L 4264.95 88.1656Z" fill="#FFFFFF"/>
</mask>
<g id="Group" style="mix-blend-mode:normal;" mask="url(#mask0_alpha)" figma:type="frame">
</g>
<mask id="mask1_alpha" mask-type="alpha">
<path d="M 4264.95 88.1656L 4273.21 88.1656L 4273.21 96.7335L 4264.95 96.7335L 4264.95 88.1656Z" fill="#FFFFFF"/>
</mask>
<g id="Group" style="mix-blend-mode:normal;" mask="url(#mask1_alpha)" figma:type="frame">
</g>
<mask id="mask2_alpha" mask-type="alpha">
<path d="M 4264.95 88.1656L 4273.21 88.1656L 4273.21 96.7335L 4264.95 96.7335L 4264.95 88.1656Z" fill="#FFFFFF"/>
</mask>
<g id="Group" style="mix-blend-mode:normal;" mask="url(#mask2_alpha)" figma:type="frame">
</g>
<mask id="mask3_alpha" mask-type="alpha">
<path d="M 4264.95 88.1656L 4273.21 88.1656L 4273.21 96.7335L 4264.95 96.7335L 4264.95 88.1656Z" fill="#FFFFFF"/>
</mask>
<g id="Group" style="mix-blend-mode:normal;" mask="url(#mask3_alpha)" figma:type="frame">
</g>
<mask id="mask4_alpha" mask-type="alpha">
<path d="M 4264.95 88.1656L 4273.21 88.1656L 4273.21 96.7335L 4264.95 96.7335L 4264.95 88.1656Z" fill="#FFFFFF"/>
</mask>
<g id="Group" style="mix-blend-mode:normal;" mask="url(#mask4_alpha)" figma:type="frame">
</g>
<mask id="mask5_alpha" mask-type="alpha">
<path d="M 4264.95 88.1656L 4273.21 88.1656L 4273.21 96.7335L 4264.95 96.7335L 4264.95 88.1656Z" fill="#FFFFFF"/>
</mask>
<g id="Group" style="mix-blend-mode:normal;" mask="url(#mask5_alpha)" figma:type="frame">
</g>
<mask id="mask6_alpha" mask-type="alpha">
<path d="M 4264.95 88.1656L 4273.21 88.1656L 4273.21 96.7335L 4264.95 96.7335L 4264.95 88.1656Z" fill="#FFFFFF"/>
</mask>
<g id="Group" style="mix-blend-mode:normal;" mask="url(#mask6_alpha)" figma:type="frame">
</g>
<mask id="mask7_alpha" mask-type="alpha">
<path d="M 4264.95 88.1656L 4273.21 88.1656L 4273.21 96.7335L 4264.95 96.7335L 4264.95 88.1656Z" fill="#FFFFFF"/>
</mask>
<g id="Group" style="mix-blend-mode:normal;" mask="url(#mask7_alpha)" figma:type="frame">
</g>
<mask id="mask8_alpha" mask-type="alpha">
<path d="M 4264.95 88.1656L 4273.21 88.1656L 4273.21 96.7335L 4264.95 96.7335L 4264.95 88.1656Z" fill="#FFFFFF"/>
</mask>
<g id="Group" style="mix-blend-mode:normal;" mask="url(#mask8_alpha)" figma:type="frame">
</g>
<mask id="mask9_alpha" mask-type="alpha">
<path d="M 4264.95 88.1656L 4273.21 88.1656L 4273.21 96.7335L 4264.95 96.7335L 4264.95 88.1656Z" fill="#FFFFFF"/>
</mask>
<g id="Group" style="mix-blend-mode:normal;" mask="url(#mask9_alpha)" figma:type="frame">
</g>
<mask id="mask10_alpha" mask-type="alpha">
<path d="M 4264.95 88.1656L 4273.21 88.1656L 4273.21 96.7335L 4264.95 96.7335L 4264.95 88.1656Z" fill="#FFFFFF"/>
</mask>
<g id="Group" style="mix-blend-mode:normal;" mask="url(#mask10_alpha)" figma:type="frame">
</g>
<mask id="mask11_alpha" mask-type="alpha">
<path d="M 4264.95 88.1656L 4273.21 88.1656L 4273.21 96.7335L 4264.95 96.7335L 4264.95 88.1656Z" fill="#FFFFFF"/>
</mask>
<g id="Group" style="mix-blend-mode:normal;" mask="url(#mask11_alpha)" figma:type="frame">
</g>
<mask id="mask12_alpha" mask-type="alpha">
<path d="M 4264.95 88.1656L 4273.21 88.1656L 4273.21 96.7335L 4264.95 96.7335L 4264.95 88.1656Z" fill="#FFFFFF"/>
</mask>
<g id="Group" style="mix-blend-mode:normal;" mask="url(#mask12_alpha)" figma:type="frame">
</g>
<mask id="mask13_alpha" mask-type="alpha">
<path d="M 4264.95 88.1656L 4273.21 88.1656L 4273.21 96.7335L 4264.95 96.7335L 4264.95 88.1656Z" fill="#FFFFFF"/>
</mask>
<g id="Group" style="mix-blend-mode:normal;" mask="url(#mask13_alpha)" figma:type="frame">
</g>
<mask id="mask14_alpha" mask-type="alpha">
<path d="M 4264.95 88.1656L 4273.21 88.1656L 4273.21 96.7335L 4264.95 96.7335L 4264.95 88.1656Z" fill="#FFFFFF"/>
</mask>
<g id="Group" style="mix-blend-mode:normal;" mask="url(#mask14_alpha)" figma:type="frame">
</g>
</g>
</g>
<defs>
<path id="path0_fill" d="M 2.19646 4.85169C 1.66891 4.85169 1.23972 4.40675 1.23972 3.85986C 1.23972 3.31297 1.66891 2.86812 2.19646 2.86812L 3.77297 2.86812L 3.77297 1.58293L 2.8159 1.58293L 2.8159 -5.54323e-07L 1.57618 -5.54323e-07L 1.57618 1.67598C 0.666226 1.95418 -6.05332e-07 2.82759 -6.05332e-07 3.85986C -6.05332e-07 5.11541 0.985331 6.13688 2.19646 6.13688C 2.724 6.13688 3.1531 6.58173 3.1531 7.12862C 3.1531 7.67551 2.724 8.12044 2.19646 8.12044L 0.61986 8.12044L 0.61986 9.40564L 1.57618 9.40564L 1.57618 10.9889L 2.8159 10.9889L 2.8159 9.31285C 3.72619 9.03482 4.39283 8.16123 4.39283 7.1287C 4.39283 5.87316 3.40758 4.85169 2.19646 4.85169Z"/>
<path id="path1_fill" d="M 7.80983 0L 0 0L 0 1.28519L 7.80983 1.28519L 7.80983 0Z"/>
<path id="path2_fill" d="M 7.80983 0L 0 0L 0 1.28519L 7.80983 1.28519L 7.80983 0Z"/>
<path id="path3_fill" d="M 10.5211 0L 0 0L 0 1.28519L 10.5211 1.28519L 10.5211 0Z"/>
<path id="path4_fill" d="M 15.2638 0L 0 0L 0 1.28519L 15.2638 1.28519L 15.2638 0Z"/>
<path id="path5_fill" d="M 15.2638 0L 0 0L 0 1.28519L 15.2638 1.28519L 15.2638 0Z"/>
<path id="path6_fill" d="M 15.2638 0L 0 0L 0 1.28519L 15.2638 1.28519L 15.2638 0Z"/>
<path id="path7_fill" d="M 23.4296 0L 23.4296 1.02807L 22.066 1.02807L 22.066 0L 20.8262 0L 20.8262 1.02807L 19.4626 1.02807L 19.4626 0L 18.2229 0L 18.2229 1.02807L 16.8594 1.02807L 16.8594 0L 15.6197 0L 15.6197 1.02807L 14.256 1.02807L 14.256 0L 13.0163 0L 13.0163 1.02807L 11.6529 1.02807L 11.6529 0L 10.4132 0L 10.4132 1.02807L 9.04955 1.02807L 9.04955 0L 7.80983 0L 7.80983 1.02807L 6.4463 1.02807L 6.4463 0L 5.20658 0L 5.20658 1.02807L 3.84297 1.02807L 3.84297 0L 2.60325 0L 2.60325 1.02807L 1.23972 1.02807L 1.23972 0L 1.816e-07 0L 1.816e-07 36.6262L 1.23972 36.6262L 1.23972 35.5981L 2.60333 35.5981L 2.60333 36.6262L 3.84305 36.6262L 3.84305 35.5981L 5.20666 35.5981L 5.20666 36.6262L 6.44638 36.6262L 6.44638 35.5981L 7.80991 35.5981L 7.80991 36.6262L 9.04963 36.6262L 9.04963 35.5981L 10.4132 35.5981L 10.4132 36.6262L 11.653 36.6262L 11.653 35.5981L 13.0166 35.5981L 13.0166 36.6262L 14.2563 36.6262L 14.2563 35.5981L 15.6199 35.5981L 15.6199 36.6262L 16.8596 36.6262L 16.8596 35.5981L 18.2231 35.5981L 18.2231 36.6262L 19.4629 36.6262L 19.4629 35.5981L 20.8265 35.5981L 20.8265 36.6262L 22.0662 36.6262L 22.0662 35.5981L 23.4298 35.5981L 23.4298 36.6262L 24.6695 36.6262L 24.6695 0L 23.4296 0ZM 1.23972 2.31326L 23.4296 2.31326L 23.4296 34.3128L 1.23972 34.3128L 1.23972 2.31326Z"/>
</defs>
</svg>
