<svg width="31" height="38" viewBox="0 0 31 38" version="1.1" xmlns="http://www.w3.org/2000/svg" xmlns:xlink="http://www.w3.org/1999/xlink" xmlns:figma="http://www.figma.com/figma/ns">
<title>script</title>
<desc>Created using Figma</desc>
<g id="Canvas" transform="translate(-4265 -147)" figma:type="canvas">
<g id="script" style="mix-blend-mode:normal;" figma:type="frame">
<g id="Group" style="mix-blend-mode:normal;" figma:type="frame">
<g id="Group" style="mix-blend-mode:normal;" figma:type="frame">
<g id="Group" style="mix-blend-mode:normal;" figma:type="frame">
<g id="Vector" style="mix-blend-mode:normal;" figma:type="vector">
<use xlink:href="#path0_fill" transform="translate(4270.13 147.814)" fill="#4F4F4F" style="mix-blend-mode:normal;"/>
</g>
<g id="Vector" style="mix-blend-mode:normal;" figma:type="vector">
<use xlink:href="#path1_fill" transform="translate(4276.13 160.332)" fill="#4F4F4F" style="mix-blend-mode:normal;"/>
</g>
<g id="Vector" style="mix-blend-mode:normal;" figma:type="vector">
<use xlink:href="#path2_fill" transform="translate(4276.13 162.608)" fill="#4F4F4F" style="mix-blend-mode:normal;"/>
</g>
<g id="Vector" style="mix-blend-mode:normal;" figma:type="vector">
<use xlink:href="#path3_fill" transform="translate(4278.31 164.884)" fill="#4F4F4F" style="mix-blend-mode:normal;"/>
</g>
</g>
</g>
</g>
<mask id="mask0_alpha" mask-type="alpha">
<path d="M 4265.22 147.814L 4272.35 147.814L 4272.35 155.247L 4265.22 155.247L 4265.22 147.814Z" fill="#FFFFFF"/>
</mask>
<g id="Group" style="mix-blend-mode:normal;" mask="url(#mask0_alpha)" figma:type="frame">
</g>
<mask id="mask1_alpha" mask-type="alpha">
<path d="M 4265.22 147.814L 4272.35 147.814L 4272.35 155.247L 4265.22 155.247L 4265.22 147.814Z" fill="#FFFFFF"/>
</mask>
<g id="Group" style="mix-blend-mode:normal;" mask="url(#mask1_alpha)" figma:type="frame">
</g>
<mask id="mask2_alpha" mask-type="alpha">
<path d="M 4265.22 147.814L 4272.35 147.814L 4272.35 155.247L 4265.22 155.247L 4265.22 147.814Z" fill="#FFFFFF"/>
</mask>
<g id="Group" style="mix-blend-mode:normal;" mask="url(#mask2_alpha)" figma:type="frame">
</g>
<mask id="mask3_alpha" mask-type="alpha">
<path d="M 4265.22 147.814L 4272.35 147.814L 4272.35 155.247L 4265.22 155.247L 4265.22 147.814Z" fill="#FFFFFF"/>
</mask>
<g id="Group" style="mix-blend-mode:normal;" mask="url(#mask3_alpha)" figma:type="frame">
</g>
<mask id="mask4_alpha" mask-type="alpha">
<path d="M 4265.22 147.814L 4272.35 147.814L 4272.35 155.247L 4265.22 155.247L 4265.22 147.814Z" fill="#FFFFFF"/>
</mask>
<g id="Group" style="mix-blend-mode:normal;" mask="url(#mask4_alpha)" figma:type="frame">
</g>
<mask id="mask5_alpha" mask-type="alpha">
<path d="M 4265.22 147.814L 4272.35 147.814L 4272.35 155.247L 4265.22 155.247L 4265.22 147.814Z" fill="#FFFFFF"/>
</mask>
<g id="Group" style="mix-blend-mode:normal;" mask="url(#mask5_alpha)" figma:type="frame">
</g>
<mask id="mask6_alpha" mask-type="alpha">
<path d="M 4265.22 147.814L 4272.35 147.814L 4272.35 155.247L 4265.22 155.247L 4265.22 147.814Z" fill="#FFFFFF"/>
</mask>
<g id="Group" style="mix-blend-mode:normal;" mask="url(#mask6_alpha)" figma:type="frame">
</g>
<mask id="mask7_alpha" mask-type="alpha">
<path d="M 4265.22 147.814L 4272.35 147.814L 4272.35 155.247L 4265.22 155.247L 4265.22 147.814Z" fill="#FFFFFF"/>
</mask>
<g id="Group" style="mix-blend-mode:normal;" mask="url(#mask7_alpha)" figma:type="frame">
</g>
<mask id="mask8_alpha" mask-type="alpha">
<path d="M 4265.22 147.814L 4272.35 147.814L 4272.35 155.247L 4265.22 155.247L 4265.22 147.814Z" fill="#FFFFFF"/>
</mask>
<g id="Group" style="mix-blend-mode:normal;" mask="url(#mask8_alpha)" figma:type="frame">
</g>
<mask id="mask9_alpha" mask-type="alpha">
<path d="M 4265.22 147.814L 4272.35 147.814L 4272.35 155.247L 4265.22 155.247L 4265.22 147.814Z" fill="#FFFFFF"/>
</mask>
<g id="Group" style="mix-blend-mode:normal;" mask="url(#mask9_alpha)" figma:type="frame">
</g>
<mask id="mask10_alpha" mask-type="alpha">
<path d="M 4265.22 147.814L 4272.35 147.814L 4272.35 155.247L 4265.22 155.247L 4265.22 147.814Z" fill="#FFFFFF"/>
</mask>
<g id="Group" style="mix-blend-mode:normal;" mask="url(#mask10_alpha)" figma:type="frame">
</g>
<mask id="mask11_alpha" mask-type="alpha">
<path d="M 4265.22 147.814L 4272.35 147.814L 4272.35 155.247L 4265.22 155.247L 4265.22 147.814Z" fill="#FFFFFF"/>
</mask>
<g id="Group" style="mix-blend-mode:normal;" mask="url(#mask11_alpha)" figma:type="frame">
</g>
<mask id="mask12_alpha" mask-type="alpha">
<path d="M 4265.22 147.814L 4272.35 147.814L 4272.35 155.247L 4265.22 155.247L 4265.22 147.814Z" fill="#FFFFFF"/>
</mask>
<g id="Group" style="mix-blend-mode:normal;" mask="url(#mask12_alpha)" figma:type="frame">
</g>
<mask id="mask13_alpha" mask-type="alpha">
<path d="M 4265.22 147.814L 4272.35 147.814L 4272.35 155.247L 4265.22 155.247L 4265.22 147.814Z" fill="#FFFFFF"/>
</mask>
<g id="Group" style="mix-blend-mode:normal;" mask="url(#mask13_alpha)" figma:type="frame">
</g>
<mask id="mask14_alpha" mask-type="alpha">
<path d="M 4265.22 147.814L 4272.35 147.814L 4272.35 155.247L 4265.22 155.247L 4265.22 147.814Z" fill="#FFFFFF"/>
</mask>
<g id="Group" style="mix-blend-mode:normal;" mask="url(#mask14_alpha)" figma:type="frame">
</g>
</g>
</g>
<defs>
<path id="path0_fill" d="M 24.5486 5.12117L 22.9213 5.11166C 22.9202 5.11166 22.9192 5.11166 22.9181 5.11166C 22.9151 5.11166 22.9122 5.1121 22.9092 5.1121L 22.9092 3.98305C 22.9092 3.66879 22.665 3.41399 22.3637 3.41399L 20.7274 3.41399L 20.7274 2.27609C 20.7274 1.96183 20.4832 1.70711 20.182 1.70711L 6.60291 1.70711C 6.53351 0.753693 5.76828 0 4.83695 0C 3.90556 0 3.14039 0.753693 3.07099 1.70703L 0.545427 1.70703C 0.244178 1.70703 1.4786e-07 1.96176 1.4786e-07 2.27602L 1.4786e-07 31.2959C 1.4786e-07 31.6101 0.244178 31.8649 0.545427 31.8649L 1.63628 31.8649L 1.63628 33.5719C 1.63628 33.8862 1.88046 34.1409 2.18171 34.1409L 3.27264 34.1409L 3.27264 35.8479C 3.27264 36.1622 3.51681 36.4169 3.81806 36.4169L 24.5454 36.4169C 24.8467 36.4169 25.0909 36.1622 25.0909 35.8479L 25.0909 5.69016C 25.091 5.37716 24.8487 5.12288 24.5486 5.12117ZM 4.83695 1.13805C 5.16599 1.13805 5.44116 1.38289 5.50408 1.70703L 4.16983 1.70703C 4.23267 1.38289 4.50784 1.13805 4.83695 1.13805ZM 1.09093 30.7269L 1.09093 2.84508L 3.06537 2.84508L 3.06537 6.9646C 3.06537 7.98372 3.8601 8.81278 4.83695 8.81278C 5.81388 8.81278 6.60854 7.98364 6.60854 6.9646L 6.60854 4.40635C 6.60854 4.09209 6.36436 3.83737 6.06304 3.83737C 5.76179 3.83737 5.51761 4.09209 5.51761 4.40635L 5.51761 6.9646C 5.51761 7.35616 5.21223 7.67473 4.83688 7.67473C 4.46153 7.67473 4.15622 7.35616 4.15622 6.9646L 4.15622 2.84508L 19.6363 2.84508L 19.6363 30.7269L 1.09093 30.7269ZM 2.72714 33.003L 2.72714 31.8649L 2.72721 31.8649L 20.1818 31.8649C 20.4831 31.8649 20.7272 31.6102 20.7272 31.2959L 20.7272 4.55211L 21.8182 4.55211L 21.8182 33.003L 2.72714 33.003ZM 4.36363 35.2791L 4.36363 34.141L 22.3637 34.141C 22.6649 34.141 22.9091 33.8863 22.9091 33.572L 22.9091 6.24941C 22.9112 6.24948 22.9131 6.24978 22.9151 6.24978L 24 6.2561L 24 35.2791L 4.36363 35.2791Z"/>
<path id="path1_fill" d="M 8.18205 4.71813e-07L 0.545498 4.71813e-07C 0.244248 4.71813e-07 2.00046e-07 0.254724 2.00046e-07 0.56906C 7.14512e-05 0.883247 0.244248 1.13805 0.545498 1.13805L 8.18205 1.13805C 8.4833 1.13805 8.72748 0.883322 8.72748 0.56906C 8.72748 0.254798 8.4833 4.71813e-07 8.18205 4.71813e-07Z"/>
<path id="path2_fill" d="M 8.18205 2.722e-08L 0.545498 2.722e-08C 0.244248 2.722e-08 2.00046e-07 0.254725 2.00046e-07 0.569061C 7.14512e-05 0.883248 0.244248 1.13805 0.545498 1.13805L 8.18205 1.13805C 8.4833 1.13805 8.72748 0.883322 8.72748 0.569061C 8.72748 0.254799 8.4833 2.722e-08 8.18205 2.722e-08Z"/>
<path id="path3_fill" d="M 3.8182 1.9054e-07L 0.545428 1.9054e-07C 0.244178 1.9054e-07 2.78325e-07 0.254724 2.78325e-07 0.56906C 2.78325e-07 0.883322 0.244178 1.13805 0.545428 1.13805L 3.8182 1.13805C 4.11945 1.13805 4.36363 0.883322 4.36363 0.56906C 4.36363 0.254798 4.11953 1.9054e-07 3.8182 1.9054e-07Z"/>
</defs>
</svg>
