<?xml version="1.0" encoding="UTF-8"?>
<svg width="100px" height="100px" viewBox="0 0 100 100" version="1.1" xmlns="http://www.w3.org/2000/svg" xmlns:xlink="http://www.w3.org/1999/xlink">
    <!-- Generator: Sketch 42 (36781) - http://www.bohemiancoding.com/sketch -->
    <title>Group 3</title>
    <desc>Created with Sketch.</desc>
    <defs></defs>
    <g id="Page-1" stroke="none" stroke-width="1" fill="none" fill-rule="evenodd">
        <g id="icono-simulador">
            <g id="Group-3" transform="translate(-1.000000, 0.000000)">
                <g id="profit-chart" transform="translate(12.000000, 0.000000)" fill-rule="nonzero" fill="#828282">
                    <g id="Capa_1">
                        <g id="Group">
                            <path d="M15.750677,52.9229446 C16.3947292,52.9229446 17.0467667,52.7292177 17.626646,52.3262657 L37.0504241,38.8140443 L53.9238369,46.8698303 C54.3750799,47.0852546 54.8536183,47.1901771 55.3289625,47.1901771 C56.1768581,47.1901771 57.0137194,46.8557269 57.6619821,46.2173579 L74.0394339,30.1026863 L74.0394339,32.9828635 C74.0394339,35.0121919 75.58031,36.657321 77.4813964,36.657321 C79.3824829,36.657321 80.9233589,35.0121919 80.9233589,32.9828635 L80.9233589,21.7842066 C80.9233589,19.7548782 79.3824829,18.1097491 77.4813964,18.1097491 L66.9901403,18.1097491 C65.0890538,18.1097491 63.5481778,19.7548782 63.5481778,21.7842066 C63.5481778,23.8135351 65.0890538,25.4583542 66.9901403,25.4583542 L68.6020131,25.4583542 L54.6635677,39.1731365 L38.147752,31.2881402 C37.698832,31.0738007 37.2197129,30.9681033 36.7429168,30.9681033 C36.0853622,30.9681033 35.4311468,31.1692694 34.8633181,31.5641624 L13.8680294,46.1696236 C12.2753214,47.2774317 11.825385,49.5534908 12.8633312,51.2544133 C13.5230636,52.3347897 14.6254731,52.9229446 15.750677,52.9229446 Z" id="Shape" opacity="0.819999993"></path>
                            <path d="M85.4125595,76.5346937 L75.9315188,76.5346937 L75.9315188,40.1406863 C74.2669429,39.7302952 72.8304568,38.6759557 71.8693148,37.2347823 L69.0473034,40.0115867 L69.0473034,76.5346937 L57.5738532,76.5346937 L57.5738532,50.4635424 C56.8589494,50.7265461 56.1017961,50.8646347 55.3288173,50.8646347 C54.3544633,50.8646347 53.4088564,50.6492103 52.5184209,50.2240959 L50.6894927,49.3509299 L50.6894927,76.5348487 L39.2160424,76.5348487 L39.2160424,43.873107 L37.3577863,42.9858376 L32.3318271,46.4820664 L32.3318271,76.5348487 L20.8580865,76.5348487 L20.8580865,54.4636162 L19.5047928,55.4051292 C18.3829282,56.1849963 17.0846607,56.5974022 15.7502414,56.5974022 C15.1414698,56.5974022 14.5454747,56.5110775 13.9738711,56.3488118 L13.9738711,76.5345387 L6.88421533,76.5345387 L6.88421533,3.79131365 C6.88421533,1.76198524 5.34304894,0.117166052 3.44196248,0.117166052 C1.54116639,0.117166052 0,1.76214022 0,3.79131365 L0,80.2088413 C0,82.2381697 1.54116639,83.8829889 3.44225285,83.8829889 L85.4128499,83.8829889 C87.3139364,83.8829889 88.8551028,82.2381697 88.8551028,80.2088413 C88.8551028,78.1796679 87.313646,76.5346937 85.4125595,76.5346937 Z" id="Shape"></path>
                        </g>
                    </g>
                </g>
                <g id="gamepad-console-BACK" transform="translate(0.000000, 64.823629)" fill="#FFFFFF">
                    <g id="Capa_1">
                        <g id="Group-2" transform="translate(4.000000, 4.176371)">
                            <circle id="Oval" cx="12.5" cy="12.5" r="12.5"></circle>
                            <circle id="Oval" cx="40.5" cy="13.5" r="12.5"></circle>
                        </g>
                        <path d="M57.1329136,5.12089555 C53.905029,1.77796351 50.0105615,0.106321843 45.4481544,0.106321843 L16.5267558,0.106321843 C11.965027,0.106321843 8.06931589,1.77784641 4.84199654,5.12089555 C1.61388579,8.46394468 0,12.4979687 0,17.2229676 C0,21.948552 1.61433802,25.9822247 4.84199654,29.3250397 C8.06931589,32.6678546 11.9645748,34.3400818 16.5267558,34.3400818 C20.6586426,34.3400818 24.2946622,32.9130506 27.4368498,30.0603934 L34.5380604,30.0603934 C37.6800218,32.9130506 41.3160415,34.3400818 45.4481544,34.3400818 C50.0097701,34.3400818 53.905029,32.6686743 57.1329136,29.3250397 C60.3609113,25.9815222 61.9750232,21.9486691 61.9750232,17.2229676 C61.9750232,12.4979687 60.3607983,8.46394468 57.1329136,5.12089555 Z M26.8556248,19.3627532 C26.8556248,19.6749273 26.7590743,19.9313643 26.565295,20.1312447 C26.3716287,20.3320619 26.1243735,20.4321777 25.822851,20.4321777 L19.6253034,20.4321777 L19.6253034,26.8511833 C19.6253034,27.1633574 19.5287529,27.4197944 19.3349736,27.6197919 C19.1413073,27.8204919 18.8941651,27.9206077 18.5925296,27.9206077 L14.4608689,27.9206077 C14.1596856,27.9206077 13.9120912,27.8204919 13.7184249,27.6197919 C13.5249847,27.4197944 13.4284342,27.1633574 13.4284342,26.8511833 L13.4284342,20.4321777 L7.2303214,20.4321777 C6.92913809,20.4321777 6.6815437,20.3320619 6.4878774,20.1312447 C6.29443722,19.9313643 6.19788672,19.6749273 6.19788672,19.3627532 L6.19788672,15.0835333 C6.19788672,14.7715934 6.29443722,14.5151564 6.4878774,14.3145734 C6.6815437,14.1138734 6.92913809,14.0138746 7.2303214,14.0138746 L13.4282081,14.0138746 L13.4282081,7.5949861 C13.4282081,7.28304624 13.5247586,7.0266092 13.7181988,6.82602625 C13.911752,6.62520911 14.1594595,6.52532747 14.4606428,6.52532747 L18.5923035,6.52532747 C18.8938259,6.52532747 19.1410812,6.62532621 19.3347475,6.82602625 C19.5285268,7.0266092 19.6250773,7.28304624 19.6250773,7.5949861 L19.6250773,14.0138746 L25.8226249,14.0138746 C26.1241473,14.0138746 26.3714026,14.1138734 26.5650689,14.3145734 C26.7588482,14.5151564 26.8553987,14.7715934 26.8553987,15.0835333 L26.8553987,19.3627532 L26.8556248,19.3627532 Z M44.2379944,24.5276763 C43.430882,25.3636143 42.4570107,25.781876 41.3160415,25.781876 C40.1763159,25.781876 39.2021055,25.3636143 38.3953322,24.5276763 C37.5882197,23.6925581 37.1848331,22.6835544 37.1848331,21.5023047 C37.1848331,20.3209379 37.5882197,19.3124026 38.3953322,18.476816 C39.2021055,17.6416977 40.1763159,17.2229676 41.3160415,17.2229676 C42.4570107,17.2229676 43.430882,17.6416977 44.2379944,18.476816 C45.0443155,19.3124026 45.4481544,20.3209379 45.4481544,21.5023047 C45.4481544,22.6835544 45.0443155,23.6925581 44.2379944,24.5276763 Z M52.5005244,15.9693535 C51.6943164,16.804823 50.720106,17.2229676 49.5794759,17.2229676 C48.4388459,17.2229676 47.4650877,16.8052914 46.6584274,15.9693535 C45.851315,15.1332984 45.4478152,14.1251144 45.4478152,12.9435134 C45.4478152,11.762615 45.851315,10.7540797 46.6584274,9.91837597 C47.4650877,9.08243805 48.4388459,8.66464473 49.5794759,8.66464473 C50.720106,8.66464473 51.6943164,9.08243805 52.5005244,9.91837597 C53.3076369,10.7540797 53.7115888,11.762615 53.7115888,12.9435134 C53.7115888,14.1249973 53.3080891,15.1336497 52.5005244,15.9693535 Z" id="Shape" fill-rule="nonzero"></path>
                    </g>
                </g>
                <g id="gamepad-console" transform="translate(1.212978, 66.036608)" fill-rule="nonzero" fill="#828282">
                    <g id="Capa_1">
                        <path d="M54.9354939,4.76773034 C51.8317587,1.65534533 48.0870784,0.098989302 43.7001485,0.098989302 L15.8911113,0.098989302 C11.5048337,0.098989302 7.75895759,1.65523631 4.6557659,4.76773034 C1.55181326,7.88022436 0,11.6360398 0,16.0351767 C0,20.4348587 1.55224809,24.1903472 4.6557659,27.3026231 C7.75895759,30.4148991 11.5043989,31.9718003 15.8911113,31.9718003 C19.8640794,31.9718003 23.3602522,30.643185 26.3815864,27.9872628 L33.2096734,27.9872628 C36.2307902,30.643185 39.726963,31.9718003 43.7001485,31.9718003 C48.0863174,31.9718003 51.8317587,30.4156623 54.9354939,27.3026231 C58.0393378,24.189693 59.5913685,20.4349678 59.5913685,16.0351767 C59.5913685,11.6360398 58.0392291,7.88022436 54.9354939,4.76773034 Z M25.8227162,18.027391 C25.8227162,18.3180358 25.7298792,18.5567875 25.5435529,18.742883 C25.3573353,18.9298507 25.1195899,19.023062 24.8296644,19.023062 L18.8704841,19.023062 L18.8704841,24.9993776 C18.8704841,25.2900224 18.777647,25.5287741 18.5913207,25.7149786 C18.4051032,25.9018373 18.1674665,25.9950486 17.8774323,25.9950486 L13.9046816,25.9950486 C13.6150823,25.9950486 13.3770108,25.9018373 13.1907932,25.7149786 C13.004793,25.5287741 12.911956,25.2900224 12.911956,24.9993776 L12.911956,19.023062 L6.95223211,19.023062 C6.66263277,19.023062 6.42456125,18.9298507 6.23834366,18.742883 C6.05234348,18.5567875 5.95950646,18.3180358 5.95950646,18.027391 L5.95950646,14.0432896 C5.95950646,13.7528628 6.05234348,13.5141111 6.23834366,13.3273614 C6.42456125,13.1405028 6.66263277,13.0474005 6.95223211,13.0474005 L12.9117386,13.0474005 L12.9117386,7.07119395 C12.9117386,6.78076719 13.0045756,6.54201546 13.1905758,6.35526582 C13.3766847,6.16829814 13.6148649,6.07530488 13.9044642,6.07530488 L17.8772149,6.07530488 C18.1671403,6.07530488 18.4048857,6.16840716 18.5911033,6.35526582 C18.7774296,6.54201546 18.8702667,6.78076719 18.8702667,7.07119395 L18.8702667,13.0474005 L24.829447,13.0474005 C25.1193724,13.0474005 25.3571178,13.1405028 25.5433354,13.3273614 C25.7296617,13.5141111 25.8224988,13.7528628 25.8224988,14.0432896 L25.8224988,18.027391 L25.8227162,18.027391 Z M42.5365331,22.8361125 C41.7604634,23.6143995 40.8240488,24.0038156 39.726963,24.0038156 C38.631073,24.0038156 37.6943322,23.6143995 36.9185886,22.8361125 C36.1425189,22.0585886 35.7546472,21.1191714 35.7546472,20.0193871 C35.7546472,18.9194939 36.1425189,17.9805128 36.9185886,17.2025528 C37.6943322,16.4250289 38.631073,16.0351767 39.726963,16.0351767 C40.8240488,16.0351767 41.7604634,16.4250289 42.5365331,17.2025528 C43.3118419,17.9805128 43.7001485,18.9194939 43.7001485,20.0193871 C43.7001485,21.1191714 43.3118419,22.0585886 42.5365331,22.8361125 Z M50.4812735,14.8680187 C49.7060734,15.6458697 48.7693326,16.0351767 47.672573,16.0351767 C46.5758133,16.0351767 45.6395074,15.6463058 44.8638725,14.8680187 C44.0878028,14.0896227 43.6998223,13.1509686 43.6998223,12.0508573 C43.6998223,10.9514002 44.0878028,10.012419 44.8638725,9.23435004 C45.6395074,8.45606301 46.5758133,8.06708302 47.672573,8.06708302 C48.7693326,8.06708302 49.7060734,8.45606301 50.4812735,9.23435004 C51.2573432,10.012419 51.6457585,10.9514002 51.6457585,12.0508573 C51.6457585,13.1508596 51.257778,14.0899497 50.4812735,14.8680187 Z" id="Shape"></path>
                    </g>
                </g>
            </g>
        </g>
    </g>
</svg>