<?xml version="1.0" standalone="no"?><!-- Generator: Gravit.io --><svg xmlns="http://www.w3.org/2000/svg" xmlns:xlink="http://www.w3.org/1999/xlink" style="isolation:isolate" width="32" height="32"><path d=" M 28.988799994407973 8.1207 C 27.647399994407973 5.715909999999999 25.82789999440797 3.811879999999999 23.529799994407973 2.408239999999999 C 21.231299994407973 1.004685999999999 18.722199994407973 0.30304999999999893 16.000499994407974 0.30304999999999893 C 13.279099994407972 0.30304999999999893 10.769159994407971 1.004685999999999 8.471059994407971 2.408239999999999 C 6.172829994407972 3.811659999999999 4.353319994407972 5.715689999999999 3.011939994407972 8.1207 C 1.6704869944079719 10.525849999999998 0.9999999944079718 13.152349999999998 0.9999999944079718 15.999949999999998 C 0.9999999944079718 18.847749999999998 1.6706919944079717 21.47385 3.011729994407972 23.87915 C 4.3530499944079715 26.283949999999997 6.172549994407972 28.187949999999997 8.470789994407973 29.591749999999998 C 10.769159994407971 30.99525 13.278899994407972 31.696949999999998 16.00019999440797 31.696949999999998 C 18.72159999440797 31.696949999999998 21.231499994407972 30.99525 23.529799994407973 29.591749999999998 C 25.82789999440797 28.18845 27.647299994407973 26.283949999999997 28.98849999440797 23.87915 C 30.32959999440797 21.47405 30.999999994407972 18.847649999999998 30.999999994407972 15.999949999999998 C 31.00009999440797 13.15205 30.32959999440797 10.52545 28.988799994407973 8.1207 Z  M 13.500399994407973 4.2270199999999996 C 13.500399994407973 4.036159999999999 13.558899994407971 3.879599999999999 13.676199994407972 3.757039999999999 C 13.793299994407972 3.634549999999999 13.943199994407971 3.573059999999999 14.125399994407973 3.573059999999999 L 17.87569999440797 3.573059999999999 C 18.057799994407972 3.573059999999999 18.20769999440797 3.634549999999999 18.324499994407972 3.757039999999999 C 18.441599994407973 3.879599999999999 18.50049999440797 4.036159999999999 18.50049999440797 4.2270199999999996 L 18.50049999440797 7.497309999999999 C 18.50049999440797 7.688019999999999 18.441599994407973 7.844799999999999 18.324499994407972 7.967209999999999 C 18.20769999440797 8.089769999999998 18.057799994407972 8.151049999999998 17.87569999440797 8.151049999999998 L 14.125399994407973 8.151049999999998 C 13.943199994407971 8.151049999999998 13.793399994407972 8.089769999999998 13.676199994407972 7.967209999999999 C 13.558899994407971 7.844869999999999 13.500399994407973 7.688019999999999 13.500399994407973 7.497309999999999 L 13.500399994407973 4.2270199999999996 Z  M 21.00029999440797 25.81055 C 21.00029999440797 26.00115 20.94129999440797 26.15795 20.824499994407972 26.28025 C 20.70789999440797 26.40295 20.55799999440797 26.46425 20.37549999440797 26.46425 L 11.625199994407971 26.46425 C 11.442799994407972 26.46425 11.293199994407972 26.40295 11.175999994407972 26.28025 C 11.058899994407971 26.15795 11.000299994407971 26.00125 11.000299994407971 25.81035 L 11.000299994407971 22.540049999999997 C 11.000299994407971 22.34895 11.058899994407971 22.19265 11.175999994407972 22.06995 C 11.293199994407972 21.94765 11.442999994407971 21.885949999999998 11.625199994407971 21.885949999999998 L 13.500399994407973 21.885949999999998 L 13.500399994407973 15.345849999999999 L 11.625199994407971 15.345849999999999 C 11.442799994407972 15.345849999999999 11.293299994407972 15.28465 11.175999994407972 15.16195 C 11.058899994407971 15.039449999999999 11.000299994407971 14.88275 11.000299994407971 14.691849999999999 L 11.000299994407971 11.42175 C 11.000299994407971 11.230949999999998 11.058899994407971 11.074349999999999 11.175999994407972 10.951649999999999 C 11.293299994407972 10.829049999999999 11.443099994407971 10.76785 11.625199994407971 10.76785 L 17.87569999440797 10.76785 C 18.057799994407972 10.76785 18.20769999440797 10.829049999999999 18.324499994407972 10.951649999999999 C 18.441599994407973 11.074349999999999 18.50049999440797 11.230949999999998 18.50049999440797 11.42175 L 18.50049999440797 21.88645 L 20.374999994407972 21.88645 C 20.557599994407973 21.88645 20.70739999440797 21.94765 20.824499994407972 22.070149999999998 C 20.94109999440797 22.19275 20.999999994407972 22.349449999999997 20.999999994407972 22.54025 L 20.999999994407972 25.81065 L 21.00029999440797 25.81065 L 21.00029999440797 25.81055 Z " fill-rule="evenodd" fill="rgb(189,189,189)" stroke-width="1" stroke="rgba(0,0,0,0)" stroke-linejoin="miter" stroke-linecap="butt"/></svg>