<?xml version="1.0" standalone="no"?><!-- Generator: Gravit.io --><svg xmlns="http://www.w3.org/2000/svg" xmlns:xlink="http://www.w3.org/1999/xlink" style="isolation:isolate" width="300" height="300"><path d=" M 283.0271926550644 10.547706054687502 C 280.5251926550644 8.0457060546875 277.6051926550644 6.877706054687501 274.1021926550644 6.877706054687501 L 145.23419265506442 6.877706054687501 C 141.73119265506443 6.877706054687501 138.7281926550644 8.128706054687498 136.3091926550644 10.547706054687502 C 133.8071926550644 13.049706054687505 132.6391926550644 15.9697060546875 132.6391926550644 19.472706054687507 C 132.6391926550644 22.975706054687514 133.89019265506437 25.978706054687507 136.3091926550644 28.397706054687504 C 138.81119265506442 30.8997060546875 141.73119265506443 32.067706054687505 145.23419265506442 32.067706054687505 L 274.1021926550644 32.067706054687505 C 277.6051926550644 32.067706054687505 280.6081926550644 30.8167060546875 283.0271926550644 28.397706054687504 C 285.52919265506443 25.89570605468751 286.69719265506444 22.975706054687507 286.69719265506444 19.472706054687507 C 286.69719265506444 16.053706054687503 285.44619265506446 13.050706054687502 283.0271926550644 10.547706054687502 Z " fill="rgb(139,139,139)" stroke-width="1" stroke="rgba(0,0,0,0)" stroke-linejoin="miter" stroke-linecap="butt"/><g opacity="0.8"><path d=" M 280.35819265506444 8.546706054687498 C 277.35519265506446 6.794706054687495 274.1861926550644 6.377706054687501 270.76619265506446 7.2957060546875 C 267.43019265506445 8.2137060546875 264.84419265506443 10.214706054687497 263.0921926550645 13.217706054687497 L 158.49619265506442 195.8847060546875 C 156.7441926550644 198.8877060546875 156.32719265506444 202.14070605468748 157.24519265506444 205.4767060546875 C 158.16319265506445 208.8127060546875 160.16419265506443 211.39870605468752 163.16719265506447 213.15070605468753 C 166.17019265506445 214.90270605468754 169.42319265506444 215.31970605468752 172.75919265506445 214.4017060546875 C 176.09519265506447 213.4837060546875 178.68119265506448 211.48270605468753 180.43319265506443 208.47970605468754 L 285.02919265506443 25.811706054687505 C 286.78119265506444 22.808706054687505 287.1981926550644 19.555706054687505 286.2801926550644 16.219706054687506 C 285.36219265506446 12.8837060546875 283.36119265506443 10.297706054687502 280.35819265506444 8.546706054687498 Z " fill="rgb(139,139,139)" stroke-width="1" stroke="rgba(0,0,0,0)" stroke-linejoin="miter" stroke-linecap="butt"/></g><path d=" M 13.697192655064441 16.8877060546875 C 12.78019265506444 20.223706054687497 13.28019265506444 23.476706054687497 15.03219265506445 26.479706054687497 L 120.87919265506446 208.5627060546875 C 122.63119265506447 211.5657060546875 125.21619265506445 213.4837060546875 128.55319265506444 214.4017060546875 C 131.89019265506442 215.31970605468752 135.14219265506443 214.9017060546875 138.14519265506442 213.06670605468747 C 141.1481926550644 211.31470605468746 143.15019265506442 208.72970605468748 143.98419265506442 205.3927060546875 C 144.9011926550644 202.05670605468748 144.48419265506442 198.88670605468747 142.73319265506444 195.80070605468745 L 36.803192655064436 13.800706054687467 C 35.051192655064426 10.797706054687467 32.46619265506445 8.879706054687468 29.12919265506443 7.961706054687468 C 25.793192655064416 7.043706054687469 22.62319265506443 7.544706054687467 19.537192655064416 9.29670605468747 C 16.533192655064425 11.0487060546875 14.615192655064448 13.550706054687502 13.697192655064441 16.8877060546875 Z " fill="rgb(139,139,139)" stroke-width="1" stroke="rgba(0,0,0,0)" stroke-linejoin="miter" stroke-linecap="butt"/><g opacity="0.8"><path d=" M 74.50319265506445 13.800706054687502 C 72.75119265506444 10.797706054687502 70.16619265506446 8.879706054687503 66.82919265506445 7.961706054687504 C 63.49319265506443 7.0437060546875045 60.323192655064446 7.544706054687502 57.23719265506443 9.296706054687505 C 54.23419265506442 11.048706054687507 52.23219265506444 13.633706054687508 51.398192655064435 16.970706054687504 C 50.48119265506443 20.306706054687503 50.98119265506443 23.559706054687503 52.73319265506444 26.56270605468751 L 158.58019265506442 208.5627060546875 C 160.33219265506443 211.5657060546875 162.9171926550644 213.4837060546875 166.2541926550644 214.4017060546875 C 169.5911926550644 215.31970605468752 172.8431926550644 214.9017060546875 175.84619265506439 213.06670605468753 C 178.84919265506437 211.31470605468752 180.85119265506438 208.72970605468754 181.68519265506438 205.3927060546875 C 182.60219265506436 202.05670605468748 182.18519265506438 198.88670605468752 180.4341926550644 195.8007060546875 L 74.50319265506445 13.800706054687502 Z " fill="rgb(139,139,139)" stroke-width="1" stroke="rgba(0,0,0,0)" stroke-linejoin="miter" stroke-linecap="butt"/></g><circle vector-effect="non-scaling-stroke" cx="0" cy="0" r="1" fill="rgb(235,235,235)" transform="matrix(45.5,0,0,45.500000000000014,193.7463669152481,199.322265625)" stroke-width="1" stroke="rgba(0,0,0,0)"/><path d=" M 193.74822290030568 190.37983930921058 C 200.52610645293726 190.37983930921058 206.0401676371478 184.86577812500005 206.0401676371478 178.08789457236847 C 206.0401676371478 171.3100050328948 200.52610645293726 165.79594983552636 193.74822290030568 165.79594983552636 C 186.970333360832 165.79594983552636 181.45627825307085 171.3100050328948 181.45627825307085 178.08789457236847 C 181.45627825307085 184.86577812500005 186.970333360832 190.37983930921058 193.74822290030568 190.37983930921058 Z " fill-rule="evenodd" fill="rgb(130,130,130)" stroke-width="1" stroke="rgba(0,0,0,0)" stroke-linejoin="miter" stroke-linecap="butt"/><path d=" M 210.24239197925303 196.3364358881579 C 210.2371235582004 196.33475957236843 210.22706566346355 196.330981875 210.22185711083196 196.3297246381579 C 208.62139461083197 195.9387838486842 203.7203860582004 195.25317398355264 203.7203860582004 195.25317398355264 C 203.16708211083198 195.0828719736842 202.57588145293724 195.3758680263158 202.37681895293724 195.92179917763158 L 194.99971237398987 216.16277351973685 C 194.57416763714775 217.33038733552632 192.92275711083198 217.33038733552632 192.49721237398987 216.16277351973685 L 185.1201057950425 195.92179917763158 C 184.9594788213583 195.48094309210526 184.54333342662144 195.20451416568326 184.09743342662145 195.20451416568326 C 183.99176566346355 195.20451416568326 178.95252092662145 195.91110069078948 177.27488803188461 196.3282578618421 C 172.69056546609514 197.46814661184212 169.7989984941955 201.97611299342105 169.7989984941955 206.67410773026316 L 169.7989984941955 223.51599259868422 C 169.7989984941955 226.039865625 171.8451395450425 228.08604851973683 174.3690484924109 228.08604851973683 L 213.12367947925304 228.08604851973683 C 215.6476123739899 228.08604851973683 217.69373540030566 226.039865625 217.69373540030566 223.51599259868422 L 217.69373540030566 206.61813075657895 C 217.69349592662144 201.94049128289473 214.68869987398986 197.78924490131578 210.24239197925303 196.3364358881579 Z " fill-rule="evenodd" fill="rgb(130,130,130)" stroke-width="1" stroke="rgba(0,0,0,0)" stroke-linejoin="miter" stroke-linecap="butt"/><path d=" M 196.53032040030567 194.86709121710533 C 196.2358575713583 194.54620186842112 195.80548743977937 194.38491596791573 195.37008237398987 194.38491596791573 L 192.12238816346357 194.38491596791573 C 191.6869890845162 194.38491596791573 191.25640941346356 194.5464114078948 190.96215552530566 194.86709121710533 C 190.50640866675303 195.36373569078953 190.44013342662146 196.0812287828948 190.76374978188463 196.64183667763163 L 192.49990645293727 199.25908049342112 L 191.68719862398987 206.1152360197369 L 193.2876611239899 210.3727787828948 C 193.44370217662146 210.80101759868427 194.04919342662146 210.80101759868427 194.20523447925305 210.3727787828948 L 195.80569697925304 206.1152360197369 L 194.99298915030568 199.25908049342112 L 196.72913145293725 196.64183667763163 C 197.0523610582004 196.0812287828948 196.98608671609514 195.36373569078953 196.53032040030567 194.86709121710533 Z " fill-rule="evenodd" fill="rgb(130,130,130)" stroke-width="1" stroke="rgba(0,0,0,0)" stroke-linejoin="miter" stroke-linecap="butt"/><path d=" M 85.15234375000003 258.26318359375 L 77.42773437500003 258.26318359375 L 77.42773437500003 272.55029296875 Q 77.42773437500003 273.5244140625 77.16284179687503 274.336181640625 Q 76.89794921875003 275.14794921875 76.35961914062503 275.737548828125 Q 75.82128906250003 276.3271484375 75.01806640625003 276.660400390625 Q 74.21484375000003 276.99365234375 73.15527343750003 276.99365234375 Q 72.09570312500003 276.99365234375 71.30102539062503 276.660400390625 Q 70.50634765625003 276.3271484375 69.97656250000003 275.737548828125 Q 69.44677734375003 275.14794921875 69.18188476562503 274.336181640625 Q 68.91699218750003 273.5244140625 68.91699218750003 272.55029296875 L 68.91699218750003 258.26318359375 L 61.19238281250003 258.26318359375 L 61.19238281250003 272.65283203125 Q 61.19238281250003 275.14794921875 62.00415039062503 277.036376953125 Q 62.81591796875003 278.9248046875 64.35400390625003 280.197998046875 Q 65.89208984375003 281.47119140625 68.12231445312503 282.12060546875 Q 70.35253906250003 282.77001953125 73.18945312500003 282.77001953125 Q 76.02636718750003 282.77001953125 78.24804687500003 282.12060546875 Q 80.46972656250003 281.47119140625 82.00781250000003 280.197998046875 Q 83.54589843750003 278.9248046875 84.34912109375003 277.036376953125 Q 85.15234375000003 275.14794921875 85.15234375000003 272.65283203125 L 85.15234375000003 258.26318359375 Z  M 100.44775390625003 257.8359375 Q 98.31152343750003 257.8359375 96.35473632812503 258.254638671875 Q 94.39794921875003 258.67333984375 92.91113281250003 259.587646484375 Q 91.42431640625003 260.501953125 90.53564453125003 261.9716796875 Q 89.64697265625003 263.44140625 89.64697265625003 265.54345703125 Q 89.64697265625003 267.3037109375 90.25366210937503 268.525634765625 Q 90.86035156250003 269.74755859375 91.86010742187503 270.5849609375 Q 92.85986328125003 271.42236328125 94.14160156250003 271.943603515625 Q 95.42333984375003 272.46484375 96.74780273437503 272.806640625 Q 98.07226562500003 273.1484375 99.35400390625003 273.3876953125 Q 100.63574218750003 273.626953125 101.63549804687503 273.908935546875 Q 102.63525390625003 274.19091796875 103.24194335937503 274.583984375 Q 103.84863281250003 274.97705078125 103.84863281250003 275.62646484375 Q 103.84863281250003 276.1904296875 103.51538085937503 276.51513671875 Q 103.18212890625003 276.83984375 102.67797851562503 276.99365234375 Q 102.17382812500003 277.1474609375 101.57568359375003 277.190185546875 Q 100.97753906250003 277.23291015625 100.44775390625003 277.23291015625 Q 99.55908203125003 277.23291015625 98.84130859375003 277.121826171875 Q 98.12353515625003 277.0107421875 97.61938476562503 276.677490234375 Q 97.11523437500003 276.34423828125 96.84179687500003 275.754638671875 Q 96.56835937500003 275.1650390625 96.56835937500003 274.19091796875 L 89.25390625000003 274.19091796875 Q 89.25390625000003 276.75439453125 90.15966796875003 278.420654296875 Q 91.06542968750003 280.0869140625 92.66333007812503 281.052490234375 Q 94.26123046875003 282.01806640625 96.44018554687503 282.39404296875 Q 98.61914062500003 282.77001953125 101.14843750000003 282.77001953125 Q 103.42138671875003 282.77001953125 105.36108398437503 282.300048828125 Q 107.30078125000003 281.830078125 108.72778320312503 280.813232421875 Q 110.15478515625003 279.79638671875 110.95800781250003 278.198486328125 Q 111.76123046875003 276.6005859375 111.76123046875003 274.36181640625 Q 111.72705078125003 272.68701171875 111.10327148437503 271.533447265625 Q 110.47949218750003 270.3798828125 109.47119140625003 269.59375 Q 108.46289062500003 268.8076171875 107.18969726562503 268.3291015625 Q 105.91650390625003 267.8505859375 104.59204101562503 267.52587890625 Q 103.26757812500003 267.201171875 102.00292968750003 266.970458984375 Q 100.73828125000003 266.73974609375 99.74707031250003 266.457763671875 Q 98.75585937500003 266.17578125 98.14916992187503 265.765625 Q 97.54248046875003 265.35546875 97.54248046875003 264.671875 Q 97.54248046875003 264.03955078125 98.33715820312503 263.569580078125 Q 99.13183593750003 263.099609375 100.73828125000003 263.099609375 Q 101.57568359375003 263.099609375 102.16528320312503 263.3046875 Q 102.75488281250003 263.509765625 103.13085937500003 263.8515625 Q 103.50683593750003 264.193359375 103.67773437500003 264.629150390625 Q 103.84863281250003 265.06494140625 103.84863281250003 265.54345703125 L 103.84863281250003 265.68017578125 L 111.09472656250003 265.68017578125 L 111.09472656250003 265.27001953125 Q 111.06054687500003 263.3388671875 110.20605468750003 261.9375 Q 109.35156250000003 260.5361328125 107.90747070312503 259.621826171875 Q 106.46337890625003 258.70751953125 104.54077148437503 258.271728515625 Q 102.61816406250003 257.8359375 100.44775390625003 257.8359375 Z  M 139.58349609375003 258.26318359375 L 131.85888671875003 258.26318359375 L 131.85888671875003 272.55029296875 Q 131.85888671875003 273.5244140625 131.59399414062503 274.336181640625 Q 131.32910156250003 275.14794921875 130.79077148437503 275.737548828125 Q 130.25244140625003 276.3271484375 129.44921875000003 276.660400390625 Q 128.64599609375003 276.99365234375 127.58642578125003 276.99365234375 Q 126.52685546875003 276.99365234375 125.73217773437503 276.660400390625 Q 124.93750000000003 276.3271484375 124.40771484375003 275.737548828125 Q 123.87792968750003 275.14794921875 123.61303710937503 274.336181640625 Q 123.34814453125003 273.5244140625 123.34814453125003 272.55029296875 L 123.34814453125003 258.26318359375 L 115.62353515625003 258.26318359375 L 115.62353515625003 272.65283203125 Q 115.62353515625003 275.14794921875 116.43530273437503 277.036376953125 Q 117.24707031250003 278.9248046875 118.78515625000003 280.197998046875 Q 120.32324218750003 281.47119140625 122.55346679687503 282.12060546875 Q 124.78369140625003 282.77001953125 127.62060546875003 282.77001953125 Q 130.45751953125003 282.77001953125 132.67919921875003 282.12060546875 Q 134.90087890625003 281.47119140625 136.43896484375003 280.197998046875 Q 137.97705078125003 278.9248046875 138.78027343750003 277.036376953125 Q 139.58349609375003 275.14794921875 139.58349609375003 272.65283203125 L 139.58349609375003 258.26318359375 Z  M 160.31347656250003 258.26318359375 L 151.32421875000003 258.26318359375 L 142.52294921875003 282.3427734375 L 150.43554687500003 282.3427734375 L 151.46093750000003 278.94189453125 L 159.88623046875003 278.94189453125 L 160.91162109375003 282.3427734375 L 169.09765625000003 282.3427734375 L 160.31347656250003 258.26318359375 Z  M 155.76757812500003 264.9794921875 L 158.27978515625003 273.55859375 L 153.06738281250003 273.55859375 L 155.61376953125003 264.9794921875 L 155.76757812500003 264.9794921875 Z  M 194.85205078125003 265.64599609375 Q 194.85205078125003 264.17626953125 194.33935546875003 262.84326171875 Q 193.82666015625003 261.51025390625 192.80126953125003 260.493408203125 Q 191.77587890625003 259.4765625 190.25488281250003 258.869873046875 Q 188.73388671875003 258.26318359375 186.73437500000003 258.26318359375 L 172.00292968750003 258.26318359375 L 172.00292968750003 282.3427734375 L 179.72753906250003 282.3427734375 L 179.72753906250003 273.55859375 L 182.59863281250003 273.55859375 L 186.87109375000003 282.3427734375 L 195.55273437500003 282.3427734375 L 190.20361328125003 272.259765625 Q 191.36572265625003 271.83251953125 192.23730468750003 271.140380859375 Q 193.10888671875003 270.4482421875 193.68994140625003 269.57666015625 Q 194.27099609375003 268.705078125 194.56152343750003 267.705322265625 Q 194.85205078125003 266.70556640625 194.85205078125003 265.64599609375 Z  M 186.97363281250003 265.970703125 Q 186.97363281250003 266.44921875 186.80273437500003 266.859375 Q 186.63183593750003 267.26953125 186.33276367187503 267.568603515625 Q 186.03369140625003 267.86767578125 185.64062500000003 268.03857421875 Q 185.24755859375003 268.20947265625 184.80322265625003 268.20947265625 L 179.72753906250003 268.20947265625 L 179.72753906250003 263.76611328125 L 184.80322265625003 263.76611328125 Q 185.24755859375003 263.76611328125 185.64062500000003 263.928466796875 Q 186.03369140625003 264.0908203125 186.33276367187503 264.38134765625 Q 186.63183593750003 264.671875 186.80273437500003 265.08203125 Q 186.97363281250003 265.4921875 186.97363281250003 265.970703125 Z  M 207.31054687500003 258.26318359375 L 199.56884765625003 258.26318359375 L 199.56884765625003 282.3427734375 L 207.31054687500003 282.3427734375 L 207.31054687500003 258.26318359375 Z  M 224.81054687500003 257.8359375 Q 221.73437500000003 257.8359375 219.31616210937503 258.630615234375 Q 216.89794921875003 259.42529296875 215.23168945312503 260.989013671875 Q 213.56542968750003 262.552734375 212.69384765625003 264.885498046875 Q 211.82226562500003 267.21826171875 211.82226562500003 270.29443359375 Q 211.82226562500003 273.3876953125 212.69384765625003 275.720458984375 Q 213.56542968750003 278.05322265625 215.23168945312503 279.616943359375 Q 216.89794921875003 281.1806640625 219.31616210937503 281.975341796875 Q 221.73437500000003 282.77001953125 224.81054687500003 282.77001953125 Q 227.88671875000003 282.77001953125 230.31347656250003 281.975341796875 Q 232.74023437500003 281.1806640625 234.40649414062503 279.616943359375 Q 236.07275390625003 278.05322265625 236.95288085937503 275.720458984375 Q 237.83300781250003 273.3876953125 237.83300781250003 270.29443359375 Q 237.83300781250003 267.21826171875 236.95288085937503 264.885498046875 Q 236.07275390625003 262.552734375 234.40649414062503 260.989013671875 Q 232.74023437500003 259.42529296875 230.31347656250003 258.630615234375 Q 227.88671875000003 257.8359375 224.81054687500003 257.8359375 Z  M 224.81054687500003 263.6123046875 Q 226.09228515625003 263.6123046875 227.04931640625003 264.0224609375 Q 228.00634765625003 264.4326171875 228.64721679687503 265.16748046875 Q 229.28808593750003 265.90234375 229.60424804687503 266.927734375 Q 229.92041015625003 267.953125 229.92041015625003 269.18359375 L 229.92041015625003 271.42236328125 Q 229.92041015625003 272.65283203125 229.60424804687503 273.67822265625 Q 229.28808593750003 274.70361328125 228.64721679687503 275.4384765625 Q 228.00634765625003 276.17333984375 227.04931640625003 276.58349609375 Q 226.09228515625003 276.99365234375 224.81054687500003 276.99365234375 Q 223.52880859375003 276.99365234375 222.58032226562503 276.58349609375 Q 221.63183593750003 276.17333984375 220.99951171875003 275.4384765625 Q 220.36718750000003 274.70361328125 220.05102539062503 273.67822265625 Q 219.73486328125003 272.65283203125 219.73486328125003 271.42236328125 L 219.73486328125003 269.18359375 Q 219.73486328125003 267.953125 220.05102539062503 266.927734375 Q 220.36718750000003 265.90234375 220.99951171875003 265.16748046875 Q 221.63183593750003 264.4326171875 222.58032226562503 264.0224609375 Q 223.52880859375003 263.6123046875 224.81054687500003 263.6123046875 Z " fill-rule="evenodd" fill="rgb(139,139,139)" stroke-width="1" stroke="rgba(0,0,0,0)" stroke-linejoin="miter" stroke-linecap="square"/></svg>