<?xml version="1.0" encoding="UTF-8"?>
<svg width="101px" height="94px" viewBox="0 0 101 94" version="1.1" xmlns="http://www.w3.org/2000/svg" xmlns:xlink="http://www.w3.org/1999/xlink">
    <!-- Generator: Sketch 42 (36781) - http://www.bohemiancoding.com/sketch -->
    <title>Group 5</title>
    <desc>Created with Sketch.</desc>
    <defs>
        <polygon id="path-1" points="0.077 0.058 33.5 0.058 33.5 33.481 0.077 33.481"></polygon>
        <polygon id="path-3" points="0.077 0.058 33.5 0.058 33.5 33.481 0.077 33.481"></polygon>
        <polygon id="path-5" points="0.077 0.058 33.5 0.058 33.5 33.481 0.077 33.481"></polygon>
        <polygon id="path-7" points="0.077 0.058 33.5 0.058 33.5 33.481 0.077 33.481"></polygon>
        <polygon id="path-9" points="0.077 0.058 33.5 0.058 33.5 33.481 0.077 33.481"></polygon>
        <polygon id="path-11" points="0.077 0.058 33.5 0.058 33.5 33.481 0.077 33.481"></polygon>
        <polygon id="path-13" points="0.077 0.058 33.5 0.058 33.5 33.481 0.077 33.481"></polygon>
        <polygon id="path-15" points="0.077 0.058 33.5 0.058 33.5 33.481 0.077 33.481"></polygon>
        <polygon id="path-17" points="0.077 0.058 33.5 0.058 33.5 33.481 0.077 33.481"></polygon>
        <polygon id="path-19" points="0.077 0.058 33.5 0.058 33.5 33.481 0.077 33.481"></polygon>
        <polygon id="path-21" points="0.077 0.058 33.5 0.058 33.5 33.481 0.077 33.481"></polygon>
        <polygon id="path-23" points="0.077 0.058 33.5 0.058 33.5 33.481 0.077 33.481"></polygon>
        <polygon id="path-25" points="0.077 0.058 33.5 0.058 33.5 33.481 0.077 33.481"></polygon>
        <polygon id="path-27" points="0.077 0.058 33.5 0.058 33.5 33.481 0.077 33.481"></polygon>
        <polygon id="path-29" points="0.077 0.058 33.5 0.058 33.5 33.481 0.077 33.481"></polygon>
    </defs>
    <g id="Page-1" stroke="none" stroke-width="1" fill="none" fill-rule="evenodd">
        <g id="Desktop-HD" transform="translate(-977.000000, -105.000000)">
            <g id="Group-5" transform="translate(977.000000, 102.000000)">
                <g id="Group" transform="translate(0.333333, 3.000000)" fill="#828282">
                    <g id="Vector">
                        <g id="path55_fill-link" transform="translate(0.077000, 0.440000)">
                            <path d="M34.0356,27.1892 C32.4039,25.5575 32.4039,22.9124 34.0356,21.2807 C35.3441,19.9722 37.3047,19.7159 38.8716,20.5067 C40.3739,17.8606 42.7734,15.8291 45.6975,14.792 C47.0722,14.3044 48.5087,14.057 49.967,14.057 C52.3146,14.057 54.6148,14.7034 56.6188,15.9264 C57.2138,16.2893 57.8371,16.654 58.4852,17.0193 L58.4852,5.92388 C58.4852,4.13542 57.6884,2.4616 56.2996,1.33224 C54.9079,0.200538 53.1057,-0.240311 51.3567,0.126673 C45.3309,1.38672 37.4775,2.08025 29.2427,2.08025 C21.008,2.08025 13.1546,1.38672 7.12878,0.126673 C6.72303,0.0417787 6.31427,1.4534794e-07 5.90884,1.4534794e-07 C4.5639,1.4534794e-07 3.25239,0.459566 2.18486,1.32823 C0.796135,2.45692 0,4.13208 0,5.92388 L0,36.8836 C0,51.7434 11.1415,64.0501 25.5094,65.8887 C25.2363,61.1386 25.9128,56.3361 27.5559,51.7187 L28.6949,48.5174 C26.5956,48.6454 24.5331,49.5078 22.9325,51.1084 C21.3011,52.7398 18.6554,52.7398 17.024,51.1084 C15.3923,49.4767 15.3923,46.8316 17.024,45.1999 C20.9963,41.2275 26.4369,39.5995 31.6148,40.3114 L35.7719,28.6278 C35.1563,28.2073 34.5744,27.728 34.0356,27.1892 Z M24.0478,27.1892 C21.7834,29.4536 18.7723,30.701 15.5697,30.701 C12.3668,30.701 9.35575,29.454 7.09135,27.1892 C5.45964,25.5575 5.45964,22.9124 7.09135,21.2807 C8.72272,19.6494 11.3685,19.6494 12.9999,21.2807 C14.4173,22.6982 16.7228,22.6975 18.1396,21.2807 C19.771,19.6494 22.4168,19.6494 24.0482,21.2807 C25.6795,22.9124 25.6795,25.5579 24.0478,27.1892 Z" id="path55_fill"></path>
                        </g>
                    </g>
                    <g id="Vector" transform="translate(32.000000, 21.000000)">
                        <g id="path56_fill-link" transform="translate(0.221000, 0.181000)">
                            <path d="M66.9697,18.5658 C66.0182,17.0003 64.4115,15.9421 62.5966,15.6941 C56.7396,14.8943 49.1793,12.9898 41.1408,10.1295 C33.1022,7.26916 26.0383,3.97031 20.9924,0.890723 C20.0265,0.301142 18.9282,6.52792096e-07 17.8229,6.52792096e-07 C17.1378,6.52792096e-07 16.4496,0.115643 15.7885,0.350272 C14.0608,0.963249 12.7025,2.32256 12.0882,4.04952 L1.70972,33.2177 C-3.73521,48.5204 4.25621,65.3399 19.5589,70.7845 C22.8177,71.9439 26.1452,72.494 29.417,72.494 C41.5091,72.494 52.8402,64.9792 57.1257,52.9353 L67.5042,23.7671 C68.1181,22.0414 67.9213,20.131 66.9697,18.5658 Z M11.8502,26.3714 C10.8599,24.2875 11.7466,21.7951 13.8309,20.8051 C16.7236,19.4304 19.9787,19.265 22.9958,20.3385 C26.0129,21.4124 28.4317,23.5966 29.8061,26.4894 C30.7964,28.5733 29.9097,31.0656 27.8254,32.0556 C27.2469,32.3307 26.6362,32.461 26.0356,32.461 C24.4728,32.461 22.9744,31.5803 22.2592,30.075 C21.8424,29.1983 21.1094,28.5359 20.1946,28.2106 C19.2802,27.8848 18.2935,27.9356 17.4168,28.352 C15.3329,29.343 12.8402,28.4556 11.8502,26.3714 Z M37.4469,56.9584 C35.0602,58.0924 32.5401,58.6295 30.0587,58.6295 C23.5917,58.6295 17.3794,54.9861 14.4248,48.7668 C13.4345,46.6828 14.3212,44.1908 16.4055,43.2005 C18.4894,42.2099 20.9817,43.0969 21.9717,45.1811 C24.0834,49.6254 29.4167,51.5232 33.8613,49.4115 C35.9455,48.4212 38.4375,49.3079 39.4275,51.3921 C40.4179,53.4761 39.5308,55.9681 37.4469,56.9584 Z M53.2108,41.0878 C52.6323,41.3629 52.0216,41.4933 51.421,41.4933 C49.8582,41.4933 48.3598,40.6126 47.6446,39.1072 C46.7843,37.297 44.6121,36.5239 42.8019,37.3842 C40.7187,38.3752 38.226,37.4882 37.2356,35.4036 C36.2453,33.3197 37.132,30.8273 39.2163,29.8373 C45.187,27.0001 52.3545,29.5496 55.1918,35.5216 C56.1818,37.6055 55.2947,40.0979 53.2108,41.0878 Z" id="path56_fill"></path>
                        </g>
                    </g>
                </g>
                <g id="Group-Clipped" transform="translate(0.333333, 0.000000)">
                    <mask id="mask-2" fill="white">
                        <use xlink:href="#path-1"></use>
                    </mask>
                    <g id="Shape"></g>
                </g>
                <g id="Group-Clipped" transform="translate(0.333333, 0.000000)">
                    <mask id="mask-4" fill="white">
                        <use xlink:href="#path-3"></use>
                    </mask>
                    <g id="Shape"></g>
                </g>
                <g id="Group-Clipped" transform="translate(0.333333, 0.000000)">
                    <mask id="mask-6" fill="white">
                        <use xlink:href="#path-5"></use>
                    </mask>
                    <g id="Shape"></g>
                </g>
                <g id="Group-Clipped" transform="translate(0.333333, 0.000000)">
                    <mask id="mask-8" fill="white">
                        <use xlink:href="#path-7"></use>
                    </mask>
                    <g id="Shape"></g>
                </g>
                <g id="Group-Clipped" transform="translate(0.333333, 0.000000)">
                    <mask id="mask-10" fill="white">
                        <use xlink:href="#path-9"></use>
                    </mask>
                    <g id="Shape"></g>
                </g>
                <g id="Group-Clipped" transform="translate(0.333333, 0.000000)">
                    <mask id="mask-12" fill="white">
                        <use xlink:href="#path-11"></use>
                    </mask>
                    <g id="Shape"></g>
                </g>
                <g id="Group-Clipped" transform="translate(0.333333, 0.000000)">
                    <mask id="mask-14" fill="white">
                        <use xlink:href="#path-13"></use>
                    </mask>
                    <g id="Shape"></g>
                </g>
                <g id="Group-Clipped" transform="translate(0.333333, 0.000000)">
                    <mask id="mask-16" fill="white">
                        <use xlink:href="#path-15"></use>
                    </mask>
                    <g id="Shape"></g>
                </g>
                <g id="Group-Clipped" transform="translate(0.333333, 0.000000)">
                    <mask id="mask-18" fill="white">
                        <use xlink:href="#path-17"></use>
                    </mask>
                    <g id="Shape"></g>
                </g>
                <g id="Group-Clipped" transform="translate(0.333333, 0.000000)">
                    <mask id="mask-20" fill="white">
                        <use xlink:href="#path-19"></use>
                    </mask>
                    <g id="Shape"></g>
                </g>
                <g id="Group-Clipped" transform="translate(0.333333, 0.000000)">
                    <mask id="mask-22" fill="white">
                        <use xlink:href="#path-21"></use>
                    </mask>
                    <g id="Shape"></g>
                </g>
                <g id="Group-Clipped" transform="translate(0.333333, 0.000000)">
                    <mask id="mask-24" fill="white">
                        <use xlink:href="#path-23"></use>
                    </mask>
                    <g id="Shape"></g>
                </g>
                <g id="Group-Clipped" transform="translate(0.333333, 0.000000)">
                    <mask id="mask-26" fill="white">
                        <use xlink:href="#path-25"></use>
                    </mask>
                    <g id="Shape"></g>
                </g>
                <g id="Group-Clipped" transform="translate(0.333333, 0.000000)">
                    <mask id="mask-28" fill="white">
                        <use xlink:href="#path-27"></use>
                    </mask>
                    <g id="Shape"></g>
                </g>
                <g id="Group-Clipped" transform="translate(0.333333, 0.000000)">
                    <mask id="mask-30" fill="white">
                        <use xlink:href="#path-29"></use>
                    </mask>
                    <g id="Shape"></g>
                </g>
            </g>
        </g>
    </g>
</svg>