<?xml version="1.0" encoding="UTF-8"?>
<svg width="101px" height="101px" viewBox="0 0 101 101" version="1.1" xmlns="http://www.w3.org/2000/svg" xmlns:xlink="http://www.w3.org/1999/xlink">
    <!-- Generator: Sketch 42 (36781) - http://www.bohemiancoding.com/sketch -->
    <title>Group 6</title>
    <desc>Created with Sketch.</desc>
    <defs>
        <polygon id="path-1" points="0.938 0.937 20.469 0.937 20.469 20.468 0.938 20.468"></polygon>
        <polygon id="path-3" points="0.938 0.937 20.469 0.937 20.469 20.468 0.938 20.468"></polygon>
        <polygon id="path-5" points="0.938 0.937 20.469 0.937 20.469 20.468 0.938 20.468"></polygon>
        <polygon id="path-7" points="0.938 0.937 20.469 0.937 20.469 20.468 0.938 20.468"></polygon>
        <polygon id="path-9" points="0.938 0.937 20.469 0.937 20.469 20.468 0.938 20.468"></polygon>
        <polygon id="path-11" points="0.938 0.937 20.469 0.937 20.469 20.468 0.938 20.468"></polygon>
        <polygon id="path-13" points="0.938 0.937 20.469 0.937 20.469 20.468 0.938 20.468"></polygon>
        <polygon id="path-15" points="0.938 0.937 20.469 0.937 20.469 20.468 0.938 20.468"></polygon>
        <polygon id="path-17" points="0.938 0.937 20.469 0.937 20.469 20.468 0.938 20.468"></polygon>
        <polygon id="path-19" points="0.938 0.937 20.469 0.937 20.469 20.468 0.938 20.468"></polygon>
        <polygon id="path-21" points="0.938 0.937 20.469 0.937 20.469 20.468 0.938 20.468"></polygon>
        <polygon id="path-23" points="0.938 0.937 20.469 0.937 20.469 20.468 0.938 20.468"></polygon>
        <polygon id="path-25" points="0.938 0.937 20.469 0.937 20.469 20.468 0.938 20.468"></polygon>
        <polygon id="path-27" points="0.938 0.937 20.469 0.937 20.469 20.468 0.938 20.468"></polygon>
        <polygon id="path-29" points="0.938 0.937 20.469 0.937 20.469 20.468 0.938 20.468"></polygon>
    </defs>
    <g id="Page-1" stroke="none" stroke-width="1" fill="none" fill-rule="evenodd">
        <g id="Desktop-HD" transform="translate(-327.000000, -258.000000)">
            <g id="Group-6" transform="translate(326.000000, 258.000000)">
                <g id="Group" transform="translate(10.666667, 25.000000)" fill="#828282">
                    <g id="Vector">
                        <g>
                            <g id="path87_fill-link" transform="translate(0.939000, 0.937000)">
                                <path d="M88.5235,8.60635 L81.3934,1.47627 C79.425,-0.49209 76.2317,-0.49209 74.2633,1.47627 L35.0433,40.6946 C34.4882,41.248 34.0716,41.923 33.8249,42.6663 L30.2599,53.3612 C30.0815,53.8979 30.0249,54.4495 30.0298,54.998 L25.0464,54.998 L-6.55654731e-08,54.998 L-6.55654731e-08,59.998 L26.385,59.998 L35.0001,59.998 L35.0001,59.9679 C35.5483,59.9729 36.1001,59.9179 36.6368,59.7378 L47.3318,56.1728 C48.0751,55.9245 48.7501,55.5077 49.3035,54.9544 L88.5219,15.736 C90.4919,13.7696 90.4919,10.5765 88.5235,8.60635 Z M35.0433,54.9563 L38.6083,44.2614 L45.7384,51.3915 L35.0433,54.9563 Z M49.305,47.8265 L42.1734,40.6948 L77.8286,5.0415 L84.9587,12.1716 L49.305,47.8265 Z" id="path87_fill"></path>
                            </g>
                        </g>
                    </g>
                </g>
                <g id="Group" transform="translate(12.666667, 10.000000)" fill="#828282">
                    <g id="Vector">
                        <g>
                            <g id="path88_fill-link" transform="translate(0.839000, 0.937000)">
                                <path d="M15,1.49012067e-07 C6.72834,1.49012067e-07 5.96046448e-08,6.72832 5.96046448e-08,15 C5.96046448e-08,23.2717 6.72834,30 15,30 C23.2717,30 30.0001,23.2717 30.0001,15 C30.0001,6.72832 23.2717,1.49012067e-07 15,1.49012067e-07 Z M15,25 C9.47678,25 5.00001,20.5232 5.00001,15 C5.00001,9.47676 9.47678,5 15,5 C20.5233,5 25.0001,9.47676 25.0001,15 C25.0001,20.5232 20.5233,25 15,25 Z" id="path88_fill"></path>
                            </g>
                        </g>
                    </g>
                </g>
                <g id="Group" transform="translate(10.666667, 40.000000)" fill="#828282">
                    <g id="Vector">
                        <g>
                            <g id="path89_fill-link" transform="translate(0.939000, 0.937000)">
                                <path d="M31.82,4.10664 C31.3866,1.72832 29.3167,5.96045993e-07 26.9001,5.96045993e-07 L16.9,5.96045993e-07 L6.90002,5.96045993e-07 C4.48341,5.96045993e-07 2.41329,1.72832 1.98165,4.10664 L-6.55654731e-08,15 L5.08166,15 L6.90002,5 L14.4,5 L14.4,15 L19.4001,15 L19.4001,5 L26.9001,5 L28.7184,15 L33.8001,15 L31.82,4.10664 Z" id="path89_fill"></path>
                            </g>
                        </g>
                    </g>
                </g>
                <g id="Group" transform="translate(45.666667, 15.000000)" fill="#828282">
                    <g id="Vector">
                        <g>
                            <g id="path90_fill-link" transform="translate(0.939000, 0.937000)">
                                <polygon id="path90_fill" points="30.0001 0 0 0 0 5 30.0001 5"></polygon>
                            </g>
                        </g>
                    </g>
                </g>
                <g id="Group" transform="translate(10.666667, 65.000000)" fill="#828282">
                    <g id="Vector">
                        <g>
                            <g id="path91_fill-link" transform="translate(0.939000, 0.937000)">
                                <path d="M-6.55654731e-08,-2.38418988e-06 L-6.55654731e-08,5 L27.7768,5 L29.0819,1.0834 C29.2102,0.701755 29.4202,0.360154 29.5919,-2.38418988e-06 L-6.55654731e-08,-2.38418988e-06 Z" id="path91_fill"></path>
                            </g>
                        </g>
                    </g>
                </g>
                <g id="Group" transform="translate(45.666667, 30.000000)" fill="#828282">
                    <g id="Vector">
                        <g>
                            <g id="path92_fill-link" transform="translate(0.939000, 0.937000)">
                                <polygon id="path92_fill" points="-1.40666998e-06 1.19209017e-06 -1.40666998e-06 5 23.6682 5 28.6683 1.19209017e-06"></polygon>
                            </g>
                        </g>
                    </g>
                </g>
                <g id="Group" transform="translate(0.666667, 0.000000)" fill="#828282">
                    <g id="Vector">
                        <g>
                            <g id="path93_fill-link" transform="translate(0.939000, 0.937000)">
                                <path d="M80.7286,22.9383 C81.9336,21.7332 83.4086,20.9166 85.0002,20.45 L85.0002,0 L1.8189894e-11,0 L1.8189894e-11,100 L85.0002,100 L85.0002,61.3334 L80.0002,66.3334 L80.0002,95 L5.00001,95 L5.00001,5 L80.0002,5 L80.0002,23.6666 L80.7286,22.9383 Z" id="path93_fill"></path>
                            </g>
                        </g>
                    </g>
                </g>
                <g id="Group-Clipped" transform="translate(0.666667, 0.000000)">
                    <mask id="mask-2" fill="white">
                        <use xlink:href="#path-1"></use>
                    </mask>
                    <g id="Shape"></g>
                </g>
                <g id="Group-Clipped" transform="translate(0.666667, 0.000000)">
                    <mask id="mask-4" fill="white">
                        <use xlink:href="#path-3"></use>
                    </mask>
                    <g id="Shape"></g>
                </g>
                <g id="Group-Clipped" transform="translate(0.666667, 0.000000)">
                    <mask id="mask-6" fill="white">
                        <use xlink:href="#path-5"></use>
                    </mask>
                    <g id="Shape"></g>
                </g>
                <g id="Group-Clipped" transform="translate(0.666667, 0.000000)">
                    <mask id="mask-8" fill="white">
                        <use xlink:href="#path-7"></use>
                    </mask>
                    <g id="Shape"></g>
                </g>
                <g id="Group-Clipped" transform="translate(0.666667, 0.000000)">
                    <mask id="mask-10" fill="white">
                        <use xlink:href="#path-9"></use>
                    </mask>
                    <g id="Shape"></g>
                </g>
                <g id="Group-Clipped" transform="translate(0.666667, 0.000000)">
                    <mask id="mask-12" fill="white">
                        <use xlink:href="#path-11"></use>
                    </mask>
                    <g id="Shape"></g>
                </g>
                <g id="Group-Clipped" transform="translate(0.666667, 0.000000)">
                    <mask id="mask-14" fill="white">
                        <use xlink:href="#path-13"></use>
                    </mask>
                    <g id="Shape"></g>
                </g>
                <g id="Group-Clipped" transform="translate(0.666667, 0.000000)">
                    <mask id="mask-16" fill="white">
                        <use xlink:href="#path-15"></use>
                    </mask>
                    <g id="Shape"></g>
                </g>
                <g id="Group-Clipped" transform="translate(0.666667, 0.000000)">
                    <mask id="mask-18" fill="white">
                        <use xlink:href="#path-17"></use>
                    </mask>
                    <g id="Shape"></g>
                </g>
                <g id="Group-Clipped" transform="translate(0.666667, 0.000000)">
                    <mask id="mask-20" fill="white">
                        <use xlink:href="#path-19"></use>
                    </mask>
                    <g id="Shape"></g>
                </g>
                <g id="Group-Clipped" transform="translate(0.666667, 0.000000)">
                    <mask id="mask-22" fill="white">
                        <use xlink:href="#path-21"></use>
                    </mask>
                    <g id="Shape"></g>
                </g>
                <g id="Group-Clipped" transform="translate(0.666667, 0.000000)">
                    <mask id="mask-24" fill="white">
                        <use xlink:href="#path-23"></use>
                    </mask>
                    <g id="Shape"></g>
                </g>
                <g id="Group-Clipped" transform="translate(0.666667, 0.000000)">
                    <mask id="mask-26" fill="white">
                        <use xlink:href="#path-25"></use>
                    </mask>
                    <g id="Shape"></g>
                </g>
                <g id="Group-Clipped" transform="translate(0.666667, 0.000000)">
                    <mask id="mask-28" fill="white">
                        <use xlink:href="#path-27"></use>
                    </mask>
                    <g id="Shape"></g>
                </g>
                <g id="Group-Clipped" transform="translate(0.666667, 0.000000)">
                    <mask id="mask-30" fill="white">
                        <use xlink:href="#path-29"></use>
                    </mask>
                    <g id="Shape"></g>
                </g>
            </g>
        </g>
    </g>
</svg>