<?xml version="1.0" encoding="UTF-8"?>
<svg width="100px" height="100px" viewBox="0 0 100 100" version="1.1" xmlns="http://www.w3.org/2000/svg" xmlns:xlink="http://www.w3.org/1999/xlink">
    <!-- Generator: Sketch 42 (36781) - http://www.bohemiancoding.com/sketch -->
    <title>logo proyección</title>
    <desc>Created with Sketch.</desc>
    <defs></defs>
    <g id="Page-1" stroke="none" stroke-width="1" fill="none" fill-rule="evenodd">
        <g id="Desktop-HD" transform="translate(-978.000000, -258.000000)" fill="#828282">
            <g id="logo-proyección" transform="translate(978.000000, 258.000000)">
                <g id="Vector">
                    <g id="path45_fill-link" transform="translate(0.000200, 0.000000)">
                        <path d="M59.0727,59.0899 L6.81707,59.0899 L6.81707,9.08994 L59.0727,9.08994 L59.0727,28.2041 L63.6196,29.1746 L63.6196,8.45997 C64.9749,7.6725 65.8898,6.22313 65.8898,4.54603 C65.8898,2.03678 63.8557,4.59749572e-10 61.3451,4.59749572e-10 L4.54471,4.59749572e-10 C2.03406,4.59749572e-10 0,2.03678 0,4.54603 C0,6.22526 0.919155,7.6725 2.27235,8.45997 L2.27235,61.363 C2.27235,62.6165 3.28938,63.636 4.54258,63.636 L18.5448,63.636 L10.3745,94.2791 C9.72985,96.7033 11.1703,99.1976 13.5958,99.8446 C13.9895,99.9489 14.3831,100 14.7703,100 C16.7767,100 18.6171,98.6571 19.1597,96.6245 L27.9555,63.636 L37.9343,63.636 L46.7301,96.6245 C47.2726,98.6571 49.1088,100 51.1173,100 C51.5067,100 51.8982,99.951 52.2939,99.8446 C54.7195,99.1976 56.1578,96.7033 55.5152,94.2813 L47.345,63.6381 L61.3472,63.6381 C62.6025,63.6381 63.6174,62.6187 63.6174,61.3651 L63.6174,47.7717 L59.0706,46.799 L59.0706,59.0899 L59.0727,59.0899 Z" id="path45_fill"></path>
                    </g>
                </g>
                <g id="Vector" transform="translate(70.000000, 16.000000)">
                    <g id="path46_fill-link" transform="translate(0.334700, 0.835000)">
                        <path d="M8.06601,16.1388 C12.5171,16.1388 16.1363,12.525 16.1363,8.07049 C16.1363,3.61171 12.5171,-3.89702109e-07 8.06601,-3.89702109e-07 C3.61704,-3.89702109e-07 -1.68822044e-06,3.60958 -1.68822044e-06,8.07049 C-1.68822044e-06,12.525 3.61704,16.1388 8.06601,16.1388 Z" id="path46_fill"></path>
                    </g>
                </g>
                <g id="Vector" transform="translate(38.000000, 29.000000)">
                    <g id="path47_fill-link" transform="translate(0.625100, 0.555000)">
                        <path d="M61.0673,30.1822 L52.7225,8.57573 C52.0523,6.82415 50.3651,5.66848 48.4885,5.66848 L44.0544,5.66848 C42.8076,5.66848 41.7182,6.21333 40.9054,7.03272 L43.0204,22.5671 L39.7757,25.319 L36.5352,22.5671 L38.6501,7.03272 C37.831,6.21333 36.7437,5.66848 35.4969,5.66848 L31.5458,5.66848 L5.49458,0.100868 C3.04138,-0.422692 0.626469,1.14373 0.100933,3.59765 C-0.422474,6.0537 1.14136,8.46932 3.5967,8.99288 L30.1139,14.6584 C30.3884,14.718 30.6713,14.7499 30.9522,14.7563 L30.9522,35.7817 L29.2139,65.631 C29.0735,68.136 30.982,70.2856 33.4905,70.4325 C33.5777,70.4389 33.6692,70.441 33.7565,70.441 C36.1458,70.441 38.1459,68.5766 38.2905,66.1588 L39.782,40.5576 L41.2714,66.1588 C41.4118,68.5766 43.4182,70.441 45.8076,70.441 C45.8948,70.441 45.9863,70.4389 46.0736,70.4325 C48.58,70.2856 50.4906,68.136 50.3459,65.631 L48.6098,35.7817 L48.6098,23.1226 L52.6013,33.4576 C53.5055,35.803 56.1417,36.9608 58.48,36.0605 C60.8098,35.156 61.9737,32.5254 61.0673,30.1822 Z" id="path47_fill"></path>
                    </g>
                </g>
                <g id="Vector" transform="translate(10.000000, 30.000000)">
                    <g id="path48_fill-link" transform="translate(0.225900, 0.115000)">
                        <path d="M4.95101631e-07,2.27302 L4.95101631e-07,21.5915 C4.95101631e-07,22.8472 1.01703,23.8646 2.27023,23.8646 C3.52768,23.8646 4.54258,22.8451 4.54258,21.5915 L4.54258,2.27302 C4.54258,1.01945 3.52555,-8.76829972e-07 2.27023,-8.76829972e-07 C1.0149,-8.76829972e-07 4.95101631e-07,1.01733 4.95101631e-07,2.27302 Z" id="path48_fill"></path>
                    </g>
                </g>
                <g id="Vector" transform="translate(20.000000, 14.000000)">
                    <g id="path49_fill-link" transform="translate(0.447100, 0.204000)">
                        <path d="M-7.3047886e-07,2.27302 L-7.3047886e-07,37.5005 C-7.3047886e-07,38.7584 1.01703,39.7735 2.27236,39.7735 C3.52768,39.7735 4.54258,38.7562 4.54258,37.5005 L4.54258,2.27302 C4.54258,1.01732 3.52556,4.95246923e-07 2.27236,4.95246923e-07 C1.01703,4.95246923e-07 -7.3047886e-07,1.01732 -7.3047886e-07,2.27302 Z" id="path49_fill"></path>
                    </g>
                </g>
                <g id="Vector" transform="translate(30.000000, 23.000000)">
                    <g id="path50_fill-link" transform="translate(0.672800, 0.292000)">
                        <path d="M7.79176844e-07,2.27302 L7.79176844e-07,28.4127 C7.79176844e-07,29.6705 1.01703,30.6857 2.27023,30.6857 C3.52768,30.6857 4.54258,29.6684 4.54258,28.4127 L4.54258,2.27302 C4.54258,1.01732 3.52555,4.54652991e-07 2.27023,4.54652991e-07 C1.01703,4.54652991e-07 7.79176844e-07,1.01732 7.79176844e-07,2.27302 Z" id="path50_fill"></path>
                    </g>
                </g>
            </g>
        </g>
    </g>
</svg>