<?xml version="1.0" standalone="no"?><!-- Generator: Gravit.io --><svg xmlns="http://www.w3.org/2000/svg" xmlns:xlink="http://www.w3.org/1999/xlink" style="isolation:isolate" width="284" height="194"><rect rx="8" ry="8" x="3" y="3" width="279" height="188" transform="matrix(1,0,0,1,0,0)" fill="rgba(0,0,0,0)" stroke-width="1" stroke="rgb(189,189,189)" stroke-linejoin="miter" stroke-linecap="butt"/><path d=" M 115.71424999999999 149.0552800000001 C 115.71424999999999 149.8494000000001 115.50522 150.5560900000001 115.08716 151.1753500000001 C 114.67631 151.7946200000001 114.11769 152.27910000000008 113.41130999999999 152.62880000000007 C 114.23302 152.9857900000001 114.88172999999999 153.50670000000008 115.35745999999999 154.19153000000009 C 115.84039 154.87640000000007 116.08189999999999 155.65230000000008 116.08189999999999 156.51920000000007 C 116.08189999999999 157.89620000000008 115.62055 158.99270000000007 114.69792999999999 159.80860000000007 C 113.78251999999999 160.62460000000007 112.57518999999999 161.0326000000001 111.07593 161.0326000000001 C 109.56226 161.0326000000001 108.34772 160.62460000000007 107.4323 159.80860000000007 C 106.524102 158.98540000000008 106.07 157.8889000000001 106.07 156.51920000000007 C 106.07 155.65960000000007 106.30065499999999 154.8837000000001 106.76196399999999 154.19153000000009 C 107.23048 153.49942000000007 107.87558999999999 152.9748600000001 108.6973 152.6178700000001 C 107.99812999999999 152.26817000000008 107.44672 151.7836900000001 107.04307499999999 151.1644200000001 C 106.63942899999999 150.5451600000001 106.43760599999999 149.84211000000008 106.43760599999999 149.0552800000001 C 106.43760599999999 147.7147500000001 106.862876 146.6510800000001 107.71342 145.86425000000008 C 108.56394999999999 145.0774150000001 109.68478999999999 144.68400000000008 111.07593 144.68400000000008 C 112.45985999999999 144.68400000000008 113.57709 145.0774150000001 114.42763 145.86425000000008 C 115.28537999999999 146.6510800000001 115.71424999999999 147.7147500000001 115.71424999999999 149.0552800000001 Z  M 114.08165 156.47550000000007 C 114.08165 155.5867000000001 113.80054 154.86180000000007 113.23831999999999 154.30082000000007 C 112.68330999999999 153.73984000000007 111.9553 153.4593500000001 111.05430999999999 153.4593500000001 C 110.15330999999999 153.4593500000001 109.42890999999999 153.73619000000008 108.88110999999999 154.28989000000007 C 108.34051 154.8436000000001 108.07020999999999 155.5721000000001 108.07020999999999 156.47550000000007 C 108.07020999999999 157.37890000000007 108.3333 158.0893000000001 108.85947999999999 158.6065000000001 C 109.39286999999999 159.12380000000007 110.13168999999999 159.38240000000008 111.07593 159.38240000000008 C 112.01297 159.38240000000008 112.74817999999999 159.12380000000007 113.28156999999999 158.6065000000001 C 113.81496 158.08200000000008 114.08165 157.3716000000001 114.08165 156.47550000000007 Z  M 111.07593 146.34509000000008 C 110.29025999999999 146.34509000000008 109.65235999999999 146.5927900000001 109.16221999999999 147.08820000000009 C 108.67927999999999 147.57633000000007 108.43781999999999 148.2429500000001 108.43781999999999 149.08807000000007 C 108.43781999999999 149.89675000000008 108.67568 150.55244000000008 109.1514 151.05514000000008 C 109.63434 151.55055000000007 110.27584999999999 151.79826000000008 111.07593 151.79826000000008 C 111.87601 151.79826000000008 112.51392 151.55055000000007 112.98964 151.05514000000008 C 113.47258 150.55244000000008 113.71404 149.89675000000008 113.71404 149.08807000000007 C 113.71404 148.2793800000001 113.46537 147.62004000000007 112.96802 147.1100600000001 C 112.47067 146.60008000000008 111.83997 146.34509000000008 111.07593 146.34509000000008 Z " fill-rule="evenodd" fill="rgb(130,130,130)" stroke-width="1" stroke="rgba(0,0,0,0)" stroke-linejoin="miter" stroke-linecap="butt"/><path d=" M 121.5104 151.8747600000001 L 123.0132 151.8747600000001 C 123.9575 151.86019000000007 124.6999 151.60884000000007 125.2405 151.1207100000001 C 125.78110000000001 150.63258000000008 126.0514 149.9732500000001 126.0514 149.14271000000008 C 126.0514 147.27763000000007 125.1324 146.34509000000008 123.2943 146.34509000000008 C 122.4294 146.34509000000008 121.73740000000001 146.5964400000001 121.2184 147.0991300000001 C 120.7067 147.59454000000008 120.4508 148.2538800000001 120.4508 149.07714000000007 L 118.45060000000001 149.07714000000007 C 118.45060000000001 147.81675000000007 118.9047 146.77129000000008 119.8129 145.9407400000001 C 120.7283 145.10291500000008 121.8888 144.68400000000008 123.2943 144.68400000000008 C 124.7792 144.68400000000008 125.94330000000001 145.08105800000007 126.7866 145.87517000000008 C 127.6299 146.66929000000007 128.0516 147.7730400000001 128.0516 149.18642000000008 C 128.0516 149.87854000000007 127.8281 150.54880000000009 127.3812 151.19721000000007 C 126.94160000000001 151.84561000000008 126.33970000000001 152.33010000000007 125.57560000000001 152.65066000000007 C 126.4406 152.9275100000001 127.10730000000001 153.3864900000001 127.5759 154.0276100000001 C 128.0516 154.6687300000001 128.2894 155.45190000000008 128.2894 156.37720000000007 C 128.2894 157.8051000000001 127.8281 158.93800000000007 126.9055 159.7758000000001 C 125.9829 160.61370000000008 124.78280000000001 161.0326000000001 123.3051 161.0326000000001 C 121.8275 161.0326000000001 120.6238 160.62820000000008 119.6939 159.8196000000001 C 118.7713 159.01090000000008 118.310000456238 157.9436000000001 118.310000456238 156.6176000000001 L 120.321 156.6176000000001 C 120.321 157.45540000000008 120.5913 158.12570000000008 121.1319 158.62840000000008 C 121.6725 159.1311000000001 122.3969 159.38240000000008 123.3051 159.38240000000008 C 124.271 159.38240000000008 125.0098 159.12740000000008 125.5216 158.6175000000001 C 126.0334 158.10750000000007 126.28920000000001 157.3753000000001 126.28920000000001 156.42090000000007 C 126.28920000000001 155.49560000000008 126.0081 154.7853000000001 125.44590000000001 154.28989000000007 C 124.8837 153.79448000000008 124.0728 153.5394900000001 123.0132 153.5249100000001 L 121.5104 153.5249100000001 L 121.5104 151.8747600000001 Z " fill="rgb(130,130,130)" stroke-width="1" stroke="rgba(0,0,0,0)" stroke-linejoin="miter" stroke-linecap="butt"/><path d=" M 133.9403 151.8747600000001 L 135.44310000000002 151.8747600000001 C 136.3874 151.86019000000007 137.12980000000002 151.60884000000007 137.6704 151.1207100000001 C 138.211 150.63258000000008 138.4813 149.9732500000001 138.4813 149.14271000000008 C 138.4813 147.27763000000007 137.56230000000002 146.34509000000008 135.7243 146.34509000000008 C 134.85930000000002 146.34509000000008 134.1673 146.5964400000001 133.6484 147.0991300000001 C 133.13660000000002 147.59454000000008 132.88070000000002 148.2538800000001 132.88070000000002 149.07714000000007 L 130.8805 149.07714000000007 C 130.8805 147.81675000000007 131.334599 146.77129000000008 132.24280000000002 145.9407400000001 C 133.15820000000002 145.10291500000008 134.3187 144.68400000000008 135.7243 144.68400000000008 C 137.2091 144.68400000000008 138.3732 145.08105800000007 139.2165 145.87517000000008 C 140.0598 146.66929000000007 140.4815 147.7730400000001 140.4815 149.18642000000008 C 140.4815 149.87854000000007 140.2581 150.54880000000009 139.8112 151.19721000000007 C 139.3715 151.84561000000008 138.7696 152.33010000000007 138.00560000000002 152.65066000000007 C 138.87050000000002 152.9275100000001 139.53730000000002 153.3864900000001 140.00580000000002 154.0276100000001 C 140.4815 154.6687300000001 140.7194 155.45190000000008 140.7194 156.37720000000007 C 140.7194 157.8051000000001 140.2581 158.93800000000007 139.33540000000002 159.7758000000001 C 138.4128 160.61370000000008 137.2127 161.0326000000001 135.73510000000002 161.0326000000001 C 134.25740000000002 161.0326000000001 133.05370000000002 160.62820000000008 132.12390000000002 159.8196000000001 C 131.201301 159.01090000000008 130.739999246216 157.9436000000001 130.739999246216 156.6176000000001 L 132.751 156.6176000000001 C 132.751 157.45540000000008 133.0213 158.12570000000008 133.5619 158.62840000000008 C 134.10250000000002 159.1311000000001 134.82690000000002 159.38240000000008 135.73510000000002 159.38240000000008 C 136.70090000000002 159.38240000000008 137.43980000000002 159.12740000000008 137.9515 158.6175000000001 C 138.4633 158.10750000000007 138.7192 157.3753000000001 138.7192 156.42090000000007 C 138.7192 155.49560000000008 138.43810000000002 154.7853000000001 137.8758 154.28989000000007 C 137.3136 153.79448000000008 136.5027 153.5394900000001 135.44310000000002 153.5249100000001 L 133.9403 153.5249100000001 L 133.9403 151.8747600000001 Z " fill="rgb(130,130,130)" stroke-width="1" stroke="rgba(0,0,0,0)" stroke-linejoin="miter" stroke-linecap="butt"/><path d=" M 151.1327 153.81998000000007 C 150.71460000000002 154.32267000000007 150.21370000000002 154.7270000000001 149.62980000000002 155.03300000000007 C 149.0532 155.33900000000008 148.4189 155.49200000000008 147.7269 155.49200000000008 C 146.8187 155.49200000000008 146.0258 155.26610000000008 145.3483 154.8144000000001 C 144.67790000000002 154.3627400000001 144.15900000000002 153.72891000000007 143.7914 152.91294000000008 C 143.4238 152.08968000000007 143.24000115967002 151.18264000000008 143.24000115967002 150.1918100000001 C 143.24000115967002 149.12813000000008 143.43820200000002 148.17010000000008 143.83460200000002 147.3177000000001 C 144.238302 146.46530000000007 144.8077 145.8132500000001 145.5429 145.36154800000008 C 146.2781 144.9098490000001 147.13590000000002 144.68400000000008 148.11610000000002 144.68400000000008 C 149.6731 144.68400000000008 150.8984 145.2741230000001 151.7922 146.4543700000001 C 152.69320000000002 147.6273300000001 153.14370000000002 149.2301300000001 153.14370000000002 151.26278000000008 L 153.14370000000002 151.8529000000001 C 153.14370000000002 154.94920000000008 152.53820000000002 157.21140000000008 151.3273 158.63930000000008 C 150.1164 160.0600000000001 148.28910000000002 160.78850000000008 145.84560000000002 160.82500000000007 L 145.4564 160.82500000000007 L 145.4564 159.12020000000007 L 145.87810000000002 159.12020000000007 C 147.52870000000001 159.0910000000001 148.7973 158.65750000000008 149.68390000000002 157.81970000000007 C 150.5705 156.9746000000001 151.0534 155.6413000000001 151.1327 153.81998000000007 Z  M 148.0513 153.81998000000007 C 148.72160000000002 153.81998000000007 149.33790000000002 153.61234000000007 149.9001 153.19707000000008 C 150.4695 152.7818000000001 150.88400000000001 152.26817000000008 151.14350000000002 151.6561900000001 L 151.14350000000002 150.84751000000009 C 151.14350000000002 149.52155000000008 150.8588 148.44330000000008 150.2893 147.6127600000001 C 149.7199 146.78221000000008 148.9991 146.36694000000008 148.127 146.36694000000008 C 147.2476 146.36694000000008 146.5412 146.7093600000001 146.0078 147.3941900000001 C 145.4744 148.0717400000001 145.20770000000002 148.96785000000008 145.20770000000002 150.08253000000008 C 145.20770000000002 151.16807000000009 145.4636 152.06418000000008 145.9754 152.7708700000001 C 146.4944 153.47027000000008 147.18630000000002 153.81998000000007 148.0513 153.81998000000007 Z " fill-rule="evenodd" fill="rgb(130,130,130)" stroke-width="1" stroke="rgba(0,0,0,0)" stroke-linejoin="miter" stroke-linecap="butt"/><path d=" M 158.81040000000002 151.8747600000001 L 160.31320000000002 151.8747600000001 C 161.25750000000002 151.86019000000007 161.99990000000003 151.60884000000007 162.5405 151.1207100000001 C 163.08110000000002 150.63258000000008 163.3514 149.9732500000001 163.3514 149.14271000000008 C 163.3514 147.27763000000007 162.4324 146.34509000000008 160.5943 146.34509000000008 C 159.72940000000003 146.34509000000008 159.03740000000002 146.5964400000001 158.5184 147.0991300000001 C 158.00670000000002 147.59454000000008 157.75080000000003 148.2538800000001 157.75080000000003 149.07714000000007 L 155.75060100000002 149.07714000000007 C 155.75060100000002 147.81675000000007 156.204701 146.77129000000008 157.11290000000002 145.9407400000001 C 158.0283 145.10291500000008 159.18880000000001 144.68400000000008 160.5943 144.68400000000008 C 162.07920000000001 144.68400000000008 163.2433 145.08105800000007 164.0866 145.87517000000008 C 164.9299 146.66929000000007 165.35160000000002 147.7730400000001 165.35160000000002 149.18642000000008 C 165.35160000000002 149.87854000000007 165.12810000000002 150.54880000000009 164.68120000000002 151.19721000000007 C 164.2416 151.84561000000008 163.6397 152.33010000000007 162.87560000000002 152.65066000000007 C 163.7406 152.9275100000001 164.40730000000002 153.3864900000001 164.8759 154.0276100000001 C 165.35160000000002 154.6687300000001 165.5894 155.45190000000008 165.5894 156.37720000000007 C 165.5894 157.8051000000001 165.12810000000002 158.93800000000007 164.2055 159.7758000000001 C 163.2829 160.61370000000008 162.08280000000002 161.0326000000001 160.60510000000002 161.0326000000001 C 159.12750000000003 161.0326000000001 157.9238 160.62820000000008 156.994 159.8196000000001 C 156.071301 159.01090000000008 155.60999846191 157.9436000000001 155.60999846191 156.6176000000001 L 157.621 156.6176000000001 C 157.621 157.45540000000008 157.8913 158.12570000000008 158.4319 158.62840000000008 C 158.97250000000003 159.1311000000001 159.69690000000003 159.38240000000008 160.60510000000002 159.38240000000008 C 161.57100000000003 159.38240000000008 162.30980000000002 159.12740000000008 162.82160000000002 158.6175000000001 C 163.3334 158.10750000000007 163.5892 157.3753000000001 163.5892 156.42090000000007 C 163.5892 155.49560000000008 163.30810000000002 154.7853000000001 162.7459 154.28989000000007 C 162.18370000000002 153.79448000000008 161.3728 153.5394900000001 160.31320000000002 153.5249100000001 L 158.81040000000002 153.5249100000001 L 158.81040000000002 151.8747600000001 Z " fill="rgb(130,130,130)" stroke-width="1" stroke="rgba(0,0,0,0)" stroke-linejoin="miter" stroke-linecap="butt"/><path d=" M 177.88420000000002 149.0552800000001 C 177.88420000000002 149.8494000000001 177.67520000000002 150.5560900000001 177.2571 151.1753500000001 C 176.8463 151.7946200000001 176.2877 152.27910000000008 175.5813 152.62880000000007 C 176.40300000000002 152.9857900000001 177.0517 153.50670000000008 177.5274 154.19153000000009 C 178.0104 154.87640000000007 178.2518 155.65230000000008 178.2518 156.51920000000007 C 178.2518 157.89620000000008 177.7905 158.99270000000007 176.86790000000002 159.80860000000007 C 175.95250000000001 160.62460000000007 174.7452 161.0326000000001 173.2459 161.0326000000001 C 171.7322 161.0326000000001 170.51770000000002 160.62460000000007 169.6023 159.80860000000007 C 168.694098 158.98540000000008 168.24000117188 157.8889000000001 168.24000117188 156.51920000000007 C 168.24000117188 155.65960000000007 168.47060000000002 154.8837000000001 168.9319 154.19153000000009 C 169.40050000000002 153.49942000000007 170.0456 152.9748600000001 170.8673 152.6178700000001 C 170.1681 152.26817000000008 169.6167 151.7836900000001 169.21300100000002 151.1644200000001 C 168.809401 150.5451600000001 168.60760100000002 149.84211000000008 168.60760100000002 149.0552800000001 C 168.60760100000002 147.7147500000001 169.032799 146.6510800000001 169.88340000000002 145.86425000000008 C 170.7339 145.0774150000001 171.8548 144.68400000000008 173.2459 144.68400000000008 C 174.62980000000002 144.68400000000008 175.74710000000002 145.0774150000001 176.5976 145.86425000000008 C 177.45530000000002 146.6510800000001 177.88420000000002 147.7147500000001 177.88420000000002 149.0552800000001 Z  M 176.2516 156.47550000000007 C 176.2516 155.5867000000001 175.97050000000002 154.86180000000007 175.4083 154.30082000000007 C 174.85330000000002 153.73984000000007 174.1253 153.4593500000001 173.2243 153.4593500000001 C 172.32330000000002 153.4593500000001 171.59890000000001 153.73619000000008 171.05110000000002 154.28989000000007 C 170.5105 154.8436000000001 170.24020000000002 155.5721000000001 170.24020000000002 156.47550000000007 C 170.24020000000002 157.37890000000007 170.5033 158.0893000000001 171.0295 158.6065000000001 C 171.5628 159.12380000000007 172.3017 159.38240000000008 173.2459 159.38240000000008 C 174.18290000000002 159.38240000000008 174.9181 159.12380000000007 175.4515 158.6065000000001 C 175.9849 158.08200000000008 176.2516 157.3716000000001 176.2516 156.47550000000007 Z  M 173.2459 146.34509000000008 C 172.46020000000001 146.34509000000008 171.8223 146.5927900000001 171.3322 147.08820000000009 C 170.8493 147.57633000000007 170.6078 148.2429500000001 170.6078 149.08807000000007 C 170.6078 149.89675000000008 170.84570000000002 150.55244000000008 171.3214 151.05514000000008 C 171.8043 151.55055000000007 172.44580000000002 151.79826000000008 173.2459 151.79826000000008 C 174.04600000000002 151.79826000000008 174.68390000000002 151.55055000000007 175.1596 151.05514000000008 C 175.64260000000002 150.55244000000008 175.88400000000001 149.89675000000008 175.88400000000001 149.08807000000007 C 175.88400000000001 148.2793800000001 175.6353 147.62004000000007 175.138 147.1100600000001 C 174.6406 146.60008000000008 174.00990000000002 146.34509000000008 173.2459 146.34509000000008 Z " fill-rule="evenodd" fill="rgb(130,130,130)" stroke-width="1" stroke="rgba(0,0,0,0)" stroke-linejoin="miter" stroke-linecap="butt"/><path d=" M 183.68030000000002 151.8747600000001 L 185.18320000000003 151.8747600000001 C 186.12740000000002 151.86019000000007 186.86990000000003 151.60884000000007 187.4104 151.1207100000001 C 187.95100000000002 150.63258000000008 188.2213 149.9732500000001 188.2213 149.14271000000008 C 188.2213 147.27763000000007 187.30230000000003 146.34509000000008 185.4643 146.34509000000008 C 184.59930000000003 146.34509000000008 183.90740000000002 146.5964400000001 183.38840000000002 147.0991300000001 C 182.87660000000002 147.59454000000008 182.62080000000003 148.2538800000001 182.62080000000003 149.07714000000007 L 180.62050200000002 149.07714000000007 C 180.62050200000002 147.81675000000007 181.074598 146.77129000000008 181.98290000000003 145.9407400000001 C 182.8983 145.10291500000008 184.05870000000002 144.68400000000008 185.4643 144.68400000000008 C 186.94910000000002 144.68400000000008 188.1132 145.08105800000007 188.9566 145.87517000000008 C 189.7999 146.66929000000007 190.22160000000002 147.7730400000001 190.22160000000002 149.18642000000008 C 190.22160000000002 149.87854000000007 189.99810000000002 150.54880000000009 189.55120000000002 151.19721000000007 C 189.1115 151.84561000000008 188.5097 152.33010000000007 187.74560000000002 152.65066000000007 C 188.6106 152.9275100000001 189.27730000000003 153.3864900000001 189.74580000000003 154.0276100000001 C 190.22160000000002 154.6687300000001 190.45940000000002 155.45190000000008 190.45940000000002 156.37720000000007 C 190.45940000000002 157.8051000000001 189.99810000000002 158.93800000000007 189.0755 159.7758000000001 C 188.15290000000002 160.61370000000008 186.95270000000002 161.0326000000001 185.47510000000003 161.0326000000001 C 183.99750000000003 161.0326000000001 182.79370000000003 160.62820000000008 181.86390000000003 159.8196000000001 C 180.941302 159.01090000000008 180.47999876709002 157.9436000000001 180.47999876709002 156.6176000000001 L 182.491 156.6176000000001 C 182.491 157.45540000000008 182.7613 158.12570000000008 183.30190000000002 158.62840000000008 C 183.84250000000003 159.1311000000001 184.56690000000003 159.38240000000008 185.47510000000003 159.38240000000008 C 186.44100000000003 159.38240000000008 187.17980000000003 159.12740000000008 187.69160000000002 158.6175000000001 C 188.2033 158.10750000000007 188.4592 157.3753000000001 188.4592 156.42090000000007 C 188.4592 155.49560000000008 188.17810000000003 154.7853000000001 187.6159 154.28989000000007 C 187.05370000000002 153.79448000000008 186.24280000000002 153.5394900000001 185.18320000000003 153.5249100000001 L 183.68030000000002 153.5249100000001 L 183.68030000000002 151.8747600000001 Z " fill="rgb(130,130,130)" stroke-width="1" stroke="rgba(0,0,0,0)" stroke-linejoin="miter" stroke-linecap="butt"/><path d=" M 192.71500000000003 137.43000000000012 L 192.71500000000003 167.05180000000013 L 193.71500000000003 167.05180000000013 L 193.71500000000003 137.43000000000012 L 192.71500000000003 137.43000000000012 Z " fill="rgb(189,189,189)" stroke-width="1" stroke="rgba(0,0,0,0)" stroke-linejoin="miter" stroke-linecap="butt"/><path d=" M 96.49000000000001 67.30100000000012 L 107.6739 66.59290000000011 C 107.91610000000001 68.42880000000011 108.40910000000001 69.8276000000001 109.15290000000002 70.78930000000011 C 110.36390000000002 72.34550000000011 112.09380000000002 73.12360000000011 114.34270000000001 73.12360000000011 C 116.0207 73.12360000000011 117.30950000000001 72.73020000000011 118.209 71.94330000000011 C 119.1259 71.13900000000011 119.58430000000001 70.21230000000011 119.58430000000001 69.1632000000001 C 119.58430000000001 68.1666000000001 119.15180000000001 67.27480000000011 118.2869 66.48800000000011 C 117.42190000000001 65.70120000000011 115.41520000000001 64.95800000000011 112.2668 64.25860000000011 C 107.11170000000001 63.087100000000106 103.43559 61.531000000000105 101.23861000000001 59.590100000000106 C 99.02432 57.64930000000011 97.91718 55.175100000000114 97.91718 52.16770000000011 C 97.91718 50.19186000000011 98.47940000000001 48.32969000000011 99.60384 46.58118000000011 C 100.74558 44.81518000000011 102.44954000000001 43.43386000000011 104.71573000000001 42.43721000000011 C 106.9992 41.42307000000011 110.1217 40.91600000000011 114.0832 40.91600000000011 C 118.94420000000001 40.91600000000011 122.64630000000001 41.83396900000011 125.18920000000001 43.66991000000011 C 127.74950000000001 45.488360000000114 129.2718 48.39089000000011 129.7562 52.37750000000011 L 118.6761 53.03320000000011 C 118.382 51.30220000000011 117.75930000000001 50.04323000000011 116.80780000000001 49.25640000000011 C 115.87370000000001 48.46957000000011 114.57620000000001 48.07616000000011 112.91550000000001 48.07616000000011 C 111.5489 48.07616000000011 110.51960000000001 48.37340000000011 109.8276 48.967900000000114 C 109.13560000000001 49.54491000000011 108.78970000000001 50.25305000000011 108.78970000000001 51.09230000000011 C 108.78970000000001 51.70430000000011 109.0751 52.25510000000011 109.64600000000002 52.74470000000011 C 110.19950000000001 53.25180000000011 111.5143 53.72380000000011 113.59020000000001 54.16100000000011 C 118.72800000000001 55.280000000000115 122.40410000000001 56.41660000000011 124.61840000000001 57.57060000000011 C 126.8499 58.70710000000011 128.4674 60.12340000000011 129.4708 61.81950000000011 C 130.4914 63.51550000000011 131.0017 65.41270000000011 131.0017 67.5109000000001 C 131.0017 69.97630000000011 130.3271 72.24930000000012 128.9777 74.3301000000001 C 127.62840000000001 76.41080000000011 125.74280000000002 77.99320000000012 123.32090000000001 79.07730000000011 C 120.899 80.14390000000012 117.84570000000001 80.67720000000011 114.161 80.67720000000011 C 107.69120000000001 80.67720000000011 103.2107 79.41820000000011 100.71963000000001 76.9004000000001 C 98.22856000000002 74.3825000000001 96.81868300000001 71.18270000000011 96.49000000000001 67.30100000000012 Z " fill="rgb(189,189,189)" stroke-width="1" stroke="rgba(0,0,0,0)" stroke-linejoin="miter" stroke-linecap="butt"/><path d=" M 160.34610000000004 73.67470000000012 L 146.95650000000003 73.67470000000012 L 145.1142 80.02180000000013 L 133.10000168457003 80.02180000000013 L 147.39770000000001 41.57199998131571 L 160.21630000000002 41.57199998131571 L 174.514 80.02180000000013 L 162.2144 80.02180000000013 L 160.34610000000004 73.67470000000012 Z  M 157.88090000000003 65.36050000000012 L 153.67730000000003 51.538510000000116 L 149.4995 65.36050000000012 L 157.88090000000003 65.36050000000012 Z " fill-rule="evenodd" fill="rgb(189,189,189)" stroke-width="1" stroke="rgba(0,0,0,0)" stroke-linejoin="miter" stroke-linecap="butt"/><path d=" M 175.63000209960998 41.57199998131571 L 211.3616 41.57199998131571 L 211.3616 51.06641000000012 L 199.3726 51.06641000000012 L 199.3726 80.02180000000013 L 187.6183 80.02180000000013 L 187.6183 51.06641000000012 L 175.63000209960998 51.06641000000012 L 175.63000209960998 41.57199998131571 Z " fill="rgb(189,189,189)" stroke-width="1" stroke="rgba(0,0,0,0)" stroke-linejoin="miter" stroke-linecap="butt"/><path d=" M 118.77629999999998 111.85810000000015 C 118.42599999999999 114.88740000000016 117.31669999999998 117.22830000000015 115.44839999999998 118.88060000000014 C 113.59309999999998 120.51980000000015 111.12149999999998 121.33950000000014 108.03359999999998 121.33950000000014 C 104.68620999999997 121.33950000000014 102.00052999999998 120.12640000000015 99.97652999999998 117.70040000000014 C 97.96550999999998 115.27430000000015 96.95999999999998 112.02860000000015 96.95999999999998 107.96330000000015 L 96.95999999999998 105.20940000000014 C 96.95999999999998 102.54730000000015 97.42707599999999 100.20650000000015 98.36122999999998 98.18697000000014 C 99.30834999999998 96.16744000000014 100.64470999999998 94.62001000000015 102.37029999999999 93.54467000000015 C 104.09587999999998 92.45622400000015 106.09392999999997 91.91200000000015 108.36439999999997 91.91200000000015 C 111.37449999999998 91.91200000000015 113.78769999999997 92.76440000000015 115.60409999999999 94.46920000000014 C 117.42049999999998 96.16088000000015 118.47789999999998 98.50826000000015 118.77629999999998 101.51133000000014 L 115.02029999999998 101.51133000000014 C 114.69589999999998 99.22952000000015 113.98879999999998 97.57718000000015 112.89899999999997 96.55430000000015 C 111.82209999999998 95.53142000000015 110.31059999999998 95.01998000000015 108.36439999999997 95.01998000000015 C 105.97715999999998 95.01998000000015 104.10236999999998 95.91172000000014 102.74005999999999 97.69520000000014 C 101.39072999999998 99.47868000000015 100.71606999999997 102.01620000000015 100.71606999999997 105.30780000000014 L 100.71606999999997 108.08140000000014 C 100.71606999999997 111.18930000000015 101.35829999999999 113.66130000000015 102.64275999999998 115.49720000000015 C 103.92721999999998 117.33320000000015 105.72415999999998 118.25110000000015 108.03359999999998 118.25110000000015 C 110.10949999999998 118.25110000000015 111.69879999999998 117.77900000000015 112.80169999999998 116.83490000000015 C 113.91739999999999 115.87750000000014 114.65699999999998 114.21860000000015 115.02029999999998 111.85810000000015 L 118.77629999999998 111.85810000000015 Z " fill="rgb(208,1,27)" stroke-width="1" stroke="rgba(0,0,0,0)" stroke-linejoin="miter" stroke-linecap="butt"/><path d=" M 127.90660000000001 120.94560000000013 L 124.16999909668002 120.94560000000013 L 124.16999909668002 92.30500000401508 L 127.90660000000001 92.30500000401508 L 127.90660000000001 120.94560000000013 Z " fill="rgb(208,1,27)" stroke-width="1" stroke="rgba(0,0,0,0)" stroke-linejoin="miter" stroke-linecap="butt"/><path d=" M 150.7668 107.70720000000011 L 138.4866 107.70720000000011 L 138.4866 117.85730000000012 L 152.7519 117.85730000000012 L 152.7519 120.94560000000013 L 134.750000897217 120.94560000000013 L 134.750000897217 92.30500000401508 L 152.5573 92.30500000401508 L 152.5573 95.41299000000012 L 138.4866 95.41299000000012 L 138.4866 104.61890000000012 L 150.7668 104.61890000000012 L 150.7668 107.70720000000011 Z " fill="rgb(208,1,27)" stroke-width="1" stroke="rgba(0,0,0,0)" stroke-linejoin="miter" stroke-linecap="butt"/><path d=" M 178.2464 111.85810000000015 C 177.89610000000002 114.88740000000016 176.7868 117.22830000000015 174.91840000000002 118.88060000000014 C 173.06310000000002 120.51980000000015 170.5915 121.33950000000014 167.5036 121.33950000000014 C 164.1562 121.33950000000014 161.47060000000002 120.12640000000015 159.44660000000002 117.70040000000014 C 157.43550000000002 115.27430000000015 156.430000384521 112.02860000000015 156.430000384521 107.96330000000015 L 156.430000384521 105.20940000000014 C 156.430000384521 102.54730000000015 156.897099 100.20650000000015 157.8313 98.18697000000014 C 158.7784 96.16744000000014 160.1147 94.62001000000015 161.8403 93.54467000000015 C 163.5659 92.45622400000015 165.56400000000002 91.91200000000015 167.83450000000002 91.91200000000015 C 170.8445 91.91200000000015 173.2577 92.76440000000015 175.07410000000002 94.46920000000014 C 176.8905 96.16088000000015 177.948 98.50826000000015 178.2464 101.51133000000014 L 174.49030000000002 101.51133000000014 C 174.16590000000002 99.22952000000015 173.4588 97.57718000000015 172.369 96.55430000000015 C 171.2921 95.53142000000015 169.7806 95.01998000000015 167.83450000000002 95.01998000000015 C 165.4472 95.01998000000015 163.57240000000002 95.91172000000014 162.2101 97.69520000000014 C 160.8608 99.47868000000015 160.1861 102.01620000000015 160.1861 105.30780000000014 L 160.1861 108.08140000000014 C 160.1861 111.18930000000015 160.8283 113.66130000000015 162.1128 115.49720000000015 C 163.3972 117.33320000000015 165.1942 118.25110000000015 167.5036 118.25110000000015 C 169.5795 118.25110000000015 171.1689 117.77900000000015 172.2717 116.83490000000015 C 173.38750000000002 115.87750000000014 174.127 114.21860000000015 174.49030000000002 111.85810000000015 L 178.2464 111.85810000000015 Z " fill="rgb(208,1,27)" stroke-width="1" stroke="rgba(0,0,0,0)" stroke-linejoin="miter" stroke-linecap="butt"/><path d=" M 3 25.381000000000114 L 282 25.381000000000114 L 282 24.381000000000114 L 3 24.381000000000114 L 3 25.381000000000114 Z " fill="rgb(189,189,189)" stroke-width="1" stroke="rgba(0,0,0,0)" stroke-linejoin="miter" stroke-linecap="butt"/><path d=" M 18.502860000000013 13.071140000000112 C 18.502860000000013 14.925240000000112 17.015800000000013 16.42829000000011 15.181430000000013 16.42829000000011 C 13.347050000000014 16.42829000000011 11.860000000000014 14.925240000000112 11.860000000000014 13.071140000000112 C 11.860000000000014 11.217040000000113 13.347050000000014 9.714000000000112 15.181430000000013 9.714000000000112 C 17.015800000000013 9.714000000000112 18.502860000000013 11.217040000000113 18.502860000000013 13.071140000000112 Z " fill="rgb(196,196,196)" stroke-width="1" stroke="rgba(0,0,0,0)" stroke-linejoin="miter" stroke-linecap="butt"/><path d=" M 29.572860000000006 13.071140000000112 C 29.572860000000006 14.925240000000112 28.085800000000006 16.42829000000011 26.251430000000006 16.42829000000011 C 24.417050000000007 16.42829000000011 22.930000000000007 14.925240000000112 22.930000000000007 13.071140000000112 C 22.930000000000007 11.217040000000113 24.417050000000007 9.714000000000112 26.251430000000006 9.714000000000112 C 28.085800000000006 9.714000000000112 29.572860000000006 11.217040000000113 29.572860000000006 13.071140000000112 Z " fill="rgb(196,196,196)" stroke-width="1" stroke="rgba(0,0,0,0)" stroke-linejoin="miter" stroke-linecap="butt"/><path d=" M 40.64286 13.071140000000112 C 40.64286 14.925240000000112 39.1558 16.42829000000011 37.32143 16.42829000000011 C 35.487049999999996 16.42829000000011 34 14.925240000000112 34 13.071140000000112 C 34 11.217040000000113 35.487049999999996 9.714000000000112 37.32143 9.714000000000112 C 39.1558 9.714000000000112 40.64286 11.217040000000113 40.64286 13.071140000000112 Z " fill="rgb(196,196,196)" stroke-width="1" stroke="rgba(0,0,0,0)" stroke-linejoin="miter" stroke-linecap="butt"/><rect rx="4" ry="4" x="97" y="133.0000000000001" width="174" height="38" transform="matrix(1,0,0,1,0,0)" fill="rgba(0,0,0,0)" stroke-width="2" stroke="rgb(189,189,189)" stroke-linejoin="miter" stroke-linecap="butt"/></svg>