<?xml version="1.0" encoding="UTF-8" standalone="no"?>
<svg width="578px" height="307px" viewBox="0 0 578 307" version="1.1" xmlns="http://www.w3.org/2000/svg" xmlns:xlink="http://www.w3.org/1999/xlink">
    <!-- Generator: Sketch 39.1 (31720) - http://www.bohemiancoding.com/sketch -->
    <title>Artboard</title>
    <desc>Created with Sketch.</desc>
    <defs>
        <rect id="path-1" x="0" y="0" width="578" height="305" rx="10"></rect>
    </defs>
    <g id="Page-1" stroke="none" stroke-width="1" fill="none" fill-rule="evenodd">
        <g id="Artboard">
            <g id="Descripción-Opciones">
                <rect id="Rectangle-31" fill="#FFFFFF" x="0" y="0" width="578" height="307" rx="10"></rect>
                <g id="Ilustracion">
                    <mask id="mask-2" fill="white">
                        <use xlink:href="#path-1"></use>
                    </mask>
                    <g id="Rectangle-31"></g>
                    <g id="Imported-Layers" mask="url(#mask-2)">
                        <g transform="translate(294.000000, 104.000000)">
                            <path d="M56.9500472,58.4601345 C55.8751415,55.6688333 55.4306604,53.3317329 53.1416038,51.2242751 C50.7039623,48.9808112 49.1833019,46.3581406 51.450283,44.1498434 C51.5695755,44.6006546 53.1428774,43.5782791 53.489717,43.0605241 C57.7443396,36.7152711 49.3310377,34.2663153 43.1490566,34.3616466 C40.7912264,34.3976606 39.2739623,30.9229398 37.1033491,30.0704659 C34.9976887,29.2438373 32.7086321,30.5733916 30.8182075,31.6987249 C28.7647642,32.9210843 26.8429245,34.859488 24.899434,36.2199719 C22.8549057,37.6516365 21.2752358,37.3427631 19.5435849,39.2375261 C16.7934906,42.2474538 14.0854245,48.4329739 15.2189151,52.3436767 C16.3541038,56.2598876 20.1472642,60.5731004 22.5399057,63.6766647 C25.3218396,67.284002 26.4060849,70.3685 27.441934,74.5901948 C28.2489623,77.879761 24.9210849,80.2935502 28.3792925,80.6405562 C32.7277358,81.0761145 43.2050943,78.5902972 47.1162736,76.7302771 C51.2308019,74.7740783 54.4092453,72.8784679 52.0624528,68.0784297 C50.7774057,65.4485562 49.2053774,62.973755 48.3868868,60.1765221 C48.0493868,59.0215301 47.5399528,57.4335221 47.5993868,56.2391265 C47.6651887,54.9091486 50.0429717,52.5262892 51.5165094,54.4714719 C52.4398585,55.6908655 52.3146226,57.4818233 53.1445755,58.78299 C53.9779245,60.089241 55.0579245,59.7333373 56.2321698,59.1774498 C56.4694811,59.0651707 57.044717,58.7063012 56.9500472,58.4601345" id="Fill-2" fill="#D4135A"></path>
                            <path d="M65.6533019,62.697506 C65.1273113,60.330747 62.587783,58.9533153 62.9516038,56.371743 C63.0577358,55.619261 64.4501887,54.3083494 63.8749528,53.6177269 C63.4860849,53.151239 61.8333962,52.4356185 61.326934,52.1483534 C60.2571226,51.5407751 59.2331604,50.8467631 58.2873113,50.0608092 C56.5331604,48.6032992 55.454434,46.6136285 54.5599528,44.5582851 C54.779434,44.1485723 54.4385377,43.4770161 53.8314623,43.6104799 C48.6089151,44.7586928 51.9631132,49.4795 54.0042453,52.1047129 C55.6149057,54.1761566 56.3497642,55.5900261 56.3425472,58.3576004 C56.3378774,60.1256787 54.7972642,59.9888253 54.0012736,59.3151506 C53.3678774,58.7791767 52.9849528,57.8949257 52.6071226,57.1763394 C52.0076887,56.0353293 51.4175943,54.9523655 50.2891981,54.2668273 C50.0191981,54.1024337 48.7061321,54.1808173 48.5685849,54.4947751 C47.258066,57.4924157 48.5983019,60.7243594 49.7398585,63.70251 C50.7039623,66.2175622 54.7616038,70.7430462 51.8527358,73.0085422 C51.4265094,73.3407189 51.7529717,73.911012 52.1337736,74.070745 C59.4157075,77.1310924 67.1824528,69.5812751 65.6533019,62.697506" id="Fill-3" fill="#FFFFFF"></path>
                            <path d="M65.2283491,80.9159578 C64.3945755,76.481992 56.5484434,75.4549558 53.0375943,75.050751 C50.3906604,74.7461145 52.1261321,74.8308534 49.5628302,75.4655482 C46.965566,76.1087169 41.9302358,78.315743 37.6310377,79.1521165 C37.0222642,79.270751 37.5550472,80.1566968 38.0470755,80.2062691 C37.7201887,81.0498454 37.6416509,81.923504 37.4671698,82.8225843 C37.379717,83.2729719 37.7554245,83.7593735 38.2504245,83.6038775 C42.5207547,82.2645783 47.1196698,81.8023273 51.5572642,81.3006727 C55.8874528,80.8108815 60.2791981,81.6747952 64.6140566,81.7201305 C65.054717,81.7247912 65.303066,81.3133835 65.2283491,80.9159578" id="Fill-4" fill="#3989C9"></path>
                            <path d="M13.2232075,204.846681 C12.2484906,201.563894 5.9145283,203.091313 3.48198113,202.896837 C2.9415566,202.85362 2.76283019,203.392137 2.93561321,203.782359 C2.72462264,203.856506 2.51533019,203.939127 2.3115566,204.042932 C1.89212264,204.256474 1.90061321,204.924217 2.3115566,205.140301 C5.32018868,206.722801 9.55783019,206.17793 12.7787264,205.627974 C13.1166509,205.570351 13.3149057,205.153859 13.2232075,204.846681" id="Fill-5" fill="#3989C9"></path>
                            <path d="M102.125377,203.604831 C101.475,201.967251 99.1906132,202.135882 97.7816038,202.291801 C96.2507547,202.461279 93.1139151,201.760912 92.3221698,203.377731 C91.995283,204.044627 92.8468868,205.740253 93.2799057,205.2869 C93.3817925,205.378418 93.5197642,205.438159 93.6942453,205.439006 C94.4023585,205.441548 98.6081604,205.633058 100.825047,205.005566 C100.995283,205.009803 101.165519,205.013193 101.335755,205.015311 C101.716981,205.019972 101.918632,204.748384 101.946226,204.45561 C102.180566,204.226392 102.261651,203.946329 102.125377,203.604831" id="Fill-6" fill="#3989C9"></path>
                            <path d="M34.0212736,85.0859618 C24.1709434,89.9177771 15.3169811,98.2560904 9.58584906,107.624406 C9.24240566,108.185801 10.1237264,108.69593 10.4654717,108.137924 C16.1078774,98.914512 24.8442453,90.7172892 34.5353774,85.9638574 C35.1250472,85.6748976 34.6083962,84.7978494 34.0212736,85.0859618" id="Fill-7" fill="#1B1364"></path>
                            <path d="M9.58584906,107.624406 C6.80561321,114.125578 5.29004717,121.111034 4.10391509,128.05412 C2.68938679,136.337777 1.87132075,144.721426 1.28632075,153.100414 C0.290801887,167.359861 0.0585849057,181.682863 0.303537736,195.972817 C0.339198113,198.05909 0.381226415,200.146211 0.459339623,202.231637 C0.470377358,202.52102 0.683915094,202.72397 0.968773585,202.74007 C5.13382075,202.977339 9.30056604,203.24342 13.4690094,203.404847 L13.4690094,202.38798 C9.79938679,202.262566 6.12933962,202.136729 2.46014151,202.011315 C2.18207547,202.001994 1.95028302,202.249855 1.95028302,202.519749 L1.95028302,205.149622 C1.95028302,205.380112 2.10693396,205.574165 2.32471698,205.639837 C5.85339623,206.703311 9.81169811,206.678313 13.4690094,206.582982 C14.1249057,206.566034 14.1266038,205.549167 13.4690094,205.566114 C11.2640094,205.623313 9.05221698,205.557217 6.85358491,205.386044 C6.15608491,205.331811 2.96957547,204.849223 2.96957547,204.912353 L2.96957547,202.519749 C2.79933962,202.689227 2.62995283,202.858705 2.46014151,203.028183 C6.12933962,203.153596 9.79938679,203.279434 13.4690094,203.404847 C14.1270283,203.427303 14.1236321,202.413402 13.4690094,202.38798 C9.30056604,202.226552 5.13382075,201.960896 0.968773585,201.723203 C1.13858491,201.892681 1.30839623,202.062159 1.47863208,202.231637 C1.1445283,193.320488 1.17679245,184.384341 1.34787736,175.470651 C1.67179245,158.627512 2.53570755,141.597948 5.68188679,125.0175 C6.76995283,119.284486 8.1645283,113.518424 10.4654717,108.137924 C10.7206132,107.541361 9.84311321,107.022759 9.58584906,107.624406" id="Fill-8" fill="#1B1364"></path>
                            <path d="M15.4961321,121.688954 C13.2991981,141.720819 12.3737264,161.881488 12.4539623,182.029869 C12.4879245,190.627908 12.630566,199.259418 13.2321226,207.840084 C13.2533491,208.143026 13.4503302,208.313351 13.7419811,208.348518 C32.8258019,210.664434 52.1261321,211.524534 71.3228774,210.272092 C78.2970283,209.817044 85.424434,209.236582 92.2737736,207.759582 C92.4962264,207.711281 92.6435377,207.485876 92.647783,207.268944 C92.8137736,197.834956 92.5552358,188.378936 92.1307075,178.95554 C91.3504245,161.625576 89.9545755,144.075715 85.9958491,127.146143 C84.9914151,122.852843 83.7645283,118.601066 82.1576887,114.492074 C81.9212264,113.888309 80.9358962,114.150576 81.1749057,114.762392 C87.3742925,130.611966 89.0057547,148.345711 90.285283,165.171902 C91.2871698,178.338217 91.7214623,191.564697 91.6535377,204.768721 C91.6492925,205.591112 91.6429245,206.413928 91.6293396,207.236319 C91.6361321,206.826606 92.2975472,206.720683 91.7044811,206.840588 C91.2837736,206.924904 90.8613679,207.002863 90.4393868,207.079129 C85.8557547,207.905333 81.2160849,208.430291 76.5793868,208.848054 C55.6841038,210.729683 34.5404717,209.8556 13.7419811,207.331651 C13.9113679,207.501129 14.0811792,207.670606 14.2514151,207.840084 C13.649434,199.25857 13.5157075,190.628755 13.4728302,182.029869 C13.372217,161.884878 14.318066,141.717006 16.515,121.688954 C16.5863208,121.037311 15.5666038,121.044514 15.4961321,121.688954" id="Fill-9" fill="#1B1364"></path>
                            <path d="M93.4178774,100.638526 C84.9039623,92.2612329 74.2792925,84.4936365 62.8297642,80.8363032 C62.2018868,80.6358956 61.9357075,81.6180201 62.5589151,81.8171566 C73.8390566,85.4198333 84.3121698,93.1069277 92.6974528,101.35796 C93.165283,101.818516 93.8861321,101.099506 93.4178774,100.638526" id="Fill-10" fill="#1B1364"></path>
                            <path d="M62.8297642,80.8363032 C52.9917453,78.6352088 41.7608491,80.546496 33.0240566,85.5829558 C32.4556132,85.9104719 32.9684434,86.7892149 33.5381604,86.4608514 C42.0333962,81.5642108 52.9930189,79.6766506 62.5589151,81.8171566 C63.1986792,81.9599418 63.4708019,80.9799357 62.8297642,80.8363032" id="Fill-11" fill="#1B1364"></path>
                            <path d="M51.0333962,55.5379116 C51.4541038,57.0814317 52.5956604,60.0566165 54.6130189,59.9769618 C57.7685377,59.8528193 57.2956132,57.1492229 56.1740094,55.1887871 C55.0566509,53.2364016 49.1803302,47.1580763 52.057783,45.1989116 C53.0291038,44.5379478 54.0424528,44.1862811 54.7768868,43.2236466 C55.7910849,41.8949398 54.9870283,39.7213855 54.5191981,38.3727651 C53.4684906,35.3420763 51.0622642,34.4624859 48.0901415,34.2362329 C46.0320283,34.0794659 44.0112736,34.1892028 42.2061792,33.0380241 C40.7980189,32.1393675 39.8033491,30.6996526 38.4588679,29.7090542 C35.4060849,27.4588112 31.0725,30.0039458 28.5868868,31.960992 C27.2644811,33.00201 26.0995755,34.166747 25.0743396,35.5001145 C24.809434,35.845002 24.5661792,36.207261 24.3399057,36.5784177 C24.1212736,36.9368635 24.4451887,36.3835181 24.7283491,36.4695281 C24.2987264,36.3394538 23.8516981,36.3076767 23.4076415,36.2695442 C21.0833491,36.071255 19.3478774,37.9537309 18.2182075,39.6951165 C16.0535377,43.0317129 13.0920283,47.6368514 14.100283,51.7916024 C15.0223585,55.592992 18.9730189,58.5304679 21.1291981,61.6221687 C24.0868868,65.8633534 25.8045283,71.377741 27.0241981,76.3697129 C27.18,77.0065261 28.161934,76.7362088 28.0065566,76.0993956 C26.962217,71.8234679 25.4521698,67.4877992 23.4764151,63.5533695 C21.6140094,59.8447691 18.4491509,57.1729498 16.1554245,53.7829679 C13.3106604,49.5782209 16.2853302,45.1120542 18.4491509,41.2865141 C19.7333491,39.0172048 21.5210377,36.5614699 24.5551415,37.4796165 C24.7686792,37.5440181 25.0225472,37.4410602 25.1303774,37.2457369 C26.1933962,35.3213153 27.9118868,33.7146647 29.6592453,32.4228193 C31.2856132,31.2212209 33.2893868,30.1166486 35.3165094,29.8598896 C36.9386321,29.6548213 38.1684906,30.6738072 39.2446698,31.7275361 C41.085,33.5286627 42.6583019,34.8391506 45.3200943,35.0747249 C48.2671698,35.3352972 51.577217,34.9192289 53.2133491,37.9041586 C53.9745283,39.2926064 54.8206132,41.7941004 53.5725,43.0766245 C52.8665094,43.8028373 51.7614623,44.1134056 50.9684434,44.7493715 C49.334434,46.059012 50.5222642,48.363488 51.3301415,49.7616807 C52.7841509,52.2784277 55.049434,54.4816406 56.040283,57.2441305 C56.4070755,58.266506 55.5291509,59.0961004 54.4487264,58.9334016 C53.7367925,58.8257831 53.2337264,57.9834779 52.9038679,57.4360643 C52.5039623,56.7725582 52.2195283,56.0141446 52.0161792,55.2675944 C51.8438208,54.6354418 50.8610377,54.904488 51.0333962,55.5379116" id="Fill-12" fill="#1B1364"></path>
                            <path d="M52.1923585,55.6349378 C51.7461792,54.5727349 50.7200943,53.112259 49.3675472,53.3766446 C47.1476887,53.8109317 46.9354245,56.5865562 47.212217,58.4139518 C47.5161792,60.416757 48.5201887,63.1800944 50.9786321,63.255512 C52.6988208,63.3080502 53.3912264,61.9602771 53.3589623,60.3790482 C53.3453774,59.7240161 52.3265094,59.722745 52.3396698,60.3790482 C52.3591981,61.3234639 51.9860377,62.3873614 50.7943868,62.2089859 C49.3276415,61.9890884 48.69,60.3633715 48.3707547,59.1312671 C48.0362264,57.8402691 47.9840094,56.287004 48.5758019,55.0633735 C49.3301887,53.5050241 50.8143396,54.9642289 51.21,55.9048313 C51.4600472,56.5005462 52.4462264,56.2391265 52.1923585,55.6349378" id="Fill-13" fill="#1B1364"></path>
                            <path d="M49.0606132,62.3318574 C50.0599528,64.7727631 51.3666509,67.07851 52.3379717,69.5266185 C52.9925943,71.1764859 52.6550943,72.5162088 51.1896226,73.4991807 C48.4726415,75.3219157 45.2407075,76.5391908 42.1964151,77.678506 C38.708066,78.9834859 34.9908962,80.2037269 31.2499528,80.4456566 C30.1593396,80.51599 28.4748113,80.5638675 27.7416509,79.5758112 C26.4799528,77.8763715 27.5293868,76.3684418 29.3013679,75.9422048 C29.9398585,75.7888273 29.6690094,74.8079739 29.0305189,74.9617751 C26.0834434,75.6706165 24.8629245,79.4919197 27.9802358,81.0218815 C31.3229717,82.662004 36.6482547,80.6066606 39.8581132,79.5698795 C43.9382547,78.2521888 48.3041038,76.6578253 51.8866981,74.2546285 C53.0741038,73.4580823 53.8042925,72.3030904 53.7185377,70.8472751 C53.6569811,69.8054096 53.1483962,68.7936265 52.7221698,67.8606506 C51.8349057,65.9205522 50.8525472,64.0385 50.0429717,62.0619639 C49.7980189,61.4632831 48.8122642,61.7247028 49.0606132,62.3318574" id="Fill-14" fill="#1B1364"></path>
                            <path d="M65.0610849,60.913751 C66.8084434,66.4188173 63.7463208,72.1823373 58.2121698,74.1516707 C57.5978774,74.3698735 57.862783,75.3528454 58.4830189,75.1321004 C64.5350943,72.9788835 67.9669811,66.7035402 66.0434434,60.6434337 C65.8456132,60.0206024 64.8619811,60.2866827 65.0610849,60.913751" id="Fill-15" fill="#1B1364"></path>
                            <path d="M53.4158491,43.9307932 C57.7409434,49.3350201 60.0571698,56.3586084 65.1918396,61.1378855 C65.6719811,61.5848835 66.3936792,60.8671446 65.9122642,60.4188755 C60.7894811,55.6506145 58.4575472,48.6109257 54.1362736,43.2113594 C53.7261792,42.6991124 53.01,43.4236305 53.4158491,43.9307932" id="Fill-16" fill="#1B1364"></path>
                            <path d="M37.9388208,79.1665221 C36.7853774,80.2261827 36.306934,82.9797751 37.5304245,84.1817972 C37.9991038,84.6419297 38.7199528,83.9233434 38.2512736,83.4627871 C37.4221698,82.6484458 37.9188679,80.5655622 38.6592453,79.8855321 C39.1436321,79.4406526 38.4210849,78.7233373 37.9388208,79.1665221" id="Fill-17" fill="#1B1364"></path>
                            <path d="M50.2416509,75.1643012 C56.0317925,75.0240582 63.4962736,77.1484639 66.0141509,82.9280843 C66.2752358,83.5280361 67.1527358,83.0098574 66.8937736,82.41499 C64.2383491,76.3188695 56.3599528,73.9991406 50.2416509,74.1474337 C49.5857547,74.1635341 49.5840566,75.1799779 50.2416509,75.1643012" id="Fill-18" fill="#1B1364"></path>
                            <path d="M58.8391981,75.9972851 C58.6307547,74.874494 58.4125472,73.688996 58.4728302,72.5399357 C58.507217,71.8840562 57.4883491,71.8874458 57.4539623,72.5399357 C57.3890094,73.7758534 57.6326887,75.0600723 57.8564151,76.2671787 C57.9761321,76.9116185 58.9576415,76.6379116 58.8391981,75.9972851" id="Fill-19" fill="#1B1364"></path>
                            <path d="M57.449717,50.3294317 C57.4289151,50.7200783 56.8664151,50.7200783 56.8456132,50.3294317 C56.8239623,49.9387851 57.4289151,49.9413273 57.449717,50.3294317 C57.4849528,50.981498 58.5042453,50.9848876 58.4690094,50.3294317 C58.4286792,49.585 57.8937736,49.0511446 57.1474528,49.0108936 C56.4032547,48.9710663 55.8632547,49.6451647 55.8263208,50.3294317 C55.7864151,51.0725924 56.4618396,51.6111084 57.1474528,51.6479699 C57.8920755,51.6882209 58.4320755,51.0136988 58.4690094,50.3294317 C58.5042453,49.6739759 57.4849528,49.6773655 57.449717,50.3294317" id="Fill-20" fill="#1B1364"></path>
                            <path d="M53.4442925,49.7269378 C54.6036792,46.9271627 57.1474528,44.1011185 57.1474528,44.1011185 C57.1474528,44.1011185 54.3731604,43.5600602 53.7741509,44.330761 C53.1751415,45.1023092 54.2504717,45.3836426 53.7096226,45.9763916 C53.1691981,46.5695643 52.4449528,45.5526968 51.9401887,46.5238052 C50.9701415,48.3918755 52.9301887,50.3421426 52.9301887,50.3421426" id="Fill-21" fill="#D4135A"></path>
                            <path d="M53.8841038,49.9836968 C54.7603302,47.9681807 56.0445283,46.0988394 57.5078774,44.4608353 C57.742217,44.1985683 57.6840566,43.686745 57.2828774,43.6109036 C56.0050472,43.3693976 52.1511792,43.0588293 53.2804245,45.4772791 C53.2341509,45.3785582 51.9244811,45.741241 51.7788679,45.8865683 C51.2791981,46.3848333 51.1590566,47.1606185 51.1692453,47.8296325 C51.1849528,48.8795482 51.855283,49.9692912 52.5701887,50.7018594 C53.0291038,51.1721606 53.7491038,50.4527269 53.2906132,49.9828494 C52.7238679,49.4023876 52.2959434,48.6371948 52.1876887,47.8296325 C51.9410377,45.988255 53.5181604,47.2229016 54.149434,46.2327269 C54.6193868,45.4967691 53.745283,44.5506586 54.9148585,44.4371084 C55.6030189,44.3701647 56.3353302,44.4633775 57.0120283,44.591757 C56.9373113,44.3083052 56.8621698,44.0248534 56.7874528,43.7418253 C55.2684906,45.4425361 53.9138208,47.3783976 53.0044811,49.4701787 C52.7459434,50.0654699 53.6234434,50.5836486 53.8841038,49.9836968" id="Fill-22" fill="#1B1364"></path>
                            <path d="M58.5411792,51.6869498 C59.8300472,52.5534056 61.2093396,52.6923775 62.7176887,52.8067751 C63.8002358,52.8885482 64.0485849,53.432996 64.0226887,54.4875723 C64.0163208,54.7545 63.7790094,55.2061586 63.6915566,55.2129378 C63.4873585,55.2277671 63.2317925,55.3548755 63.2003774,55.5862129 C63.1307547,56.0993072 62.6803302,56.2454819 62.2184434,56.2548032 C61.5621226,56.2687851 61.5612736,57.2856526 62.2184434,57.2720944 C63.1235377,57.2530281 64.050283,56.8310281 64.1827358,55.8565301 C64.0192925,55.9806727 63.8554245,56.105239 63.6915566,56.2298052 C65.1642453,56.1213394 65.1413208,54.1905622 64.9146226,53.15251 C64.7257075,52.2885964 63.8834434,51.9411667 63.1001887,51.8322771 C61.6351415,51.6289036 60.3416038,51.6733916 59.055283,50.8090542 C58.5084906,50.4417108 57.9990566,51.322996 58.5411792,51.6869498" id="Fill-23" fill="#1B1364"></path>
                            <path d="M92.6176415,101.254578 C95.2832547,107.48501 96.7253774,114.22557 97.9229717,120.866562 C99.4083962,129.104884 100.334292,137.441502 101.059387,145.777273 C102.360566,160.732004 102.908632,175.755797 103.061038,190.76349 C103.09967,194.585217 103.12217,198.40991 103.066981,202.231637 C103.236792,202.062159 103.406604,201.892681 103.576415,201.723203 C99.7717925,201.83294 95.9671698,201.934203 92.1633962,202.069785 C91.5091981,202.093088 91.5045283,203.090466 92.1633962,203.086653 C95.4708962,203.067163 98.7779717,203.047673 102.085047,203.028183 C101.91566,202.858705 101.745849,202.689227 101.575613,202.519749 L101.575613,204.292064 L101.575613,204.912353 C101.575613,204.734825 99.5782075,205.003448 99.0267453,205.047088 C96.8141038,205.222074 94.4787736,205.089882 92.2988208,204.659408 C91.6573585,204.532299 91.3839623,205.512729 92.0283962,205.639837 C95.3728302,206.300801 98.879434,206.27199 102.220472,205.639837 C102.440802,205.598315 102.594906,205.36147 102.594906,205.149622 L102.594906,202.519749 C102.594906,202.243924 102.363113,202.00962 102.085047,202.011315 C98.7779717,202.030805 95.4708962,202.050295 92.1633962,202.069785 L92.1633962,203.086653 C95.9671698,202.95107 99.7717925,202.849807 103.576415,202.74007 C103.857028,202.73202 104.081604,202.515088 104.085849,202.231637 C104.438208,177.726402 103.545,152.890685 100.172972,128.606618 C98.8688208,119.212882 97.2509434,109.514932 93.4972642,100.741908 C93.24,100.140261 92.3629245,100.658863 92.6176415,101.254578" id="Fill-24" fill="#1B1364"></path>
                            <path d="M64.2825,60.8735 C62.8259434,61.7263976 60.9007075,62.3208414 59.2306132,61.7069076 C58.6129245,61.4798072 58.3488679,62.4627791 58.9601887,62.6873373 C60.8752358,63.3919418 63.1218396,62.732249 64.7966038,61.7513956 C65.3625,61.4196426 64.8500943,60.5408996 64.2825,60.8735" id="Fill-25" fill="#1B1364"></path>
                            <path d="M24.2507547,36.7326426 C22.05,39.767992 19.8946698,43.2825402 19.0524057,46.9941064 C18.907217,47.6326145 19.8895755,47.9037791 20.0347642,47.2644237 C20.8591981,43.6320884 22.9741981,40.2196506 25.1303774,37.2457369 C25.5162736,36.7135763 24.6319811,36.2068373 24.2507547,36.7326426" id="Fill-26" fill="#1B1364"></path>
                            <path d="M189.488208,56.8920402 C190.571604,53.1300542 192.484953,49.6421988 192.907358,45.7069217 C192.925613,45.5365964 192.850472,45.3823715 192.730755,45.2671265 C192.90566,44.6006546 192.723962,43.9367249 191.884245,43.3223675 C191.584953,43.1028936 191.199481,43.2931325 191.013113,43.5503153 C190.785991,43.863002 189.749717,44.1519618 189.585849,44.4493956 C188.190849,42.531753 189.001698,38.1054137 189.001698,38.1054137 C190.321557,37.8698394 191.823113,36.2962369 191.520849,34.7120422 C191.280142,33.4494317 189.286132,32.5656044 188.128019,32.5884839 C186.359434,32.6232269 185.44967,34.6090843 185.5575,37.703751 C185.640283,40.0717811 184.899057,43.3232149 181.501557,42.6228474 C180.052217,42.3237189 180.662689,39.146008 180.887689,38.3748835 C181.286745,37.0059257 182.126038,35.8818635 182.405377,34.4607912 C182.957689,31.6538133 181.792358,28.6684598 183.24934,25.9936747 C184.498726,23.7010622 188.237123,24.7429277 190.032028,22.9943394 C190.305,22.7286827 190.279104,22.1689819 189.903396,21.9965382 C188.998302,21.5808936 188.074953,21.2313454 187.214434,20.7254538 C186.250755,20.1581265 185.440755,19.0709257 184.598066,18.3294598 C182.873632,16.8126325 181.167028,15.6974679 178.883491,15.276739 C174.589387,14.4848534 172.669245,13.7904177 171.103585,17.6439217 C170.017642,20.3165884 167.928113,26.0580763 166.754717,28.6964237 C165.714623,31.0347952 164.024151,32.9871807 163.071509,35.3696165 C162.682217,36.3436908 161.708349,38.236759 162.669481,39.196004 C163.015047,39.5404679 163.836085,39.6531707 164.496226,39.688761 C164.562453,41.6987691 164.098443,43.6236145 163.846274,45.620488 C163.565236,47.8419197 163.88066,49.6765181 165.179292,51.4403594 C165.826274,52.3191024 166.91434,53.1003956 167.737075,53.730006 C167.778679,53.7850863 167.8275,53.8372008 167.892453,53.8821124 C168.107689,54.031253 168.333538,54.161751 168.568302,54.2765723 C168.685472,54.3418213 168.800943,54.4079177 168.924481,54.4676586 C170.584811,55.2701365 172.469292,55.4057189 174.304104,55.6645964 C174.79783,55.8429719 175.101368,56.0942229 175.265236,56.4136888 C174.712925,57.6652831 174.457783,59.1524518 174.337642,60.5786084 C173.973821,61.2065241 174.008208,63.2991526 174.355896,63.3131345 C174.473915,63.4720201 174.661132,63.5800622 174.864906,63.5728594 C175.322547,63.5563353 175.524623,63.53049 175.938962,63.4300743 C175.958491,63.4300743 175.976745,63.4343112 175.997123,63.4317691 C179.436226,63.0021426 182.907594,62.9508755 186.343726,62.486506 C187.73533,62.2988092 188.974953,61.7971546 189.343019,60.3506606 C189.615142,59.2825261 189.556132,58.0915201 189.48184,56.9085643 C189.483538,56.9026325 189.486509,56.8979719 189.488208,56.8920402" id="Fill-27" fill="#FFFFFF"></path>
                            <path d="M204.242264,22.2740582 C203.151651,20.4453916 202.386226,19.4789438 202.902877,17.1888735 C203.220425,15.7817831 203.326132,14.4001145 203.135519,12.9650602 C202.831132,10.67499 200.271226,8.26628514 198.518349,7.31551406 C195.431604,5.64064859 189.601132,5.14111245 186.033396,5.03434137 C178.795189,4.81825703 174.863632,9.50050803 167.681887,7.67184137 C167.534575,7.48965261 167.321038,7.45448594 167.121934,7.51761647 C166.976321,7.4743996 166.830708,7.4333012 166.685094,7.38542369 C165.903113,7.12781727 165.570283,8.35568474 166.346321,8.61117269 C166.422736,8.63617068 166.499151,8.65396586 166.575566,8.67811647 C166.452028,8.95309438 166.328491,9.22849598 166.204953,9.50389759 C165.580472,9.66363052 165.61316,10.5538133 166.204953,10.7296466 C167.413585,11.4185743 167.603349,12.0998755 166.772972,12.7743976 C166.505094,13.0968293 166.532689,13.7586406 167.054009,13.8370241 C171.070047,14.4395181 175.285613,14.971255 179.222264,15.9563454 C181.185708,16.4474076 182.774717,17.6252791 184.408726,18.7518835 C185.249292,19.331498 186.175189,19.7958675 187.077311,20.2704056 C187.388915,20.4347992 190.680283,21.7440161 189.448302,22.5320884 C187.162642,23.9938353 183.748585,24.761994 182.708491,27.6524398 C182.046226,29.4938173 182.169764,31.3415502 182.295849,33.2659719 C182.431274,35.3319076 182.050896,36.8025522 181.271038,38.6600301 C180.798538,39.7853635 180.241557,42.9872249 182.612123,42.5275161 C184.520802,42.1572068 185.402547,39.7150301 185.591038,38.0206747 C185.721368,36.8495823 186.011745,35.7073012 186.074151,34.5247691 C186.231226,31.5614478 191.402406,33.04099 191.388821,35.7013695 C191.374811,38.4926707 189.129057,39.0104257 189.129057,39.0104257 C189.129057,39.0104257 189.358302,42.4338795 189.816792,43.6164116 C189.978113,44.0324799 190.53,44.2820361 190.881085,43.8968976 C191.246604,43.496506 191.584528,43.0850984 191.971698,42.7139418 C192.461604,43.5876004 192.828396,44.4527851 193.788679,44.9845221 C194.119811,45.1679819 194.652594,45.0226546 194.72434,44.6048916 C194.759151,44.1519618 194.876745,43.7244538 195.066085,43.3198253 C196.426698,44.0515462 196.066274,43.8079217 197.647217,43.9413855 C198.398632,44.0045161 200.162123,43.7591968 199.515566,43.5405703 C198.502642,43.1982249 198.244953,42.3199056 198.317123,41.4678554 C199.802972,41.6784317 199.757123,43.0660321 200.444009,41.2428735 C200.973821,39.8370542 199.621274,39.0926225 199.852217,37.6236727 C200.193113,35.4539317 202.963585,31.4250181 203.979481,29.4671245 C205.239906,27.0397771 205.706038,24.7285221 204.242264,22.2740582" id="Fill-28" fill="#D17907"></path>
                            <path d="M257.661509,45.2425522 C258.142925,45.3433916 258.62434,45.4442309 259.10533,45.5450703 C259.345613,45.59549 259.585896,45.6454859 259.825755,45.6959056 C259.830425,45.6963293 259.833396,45.696753 259.837642,45.696753 C259.980283,45.2501787 260.1225,44.8036044 260.265142,44.3570301 C260.90533,42.3465984 261.546368,40.3361667 262.186981,38.3261586 C262.2375,38.1676968 262.288019,38.0096586 262.338113,37.8511968 C261.885566,37.7279016 261.432594,37.6050301 260.979623,37.4817349 C259.118915,36.9754197 257.257783,36.4691044 255.397075,35.9627892 C253.279953,35.3865643 251.16283,34.8107631 249.046132,34.2345382 C248.408066,34.061247 247.770849,33.8875321 247.132783,33.714241 C246.988868,33.6748373 246.887406,33.6485683 246.817358,33.629502 C246.234906,35.3899538 245.652028,37.1508293 245.069575,38.9117048 C244.859009,39.5489418 244.648019,40.1861787 244.437453,40.8234157 C244.476934,40.8365502 244.580094,40.9085783 244.853491,41.0928855 C245.168915,41.3051566 245.48434,41.5174277 245.79934,41.7301225 C249.753396,42.9007912 253.707453,44.0718835 257.661509,45.2425522" id="Fill-29" fill="#33CAD8"></path>
                            <path d="M262.141981,19.1289719 C263.725472,15.8216104 266.523113,13.2824076 268.21316,10.0428373 C269.593302,7.39813454 266.358396,10.1322369 265.640519,10.8690422 C264.961274,11.5660201 264.299434,12.2807932 263.673679,13.0260723 C263.426179,13.3205402 263.028396,12.945994 263.173585,12.6409337 C263.771745,11.3825602 264.338915,10.1051205 264.856415,8.81158032 C265.206226,7.93876908 265.556038,7.0600261 265.830283,6.1596747 C265.877406,6.00460241 266.362642,3.7653755 266.003491,4.01027108 C263.655,5.61098996 262.156415,9.36068876 260.893019,11.8316767 C260.728302,12.1536847 260.202311,11.9291265 260.310991,11.5867811 C260.679481,10.4254337 261.007217,9.24713855 261.289528,8.06206426 C261.630425,6.63336546 262.726132,3.58318675 261.849057,2.20363655 C261.015283,0.891453815 259.2225,6.76301606 259.101934,7.29221084 C258.818349,8.53575502 258.566604,9.78819679 258.377689,11.0499598 C258.325047,11.403745 257.721792,11.3207008 257.752358,10.9652209 C257.896274,9.29332129 257.959528,7.596 257.887358,5.91943976 C257.835991,4.7313996 257.816038,3.41921687 257.365613,2.30023896 C256.673208,0.581309237 255.850472,2.06720683 255.543538,3.07432932 C254.471604,6.59141968 254.202028,10.4148414 254.0025,14.0725984 C253.988066,14.3378313 253.660755,14.5081566 253.459104,14.2971566 C252.815943,13.6251767 247.890991,8.93784137 247.188396,10.5745743 C246.711651,11.6846546 248.208962,13.4573936 248.816038,14.2679217 C249.643443,15.372494 250.534104,16.4287651 251.471462,17.4418193 C252.559104,18.6167249 252.210142,18.9243273 251.856085,20.5695341 C250.922547,24.9056265 249.985189,29.2408715 249.041462,33.5748454 C252.116321,34.4112189 255.191179,35.2480161 258.265613,36.0843896 C258.798821,30.4267932 259.68184,24.2675422 262.141981,19.1289719" id="Fill-30" fill="#FFFFFF"></path>
                            <path d="M124.365566,80.09399 C123.420142,75.749 122.479387,71.4031627 121.544575,67.0564779 C121.176934,65.3464458 121.084811,65.3676305 122.216604,64.1143414 C123.167123,63.0618835 124.109575,61.984004 124.918726,60.817996 C125.250708,60.3396446 127.599623,56.5895221 125.36533,57.2284538 C123.287689,57.8224739 121.490236,59.6604618 120.028585,61.1891526 C119.827358,61.3997289 119.499623,61.2298273 119.485189,60.9641707 C119.283962,57.2759076 119.143868,53.1614076 117.846509,49.6743996 C117.395236,48.4613614 116.483774,47.7741285 116.026981,49.4841606 C115.701792,50.7022831 115.609245,51.9716727 115.588443,53.2287751 C115.562972,54.7718715 115.602877,56.3192048 115.73533,57.8572169 C115.765896,58.2126968 115.162642,58.295741 115.11,57.9415321 C114.921509,56.6814639 114.680802,55.4235141 114.385755,54.1842068 C114.13316,53.1228514 113.869953,52.0504799 113.477264,51.0306466 C113.426321,50.8980301 112.131509,47.9308956 111.638632,49.0956325 C110.933491,50.7611767 111.788915,53.29699 112.19816,54.9536365 C112.49066,56.1374398 112.807783,57.3161586 113.176698,58.4787771 C113.285377,58.8211225 112.759811,59.045257 112.595094,58.7236727 C112.005,57.5695281 111.381368,56.4297892 110.723774,55.3133534 C109.954104,54.0071024 108.911038,51.6115321 107.484623,50.9022671 C107.046085,50.684488 107.713443,53.2321647 107.774575,53.4118112 C108.082783,54.3134337 108.420708,55.2044639 108.787075,56.0844779 C109.270189,57.2449779 109.774528,58.3974277 110.314528,59.5329297 C110.459717,59.83799 110.061509,60.2125361 109.814434,59.9180683 C109.099953,59.0672892 108.348962,58.2364237 107.55,57.4640281 C106.943349,56.8772108 106.300613,56.2026888 105.547925,55.8035683 C104.283679,55.1332831 105.207028,56.84501 105.471934,57.2822631 C107.362358,60.3968434 110.10566,63.0635783 111.535047,66.4416968 C113.727311,71.6239076 114.69566,77.4340341 115.226321,83.0263815 C118.272736,82.0489177 121.319151,81.0714538 124.365566,80.09399" id="Fill-31" fill="#FFFFFF"></path>
                            <path d="M173.789151,68.8639598 C179.322453,67.7021888 185.324434,66.3870402 191.016509,66.9636888 C190.816557,65.2464538 190.616604,63.5287952 190.417075,61.8111365 C190.440425,62.0140863 186.192594,62.2466948 185.543915,62.3153333 C183.555,62.5263333 181.571604,62.787753 179.597123,63.1051004 C176.419104,63.6152289 173.255094,64.2109438 170.110613,64.8960582 C169.293821,65.0735863 168.477453,65.2540803 167.664057,65.4464378 C167.661085,65.4468614 167.659811,65.4468614 167.65684,65.4472851 L167.65684,66.3870402 L167.65684,70.1320783 C167.65684,70.1981747 167.650472,70.2519839 167.641981,70.3011325 C167.663208,70.2943534 167.681887,70.2871506 167.706085,70.2807952 C169.723019,69.7647349 171.75184,69.2914679 173.789151,68.8639598" id="Fill-32" fill="#33CAD8"></path>
                            <path d="M204.329717,208.465882 C203.999858,175.619791 204.207877,164.84947 206.188726,154.632918 C206.017642,154.677406 205.835519,154.708759 205.630047,154.708759 L190.434057,154.708759 L158.925142,154.708759 C156.940472,164.889721 156.083349,195.106361 156.900566,205.468665 L204.329717,208.465882 L204.329717,208.465882 Z M173.345094,161.234506 C173.345094,161.322211 173.312406,161.386612 173.267406,161.436608 C173.261887,161.444235 173.257217,161.451438 173.250849,161.458217 C173.244057,161.464572 173.236415,161.469233 173.229198,161.474317 C173.178679,161.519653 173.114151,161.552277 173.026698,161.552277 L161.283821,161.552277 C161.110189,161.552277 160.965425,161.408221 160.965425,161.234506 L160.965425,156.267532 C160.965425,156.094241 161.110189,155.949761 161.283821,155.949761 L173.026698,155.949761 C173.20033,155.949761 173.345094,156.094241 173.345094,156.267532 L173.345094,161.234506 L173.345094,161.234506 Z M188.486745,161.234506 C188.486745,161.322211 188.454057,161.386612 188.408632,161.436608 C188.403113,161.444235 188.398443,161.451438 188.392075,161.458217 C188.385283,161.464572 188.378066,161.469233 188.370849,161.474317 C188.32033,161.519653 188.255802,161.552277 188.168349,161.552277 L176.425472,161.552277 C176.25184,161.552277 176.107075,161.408221 176.107075,161.234506 L176.107075,156.267532 C176.107075,156.094241 176.25184,155.949761 176.425472,155.949761 L188.168349,155.949761 C188.341557,155.949761 188.486745,156.094241 188.486745,156.267532 L188.486745,161.234506 L188.486745,161.234506 Z M203.060802,161.234506 C203.060802,161.322211 203.028113,161.386612 202.982689,161.436608 C202.97717,161.444235 202.9725,161.451438 202.966557,161.458217 C202.95934,161.464572 202.952123,161.469233 202.944906,161.474317 C202.894811,161.519653 202.829858,161.552277 202.742406,161.552277 L190.999528,161.552277 C190.825896,161.552277 190.681132,161.408221 190.681132,161.234506 L190.681132,156.267532 C190.681132,156.094241 190.825896,155.949761 190.999528,155.949761 L202.742406,155.949761 C202.915613,155.949761 203.060802,156.094241 203.060802,156.267532 L203.060802,161.234506 L203.060802,161.234506 Z" id="Fill-33" fill="#FFFFFF"></path>
                            <path d="M129.402594,88.07301 C129.682783,87.8683655 129.963396,87.6637209 130.244434,87.4590763 C130.291981,87.4243333 130.326368,87.4027249 130.359057,87.3832349 C130.280519,86.9811486 130.201981,86.5794859 130.123868,86.1773996 C129.818632,84.6148133 129.513396,83.0522269 129.208585,81.4900643 C129.086321,80.8638434 128.964057,80.2380462 128.841792,79.6126727 C128.818443,79.4940382 128.800613,79.4080281 128.786604,79.3427791 C128.255094,79.5135281 127.723585,79.6838534 127.192075,79.8541787 C126.497972,80.0770422 125.803443,80.2999056 125.108915,80.5223454 C125.115283,80.5515803 125.121651,80.5803916 125.127594,80.6092028 C125.215047,81.0091707 124.601179,81.1790723 124.513726,80.7786807 C124.509481,80.7583434 124.505236,80.738006 124.500566,80.7176687 C119.930094,82.1840763 115.359198,83.6504839 110.788726,85.1168916 C110.671132,85.1546004 110.553113,85.1927329 110.435519,85.2304418 C110.496226,85.4185622 110.557358,85.6066827 110.617642,85.7952269 C111.088868,87.2535843 111.560094,88.7115181 112.030896,90.1698755 C112.233396,90.7960964 112.435896,91.422741 112.638821,92.0493855 C112.678726,92.1743755 112.719481,92.2993655 112.759811,92.4243554 C112.798443,92.4184237 112.846415,92.4137631 112.910943,92.4112209 C113.752358,92.3798675 114.416745,92.352751 115.20934,92.126498 C119.940283,90.7753353 124.671226,89.4241727 129.402594,88.07301" id="Fill-34" fill="#33CAD8"></path>
                            <path d="M185.202594,23.6964016 C181.468868,25.3962651 180.357877,29.549745 181.286745,33.2579217 C181.577547,34.417998 181.936274,35.5399418 181.605566,36.7271345 C181.339387,37.6817189 180.889387,38.5947811 180.544245,39.522249 C180.213113,40.4103133 179.713443,42.0156928 180.779858,42.6389478 C181.767736,43.2168675 183.262925,42.7313133 184.215142,42.3241426 C185.416981,41.8097771 185.711604,39.7425703 185.831745,38.6613012 C186.021085,36.9525402 185.907311,32.7672831 188.614104,33.2757169 C191.94283,33.9015141 191.804858,39.1438896 187.554057,37.5474076 C186.828962,37.2749719 186.518208,38.432506 187.235236,38.7015522 C190.127972,39.7879056 193.351415,37.5766426 191.890613,34.4646044 C190.729104,31.9902269 187.388066,31.1508876 185.712877,33.4426526 C184.634151,34.9179578 184.821792,37.301241 184.582358,39.0108494 C184.393443,40.360741 183.971887,41.2716847 182.590047,41.597506 C180.537028,42.0809418 181.683255,39.8590863 182.06533,38.8884016 C182.838821,36.9233052 183.108821,35.6886586 182.615519,33.6023855 C181.79533,30.1306305 182.115,26.4114378 185.807972,24.7297932 C186.510566,24.4099036 185.900519,23.3786305 185.202594,23.6964016" id="Fill-36" fill="#1B1364"></path>
                            <path d="M198.73783,19.1077871 C197.097028,19.1027028 195.561934,19.9467028 194.051462,20.4831004 C193.328066,20.7398594 193.63967,21.8965462 194.369858,21.637245 C195.760613,21.1436406 197.23033,20.3000643 198.73783,20.3047249 C199.511321,20.3072671 199.510896,19.1103293 198.73783,19.1077871" id="Fill-37" fill="#1B1364"></path>
                            <path d="M190.46717,21.1855863 C186.134858,20.3678554 184.377311,15.8550823 180.192736,14.6161988 C175.704623,13.2879157 170.227358,15.834745 166.304717,12.7947349 C166.263962,13.1078454 166.223632,13.4213795 166.183302,13.7349137 C167.021745,13.3324036 167.725189,12.936249 168.383632,12.282488 C168.598868,12.0685221 168.634953,11.6444036 168.383632,11.4359458 C167.291745,10.5317811 165.997358,10.4385683 164.779811,9.76913052 L164.779811,10.8029458 C165.3075,10.3517108 165.949387,10.1703695 166.705472,10.2593454 C167.195377,10.3580663 167.678491,9.85556426 167.382594,9.38017871 C166.645189,8.19595181 164.688962,7.71463454 164.432972,6.29356225 C164.139623,6.51854418 163.845849,6.7439498 163.552075,6.96935542 C166.879953,8.50101205 170.748255,8.99800602 174.270566,7.98240964 C176.35967,7.38033936 178.244575,6.37491165 180.396509,5.91138956 C182.948349,5.36101004 185.605047,5.37499197 188.194245,5.57328112 C192.146179,5.87622289 196.776509,6.71895181 199.934575,9.26959438 C201.160613,10.2601928 201.949387,11.6194056 202.273726,13.1400462 C202.443113,13.9348976 203.111321,17.2325141 202.041085,17.679512 C201.338915,17.9727088 201.646698,19.1315141 202.359906,18.8336566 C204.617123,17.8909357 203.726887,14.0001466 203.287075,12.192241 C202.436321,8.69209839 198.783255,6.78759036 195.649387,5.7702992 C191.237689,4.33778715 186.086038,3.81960843 181.504528,4.51785743 C178.564245,4.96570281 176.085425,6.21348394 173.273774,7.02401205 C170.462547,7.83454016 166.802689,7.15366265 164.157453,5.93554016 C163.663726,5.70843976 163.179764,6.07408835 163.276557,6.61133333 C163.590708,8.35526104 165.504057,8.63066265 166.34717,9.98436747 C166.572594,9.69117068 166.798443,9.39839759 167.024292,9.1052008 C165.976981,8.8946245 165.043868,9.15223092 164.174858,9.76913052 C163.824623,10.0174157 163.751179,10.5699137 164.174858,10.8029458 C165.248066,11.3931526 166.574717,11.4867892 167.535425,12.282488 L167.535425,11.4359458 C166.92283,12.0447952 166.329764,12.3405341 165.577925,12.7010984 C165.255708,12.855747 165.162311,13.4129056 165.456509,13.6408534 C169.448774,16.7350964 174.107547,14.6441627 178.647028,15.4898574 C181.427264,16.0076124 183.066368,17.4248715 184.965708,19.3891205 C186.44816,20.9224719 188.033774,21.9406104 190.148349,22.3397309 C190.904009,22.4825161 191.226651,21.3287952 190.46717,21.1855863" id="Fill-38" fill="#1B1364"></path>
                            <path d="M201.859387,19.9623795 C202.705472,21.8630743 204.101321,23.1739859 204.238868,25.3577088 C204.392972,27.8058173 202.956792,30.1526627 201.836887,32.2202932 C200.11033,35.4081727 198.273821,37.9562731 199.926085,41.5449679 C200.045802,41.2517711 200.165094,40.958998 200.284387,40.6658012 C199.362311,40.9954357 198.435991,40.49251 197.668019,40.0141586 C197.301651,39.7862108 196.729811,40.0772892 196.765472,40.5310663 C196.891132,42.1114478 197.745283,43.4376124 199.249811,44.039259 C199.968538,44.3265241 200.27717,43.1685663 199.568632,42.8851145 C198.603679,42.4995522 198.045,41.5407309 197.964764,40.5310663 C197.664198,40.7030863 197.363632,40.8755301 197.062642,41.0475502 C198.092972,41.6890241 199.371226,42.2601647 200.603208,41.8199458 C200.992075,41.6809739 201.130896,41.3089699 200.961934,40.9407791 C199.622547,38.0329618 201.192453,35.969992 202.538208,33.4477369 C203.446274,31.7453313 204.375991,30.0802108 205.000472,28.249002 C205.534104,26.6830261 205.58717,24.9293534 205.114245,23.3493956 C204.680802,21.9012068 203.50783,20.7343514 202.894811,19.3581908 C202.581509,18.65401 201.548208,19.2637068 201.859387,19.9623795" id="Fill-39" fill="#1B1364"></path>
                            <path d="M197.102547,43.6452229 C196.638113,43.4897269 196.347311,42.8465582 196.144811,42.4474378 C195.915991,41.9966265 195.716887,41.4534498 195.725802,40.9424739 C195.738962,40.1700783 194.53967,40.1713494 194.526509,40.9424739 C194.503585,42.3008394 195.4125,44.3396586 196.783726,44.7989438 C197.518585,45.0455341 197.831462,43.8892711 197.102547,43.6452229" id="Fill-40" fill="#1B1364"></path>
                            <path d="M176.900943,27.2486586 C174.983349,25.8826667 172.56566,24.7374197 170.175566,24.6768313 C169.401651,24.6573414 169.403349,25.8542791 170.175566,25.8737691 C172.359764,25.9288494 174.548208,27.0372349 176.295566,28.2824739 C176.926415,28.7320141 177.524575,27.6926908 176.900943,27.2486586" id="Fill-41" fill="#1B1364"></path>
                            <path d="M164.611274,38.960006 C163.816557,38.9748353 162.205896,38.9587349 162.842264,37.7274779 C163.495189,36.4644438 164.095472,35.1929357 164.651179,33.8832952 C165.130896,32.7528775 165.764292,31.7393996 166.386651,30.6856707 C167.124906,29.4353474 167.583396,28.063 168.408679,26.8575884 C168.846368,26.2182329 167.806698,25.6203996 167.373255,26.2533996 C165.080802,29.6027068 163.716792,33.5595924 161.80684,37.1232892 C160.523915,39.5171647 162.360849,40.1980422 164.611274,40.1569438 C165.383915,40.1429618 165.385189,38.9460241 164.611274,38.960006" id="Fill-42" fill="#1B1364"></path>
                            <path d="M170.431557,27.405002 C170.254953,27.7397209 170.137783,28.0939297 170.04184,28.4583072 C169.845283,29.2057048 171.002123,29.5226285 171.198255,28.776502 C171.268726,28.5087269 171.343868,28.2430703 171.466981,28.0091908 C171.619387,27.7206546 171.542972,27.3605141 171.25217,27.1901888 C170.979198,27.0308795 170.583538,27.1168896 170.431557,27.405002" id="Fill-43" fill="#1B1364"></path>
                            <path d="M164.056415,39.8891687 C163.324528,42.2932129 163.427689,44.8383474 163.123302,47.3135723 C162.910189,49.0443655 163.445094,50.9899719 164.548868,52.3441004 C167.715425,56.2281104 173.670283,57.4000502 178.424151,56.9166145 C179.186179,56.8390783 179.193396,55.6417169 178.424151,55.7196767 C174.201792,56.1488795 169.33967,55.2561546 166.1175,52.3157129 C164.511085,50.8497289 164.143443,48.7681165 164.396887,46.7089598 C164.665189,44.5290502 164.566698,42.3292269 165.21283,40.2069398 C165.438255,39.466745 164.280142,39.1523635 164.056415,39.8891687" id="Fill-44" fill="#1B1364"></path>
                            <path d="M192.945566,45.5154116 C190.673491,50.4811145 188.718538,56.1289659 188.686274,61.6670803 C188.682028,62.4390522 189.881321,62.4386285 189.885566,61.6670803 C189.916557,56.35649 191.80316,50.8793876 193.981415,46.1196004 C194.299811,45.4230462 193.266509,44.8141968 192.945566,45.5154116" id="Fill-45" fill="#1B1364"></path>
                            <path d="M169.719623,23.4379478 C170.493113,20.5758896 171.799811,17.8303474 173.103962,15.1750522 C173.44316,14.4848534 172.409009,13.8776988 172.068538,14.5708635 C170.721509,17.3130161 169.36217,20.1644819 168.563208,23.119753 C168.361557,23.8658795 169.518396,24.1823795 169.719623,23.4379478" id="Fill-46" fill="#1B1364"></path>
                            <path d="M174.835189,56.2501426 C174.209434,58.7016406 173.847736,61.2306747 173.563302,63.742761 C173.476274,64.5088012 174.676415,64.5003273 174.76217,63.742761 C175.035142,61.3365984 175.391745,58.9168775 175.991604,56.5683373 C176.182642,55.8200924 175.025802,55.502745 174.835189,56.2501426" id="Fill-47" fill="#1B1364"></path>
                            <path d="M188.215896,38.4926707 C188.099151,40.7348635 188.395472,43.2914378 189.640613,45.2332309 C189.934811,45.6920924 190.556321,45.5738815 190.736745,45.0900221 C190.952406,44.5108313 191.359953,43.0762008 192.026462,42.7880884 C191.732689,42.6686064 191.438915,42.5495482 191.145566,42.4300663 C191.46566,44.2362771 192.978255,45.5255803 194.651321,46.1259558 C194.989245,46.2471325 195.458349,45.9225823 195.410377,45.5488835 C195.294057,44.6426004 195.239717,43.4439679 195.842547,42.6944518 C196.321415,42.0987369 195.478302,41.2458394 194.99434,41.8479096 C194.164387,42.8804538 194.046792,44.2676305 194.211085,45.5488835 C194.464104,45.3565261 194.717123,45.1641687 194.970142,44.9718112 C193.672358,44.5061707 192.547783,43.4982008 192.301981,42.1122952 C192.227689,41.6936847 191.742453,41.6153012 191.421085,41.7542731 C190.403915,42.194492 189.919104,43.8621546 189.58033,44.7718273 C189.945425,44.7243735 190.310943,44.676496 190.676038,44.6290422 C189.538302,42.8546084 189.308632,40.5378454 189.414764,38.4926707 C189.455094,37.7206988 188.255802,37.724512 188.215896,38.4926707" id="Fill-48" fill="#1B1364"></path>
                            <path d="M164.442736,42.953753 C164.442736,42.953753 166.632877,44.2222952 170.78434,43.6812369 C170.78434,43.6812369 168.684198,46.9860562 163.890849,45.817506" id="Fill-49" fill="#1B1364"></path>
                            <path d="M164.140047,43.4706606 C166.078868,44.5574378 168.662123,44.5235422 170.78434,44.2799177 C170.611981,43.9795181 170.439198,43.6795422 170.266415,43.3791426 C168.950377,45.3938112 166.194764,45.7103112 164.050047,45.2404337 C163.296509,45.0756165 162.975991,46.2293373 163.731226,46.3945783 C166.435472,46.9864799 169.675896,46.4721145 171.302264,43.9833313 C171.533208,43.6299699 171.236038,43.0308655 170.78434,43.0829799 C168.877358,43.3016064 166.495755,43.4181225 164.745425,42.4372691 C164.070425,42.0589096 163.465896,43.0927249 164.140047,43.4706606" id="Fill-50" fill="#1B1364"></path>
                            <path d="M191.37566,66.7170984 C186.486792,66.1506185 181.380991,67.1149478 176.587642,68.0152992 C173.431274,68.6088956 170.283396,69.3033313 167.179245,70.1282651 C167.43184,70.3206225 167.684858,70.5125562 167.937877,70.7049137 L167.937877,65.1973052 C167.791415,65.3896627 167.644528,65.5815964 167.498066,65.7739538 C175.061887,63.9554558 182.926698,62.4322731 190.718491,62.265761 C190.518538,62.0662008 190.318585,61.8666406 190.119057,61.6670803 C190.338113,63.5499799 190.55717,65.4328795 190.776226,67.3153554 C190.864104,68.0729217 192.06467,68.0813956 191.975519,67.3153554 C191.756038,65.4328795 191.536981,63.5499799 191.317925,61.6670803 C191.280991,61.3488855 191.073396,61.0611968 190.718491,61.0688233 C182.823113,61.2378775 174.842406,62.7771606 167.179245,64.6202329 C166.920708,64.6820924 166.739009,64.9375803 166.739009,65.1973052 L166.739009,70.7049137 C166.739009,71.0968313 167.121509,71.3824016 167.498066,71.2819859 C170.440896,70.5006928 173.421509,69.8503213 176.40934,69.2651988 C181.252358,68.3165462 186.427358,67.3407771 191.37566,67.9140361 C192.143208,68.003012 192.134717,66.8048032 191.37566,66.7170984" id="Fill-51" fill="#1B1364"></path>
                            <path d="M245.966604,41.5047169 C245.432972,41.145 244.89934,40.7852831 244.365708,40.42599 C244.457406,40.6509719 244.549104,40.8763775 244.641226,41.1017831 C245.490283,38.5350402 246.33934,35.9682972 247.188396,33.4015542 C246.942594,33.5409498 246.696368,33.6803454 246.450566,33.8193173 C251.828066,35.282759 257.205142,36.7457771 262.582642,38.2092189 C262.442972,37.9634759 262.303302,37.7181566 262.164057,37.4728373 C261.267877,40.2848996 260.371698,43.0969618 259.475519,45.9090241 C259.721321,45.7692048 259.967123,45.6302329 260.212925,45.4908373 C259.387642,45.3179699 258.561934,45.1451024 257.736651,44.9722349 C256.982264,44.8141968 256.660896,45.967494 257.41783,46.1259558 C258.243113,46.2988233 259.068821,46.4721145 259.894104,46.6449819 C260.223962,46.7140442 260.528349,46.5521928 260.631934,46.2267952 C261.528113,43.4151566 262.424292,40.6030944 263.320472,37.7910321 C263.419387,37.4804639 263.207547,37.1381185 262.901462,37.0546506 C257.523962,35.5916325 252.146887,34.1286145 246.769387,32.6655964 C246.442075,32.5761968 246.134292,32.7736386 246.031981,33.0833594 C245.182925,35.6501024 244.333868,38.2168454 243.484811,40.7835884 C243.396934,41.0488213 243.544245,41.3140542 243.76033,41.4593815 C244.293962,41.8190984 244.827594,42.1783916 245.361226,42.5381084 C246.004387,42.9711245 246.603821,41.9339197 245.966604,41.5047169" id="Fill-52" fill="#1B1364"></path>
                            <path d="M113.858915,92.7429739 C115.287453,104.185275 121.001604,122.825303 136.116934,120.348807 C143.019764,119.217966 148.982689,113.551472 153.628302,108.727283 C156.791887,105.441954 159.772075,101.881223 162.363396,98.1234739 C162.803208,97.4858133 161.763538,96.8884036 161.327972,97.5197088 C159.083491,100.774108 156.517642,103.830643 153.849057,106.742697 C149.309575,111.695689 143.861604,116.873239 137.276321,118.853165 C122.451792,123.309163 116.387406,103.391271 115.058208,92.7429739 C114.963962,91.9875261 113.763396,91.9782048 113.858915,92.7429739" id="Fill-53" fill="#1B1364"></path>
                            <path d="M167.179245,70.1282651 C162.987028,70.8184639 159.067358,73.4504558 155.629953,75.810012 C154.203113,76.7891707 153.790472,78.1729578 152.960943,79.6902088 C148.535236,87.7832028 142.429245,96.7117229 133.669104,100.482606 C133.962877,100.601665 134.256226,100.721147 134.55,100.840205 C132.935094,96.6795221 131.380472,92.4938414 129.892925,88.2857048 C129.637783,87.5633052 128.478821,87.8738735 128.736509,88.6038996 C130.224057,92.8120361 131.778255,96.9977169 133.393585,101.1584 C133.545142,101.548622 133.895377,101.67912 134.274481,101.515998 C142.73066,97.8760361 148.66684,89.5127249 153.14434,81.8061406 C153.824009,80.6363193 154.469292,79.4461606 155.08316,78.2403253 C155.2275,77.9577209 155.368019,77.6734217 155.505566,77.3874277 C155.642689,77.1031285 155.141745,77.6157992 155.656274,77.2484558 C159.135283,74.7664518 163.212453,71.9878614 167.498066,71.2819859 C168.25967,71.1565723 167.93533,70.0036988 167.179245,70.1282651" id="Fill-54" fill="#1B1364"></path>
                            <path d="M153.972594,106.700751 C152.447689,116.881289 153.275094,127.297402 154.738019,137.435994 C155.566274,143.175787 156.617406,148.933799 158.083302,154.550297 C158.150377,154.80748 158.397453,154.989669 158.661509,154.989669 L190.434057,154.989669 L205.630047,154.989669 C208.08934,154.989669 208.204811,152.042448 208.589009,150.078622 C210.870425,138.420237 211.575991,126.354681 212.562594,114.536986 C213.262642,106.147829 213.900283,97.7518936 214.449198,89.3512972 C214.249245,89.5508574 214.049717,89.7504177 213.849764,89.9499779 C220.976321,89.0987751 228.116038,86.2773916 234.292075,82.7382691 C247.422736,75.2147209 255.981226,62.294996 257.961651,47.3135723 C258.03934,46.7259076 258.111085,46.1378193 258.176462,45.5488835 C258.206179,45.2849217 257.971415,45.0417209 257.736651,44.9722349 C253.765613,43.7960582 249.794575,42.6203052 245.823113,41.4441285 C245.500472,41.3487972 245.183349,41.5564076 245.085708,41.8623153 C243.36934,47.2415442 240.786085,52.2246185 236.639717,56.1340502 C232.878396,59.6799518 228.063821,61.872996 223.232264,63.5499799 C220.534387,64.4859217 217.776226,65.2456064 215.015943,65.9713956 C213.505896,66.3683976 211.990755,66.7442149 210.475189,67.118761 C209.197358,67.4344137 207.685189,68.0699558 206.376792,68.1301205 C201.444198,68.3580683 196.373632,67.5471165 191.535283,66.7387068 C190.778774,66.6120221 190.454858,67.7653193 191.216462,67.8924277 C196.174953,68.7211747 201.327877,69.530008 206.376792,69.3270582 C207.4275,69.2851124 208.591981,68.8131165 209.613821,68.5627129 C211.339104,68.1407129 213.062689,67.7119337 214.782877,67.2691727 C217.895094,66.4675422 220.989481,65.5926124 224.026132,64.5388835 C228.934953,62.8356305 233.627689,60.5002249 237.4875,56.9801687 C241.817689,53.031757 244.485425,47.6864237 246.242123,42.18051 C245.996321,42.3199056 245.750519,42.4588775 245.504292,42.5982731 C249.47533,43.7740261 253.446792,44.9502028 257.41783,46.1259558 C257.270943,45.9335984 257.124057,45.741241 256.977594,45.5488835 C255.262075,60.9035823 247.074198,73.915249 233.686698,81.7048775 C227.801462,85.1296024 220.359057,87.9759839 213.849764,88.7530402 C213.508019,88.7937149 213.273255,88.9953936 213.249906,89.3512972 C212.68316,98.0281426 212.020047,106.69948 211.294104,115.364462 C210.716745,122.252468 210.090142,129.137508 209.333208,136.008566 C208.773679,141.086548 208.254057,146.235287 207.125236,151.225988 C206.95033,151.998384 206.779245,153.253791 206.246887,153.83849 C206.394198,153.677062 206.095755,153.792307 205.630047,153.792307 L203.396604,153.792307 L187.02934,153.792307 L158.661509,153.792307 L159.239717,154.232102 C157.915189,149.156663 156.960849,143.967673 156.146604,138.790122 C154.508774,128.369773 153.558679,117.504544 155.129009,107.018946 C155.241934,106.264345 154.086368,105.939371 153.972594,106.700751" id="Fill-55" fill="#1B1364"></path>
                            <path d="M129.841981,88.880996 C130.231698,88.5971205 130.620991,88.313245 131.010708,88.0293695 C131.243774,87.8590442 131.342264,87.6416888 131.286226,87.3535763 C130.727123,84.4927892 130.168868,81.632002 129.610189,78.7712149 C129.549481,78.4606466 129.166557,78.2589679 128.872783,78.3534518 C122.540519,80.3850683 116.20783,82.4166847 109.875566,84.4478775 C109.575425,84.5444799 109.352972,84.8639458 109.456981,85.184259 C110.287783,87.7569337 111.119009,90.3296084 111.950236,92.9022831 C112.030047,93.1497209 112.254623,93.3518233 112.528019,93.3416546 C115.334151,93.2378494 117.851604,92.3252108 120.553726,91.553239 C123.60184,90.6825462 126.650802,89.8118534 129.698915,88.9411606 C130.440991,88.7293133 130.125142,87.5743213 129.380094,87.7870161 C126.464009,88.62 123.548349,89.4525602 120.632264,90.2855442 C117.900425,91.06599 115.256038,92.0438775 112.528019,92.1447169 C112.721179,92.2908916 112.913915,92.43749 113.106651,92.5840884 C112.275425,90.0114137 111.444198,87.438739 110.612972,84.8660643 C110.473726,85.1113835 110.333632,85.3571265 110.194387,85.6024458 C116.526651,83.5708293 122.85934,81.5392129 129.191604,79.5071727 C128.945802,79.3682008 128.699575,79.2288052 128.453774,79.0894096 C129.012453,81.9501968 129.571132,84.8109839 130.129387,87.6717711 C130.221509,87.4463655 130.313208,87.2209598 130.40533,86.9959779 C130.015613,87.2798534 129.626321,87.5633052 129.237028,87.8471807 C128.61934,88.2975683 129.216651,89.3368916 129.841981,88.880996" id="Fill-56" fill="#1B1364"></path>
                            <path d="M158.083302,154.232102 C156.093538,164.236384 156.150425,174.744438 156.070613,184.90252 C156.017123,191.756207 156.075283,198.617944 156.300708,205.468665 C156.326179,206.238518 157.525472,206.24106 157.5,205.468665 C157.285613,198.953934 157.232123,192.430305 157.263538,185.913032 C157.313208,175.540984 157.207925,164.765155 159.239717,154.550297 C159.389575,153.796544 158.233585,153.47496 158.083302,154.232102" id="Fill-57" fill="#1B1364"></path>
                            <path d="M205.97816,154.232102 C203.949764,164.430436 204.049528,175.161353 203.985425,185.515606 C203.942972,192.403612 204.009198,199.299245 204.239717,206.183861 C204.265613,206.953715 205.464906,206.956257 205.439009,206.183861 C205.214009,199.465757 205.153726,192.738755 205.18217,186.017261 C205.225896,175.615131 205.09684,164.795661 207.134575,154.550297 C207.284434,153.796544 206.128443,153.47496 205.97816,154.232102" id="Fill-58" fill="#1B1364"></path>
                            <path d="M181.315613,205.763133 C180.826557,202.584998 180.532783,199.369578 180.335377,196.162209 C180.035236,191.286753 179.734245,185.769823 181.540613,181.133755 C181.347877,181.280353 181.155142,181.426952 180.962406,181.573127 C183.238726,181.668034 189.298868,182.203584 190.22816,179.382624 C190.470142,178.647514 189.312028,178.334827 189.071745,179.064853 C188.457453,180.92911 182.558632,180.442709 180.962406,180.376189 C180.677123,180.364325 180.478868,180.572359 180.384198,180.81556 C178.534953,185.561365 178.854198,191.178287 179.136085,196.162209 C179.323726,199.475926 179.654434,202.799388 180.159198,206.081327 C180.275943,206.842283 181.431509,206.517733 181.315613,205.763133" id="Fill-59" fill="#1B1364"></path>
                            <path d="M173.026698,160.636249 L161.283821,160.636249 C161.483774,160.835386 161.683726,161.035369 161.883255,161.234506 L161.883255,156.267532 C161.683726,156.467092 161.483774,156.666653 161.283821,156.865789 L173.026698,156.865789 C172.826745,156.666653 172.626792,156.467092 172.427264,156.267532 L172.427264,161.234506 C172.427264,162.006478 173.626132,162.006478 173.626132,161.234506 L173.626132,156.267532 C173.626132,155.941287 173.353585,155.668851 173.026698,155.668851 L161.283821,155.668851 C160.956934,155.668851 160.684387,155.941287 160.684387,156.267532 L160.684387,161.234506 C160.684387,161.561175 160.956934,161.833187 161.283821,161.833187 L173.026698,161.833187 C173.799764,161.833187 173.799764,160.636249 173.026698,160.636249" id="Fill-60" fill="#1B1364"></path>
                            <path d="M188.168349,160.636249 L176.425472,160.636249 C176.625,160.835386 176.824953,161.035369 177.024906,161.234506 L177.024906,156.267532 C176.824953,156.467092 176.625,156.666653 176.425472,156.865789 L188.168349,156.865789 C187.968396,156.666653 187.768443,156.467092 187.568491,156.267532 L187.568491,161.234506 C187.568491,162.006478 188.767783,162.006478 188.767783,161.234506 L188.767783,156.267532 C188.767783,155.941287 188.495236,155.668851 188.168349,155.668851 L176.425472,155.668851 C176.098585,155.668851 175.825613,155.941287 175.825613,156.267532 L175.825613,161.234506 C175.825613,161.561175 176.098585,161.833187 176.425472,161.833187 L188.168349,161.833187 C188.941415,161.833187 188.941415,160.636249 188.168349,160.636249" id="Fill-61" fill="#1B1364"></path>
                            <path d="M202.742406,160.636249 L190.999528,160.636249 C191.199057,160.835386 191.399009,161.035369 191.598962,161.234506 L191.598962,156.267532 C191.399009,156.467092 191.199057,156.666653 190.999528,156.865789 L202.742406,156.865789 C202.542453,156.666653 202.3425,156.467092 202.142547,156.267532 L202.142547,161.234506 C202.142547,162.006478 203.34184,162.006478 203.34184,161.234506 L203.34184,156.267532 C203.34184,155.941287 203.069292,155.668851 202.742406,155.668851 L190.999528,155.668851 C190.672642,155.668851 190.39967,155.941287 190.39967,156.267532 L190.39967,161.234506 C190.39967,161.561175 190.672642,161.833187 190.999528,161.833187 L202.742406,161.833187 C203.515896,161.833187 203.515896,160.636249 202.742406,160.636249" id="Fill-62" fill="#1B1364"></path>
                            <path d="M214.079434,90.2164819 C214.511604,87.8387068 214.54217,85.3537369 214.079434,82.9746908 C213.932123,82.2175482 212.776557,82.5391325 212.923019,83.2928855 C213.342028,85.4469498 213.314009,87.7476124 212.923019,89.8982871 C212.785896,90.6528876 213.941462,90.9748956 214.079434,90.2164819" id="Fill-63" fill="#1B1364"></path>
                            <path d="M249.245236,33.961255 C250.211887,29.5238996 251.171745,25.0844257 252.126934,20.6445281 C252.49033,18.9565281 252.821038,18.4866506 251.670566,17.2431064 C250.749764,16.2482711 249.87184,15.2110663 249.058868,14.1264076 C248.549009,13.4455301 247.026651,11.6592329 247.431226,10.7160884 C247.946179,9.51660843 252.705142,13.9154076 253.26,14.4958695 C253.639953,14.8924478 254.256368,14.5725582 254.283962,14.0725984 C254.481792,10.4394157 254.750094,6.64268675 255.814811,3.14932329 C256.044906,2.3938755 256.542028,1.00373293 257.09434,2.37480924 C257.535849,3.47133133 257.555802,4.7559739 257.605896,5.91943976 C257.678066,7.596 257.615236,9.29332129 257.471321,10.9652209 C257.413585,11.6342349 258.549198,11.791002 258.648962,11.1245301 C258.837877,9.86276707 259.089623,8.6103253 259.373208,7.36678112 C259.587594,6.42617871 259.847406,5.49743976 260.150519,4.58141165 C260.209104,4.40557831 261.28783,1.84391968 261.606226,2.3451506 C262.42684,3.63614859 261.337075,6.65200803 261.018679,7.98749398 C260.735943,9.17214458 260.408632,10.3508635 260.039717,11.5122108 C259.835519,12.1566506 260.825943,12.579498 261.135849,11.9736145 C261.663962,10.9406466 262.225613,9.9250502 262.801274,8.91835141 C263.669009,7.40067671 264.660283,5.26483133 266.145283,4.2526245 C265.564104,4.64920281 264.961698,7.79767871 264.585566,8.73701004 C264.076557,10.0080944 263.518726,11.2630783 262.930755,12.4994197 C262.657358,13.0735261 263.406651,13.7794016 263.872358,13.2247851 C264.498113,12.479506 265.159953,11.7647329 265.839198,11.0673313 C266.451368,10.4394157 267.096651,9.83734538 267.810708,9.32636948 C268.745094,8.65693173 268.359623,9.15562048 267.97033,9.90132329 C266.280283,13.1408936 263.482217,15.6800964 261.899151,18.9870341 C259.357925,24.2959297 258.48,30.6716888 257.945943,36.4902892 C257.875472,37.2588715 259.075189,37.2520924 259.145236,36.4902892 C259.821934,29.1184237 261.147736,21.4728514 265.615047,15.4169819 C266.211934,14.6077249 271.367406,8.73870482 268.984953,7.84640361 C266.971415,7.09180321 264.089292,11.1105482 263.024151,12.378243 C263.338302,12.6201727 263.652453,12.8616787 263.966179,13.1036084 C264.776604,11.3986606 265.522925,9.65981727 266.194953,7.8959759 C266.539245,6.99223494 268.002594,3.91748193 266.688679,3.14932329 C264.439104,1.8341747 260.827642,9.94665863 260.100425,11.3694257 C260.465519,11.5232269 260.831038,11.6770281 261.196132,11.8304056 C261.721698,10.1754538 264.726934,1.86298594 261.928868,1.11050402 C258.724953,0.248285141 257.777406,8.902251 257.492547,10.8063353 C257.885236,10.8592972 258.277925,10.912259 258.670613,10.9652209 C258.776321,9.7382008 259.188962,-1.80112651 255.819057,0.758413655 C254.066604,2.09008635 253.952406,5.77623092 253.686651,7.72141365 C253.399245,9.82675301 253.200142,11.9507349 253.08467,14.0725984 C253.425991,13.931508 253.766887,13.7904177 254.108208,13.6493273 C252.547642,12.0176787 250.414811,9.78989157 248.089245,9.40729518 C245.160849,8.92555422 246.567736,12.5112831 247.316179,13.709492 C248.133396,15.0178614 249.158632,16.2143755 250.174528,17.3714859 C250.541321,17.789249 250.919151,18.1976908 251.301226,18.6018956 C251.811509,19.1425301 251.493538,17.8934779 251.31566,18.7209538 C250.247123,23.6964016 249.171792,28.671002 248.088821,33.6430602 C247.924953,34.3955422 249.080943,34.7154317 249.245236,33.961255" id="Fill-64" fill="#1B1364"></path>
                            <path d="M125.398868,80.5350562 C124.315896,75.5625743 123.240991,70.5883976 122.172028,65.6125261 C121.996274,64.7947952 121.806085,65.8908936 122.076085,65.6099839 C122.418679,65.2536566 122.751509,64.8884317 123.082642,64.5219357 C124.197877,63.2872892 125.253679,61.989512 126.171509,60.6010643 C126.964104,59.4028554 128.297547,55.8222108 125.398443,56.2988675 C123.072877,56.6814639 120.940047,58.9096747 119.379481,60.5413233 C119.720802,60.68199 120.062123,60.8230803 120.403019,60.9641707 C120.290519,58.8944217 120.089292,56.8272149 119.822264,54.7718715 C119.545472,52.6372972 119.400708,49.3896767 117.790047,47.7440462 C116.070708,45.9869839 115.014481,49.6036426 114.863349,50.6268655 C114.512264,52.9953193 114.612453,55.4773233 114.817075,57.8572169 C115.209764,57.804255 115.602453,57.7512932 115.995142,57.6983313 C115.710283,55.7938233 114.76316,47.1407048 111.558821,48.0020763 C108.760755,48.7545582 111.766415,57.0674498 112.291981,58.7224016 C112.657075,58.5686004 113.02217,58.4147992 113.387689,58.260998 C112.479623,56.4848695 111.494717,54.7426365 110.421085,53.0605683 C109.875142,52.2055522 108.351509,49.3926426 106.9425,49.9807309 C104.650472,50.93701 108.82783,58.5351285 109.521934,59.9951807 C109.83566,59.753251 110.149387,59.511745 110.463538,59.270239 C109.51217,58.1372791 106.494198,53.9918494 104.659811,54.6790823 C102.081226,55.6455301 106.855472,60.9328173 107.558066,61.8835884 C110.359104,65.6731145 111.872547,69.4668775 112.888868,74.0698976 C113.565142,77.1310924 114.055896,80.2592309 114.342453,83.3818614 C114.4125,84.1440884 115.612642,84.1504438 115.541745,83.3818614 C115.014057,77.6289337 114.037217,71.6408554 111.777877,66.3001827 C110.348915,62.9220643 107.605189,60.2549056 105.715189,57.1403253 C105.443491,56.6929036 104.58,55.608245 105.405708,56.0459217 C106.138443,56.4344498 106.761226,57.0916004 107.351321,57.6623173 C108.149858,58.4347129 108.901274,59.2655783 109.615755,60.1163574 C110.081462,60.6709739 110.83033,59.9655221 110.557358,59.390992 C110.027972,58.2775221 109.531698,57.1479518 109.058349,56.0099076 C108.691981,55.1298936 108.354057,54.2388635 108.045849,53.3368173 C107.858632,52.7885562 107.672689,51.3090141 107.342406,51.1446205 C108.717877,51.8284639 109.740142,54.1973414 110.480943,55.4548675 C111.138538,56.5717269 111.76217,57.7114659 112.352264,58.8651867 C112.661745,59.471494 113.652594,59.0482229 113.447972,58.4042068 C113.079057,57.2415884 112.761509,56.0624458 112.469009,54.8790663 C112.084811,53.3224116 111.216651,50.8073594 111.881462,49.2371466 C112.094575,48.7329498 113.175849,51.0264096 113.205991,51.1052169 C113.598679,52.1250502 113.861887,53.1978454 114.114481,54.2583534 C114.409528,55.4980843 114.650236,56.7564578 114.838726,58.0165261 C114.938491,58.682998 116.074104,58.5262309 116.016368,57.8572169 C115.883915,56.3192048 115.844009,54.7718715 115.869481,53.2287751 C115.889858,51.9958233 115.979009,50.7535502 116.298255,49.5587309 C116.682028,48.1224056 117.205472,48.7549819 117.575236,49.7489699 C118.864104,53.2135221 119.004198,57.3004819 119.204151,60.9641707 C119.231321,61.4641305 119.84816,61.7840201 120.227689,61.3874418 C121.653255,59.8968835 123.412925,58.0783855 125.440047,57.4987711 C127.012925,57.0488072 124.928491,60.3125281 124.675896,60.6764819 C123.88033,61.8225763 122.951887,62.8813896 122.017925,63.9156285 C120.848349,65.2104398 120.898443,65.3866968 121.273726,67.1310482 C122.257358,71.7061044 123.246509,76.2803133 124.242453,80.853251 C124.406745,81.607004 125.562736,81.2875382 125.398868,80.5350562" id="Fill-65" fill="#1B1364"></path>
                        </g>
                    </g>
                </g>
            </g>
        </g>
    </g>
</svg>