<?xml version="1.0" encoding="utf-8"?>
<!-- Generator: Adobe Illustrator 16.0.0, SVG Export Plug-In . SVG Version: 6.00 Build 0)  -->
<!DOCTYPE svg PUBLIC "-//W3C//DTD SVG 1.1//EN" "http://www.w3.org/Graphics/SVG/1.1/DTD/svg11.dtd">
<svg version="1.1" id="Layer_1" xmlns="http://www.w3.org/2000/svg" xmlns:xlink="http://www.w3.org/1999/xlink" x="0px" y="0px"
	 width="578px" height="307px" viewBox="0 0 578 307" enable-background="new 0 0 578 307" xml:space="preserve">
<g>
	<g>
		<g>
			<g>
				<path fill="#FBB03B" d="M391.762,187.269c-2.866,0.225-5.814,0.04-8.687,0.036c-6.546-0.011-13.092-0.039-19.638-0.068
					c-16.168-0.074-32.336-0.17-48.504-0.267c-5.686-0.035-11.371-0.069-17.057-0.103c-1.382-0.009-2.764-0.017-4.146-0.023
					c-1.031-0.004-2.042-0.055-3.051-0.312c-1.369-0.348-2.443-1.132-2.517-2.604c-0.053-1.071-0.07-2.144-0.085-3.216
					c-0.084-6.375,0.043-12.753,0.018-19.128c-0.029-7.479-0.274-14.954-0.389-22.433c-0.079-5.11-0.121-10.222-0.125-15.332
					c0-0.941,0.001-1.883,0.002-2.823c0.001-0.44,0.002-0.88,0.002-1.32c0.003-1.058,1.038-1.625,1.9-1.938
					c0.884-0.319,1.815-0.31,2.737-0.31c14.12,0,28.24,0,42.36,0c10.182,0,20.363,0,30.545,0c4.547,0,9.095,0,13.641,0
					c1.973,0,3.944,0,5.917,0c2.267,0,4.604-0.156,6.831,0.327c1.127,0.245,2.339,0.729,3.036,1.694
					c0.826,1.145,0.4,3.139,0.392,4.454c-0.021,3.101-0.073,6.2-0.136,9.3c-0.082,4.115-0.128,8.227-0.127,12.343
					c0.003,9.426,0.1,18.853,0.173,28.278c0.021,2.889,0.046,5.778,0.049,8.667c0.001,0.764,0.003,1.527-0.014,2.291
					C394.851,186.692,393.458,187.106,391.762,187.269c-0.704,0.067-0.711,1.176,0,1.107c2.164-0.206,3.944-0.804,4.221-3.19
					c0.072-0.622,0.028-1.274,0.03-1.898c0.008-3.237-0.026-6.475-0.051-9.712c-0.073-9.43-0.168-18.858-0.171-28.287
					c-0.001-4.165,0.052-8.326,0.137-12.489c0.062-3.103,0.108-6.204,0.129-9.307c0.017-2.409,0.286-4.459-1.936-5.903
					c-2.039-1.324-4.745-1.268-7.073-1.268c-1.861,0-3.724,0-5.585,0c-4.39,0-8.777,0-13.166,0c-19.491,0-38.981,0-58.473,0
					c-5.608,0-11.218,0-16.827,0c-2.253,0-5.064-0.029-6.266,2.247c-0.409,0.773-0.254,1.81-0.255,2.652
					c-0.001,1.032-0.002,2.063,0,3.095c0.002,2.32,0.013,4.641,0.03,6.961c0.108,13.918,0.527,27.824,0.46,41.744
					c-0.013,2.748-0.029,5.497,0.013,8.244c0.027,1.817-0.288,4.086,1.33,5.329c1.81,1.39,4.119,1.352,6.289,1.362
					c11.807,0.062,23.612,0.142,35.419,0.211c15.71,0.09,31.419,0.182,47.128,0.231c3.395,0.011,6.789,0.02,10.185,0.017
					c1.466-0.002,2.967,0.076,4.432-0.039C392.469,188.32,392.475,187.213,391.762,187.269z"/>
			</g>
			<g>
				<path fill="#FBB03B" d="M289.352,127.523c8.226,0,16.449,0,24.674,0c15.824,0.001,31.648,0.001,47.473,0.001
					c10.149,0,20.299,0,30.447,0c0.214,0,0.426,0,0.639,0c0.714,0,0.714-1.107,0-1.107c-8.225,0-16.449,0-24.674,0
					c-15.824-0.001-31.648-0.001-47.473-0.001c-10.148,0-20.298,0-30.447,0c-0.213,0-0.426,0-0.639,0
					C288.638,126.416,288.638,127.523,289.352,127.523L289.352,127.523z"/>
			</g>
			<g>
				<path fill="#FBB03B" d="M291.91,124.127c1.144,0.047,2.432-0.763,2.478-2.01c0.044-1.189-0.868-2.303-2.035-2.511
					c-2.907-0.517-3.404,4.095-0.59,4.501c0.699,0.101,0.999-0.966,0.295-1.068c-1.377-0.198-1.535-2.277-0.028-2.355
					c0.629-0.033,1.096,0.596,1.239,1.134c0.208,0.779-0.741,1.228-1.358,1.202C291.195,122.991,291.198,124.099,291.91,124.127z"/>
			</g>
			<g>
				<path fill="#FBB03B" d="M296.397,120.595c-0.622,1.068-0.428,2.504,0.669,3.184c0.925,0.572,2.252,0.239,2.975-0.493
					c0.885-0.897,0.719-2.388-0.226-3.152C298.708,119.237,297.215,119.466,296.397,120.595c-0.42,0.579,0.542,1.132,0.956,0.56
					c0.979-1.353,3.112,0.502,1.707,1.527c-0.39,0.284-0.902,0.322-1.35,0.182c-0.701-0.22-0.645-1.215-0.357-1.709
					C297.714,120.535,296.756,119.978,296.397,120.595z"/>
			</g>
		</g>
		<path fill="#FFFFFF" d="M389.264,197.08c0.722,0.51,2.843,0.688,3.11-0.591c0.646-0.141,1.508,0.855,2.31-0.354
			c1.566,0.787,3.056-0.502,3.704-1.324c1.669-2.117-1.867-6.488-3.49-8.193c-5.464-5.742-8.011-4.075-18.02-7.03
			c-0.007-0.104-1.476-1.729-1.495-1.938l-4.001-0.467c-0.798-5.317-2.056-21.168-4.117-26.152c-1.887-4.56-4.45-3.67-8.716-6.065
			c-0.828-0.466-4.012-0.962-5.483-2.126c-0.552-1.769-1.744-3.413-1.92-3.451c0.036-0.98,0.044-5.176,0.157-5.3
			c0.306-0.337,5.738,0.276,6.834-5.06c1.232-6.008,3.396-13.82,1.615-23.225c-0.136-0.715-0.605-1.784,0.214-2.129
			c0.611-0.256,2.225,0.23,3.69-0.262c-2.45-0.075-3.637-3.724-6.614-5.823c-2.346-1.655-8.28-3.451-12.29-3.262
			c-2.093,0.099-3.705,1.699-4.242,3.33c-1.993-0.859-3.823-1.032-5.184,1.016c-2.873,4.326-1.054,9.786,0.176,14.558
			c-1.229,1.731-1.146,6.317,2.117,7.045c0.183,0.662-0.229,9.191-0.187,12.745c0.01,0.854-0.009,1.71-0.045,2.565
			c-0.017,0.401-0.047,0.802-0.078,1.202c-0.006,0.082-0.047,0.426-0.068,0.628c-0.09,0.541-0.206,1.077-0.359,1.604
			c-0.009,0.032-0.023,0.072-0.039,0.115c-0.003,0.003-0.006,0.005-0.009,0.009c-0.046,0.026-0.1,0.059-0.171,0.104
			c-0.091,0.059-0.586,0.294-0.638,0.334c-0.62,0.221-1.267,0.377-1.908,0.519c-1.387,0.304-10.008,3.83-13.2,6.625
			c-4.579,4.011-5.646,10.659-2.147,16.893c0.586,1.044,2.137,3.226,4.211,5.67l-0.002,18.049c0,0,50.038,0.688,50.796,0.648
			C388.239,187.242,386.318,195.001,389.264,197.08z"/>
		<g>
			<path fill="#FBB03B" d="M348.938,113.79c-0.067,0.013-0.063,0.013,0.01,0c-0.027,0.001-0.055,0.001-0.082-0.002
				c0.084,0.013,0.098,0.013,0.039-0.003c0.078,0.036,0.093,0.04,0.041,0.013c0.068,0.056,0.081,0.064,0.039,0.024
				c0.053,0.073,0.062,0.085,0.031,0.036c-0.025-0.052-0.02-0.037,0.019,0.045c-0.015-0.044-0.014-0.142-0.001,0.018
				c-0.012-0.152-0.022,0.069-0.002-0.023c0.006-0.023,0.013-0.046,0.021-0.068c-0.048,0.138-0.01,0.035,0.012,0.001
				c-0.076,0.12,0.011-0.003,0.044-0.033c-0.058,0.044-0.061,0.05-0.009,0.016c0.121-0.072-0.105,0.031,0.035-0.013
				c0.032-0.009,0.064-0.017,0.097-0.022c-0.061,0.009-0.06,0.012,0.003,0.008c0.066,0.004,0.061,0.002-0.019-0.006
				c0.127,0.023-0.099-0.059,0.006-0.001c-0.064-0.056-0.075-0.063-0.034-0.024c-0.05-0.071-0.059-0.082-0.028-0.033
				c-0.031-0.084-0.038-0.099-0.02-0.043c0.036,0.112-0.005-0.135-0.003-0.014c0.002,0.089,0.034-0.122-0.012,0.027
				c0.053-0.173-0.098,0.112,0.005-0.009c-0.019,0.021-0.038,0.04-0.06,0.06c0.057-0.04,0.059-0.043,0.006-0.007
				c-0.026,0.016-0.053,0.031-0.082,0.045C349.102,113.725,348.956,113.785,348.938,113.79c-0.691,0.18-0.397,1.248,0.294,1.068
				c0.561-0.146,1.024-0.627,1.013-1.229c-0.007-0.32-0.17-0.613-0.435-0.789c-0.276-0.184-0.609-0.183-0.922-0.121
				c-0.556,0.107-1.003,0.668-0.96,1.234c0.05,0.694,0.657,1.035,1.304,0.904c0.296-0.06,0.463-0.406,0.387-0.682
				C349.534,113.871,349.233,113.73,348.938,113.79z"/>
		</g>
		<g>
			<path fill="#FBB03B" d="M358.339,114.179c0.03,0.018,0.059,0.036,0.087,0.056c-0.048-0.037-0.049-0.035-0.004,0.005
				c0.043,0.048,0.043,0.043-0.001-0.012c0.016,0.022,0.03,0.046,0.044,0.07c0.027,0.056,0.023,0.047-0.01-0.025
				c0.008,0.023,0.015,0.047,0.02,0.072c-0.009-0.089-0.012-0.103-0.008-0.042c0.007,0.121,0.029-0.13,0.006-0.015
				c-0.02,0.09,0.071-0.112-0.007,0.01c0.054-0.084,0.044-0.084,0.14-0.115c-0.059,0.013-0.043,0.011,0.049-0.006
				c-0.061-0.003-0.048,0,0.036,0.008c-0.026-0.006-0.054-0.014-0.079-0.023c0.115,0.038-0.005-0.01-0.028-0.024
				c0.111,0.069-0.013-0.018-0.041-0.048c0.097,0.106,0.003-0.009-0.016-0.046c0.069,0.138,0.01,0.007,0.001-0.037
				c0.01,0.091,0.013,0.106,0.008,0.046c-0.002-0.042,0.018-0.15-0.01,0.02c0.023-0.143-0.043,0.065-0.006-0.009
				c0.031-0.048,0.018-0.033-0.037,0.044c0.066-0.079-0.114,0.07-0.024,0.02c-0.09,0.034-0.107,0.043-0.052,0.028
				c-0.097,0.009-0.115,0.014-0.053,0.013c-0.09-0.015-0.104-0.015-0.041-0.001C358.439,114.198,358.207,114.109,358.339,114.179
				c0.267,0.143,0.601,0.07,0.759-0.198c0.147-0.252,0.066-0.616-0.199-0.758c-0.548-0.292-1.194-0.156-1.416,0.467
				c-0.191,0.538,0.103,1.097,0.541,1.403c0.459,0.321,1.201,0.231,1.442-0.317c0.266-0.603-0.022-1.226-0.567-1.553
				C358.284,112.854,357.728,113.812,358.339,114.179z"/>
		</g>
		<g>
			<path fill="#FBB03B" d="M361.159,109.526c-1.424-0.338-2.889-0.022-4.101,0.783c-0.591,0.395-0.037,1.354,0.56,0.957
				c0.965-0.643,2.102-0.944,3.247-0.673C361.559,110.759,361.854,109.69,361.159,109.526L361.159,109.526z"/>
		</g>
		<g>
			<path fill="#FBB03B" d="M351.349,109.448c-1.206-0.735-2.691-1.217-4.062-0.647c-0.65,0.271-0.365,1.342,0.294,1.068
				c1.114-0.463,2.228-0.062,3.208,0.536C351.401,110.778,351.957,109.819,351.349,109.448L351.349,109.448z"/>
		</g>
		<g>
			<path fill="#FBB03B" d="M345.069,132.453c2.438,1.997,5.847,2.076,8.785,1.336c3.106-0.782,4.378-2.996,5.203-5.892
				c0.971-3.404,1.821-6.737,2.047-10.287c0.263-4.136-0.287-8.291-1.182-12.323c-0.154-0.697-1.223-0.401-1.067,0.295
				c1.466,6.613,1.646,13.239-0.215,19.788c-0.701,2.469-1.136,5.455-3.58,6.805c-2.593,1.432-6.88,1.402-9.208-0.505
				C345.305,131.222,344.517,132,345.069,132.453L345.069,132.453z"/>
		</g>
		<g>
			<path fill="#FBB03B" d="M342.506,99.165c-3.136,0.585-3.674,4.49-2.075,6.811c1.193,1.734,2.674,3.257,1.49,5.416
				c-0.479,0.874-1.116,1.633-1.463,2.575c-0.372,1.016-0.058,2.211-0.209,3.261c-0.101,0.698,0.967,1,1.067,0.295
				c0.106-0.738,0.099-1.458,0.089-2.203c-0.015-1.22,0.675-2.081,1.29-3.062c0.758-1.211,1.081-2.411,0.601-3.791
				c-0.528-1.521-1.844-2.533-2.439-3.987c-0.698-1.706,0.055-3.893,1.943-4.245C343.502,100.102,343.203,99.034,342.506,99.165
				L342.506,99.165z"/>
		</g>
		<g>
			<path fill="#FBB03B" d="M344.645,100.1c1.636,0.582,3.326,0.597,5.042,0.532c1.575-0.059,3.299-0.298,4.483,0.938
				c1.732,1.81,3.027,4.684,5.971,4.398c0.436-0.042,0.792-0.597,0.392-0.945c-0.51-0.444-0.646-1.038-0.575-1.693
				c-0.314,0.131-0.631,0.262-0.945,0.392c1.311,1.177,3.323,0.843,4.791,0.226c0.648-0.272,0.423-1.206-0.295-1.068
				c-1.457,0.278-2.409-1.66-3.118-2.62c-0.889-1.203-1.949-2.227-3.18-3.074c-1.982-1.365-4.349-2.137-6.667-2.7
				c-3.24-0.787-10.515-2.016-10.586,3.174c0.277-0.159,0.556-0.318,0.833-0.478c-1.251-0.568-2.542-0.84-3.845-0.231
				c-1.587,0.741-2.891,1.935-3.482,3.604c-0.553,1.561-0.373,3.556-0.28,5.168c0.108,1.852,0.556,3.672,0.878,5.493
				c0.125,0.702,1.191,0.404,1.068-0.295c-0.49-2.763-0.935-5.366-0.864-8.187c0.033-1.36,0.34-2.504,1.295-3.511
				c1.304-1.375,2.952-1.864,4.672-1.085c0.374,0.17,0.827-0.027,0.833-0.479c0.064-4.656,8.332-2.4,10.859-1.656
				c2.42,0.713,4.734,1.837,6.52,3.652c1.488,1.516,2.693,4.803,5.359,4.293c-0.098-0.356-0.195-0.712-0.295-1.068
				c-1.084,0.456-2.795,0.885-3.713,0.06c-0.382-0.343-0.895-0.088-0.945,0.392c-0.099,0.921,0.184,1.854,0.899,2.477
				c0.13-0.315,0.261-0.63,0.392-0.945c-3.045,0.295-3.938-3.537-6.142-4.866c-1.028-0.62-2.447-0.533-3.593-0.499
				c-1.86,0.056-3.682,0.172-5.467-0.465C344.265,98.791,343.978,99.861,344.645,100.1L344.645,100.1z"/>
		</g>
		<g>
			<path fill="#FBB03B" d="M356.208,124.806c-1.884,1.042-4.056,0.203-5.944-0.421c-0.681-0.225-0.97,0.845-0.295,1.068
				c2.223,0.733,4.609,1.521,6.799,0.31C357.393,125.417,356.834,124.46,356.208,124.806L356.208,124.806z"/>
		</g>
		<g>
			<path fill="#FBB03B" d="M352.918,143.374c2.704,1.06,5.419,2.094,8.124,3.151c1.205,0.471,2.446,0.904,3.618,1.451
				c1.426,0.667,2.028,1.851,2.428,3.312c1.15,4.207,1.838,8.623,2.252,12.959c0.209,2.195,0.246,4.396,0.537,6.585
				c0.274,2.05,0.67,4.083,0.971,6.128c0.104,0.706,1.171,0.405,1.068-0.294c-0.332-2.257-0.771-4.497-1.051-6.763
				c-0.288-2.346-0.307-4.719-0.562-7.07c-0.227-2.089-0.556-4.165-0.937-6.23c-0.405-2.186-0.782-4.467-1.506-6.573
				c-0.897-2.613-3.305-3.304-5.647-4.228c-2.994-1.182-6.005-2.321-9.002-3.496C352.547,142.044,352.261,143.115,352.918,143.374
				L352.918,143.374z"/>
		</g>
		<g>
			<path fill="#FBB03B" d="M361.276,162.322c-0.787,1.505-1.03,3.236-1.253,4.899c-0.319,2.376-0.41,4.787-0.453,7.183
				c-0.014,0.715,1.094,0.714,1.107,0c0.036-2.027,0.128-4.053,0.325-6.072c0.176-1.797,0.379-3.823,1.23-5.45
				C362.563,162.249,361.607,161.689,361.276,162.322L361.276,162.322z"/>
		</g>
		<g>
			<path fill="#FBB03B" d="M325.529,155.481c1.978,2.945,4.684,5.306,7.516,7.404c3.757,2.785,7.897,5.047,12.13,7.017
				c9.479,4.415,19.786,7.337,30.208,8.301c-0.18-0.234-0.356-0.468-0.535-0.701c-0.499,2.896-0.997,5.792-1.496,8.688
				c-0.119,0.699,0.947,0.998,1.068,0.295c0.499-2.896,0.998-5.792,1.496-8.688c0.064-0.376-0.152-0.665-0.533-0.701
				c-10.235-0.945-20.326-3.856-29.649-8.148c-4.05-1.864-7.97-4.047-11.603-6.634c-2.872-2.046-5.666-4.443-7.645-7.391
				C326.09,154.333,325.13,154.887,325.529,155.481L325.529,155.481z"/>
		</g>
		<g>
			<path fill="#FBB03B" d="M324.98,171.161c6.41,5.423,13.593,9.694,21.499,12.543c8.718,3.142,17.987,4.498,27.179,5.331
				c0.712,0.064,0.706-1.044,0-1.107c-8.886-0.806-17.771-2.15-26.234-5.062c-7.966-2.742-15.238-7.054-21.66-12.487
				C325.223,169.92,324.435,170.699,324.98,171.161L324.98,171.161z"/>
		</g>
		<g>
			<path fill="#FBB03B" d="M375.65,187.715c0.5-2.896,0.998-5.791,1.496-8.688c0.049-0.28-0.07-0.618-0.387-0.682
				c-0.41-0.082-0.82-0.164-1.23-0.246c-0.698-0.14-0.995,0.928-0.295,1.068c0.411,0.082,0.82,0.164,1.231,0.246
				c-0.13-0.228-0.258-0.454-0.387-0.682c-0.499,2.896-0.998,5.792-1.496,8.688C374.463,188.119,375.53,188.418,375.65,187.715
				L375.65,187.715z"/>
		</g>
		<g>
			<path fill="#FBB03B" d="M376.73,180.121c3.553,1.228,7.216,2.521,10.934,3.13c2.418,0.396,4.334,1.429,5.978,3.266
				c1.09,1.218,2.117,2.508,3.063,3.84c0.51,0.719,2.936,4.254,0.673,4.155c-0.258-0.012-0.454,0.18-0.534,0.406
				c-0.293,0.826-0.901,0.981-1.635,0.493c-0.258-0.173-0.602-0.045-0.758,0.198c-0.412,0.646-1.066,0.635-1.689,0.265
				c-0.333-0.198-0.686,0.006-0.813,0.331c-0.319,0.813-1.501,0.919-2.491,0.42c-0.637-0.321-1.197,0.635-0.56,0.956
				c1.538,0.775,3.407,0.725,4.118-1.082c-0.271,0.11-0.542,0.222-0.812,0.332c1.154,0.686,2.454,0.514,3.205-0.662
				c-0.253,0.066-0.506,0.133-0.758,0.198c1.359,0.905,2.727,0.352,3.262-1.155c-0.179,0.137-0.356,0.271-0.534,0.408
				c1.241,0.054,2.163-0.847,2.099-2.088c-0.082-1.564-1.411-3.191-2.285-4.388c-1.73-2.368-3.629-4.759-6.273-6.142
				c-1.214-0.636-2.506-0.714-3.819-0.979c-1.435-0.289-2.847-0.697-4.25-1.109c-1.955-0.573-3.897-1.197-5.824-1.861
				C376.348,178.819,376.059,179.89,376.73,180.121L376.73,180.121z"/>
		</g>
		<g>
			<path fill="#FBB03B" d="M375.234,187.828c2.136,0.704,4.276,1.606,6.136,2.881c0.592,0.405,1.145-0.556,0.56-0.957
				c-1.933-1.324-4.181-2.261-6.4-2.992C374.849,186.536,374.56,187.606,375.234,187.828L375.234,187.828z"/>
		</g>
		<g>
			<path fill="#FBB03B" d="M336.406,111.6c-2.413,0.428-2.391,3.666-2.045,5.523c0.242,1.3,0.752,2.519,1.92,3.213
				c0.752,0.445,2.067,0.832,2.648-0.006c0.407-0.59-0.554-1.143-0.957-0.56c-0.251,0.362-1.877-1.047-2.004-1.264
				c-0.361-0.611-0.529-1.465-0.618-2.169c-0.15-1.205-0.186-3.398,1.35-3.671C337.403,112.543,337.104,111.476,336.406,111.6
				L336.406,111.6z"/>
		</g>
		<g>
			<path fill="#FBB03B" d="M336.011,111.331c0.828,1.734,1.22,3.626,1.286,5.541c0.024,0.713,1.133,0.715,1.108,0
				c-0.074-2.117-0.523-4.185-1.438-6.101C336.66,110.127,335.704,110.689,336.011,111.331L336.011,111.331z"/>
		</g>
		<g>
			<path fill="#FBB03B" d="M339.173,117.798c0.714,0,0.714-1.107,0-1.107C338.458,116.69,338.458,117.798,339.173,117.798
				L339.173,117.798z"/>
		</g>
		<g>
			<path fill="#FBB03B" d="M335.293,140.192c0.244,4.114,2.141,8.423,4.439,11.779c1.521,2.221,3.294,4.234,4.742,6.519
				c1.697,2.678,3.15,5.524,4.242,8.503c0.145,0.391,0.807,0.621,1.014,0.133c1.277-3.026,2.74-5.967,3.748-9.101
				c1.444-4.501,1.854-9.26,1.869-13.964c0.002-0.715-1.105-0.714-1.107,0c-0.015,4.536-0.424,9.05-1.748,13.404
				c-0.956,3.146-2.443,6.08-3.719,9.101c0.338,0.044,0.675,0.089,1.013,0.132c-1.854-5.056-4.671-9.751-8.05-13.933
				c-2.771-3.426-5.07-8.1-5.336-12.573C336.358,139.482,335.25,139.479,335.293,140.192L335.293,140.192z"/>
		</g>
		<g>
			<path fill="#FBB03B" d="M332.875,139.854c-0.21,5.697-0.873,11.362-0.917,17.067c-0.002,0.3,0.253,0.555,0.554,0.554
				c1.244-0.008,2.49-0.104,3.724-0.263c1.037-0.133,2.519-0.252,3.273-1.084c-0.309-0.18-0.618-0.359-0.926-0.539
				c-0.353,1.512-1.723,2.506-2.078,4.034c-0.06,0.259,0.042,0.478,0.254,0.625c3.948,2.747,7.878,6.06,10.354,10.243
				c0.363,0.614,1.322,0.058,0.956-0.559c-2.577-4.355-6.643-7.782-10.751-10.641c0.085,0.208,0.17,0.417,0.255,0.625
				c0.353-1.512,1.723-2.505,2.078-4.034c0.12-0.513-0.535-0.969-0.926-0.539c-0.63,0.694-2.204,0.73-3.059,0.83
				c-1.045,0.122-2.104,0.187-3.155,0.192c0.185,0.185,0.369,0.369,0.554,0.555c0.044-5.705,0.708-11.37,0.917-17.067
				C334.008,139.139,332.9,139.141,332.875,139.854L332.875,139.854z"/>
		</g>
		<g>
			<path fill="#FBB03B" d="M346.625,183.364c0.106,1.294,0.182,2.579,0.138,3.878c-0.024,0.716,1.084,0.714,1.108,0
				c0.044-1.299-0.031-2.584-0.138-3.878C347.675,182.657,346.566,182.652,346.625,183.364L346.625,183.364z"/>
		</g>
		<g>
			<path fill="#FBB03B" d="M348.717,166.698c-0.246,1.309-0.521,2.611-0.787,3.915c-0.143,0.697,0.925,0.994,1.068,0.294
				c0.267-1.304,0.541-2.606,0.788-3.914C349.917,166.295,348.85,165.997,348.717,166.698L348.717,166.698z"/>
		</g>
		<g>
			<path fill="#FBB03B" d="M352.532,172.145c1.145-2.569,2.256-5.039,3.806-7.392c1.303-1.977,2.803-4.026,3.371-6.363
				c0.075-0.311-0.097-0.577-0.387-0.682c-1.283-0.459-2.669-0.827-4.037-0.875c-0.715-0.025-0.713,1.083,0,1.107
				c1.265,0.044,2.556,0.411,3.742,0.836c-0.129-0.227-0.258-0.454-0.387-0.682c-0.57,2.347-2.145,4.408-3.453,6.393
				c-1.479,2.246-2.52,4.646-3.612,7.099C351.287,172.232,352.242,172.797,352.532,172.145L352.532,172.145z"/>
		</g>
		<g>
			<path fill="#FBB03B" d="M357.974,157.387c0.509-4.201,0.242-8.527-0.302-12.714c-0.091-0.698-1.2-0.706-1.108,0
				c0.545,4.187,0.812,8.513,0.302,12.714C356.779,158.096,357.889,158.087,357.974,157.387L357.974,157.387z"/>
		</g>
		<g>
			<path fill="#FBB03B" d="M349.095,141.145c1.73,0.688,2.749,2.892,2.988,4.62c0.078,0.568,0.933,0.489,1.068,0
				c0.721-2.61,0.457-4.62-1.45-6.606c-0.142-0.147-0.291-0.286-0.441-0.425c-0.262-0.24,0.054,0.484,0.063,0.216
				c0.015-0.362,0.035-0.724,0.058-1.085c0.074-1.215,0.171-2.443,0.455-3.629c0.168-0.695-0.901-0.989-1.067-0.295
				c-0.397,1.654-0.495,3.398-0.556,5.095c-0.02,0.532,1.018,1.232,1.315,1.582c1.239,1.454,1.028,3.137,0.555,4.854
				c0.355,0,0.712,0,1.068,0c-0.299-2.167-1.657-4.558-3.763-5.395C348.725,139.812,348.438,140.884,349.095,141.145
				L349.095,141.145z"/>
		</g>
		<g>
			<path fill="#FBB03B" d="M350.232,138.888c-0.512,1.39-2.415,1.401-3.646,1.405c-1.581,0.004-3.187-0.196-4.713-0.602
				c-0.85-0.226-1.673-0.553-2.478-0.905c-0.748-0.328-1.521-0.911-2.303-1.126c-0.673-0.186-1.332,0.862-1.554,1.329
				c-0.612,1.288,0.104,1.845,1.033,2.653c1.043,0.907,2.198,1.688,3.363,2.427c1.577,1,3.229,1.912,4.921,2.705
				c0.312,0.146,0.723,0.042,0.814-0.33c0.385-1.572,0.64-3.505,1.676-4.803c0.439-0.552-0.338-1.342-0.784-0.783
				c-1.185,1.484-1.519,3.491-1.96,5.291c0.271-0.11,0.542-0.221,0.813-0.331c-1.496-0.702-2.947-1.509-4.363-2.361
				c-1.198-0.722-2.361-1.509-3.449-2.391c-0.389-0.314-1.249-0.83-1.142-1.378c0.079-0.412,0.395-0.817,0.764-1.016
				c-0.187,0-0.373,0-0.56,0c2.888,1.509,5.713,2.481,8.979,2.694c2.037,0.133,4.824,0.071,5.655-2.186
				C351.547,138.511,350.477,138.224,350.232,138.888L350.232,138.888z"/>
		</g>
		<g>
			<path fill="#FBB03B" d="M344.982,145.245c0.446,0.831,1.199,1.398,1.831,2.081c1.054,1.135,0.856,3.327,0.648,4.727
				c-0.388,2.607-1.554,5.033-2.003,7.632c-0.121,0.699,0.946,0.997,1.068,0.295c0.506-2.925,1.791-5.642,2.131-8.602
				c0.145-1.265,0.059-2.752-0.475-3.928c-0.509-1.121-1.672-1.698-2.244-2.765C345.602,144.056,344.645,144.615,344.982,145.245
				L344.982,145.245z"/>
		</g>
		<g>
			<path fill="#FBB03B" d="M353.59,157.387c0.016-2.433-0.548-4.695-1.258-7.005c-0.361-1.172-0.745-2.307-0.691-3.548
				c0.057-1.344,0.485-2.645,0.529-3.995c0.022-0.715-1.085-0.712-1.108,0c-0.039,1.211-0.334,2.394-0.492,3.593
				c-0.164,1.246,0.133,2.364,0.481,3.548c0.726,2.463,1.447,4.809,1.432,7.407C352.478,158.102,353.585,158.102,353.59,157.387
				L353.59,157.387z"/>
		</g>
		<g>
			<path fill="#FBB03B" d="M347.045,147.586c1.087,1.043,3.445,0.517,4.352-0.504c0.474-0.532-0.308-1.318-0.783-0.783
				c-0.386,0.435-0.916,0.617-1.484,0.679c-0.342,0.037-1.025,0.09-1.301-0.176C347.312,146.308,346.528,147.09,347.045,147.586
				L347.045,147.586z"/>
		</g>
		<g>
			<path fill="#FBB03B" d="M335.699,138.69c-4.048,1.018-7.975,2.89-11.616,4.895c-1.613,0.889-3.226,1.846-4.504,3.189
				c-1.423,1.497-2.373,3.408-3.027,5.35c-0.631,1.874-0.888,3.912-0.704,5.881c0.195,2.096,1.19,4.061,2.215,5.865
				c1.09,1.924,2.681,4.187,4.706,5.249c-0.091-0.159-0.183-0.318-0.274-0.478c-0.03,6.087-0.04,12.176-0.009,18.263
				c0.003,0.714,1.11,0.714,1.107,0c-0.03-6.087-0.021-12.176,0.01-18.263c0.001-0.188-0.104-0.39-0.274-0.479
				c-1.779-0.934-3.117-2.89-4.128-4.542c-1.099-1.797-2.075-3.798-2.273-5.917c-0.177-1.896,0.198-3.813,0.801-5.603
				c0.627-1.863,1.673-3.604,3.069-4.986c1.24-1.227,2.925-2.075,4.443-2.898c3.38-1.833,7.012-3.517,10.754-4.457
				C336.687,139.585,336.393,138.517,335.699,138.69L335.699,138.69z"/>
		</g>
		<g>
			<path fill="#FBB03B" d="M337.064,120.276c0.006,6.075,0.179,12.148,0.184,18.223c0,0.714,1.107,0.714,1.107,0
				c-0.005-6.074-0.178-12.147-0.182-18.223C338.173,119.562,337.064,119.562,337.064,120.276L337.064,120.276z"/>
		</g>
		<g>
			<path fill="#FBB03B" d="M354.939,113.788c-0.146,2.239,1.293,3.973,2.723,5.521c0.232,0.253,1.318,1.26,1.18,1.58
				c-0.136,0.317-0.771,0.418-1.053,0.493c-1.004,0.27-2.064,0.342-3.096,0.427c-0.706,0.059-0.712,1.166,0,1.108
				c1.359-0.113,6.369-0.229,5.005-2.854c-1.163-2.236-3.841-3.378-3.649-6.275C356.096,113.075,354.987,113.079,354.939,113.788
				L354.939,113.788z"/>
		</g>
		<path fill="#FBB03B" d="M395.87,165.597"/>
	</g>
	<g>
		<g>
			<path fill="#FFFFFF" d="M483.642,143.52c0.3-1.846,0.544-1.89-0.551-3.504c-0.857-0.573-1.787-2.887-2.782-2.804
				c-0.215,0.018-0.393,1.233-0.585,1.325c-0.802,0.382-1.292-2.185-1.307-2.488c-0.049-0.991-0.091-2.282,0.136-3.243
				c0.884-0.467,2.29-1.682,1.579-3.707c-0.413-1.178-1.616-2.673-2.71-2.263c-1.222,0.457-1.546,2.358-1.671,3.561
				c-0.155,1.491,0.688,5.59-2.923,6.117c-1.822,0.267,0.301-4.921,0.561-5.871c0.683-2.496-0.883-5.827-0.37-8.362
				c0.225-1.109,1.276-2.832,2.054-3.688c0.513-0.567,1.285-1.309,1.851-1.833c0.875-0.812,0.737-1.168-0.068-1.93
				c-0.812-0.767-1.992-0.837-2.993-1.29c-1.585-0.718-3.102-2.173-4.561-3.12c-2.933-1.902-6.739-0.729-9.969-0.943
				c-0.667-0.044-1.055,3.234-1.648,5.495s-0.594,4.096-0.699,5.19c-0.32,3.327,0.28,3.608-0.354,6.932
				c-0.225,1.177-3.516,4.823-1.463,5.877c-0.781,3.732-0.867,5.78-0.261,8.702c0.825,3.976,7.123,5.723,11.007,5.235
				c1.101-0.138,2.625-0.907,2.945,0.462c0.405,1.721,0.17,3.744-0.026,5.467c-0.371,3.253,0.201,14.188,1.415,17.146
				c0.215,0.523,1.248-7.891,1.272-8.509c0.054-1.411,0.385-2.757,0.707-4.125c0.113-0.479,0.178-2.255,0.621-2.554
				c1.661-1.123,4.237-1.45,6.194-1.666c2.57-0.283,4.187-0.431,4.29-3.622C483.389,147.807,483.333,145.414,483.642,143.52z"/>
			<g>
				<path fill="none" d="M507.464,192.798c-1.337-1.269-2.798-2.494-4.165-3.798c-0.429,2.722-0.677,5.475-0.908,8.239
					c-0.376,4.521-1.104,8.92-1.793,13.372c2.336-3.86,5.945-6.659,8.811-10.091c0.381-0.456,0.688-0.738,1.098-1.693
					c-0.265,0.617,0.177-1.27,0.159-0.73c0.015-0.229,0.015-0.459,0.003-0.688c0.066,0.316,0.06,0.276-0.02-0.122
					C510.229,195.604,509.051,194.305,507.464,192.798z"/>
				<g>
					<path fill="none" d="M502.776,186.526c-0.428,2.724-0.154,7.948-0.386,10.713c-0.376,4.521,0.558,6.143-0.131,10.596
						c2.336-3.861,8.423-10.277,8.405-9.738c0.015-0.229,1.165-1.979,1.153-2.208C511.884,196.205,504.144,187.833,502.776,186.526z
						"/>
					<path fill="#22B573" d="M420.456,186.368c-0.494-0.017-0.825-0.027-0.837-0.031
						C420.206,186.743,420.427,186.664,420.456,186.368z"/>
					<path fill="#FFFFFF" d="M504.197,161.694c-4.752-3.602-10.576-5.804-14.613-6.285l-2.252-4.995c0,0-2.046,0.605-3.999,1.117
						c-4.273,1.118-5.916,2.142-10.073,3.213c-0.484,3.485-1.356,7.292-1.356,7.292l-1.835,8.809l-1.324-18.141l-3.641,2.116
						l-2.07,4.274c-10.901-0.164-15.094,10.953-18.593,16.34c-1.645,2.534-3.383,4.848-5.731,6.774
						c-2.374,1.947-0.258,6.126-13.435,4.317c-0.039-0.006-3.255-0.104-4.818-0.158c-0.029,0.296-0.25,0.375-0.837-0.031
						c0.012,0.004,0.343,0.015,0.837,0.031c0.062-0.634-0.759-3.148-0.759-3.148h-6.019c0,0-1.711,10.317-1.762,13.753
						c-0.04,2.765,3.703,4.526,5.636,2.334c0.115-0.132,0.176-0.209,0.202-0.25c0.013-0.009,0.023-0.015,0.04-0.026
						c0.089-0.062,0.726-0.38,0.682-0.383c0.775-0.3,2.406-0.662,2.406-0.662c5.192,1.288,11.415,4.319,23.393-2.182
						c2.611-1.416,4.882-3.505,7.584-4.878c-0.987,6.289-0.832,15.335-0.414,21.673c0.305,4.601,0.713,9.2,0.778,13.814
						c0.043,3.065-0.355,6.039-0.723,9.075c-0.268,2.214-0.506,4.422-0.517,6.633c-0.098,0.021,0.517,5.157,0.774,7.739
						c3.65,1.773,8.99,1.439,12.479,1.387c5.616-0.083,11.413-1.15,17.013-0.598c3.642,0.357,13.91-0.05,13.91-0.05
						s2.126-5.341,2.597-9.145c0.21-1.686,0.331-3.381,0.456-5.074c0.022-0.292,0.239-2.17,0.082-1.123
						c0.25-1.659,2.327-9.592,2.584-13.146c0.908,2.021,2.976,2.693,4.746,3.897c1.282,0.871,6.192-5.738,6.192-5.738l-0.744-1.988
						c0,0,2.37-1.898,3.381-3.021c2.369-2.628,4.418-5.598,6.277-8.601c2.157-3.482,4.611-6.645,4.867-10.773
						C525.924,190.655,514.785,169.722,504.197,161.694z M510.665,198.097c0.018-0.539-6.069,5.877-8.405,9.738
						c0.688-4.453-0.245-6.074,0.131-10.596c0.231-2.765-0.042-7.989,0.386-10.713c1.367,1.307,9.107,9.679,9.042,9.362
						C511.83,196.118,510.68,197.867,510.665,198.097z"/>
				</g>
			</g>
			<g>
				<path fill="#FFFFFF" d="M402.285,184.473c0,0-3.789-5.7-8.068-4.113c-4.277,1.587-4.768,4.671-3.789,5.207
					c0.537,0.295,1.889-0.148,2.996-0.606c3.367,3.093,6.22,8.262,6.22,8.262s3.091,1.926,12.364,2.476l1.395-9.604
					C402.612,185.002,402.285,184.473,402.285,184.473z"/>
			</g>
			<path fill="#D17907" d="M487.497,111.052c1.023-2.232,0.933-5.41-0.673-7.467c-1.598-2.044-4.634-2.78-7.044-3.206
				c-2.753-0.487-6.335-0.923-9.12-0.725c-2.452,0.175-4.567,0.35-6.798,1.376c-3.509,1.616-6.454,3.023-9.706,1.508
				c-0.633-0.295-1.184,0.597-0.556,0.95c0.546,0.308,1.065,0.65,1.599,0.971c-0.498,0.223-0.987,0.465-1.489,0.697
				c-0.498,0.231-0.251,1.053,0.278,1.024c0.418-0.021,0.836-0.066,1.254-0.098c0.266-0.019,0.531-0.023,0.798-0.015
				c0.327,0.814,0.132,1.348-0.585,1.596c-0.404,0.226-0.337,0.902,0.132,1.006c4.201,0.931,6.633-0.812,10.793,0.224
				c2.031,0.505,3.864,1.917,5.532,3.118c0.772,0.557,1.949,1.527,4.157,2.395c1.222,0.48,2.458,0.746,1.133,1.963
				c-0.95,0.872-2.131,1.463-2.93,2.503c-0.938,1.221-1.162,2.72-1.19,4.221c-0.035,1.819,0.383,3.624,0.424,5.441
				c0.044,1.939-0.587,3.791-1.286,5.569c-0.567,1.447,0.261,3.468,2.128,2.23c1.83-1.212,1.694-4.287,1.927-6.211
				c0.175-1.453,0.638-3.131,2.383-3.197c1.704-0.065,2.829,1.742,2.067,3.206c-0.533,1.028-2.026,1.424-2.389,2.529
				c-0.502,1.53-0.09,3.528,0.206,5.072c0.062,0.316,0.4,0.431,0.678,0.384c0.597-0.1,1.029-0.36,1.42-0.727
				c0.326,0.598,0.769,1.109,1.207,1.677c0.27,0.347,0.81,0.109,0.919-0.243c0.203-0.646,0.149-1.816,0.443-2.621
				c0.439,1.277,1.525,1.718,3.171,1.935c0.539,0.07,0.76-0.805,0.278-1.025c-1.453-0.665-0.545-1.559,0.109-1.886
				c0.455-0.229,0.504-1.132,0.58-1.528c0.36-1.885-0.313-2.611,0.417-4.385c1.029-2.495,3.088-6.224,3.356-8.903
				C491.479,116.821,490.865,112.987,487.497,111.052z"/>
			<path fill="#33CAD8" d="M413.816,183.22c1.744,0.508,3.562-0.073,5.379,0c0.363,1.381-1.672,14.689-1.745,16.434
				c-1.671-0.218-3.27-0.436-4.941-0.509c-0.436-1.743,0.29-3.852,0.436-5.596c0.073-1.744,0.219-3.415,0.437-5.16
				c0.219-1.454,0.363-3.716,0.509-5.169"/>
			<g>
				<path fill="#33CAD8" d="M473.26,154.744c0.486,2.238,1.576,4.802,2.539,6.726c1.932-0.873,9.797-4.396,13.771-6.133
					c-0.161-0.964-2.004-4.064-2.238-4.923C486.215,150.738,477.407,153.737,473.26,154.744z"/>
			</g>
			<g>
				<path fill="#33CAD8" d="M464.899,154.995c-0.959,1.438-1.009,4.316-1.808,5.914c0.799,0,4.711-0.717,6.104-0.717
					c0.276-1.66-0.921-5.656-0.452-7.488C467.409,153.174,465.6,153.873,464.899,154.995z"/>
			</g>
		</g>
		<g>
			<path fill="#1B1464" d="M484.385,111.975c-1.509,0.063-2.873,0.895-4.239,1.452c-0.652,0.267-0.368,1.339,0.294,1.068
				c1.251-0.51,2.566-1.354,3.945-1.413C485.096,113.053,485.1,111.944,484.385,111.975L484.385,111.975z"/>
		</g>
		<g>
			<path fill="#1B1464" d="M476.745,114.216c-2.144-0.274-3.55-1.548-5.052-2.979c-1.518-1.444-2.978-2.316-5.053-2.718
				c-4.046-0.78-8.776,1.574-12.361-1.054c0,0.319,0,0.638,0,0.957c0.739-0.396,1.412-0.778,1.961-1.422
				c0.18-0.21,0.247-0.582,0-0.783c-1.021-0.825-2.246-0.795-3.369-1.386c0.038,0.291,0.074,0.581,0.111,0.871
				c0.42-0.36,1.06-0.645,1.625-0.513c0.453,0.106,0.893-0.384,0.625-0.813c-0.665-1.063-2.621-1.442-2.838-2.707
				c-0.272,0.208-0.543,0.417-0.814,0.625c0.729,0.324,1.479,0.443,2.258,0.587c1.013,0.187,2,0.528,3.03,0.612
				c1.901,0.153,3.793-0.32,5.521-1.093c2.07-0.926,4.016-1.712,6.264-2.109c2.332-0.411,4.734-0.386,7.085-0.188
				c3.341,0.283,7.188,0.897,9.781,3.196c1.037,0.919,1.604,2.071,1.905,3.392c0.144,0.63,0.812,3.468-0.074,3.825
				c-0.652,0.265-0.367,1.336,0.295,1.068c2.111-0.853,1.077-4.833,0.509-6.409c-1.205-3.344-4.942-4.837-8.124-5.544
				c-4.348-0.965-8.987-1.093-13.331-0.066c-2.352,0.555-4.366,1.876-6.67,2.515c-1.415,0.392-2.804,0.413-4.234,0.111
				c-1.168-0.245-2.562-0.368-3.655-0.854c-0.458-0.204-0.899,0.124-0.812,0.625c0.28,1.629,2.184,1.747,2.949,2.973
				c0.209-0.271,0.417-0.543,0.626-0.814c-0.973-0.227-1.962,0.161-2.702,0.797c-0.264,0.229-0.188,0.713,0.112,0.87
				c0.996,0.523,2.262,0.497,3.146,1.212c0-0.261,0-0.521,0-0.783c-0.488,0.572-1.085,0.899-1.736,1.248
				c-0.398,0.214-0.315,0.726,0,0.957c3.752,2.75,8.428,0.455,12.626,1.165c2.405,0.407,3.839,1.774,5.557,3.372
				c1.409,1.311,2.921,2.118,4.842,2.363C477.453,115.413,477.443,114.305,476.745,114.216L476.745,114.216z"/>
		</g>
		<g>
			<path fill="#1B1464" d="M470.526,121.22c-1.813-1.174-4.077-2.139-6.27-2.094c-0.714,0.015-0.715,1.122,0,1.107
				c2.005-0.041,4.057,0.872,5.711,1.942C470.569,122.565,471.124,121.605,470.526,121.22L470.526,121.22z"/>
		</g>
		<g>
			<path fill="#1B1464" d="M460.896,132.567c-1.589,0.025-3.161-0.034-4.73-0.311c-0.408-0.071-1.005-0.138-1.011-0.648
				c-0.011-0.715,0.552-1.525,0.826-2.164c0.657-1.532,1.245-3.071,2.17-4.469c0.853-1.289,1.259-2.812,2.183-4.062
				c0.425-0.575-0.538-1.127-0.957-0.559c-0.532,0.72-0.901,1.512-1.271,2.322c-0.45,0.984-1.031,1.863-1.561,2.803
				c-0.949,1.686-1.844,3.691-2.402,5.536c-0.961,3.173,5.168,2.684,6.754,2.659C461.611,133.664,461.611,132.557,460.896,132.567
				L460.896,132.567z"/>
		</g>
		<g>
			<path fill="#1B1464" d="M461.01,117.862c-1.239-0.124-2.415-0.561-3.672-0.536c-0.715,0.014-0.715,1.122,0,1.108
				c1.246-0.024,2.438,0.412,3.672,0.536C461.72,119.042,461.713,117.934,461.01,117.862L461.01,117.862z"/>
		</g>
		<g>
			<path fill="#1B1464" d="M464.625,122.379c-0.149,0.317-0.246,0.641-0.319,0.981c-0.063,0.295,0.083,0.599,0.387,0.682
				c0.278,0.077,0.618-0.091,0.682-0.387c0.024-0.116,0.051-0.232,0.082-0.348c0.019-0.074,0.042-0.147,0.065-0.221
				c0.013-0.037,0.027-0.075,0.041-0.112c-0.016,0.038-0.009,0.026,0.02-0.037c0.128-0.272,0.078-0.596-0.199-0.757
				C465.141,122.038,464.754,122.106,464.625,122.379L464.625,122.379z"/>
		</g>
		<g>
			<path fill="#1B1464" d="M457.253,120.696c0.005,0.293-0.041,0.521-0.103,0.815c-0.063,0.295,0.082,0.598,0.387,0.681
				c0.277,0.076,0.617-0.091,0.682-0.387c0.077-0.364,0.148-0.734,0.142-1.109c-0.005-0.301-0.247-0.554-0.554-0.554
				C457.509,120.143,457.247,120.395,457.253,120.696L457.253,120.696z"/>
		</g>
		<g>
			<path fill="#1B1464" d="M454.634,132.822c-0.651,2.416-0.492,5.116-0.608,7.604c-0.08,1.695,0.316,3.299,1.548,4.513
				c1.54,1.518,4.061,2.172,6.112,2.552c2.58,0.477,5.293,0.354,7.785-0.479c0.674-0.226,0.385-1.296-0.294-1.068
				c-3.851,1.287-9.304,0.996-12.612-1.605c-1.325-1.041-1.49-2.654-1.417-4.224c0.106-2.281-0.042-4.784,0.554-6.996
				C455.888,132.426,454.819,132.134,454.634,132.822L454.634,132.822z"/>
		</g>
		<g>
			<path fill="#1B1464" d="M468.229,146.656c0.096,2.674,0.486,5.361-0.019,8.017c-0.133,0.698,0.934,0.996,1.068,0.295
				c0.525-2.765,0.158-5.527,0.058-8.312C469.312,145.943,468.203,145.941,468.229,146.656L468.229,146.656z"/>
		</g>
		<g>
			<path fill="#1B1464" d="M454.764,136.537c4.579,1.717,8.002,0.419,8.002,0.419s-0.6,5.581-8.002,3.134"/>
			<g>
				<path fill="#1B1464" d="M454.617,137.071c2.537,0.904,5.685,1.38,8.296,0.419c-0.234-0.179-0.468-0.356-0.702-0.534
					c0.024-0.209-0.104,0.427-0.146,0.562c-0.172,0.549-0.474,1.051-0.86,1.474c-1.589,1.742-4.331,1.186-6.293,0.564
					c-0.683-0.217-0.974,0.853-0.294,1.067c2.4,0.762,5.261,1.13,7.258-0.734c0.793-0.741,1.32-1.856,1.444-2.933
					c0.04-0.344-0.387-0.65-0.701-0.534c-2.443,0.899-5.337,0.426-7.707-0.419C454.236,135.763,453.949,136.833,454.617,137.071
					L454.617,137.071z"/>
			</g>
		</g>
		<g>
			<path fill="#1B1464" d="M478.991,152.169c-1.903,0.686-3.807,1.37-5.709,2.056c-1.002,0.36-0.971,2.526-1.144,3.4
				c-0.859,4.351-1.582,8.758-2.605,13.073c0.356,0,0.713,0,1.068,0c-1.654-5.342-3.31-10.684-4.964-16.024
				c-0.085,0.209-0.17,0.417-0.255,0.625c1.214-0.705,2.428-1.412,3.642-2.117c0.617-0.358,0.06-1.316-0.559-0.956
				c-1.214,0.705-2.428,1.411-3.642,2.117c-0.209,0.121-0.328,0.389-0.256,0.625c1.655,5.342,3.311,10.683,4.965,16.024
				c0.157,0.504,0.938,0.553,1.068,0c1.255-5.289,2.137-10.691,3.188-16.024c-0.128,0.13-0.258,0.258-0.387,0.387
				c1.96-0.705,3.922-1.411,5.882-2.117C479.953,152.997,479.664,151.927,478.991,152.169L478.991,152.169z"/>
		</g>
		<g>
			<path fill="#1B1464" d="M473.949,156.96c0.203,1.692,0.406,3.384,0.609,5.076c0.054,0.441,0.424,0.655,0.834,0.478
				c4.865-2.109,9.654-4.41,14.471-6.626c0.295-0.135,0.312-0.505,0.199-0.758c-0.751-1.665-1.502-3.33-2.252-4.995
				c-0.101-0.223-0.406-0.316-0.626-0.255c-2.731,0.764-5.463,1.526-8.193,2.289c-0.688,0.192-0.396,1.262,0.294,1.068
				c2.731-0.763,5.463-1.526,8.193-2.289c-0.207-0.085-0.416-0.17-0.625-0.254c0.751,1.665,1.502,3.33,2.252,4.994
				c0.066-0.252,0.133-0.505,0.199-0.757c-4.817,2.216-9.606,4.517-14.472,6.625c0.278,0.16,0.556,0.319,0.834,0.479
				c-0.203-1.692-0.406-3.384-0.609-5.076C474.974,156.26,473.864,156.252,473.949,156.96L473.949,156.96z"/>
		</g>
		<g>
			<path fill="#1B1464" d="M464.568,154.674c-0.778,2.365-1.558,4.73-2.337,7.097c-0.136,0.409,0.289,0.786,0.681,0.682
				c1.305-0.351,2.608-0.699,3.913-1.05c0.689-0.185,0.396-1.253-0.295-1.068c-1.304,0.351-2.608,0.7-3.912,1.05
				c0.227,0.227,0.454,0.454,0.681,0.681c0.78-2.365,1.559-4.73,2.339-7.097C465.861,154.288,464.791,153.999,464.568,154.674
				L464.568,154.674z"/>
		</g>
		<g>
			<path fill="#1B1464" d="M452.042,182.199c-1.474,19.828-1.161,39.839-0.886,59.705c0.039,2.898,0.085,5.797,0.149,8.695
				c0.007,0.302,0.247,0.554,0.554,0.554c12.301,0,24.602,0,36.901,0c2.134,0,4.267,0,6.4,0c0.256,0,0.458-0.17,0.534-0.406
				c1.312-4.054,2.221-8.261,3.077-12.426c2.253-10.962,3.582-22.115,4.214-33.283c0.348-6.163,0.45-12.34,0.344-18.512
				c-0.013-0.713-1.12-0.715-1.107,0c0.234,13.581-0.585,27.184-2.596,40.619c-1.072,7.175-2.457,14.34-4.415,21.33
				c-0.186,0.661-0.373,1.323-0.584,1.977c0.177-0.136,0.355-0.271,0.533-0.406c-12.3,0-24.601,0-36.9,0c-2.134,0-4.268,0-6.401,0
				c0.185,0.184,0.369,0.369,0.555,0.554c-0.344-15.26-0.418-30.536-0.156-45.796c0.128-7.538,0.333-15.084,0.891-22.604
				C453.202,181.486,452.095,181.491,452.042,182.199L452.042,182.199z"/>
		</g>
		<g>
			<path fill="#1B1464" d="M466.666,189.944c-1.417,19.896-2.065,39.86-2.541,59.799c-0.006,0.285-0.014,0.57-0.02,0.856
				c-0.016,0.714,1.093,0.713,1.107,0c0.397-17.898,1.028-35.807,2.104-53.678c0.139-2.327,0.292-4.652,0.457-6.978
				C467.824,189.23,466.717,189.236,466.666,189.944L466.666,189.944z"/>
		</g>
		<g>
			<path fill="#1B1464" d="M469.533,170.698c-0.951,6.417-2.232,12.784-2.867,19.246c-0.07,0.711,1.039,0.705,1.107,0
				c0.625-6.363,1.892-12.633,2.828-18.952C470.705,170.294,469.639,169.992,469.533,170.698L469.533,170.698z"/>
		</g>
		<g>
			<path fill="#1B1464" d="M466.308,174.245c0.046,0.845,0.651,1.45,1.495,1.496c0.843,0.045,1.454-0.72,1.496-1.496
				c0.045-0.842-0.72-1.453-1.496-1.495C466.961,172.705,466.35,173.469,466.308,174.245c-0.038,0.715,1.07,0.711,1.108,0
				c0.026-0.5,0.748-0.5,0.775,0c0.026,0.502-0.749,0.499-0.775,0C467.378,173.535,466.27,173.531,466.308,174.245z"/>
		</g>
		<g>
			<path fill="#1B1464" d="M464.105,188.924c0.046,0.845,0.65,1.45,1.495,1.496c0.843,0.046,1.454-0.719,1.496-1.496
				c0.046-0.842-0.72-1.452-1.496-1.494C464.759,187.385,464.147,188.148,464.105,188.924c-0.038,0.715,1.07,0.712,1.107,0
				c0.027-0.499,0.749-0.499,0.775,0c0.027,0.503-0.748,0.5-0.775,0C465.176,188.214,464.067,188.21,464.105,188.924z"/>
		</g>
		<g>
			<path fill="#1B1464" d="M461.537,223.054c0.046,0.844,0.651,1.449,1.496,1.495c0.842,0.046,1.453-0.719,1.494-1.495
				c0.046-0.843-0.719-1.454-1.494-1.496C462.189,221.513,461.58,222.277,461.537,223.054c-0.038,0.714,1.07,0.71,1.108,0
				c0.026-0.501,0.747-0.501,0.774,0c0.026,0.502-0.748,0.498-0.774,0C462.607,222.343,461.499,222.339,461.537,223.054z"/>
		</g>
		<g>
			<path fill="#1B1464" d="M462.639,204.594c0.045,0.844,0.65,1.45,1.495,1.496c0.843,0.045,1.453-0.72,1.495-1.496
				c0.046-0.843-0.719-1.453-1.495-1.494C463.291,203.054,462.681,203.818,462.639,204.594c-0.039,0.714,1.069,0.71,1.107,0
				c0.027-0.501,0.748-0.501,0.774,0c0.028,0.503-0.747,0.499-0.774,0C463.708,203.884,462.6,203.88,462.639,204.594z"/>
		</g>
		<g>
			<path fill="#1B1464" d="M461.17,240.669c0.046,0.845,0.651,1.45,1.496,1.495c0.843,0.045,1.453-0.719,1.495-1.495
				c0.046-0.843-0.719-1.454-1.495-1.495C461.823,239.128,461.212,239.893,461.17,240.669c-0.038,0.714,1.07,0.71,1.108,0
				c0.026-0.501,0.748-0.501,0.774,0c0.027,0.501-0.748,0.498-0.774,0C462.24,239.958,461.132,239.954,461.17,240.669z"/>
		</g>
		<g>
			<path fill="#1B1464" d="M457.256,126.386c-0.029-3.701,0.261-7.398,0.906-11.044c0.231-1.299,0.52-2.59,0.896-3.854
				c0.119-0.404,0.255-0.808,0.422-1.194c0.094-0.216,0.379-0.552,0.251-0.521c0.694-0.168,0.399-1.236-0.295-1.068
				c-0.567,0.139-0.839,0.834-1.034,1.314c-0.479,1.182-0.773,2.432-1.043,3.675c-0.898,4.152-1.246,8.45-1.211,12.692
				C456.153,127.1,457.262,127.101,457.256,126.386L457.256,126.386z"/>
		</g>
		<g>
			<path fill="#1B1464" d="M475.596,117.262c-1.669,0.962-2.55,2.802-3.064,4.59c-0.742,2.591,0.093,4.972,0.346,7.549
				c0.169,1.737-0.78,3.508-1.131,5.184c-0.261,1.256-0.119,2.572,1.434,2.56c3.731-0.032,2.966-5.432,3.367-7.857
				c0.115-0.7,0.35-1.873,1.094-2.178c0.597-0.244,1.238,0.367,1.602,0.755c0.52,0.555,0.834,1.334,0.897,2.084
				c0.116,1.374-1.19,2.56-2.52,1.839c-0.628-0.341-1.188,0.616-0.559,0.957c1.559,0.845,3.239,0.229,3.948-1.417
				c0.571-1.324,0.072-2.869-0.755-3.964c-0.677-0.898-1.749-1.621-2.909-1.322c-1.453,0.375-1.832,2.466-1.977,3.69
				c-0.222,1.857,0.022,4.098-0.926,5.775c-0.213,0.376-0.882,0.484-1.264,0.529c-0.564,0.067-0.456-0.393-0.423-0.795
				c0.081-1.01,0.49-2.031,0.774-2.995c0.231-0.782,0.468-1.588,0.477-2.408c0.014-1.316-0.376-2.647-0.595-3.936
				c-0.437-2.565,0.302-6.276,2.742-7.683C476.773,117.861,476.217,116.904,475.596,117.262L475.596,117.262z"/>
		</g>
		<g>
			<path fill="#1B1464" d="M488.422,113.134c0.602,1.896,1.757,3.455,1.881,5.495c0.134,2.203-0.604,4.347-1.39,6.368
				c-0.728,1.874-1.599,3.713-2.213,5.628c-0.545,1.697-0.375,3.387,0.223,5.043c0.085-0.209,0.171-0.417,0.255-0.626
				c-0.581,0.297-1.336-0.322-1.716-0.657c-0.345-0.305-0.958-0.118-0.944,0.392c0.033,1.296,0.589,2.938,1.858,3.539
				c0.642,0.304,1.204-0.651,0.559-0.956c-0.918-0.435-1.286-1.661-1.31-2.583c-0.315,0.131-0.631,0.262-0.946,0.392
				c0.819,0.724,1.966,1.39,3.059,0.831c0.206-0.106,0.335-0.404,0.254-0.626c-0.75-2.077-0.522-3.81,0.271-5.821
				c0.765-1.937,1.606-3.844,2.293-5.811c0.673-1.928,0.996-3.938,0.785-5.974c-0.185-1.782-1.319-3.256-1.851-4.928
				C489.275,112.161,488.205,112.451,488.422,113.134L488.422,113.134z"/>
		</g>
		<g>
			<path fill="#1B1464" d="M485.022,138.151c-0.439-0.199-0.646-0.875-0.796-1.291c-0.189-0.523-0.344-1.094-0.338-1.653
				c0.008-0.715-1.1-0.715-1.108,0c-0.008,0.775,0.222,1.558,0.501,2.274c0.231,0.59,0.567,1.348,1.183,1.627
				C485.109,139.401,485.674,138.447,485.022,138.151L485.022,138.151z"/>
		</g>
		<g>
			<path fill="#1B1464" d="M477.889,132.648c-0.095,2.314,0.1,4.875,1.117,7.002c0.213,0.446,0.893,0.303,1.012-0.132
				c0.191-0.696,0.392-1.389,0.711-2.039c0.067-0.137,0.347-0.463,0.248-0.407c-0.277-0.159-0.556-0.318-0.834-0.479
				c0.216,1.639,1.141,3.162,2.668,3.9c0.34,0.164,0.877-0.024,0.834-0.479c-0.098-1.013-0.15-2.25,0.395-3.142
				c0.374-0.612-0.584-1.168-0.956-0.56c-0.651,1.068-0.663,2.488-0.546,3.701c0.277-0.159,0.556-0.318,0.833-0.479
				c-1.149-0.555-1.953-1.684-2.119-2.943c-0.053-0.403-0.433-0.706-0.833-0.479c-0.914,0.521-1.228,2.232-1.469,3.108
				c0.338-0.044,0.676-0.088,1.014-0.132c-0.931-1.945-1.053-4.337-0.967-6.443C479.025,131.934,477.917,131.937,477.889,132.648
				L477.889,132.648z"/>
		</g>
		<g>
			<path fill="#1B1464" d="M483.484,137.838c-0.58,4.474-1.12,9.173-0.705,13.693c0.064,0.705,1.173,0.712,1.108,0
				c-0.415-4.521,0.125-9.22,0.704-13.693C484.684,137.131,483.574,137.14,483.484,137.838L483.484,137.838z"/>
		</g>
		<g>
			<path fill="#1B1464" d="M418.742,198.298c1.381,0.265,2.7,0.593,4.026,1.047c1.661,0.569,3.623,0.598,5.349,0.644
				c4.252,0.113,8.652,0.032,12.784-1.088c2.32-0.628,4.397-1.739,6.246-3.265c1.688-1.393,3.185-2.983,4.991-4.232
				c0.584-0.402,0.031-1.363-0.559-0.956c-1.715,1.185-3.186,2.637-4.746,4.005c-1.711,1.498-3.623,2.588-5.799,3.258
				c-3.854,1.184-8.035,1.239-12.028,1.188c-1.919-0.024-3.978-0.032-5.837-0.587c-1.379-0.411-2.708-0.809-4.133-1.081
				C418.339,197.095,418.041,198.163,418.742,198.298L418.742,198.298z"/>
		</g>
		<g>
			<path fill="#1B1464" d="M463.766,157.815c-12.133,0.119-18.037,13.118-23.859,21.795c-1.471,2.19-3.078,4.248-5.51,5.398
				c-1.56,0.739-3.291,0.983-4.918,1.535c-0.189,0.064-0.377,0.142-0.572,0.193c-0.05,0.013-0.033,0.017-0.245-0.023
				c-1.15-0.216-2.303-0.397-3.465-0.543c-1.827-0.229-3.664-0.395-5.499-0.55c-0.713-0.06-0.707,1.048,0,1.107
				c2.499,0.212,5.01,0.426,7.487,0.834c0.549,0.091,1.185,0.321,1.749,0.283c0.549-0.037,1.106-0.328,1.629-0.481
				c1.992-0.587,3.984-1.008,5.756-2.154c2.146-1.391,3.623-3.652,5.012-5.74c1.842-2.771,3.602-5.595,5.461-8.355
				c3.087-4.578,6.713-9.472,12.113-11.398c1.562-0.557,3.211-0.776,4.861-0.792C464.48,158.916,464.48,157.809,463.766,157.815
				L463.766,157.815z"/>
		</g>
		<g>
			<path fill="#1B1464" d="M412.008,199.926c2.006,0.211,4.012,0.422,6.018,0.633c0.323,0.033,0.525-0.28,0.555-0.555
				c0.557-5.302,1.113-10.604,1.671-15.906c0.033-0.321-0.279-0.524-0.554-0.554c-2.007-0.21-4.013-0.422-6.019-0.633
				c-0.323-0.033-0.525,0.28-0.555,0.555c-0.557,5.302-1.113,10.604-1.67,15.906c-0.075,0.711,1.033,0.703,1.107,0
				c0.557-5.302,1.114-10.604,1.671-15.906c-0.185,0.185-0.369,0.369-0.554,0.554c2.006,0.211,4.012,0.422,6.019,0.633
				c-0.185-0.185-0.37-0.37-0.555-0.555c-0.557,5.303-1.114,10.604-1.671,15.906c0.185-0.185,0.369-0.369,0.554-0.554
				c-2.006-0.211-4.012-0.421-6.018-0.632C411.297,198.744,411.305,199.852,412.008,199.926z"/>
		</g>
		<g>
			<path fill="#1B1464" d="M413.402,185.54c-3.482-0.354-7.222-0.495-10.612-1.46c-0.179-0.05-0.249-0.094-0.193-0.063
				c0.185,0.102,0.211,0.228-0.036-0.109c-0.963-1.312-2.141-2.473-3.514-3.352c-1.875-1.199-3.843-1.242-5.846-0.37
				c-1.648,0.717-3.377,2.137-3.711,3.998c-0.65,3.621,4.441,1.227,5.862,0.495c-0.278-0.159-0.556-0.319-0.833-0.479
				c0.215,2.261,2.289,3.709,4.309,4.362c0.682,0.221,0.972-0.85,0.295-1.068c-1.492-0.482-3.334-1.587-3.496-3.294
				c-0.041-0.424-0.438-0.683-0.834-0.479c-1.103,0.568-2.268,1.085-3.484,1.346c-1.829,0.391,0.169-2.37,0.598-2.766
				c1.707-1.575,4.02-2.107,6.106-1.062c1.395,0.7,2.58,1.9,3.52,3.131c0.485,0.636,0.811,0.762,1.611,0.936
				c3.358,0.726,6.849,0.994,10.259,1.341C414.113,186.72,414.105,185.611,413.402,185.54L413.402,185.54z"/>
		</g>
		<g>
			<path fill="#1B1464" d="M412.008,195.145c-3.14-0.197-6.302-0.535-9.328-1.425c-0.797-0.233-1.696-0.494-2.39-0.976
				c-0.589-0.409-1.142,0.552-0.56,0.957c0.77,0.533,1.773,0.818,2.653,1.087c3.101,0.943,6.404,1.262,9.624,1.464
				C412.722,196.296,412.717,195.188,412.008,195.145L412.008,195.145z"/>
		</g>
		<g>
			
				<ellipse transform="matrix(-0.82 0.5724 -0.5724 -0.82 818.5001 136.0458)" fill="#FFFFFF" cx="387.858" cy="196.723" rx="1.711" ry="1.237"/>
			<g>
				<path fill="#1B1464" d="M386.062,198.094c1.453,1.78,4.855-0.665,3.677-2.631c-0.606-1.015-2.041-0.766-2.87-0.233
					c-0.887,0.568-1.479,1.775-0.893,2.752c0.366,0.612,1.325,0.056,0.957-0.56c-0.502-0.837,1.165-2.019,1.852-1.393
					c0.653,0.597-1.223,2.159-1.938,1.28C386.395,196.757,385.615,197.545,386.062,198.094z"/>
			</g>
		</g>
		<g>
			
				<ellipse transform="matrix(-0.82 0.5724 -0.5724 -0.82 814.4679 132.8255)" fill="#FFFFFF" cx="386.349" cy="194.479" rx="1.711" ry="1.237"/>
			<g>
				<path fill="#1B1464" d="M384.553,195.85c1.453,1.78,4.855-0.664,3.678-2.631c-0.607-1.014-2.041-0.765-2.87-0.233
					c-0.887,0.568-1.479,1.776-0.894,2.753c0.367,0.611,1.326,0.055,0.957-0.56c-0.502-0.837,1.164-2.02,1.851-1.393
					c0.654,0.595-1.222,2.158-1.938,1.281C384.885,194.513,384.106,195.302,384.553,195.85z"/>
			</g>
		</g>
		<g>
			
				<ellipse transform="matrix(-0.82 0.5724 -0.5724 -0.82 810.1366 129.4493)" fill="#FFFFFF" cx="384.714" cy="192.109" rx="1.711" ry="1.237"/>
			<g>
				<path fill="#1B1464" d="M382.919,193.48c1.452,1.78,4.854-0.664,3.676-2.631c-0.607-1.014-2.04-0.764-2.869-0.233
					c-0.888,0.568-1.478,1.776-0.894,2.753c0.367,0.611,1.325,0.055,0.957-0.56c-0.502-0.837,1.165-2.019,1.852-1.393
					c0.653,0.596-1.222,2.159-1.938,1.281C383.25,192.145,382.472,192.933,382.919,193.48z"/>
			</g>
		</g>
		<g>
			
				<ellipse transform="matrix(-0.82 0.5724 -0.5724 -0.82 806.5691 127.5888)" fill="#FFFFFF" cx="383.223" cy="190.618" rx="1.711" ry="1.237"/>
			<g>
				<path fill="#1B1464" d="M381.428,191.99c1.452,1.779,4.854-0.665,3.676-2.632c-0.607-1.015-2.041-0.766-2.87-0.234
					c-0.887,0.569-1.478,1.777-0.893,2.754c0.366,0.611,1.324,0.055,0.956-0.561c-0.501-0.837,1.165-2.019,1.852-1.393
					c0.653,0.597-1.222,2.16-1.938,1.281C381.758,190.652,380.98,191.441,381.428,191.99z"/>
			</g>
		</g>
		<g>
			<path fill="#1B1464" d="M451.012,250.452c-0.676,3.378-0.904,6.85-1.104,10.281c-0.266,4.6-0.363,9.207-0.411,13.813
				c-0.087,8.351,0.028,16.704,0.247,25.052c0.041,1.556,0.084,3.109,0.139,4.664c0.025,0.713,1.133,0.715,1.108,0
				c-0.507-14.312-0.771-28.719-0.003-43.022c0.188-3.501,0.403-7.049,1.092-10.493C452.22,250.049,451.152,249.752,451.012,250.452
				L451.012,250.452z"/>
		</g>
		<g>
			<path fill="#1B1464" d="M494.224,250.452c-1.583,7.883-1.911,16.09-2.399,24.095c-0.509,8.345-0.869,16.697-1.152,25.052
				c-0.054,1.556-0.104,3.109-0.146,4.664c-0.02,0.715,1.088,0.713,1.107,0c0.39-14.346,0.964-28.731,2.291-43.022
				c0.325-3.507,0.674-7.037,1.367-10.493C495.432,250.049,494.363,249.752,494.224,250.452L494.224,250.452z"/>
		</g>
		<g>
			<path fill="#1B1464" d="M471.067,306.465c0.458-11.725,1.099-23.482,1.108-35.217c0-0.315-0.252-0.537-0.554-0.555
				c-1.406-0.082-2.767-0.887-3.188-2.271c-0.419-1.378-0.159-3.203-0.178-4.64c-0.009-0.792-0.016-1.584-0.017-2.375
				c0-0.715-1.107-0.715-1.107,0c0,1.044,0.012,2.088,0.027,3.133c0.022,1.654-0.202,3.515,0.55,5.042
				c0.687,1.392,2.436,2.133,3.913,2.22c-0.185-0.186-0.369-0.369-0.554-0.554c-0.012,11.734-0.65,23.492-1.109,35.217
				C469.931,307.18,471.039,307.177,471.067,306.465L471.067,306.465z"/>
		</g>
		<g>
			<path fill="#1B1464" d="M479.884,258.065c3.382,0,6.764,0,10.145,0c0.302,0,0.555-0.25,0.555-0.553c0-1.433,0-2.867,0-4.299
				c0-0.303-0.253-0.555-0.555-0.555c-3.381,0-6.763,0-10.145,0c-0.302,0-0.554,0.252-0.554,0.555c0,1.432,0,2.866,0,4.299
				c0,0.715,1.108,0.715,1.108,0c0-1.433,0-2.867,0-4.299c-0.186,0.184-0.37,0.369-0.555,0.554c3.382,0,6.764,0,10.145,0
				c-0.185-0.185-0.37-0.37-0.554-0.554c0,1.432,0,2.866,0,4.299c0.184-0.185,0.369-0.369,0.554-0.554c-3.381,0-6.763,0-10.145,0
				C479.169,256.959,479.169,258.065,479.884,258.065z"/>
		</g>
		<g>
			<path fill="#1B1464" d="M466.803,258.065c3.382,0,6.764,0,10.145,0c0.303,0,0.555-0.25,0.555-0.553c0-1.433,0-2.867,0-4.299
				c0-0.303-0.252-0.555-0.555-0.555c-3.381,0-6.763,0-10.145,0c-0.301,0-0.554,0.252-0.554,0.555c0,1.432,0,2.866,0,4.299
				c0,0.715,1.107,0.715,1.107,0c0-1.433,0-2.867,0-4.299c-0.184,0.184-0.368,0.369-0.554,0.554c3.382,0,6.764,0,10.145,0
				c-0.184-0.185-0.369-0.37-0.553-0.554c0,1.432,0,2.866,0,4.299c0.184-0.185,0.369-0.369,0.553-0.554c-3.381,0-6.763,0-10.145,0
				C466.089,256.959,466.089,258.065,466.803,258.065z"/>
		</g>
		<g>
			<path fill="#1B1464" d="M454.213,258.065c3.382,0,6.763,0,10.145,0c0.302,0,0.554-0.25,0.554-0.553c0-1.433,0-2.867,0-4.299
				c0-0.303-0.252-0.555-0.554-0.555c-3.382,0-6.763,0-10.145,0c-0.303,0-0.554,0.252-0.554,0.555c0,1.432,0,2.866,0,4.299
				c0,0.715,1.107,0.715,1.107,0c0-1.433,0-2.867,0-4.299c-0.185,0.184-0.369,0.369-0.554,0.554c3.382,0,6.763,0,10.145,0
				c-0.185-0.185-0.369-0.37-0.554-0.554c0,1.432,0,2.866,0,4.299c0.185-0.185,0.369-0.369,0.554-0.554c-3.382,0-6.763,0-10.145,0
				C453.498,256.959,453.498,258.065,454.213,258.065z"/>
		</g>
		<g>
			<path fill="#1B1464" d="M491.58,268.085c-3.194-0.746-5.783-3.434-6.069-6.678c-0.063-0.707-1.171-0.712-1.108,0
				c0.338,3.818,3.207,6.887,6.883,7.745C491.98,269.315,492.274,268.247,491.58,268.085L491.58,268.085z"/>
		</g>
		<g>
			<g>
				<path fill="#1B1464" d="M489.584,155.964c12.651,1.506,21.796,12.168,28.098,22.365c2.877,4.656,5.941,9.78,7.081,15.196
					c0.878,4.167-0.48,7.909-2.837,11.321c-3.288,4.763-7.646,8.835-11.665,12.963c-0.498,0.512,0.284,1.296,0.783,0.783
					c4.218-4.333,8.742-8.607,12.147-13.638c2.201-3.253,3.336-6.836,2.807-10.764c-0.693-5.146-3.633-10.054-6.188-14.463
					c-3.114-5.373-6.773-10.488-11.184-14.877c-5.197-5.172-11.665-9.117-19.042-9.996
					C488.876,154.771,488.883,155.88,489.584,155.964L489.584,155.964z"/>
			</g>
			<g>
				<path fill="#1B1464" d="M503.168,207.285c2.91-3.499,5.997-6.857,9.041-10.239c0.152-0.168,0.242-0.47,0.087-0.671
					c-2.498-3.24-5.267-6.287-8.116-9.217c-1.938-1.993-4.259-3.617-6.428-5.351c-0.553-0.441-1.342,0.338-0.784,0.783
					c1.909,1.524,4.033,2.94,5.759,4.671c2.12,2.126,4.146,4.345,6.1,6.622c0.612,0.712,1.212,1.434,1.804,2.161
					c0.188,0.232,0.375,0.466,0.561,0.699c0.036,0.048,0.316,0.407,0.149,0.189c0.028-0.224,0.058-0.447,0.087-0.671
					c-3.045,3.381-6.132,6.74-9.042,10.238C501.931,207.046,502.711,207.835,503.168,207.285L503.168,207.285z"/>
			</g>
		</g>
		<g>
			<polygon fill="#33CAD8" points="502.26,207.835 511.818,220.271 505.626,226.01 495.217,213.495 			"/>
			<g>
				<path fill="#1B1464" d="M501.781,208.113c3.187,4.146,6.373,8.292,9.559,12.438c0.028-0.224,0.058-0.448,0.087-0.672
					c-2.064,1.913-4.128,3.825-6.193,5.737c0.262,0,0.522,0,0.784,0c-3.471-4.171-6.939-8.342-10.409-12.513
					c0,0.261,0,0.521,0,0.782c2.348-1.887,4.695-3.774,7.044-5.661c0.556-0.447-0.232-1.227-0.784-0.783
					c-2.348,1.888-4.695,3.774-7.042,5.662c-0.251,0.201-0.177,0.57,0,0.782c3.469,4.172,6.938,8.343,10.407,12.515
					c0.198,0.238,0.578,0.19,0.784,0c2.063-1.912,4.128-3.825,6.191-5.738c0.165-0.152,0.232-0.481,0.087-0.671
					c-3.187-4.146-6.372-8.292-9.558-12.438C502.31,206.996,501.347,207.547,501.781,208.113z"/>
			</g>
		</g>
		<g>
			<path fill="#FFFFFF" d="M502.877,223.515c-7.668,7.61-9.506,8.129-9.506,8.129l-0.489,1.462
				c-3.612,10.792-5.752,5.844-5.752,5.844s-0.712,0.63-1.724,0.06c-1.012-0.572-0.226-2.064-0.226-2.064s-1.625,0.537-2.819-0.346
				c-1.196-0.883-0.116-2.358-0.116-2.358s-1.548,0.109-2.397-1.079c-0.849-1.188,1.909-3.983,1.909-3.983s-1.415-1.214,0.401-3.565
				c1.4-1.815,6.8-0.912,6.8-0.912c0.434-0.722,3.784-4.647,7.855-8.396"/>
			<g>
				<path fill="#1B1764" d="M502.486,223.124c-2.47,2.443-4.976,4.932-7.765,7.017c-0.43,0.322-0.872,0.635-1.344,0.893
					c-0.123,0.067-0.243,0.11-0.133,0.069c-0.226,0.084-0.345,0.205-0.423,0.435c-0.531,1.59-1.055,3.182-1.738,4.714
					c-0.482,1.084-1.104,2.508-2.166,3.155c-0.608,0.372-1.095-0.247-1.31-0.736c-0.158-0.358-0.622-0.311-0.871-0.112
					c-1.079,0.861-1.419-0.649-1.078-1.332c0.207-0.413-0.132-0.967-0.626-0.814c-1.333,0.41-3.429-0.283-2.31-1.891
					c0.238-0.342-0.077-0.854-0.479-0.834c-0.341,0.017-0.661-0.053-0.986-0.147c-1.062-0.309-1.125-1.053-0.701-1.88
					c0.395-0.773,0.987-1.471,1.592-2.09c0.202-0.208,0.225-0.578,0-0.783c-0.479-0.435-0.384-1.144-0.218-1.694
					c0.389-1.286,1.381-1.756,2.587-1.965c1.38-0.237,2.915-0.117,4.292,0.108c0.257,0.042,0.481-0.027,0.625-0.255
					c0.712-1.121,1.711-2.107,2.599-3.085c1.645-1.809,3.378-3.539,5.171-5.2c0.525-0.486-0.26-1.269-0.783-0.784
					c-1.881,1.744-3.685,3.568-5.411,5.466c-0.873,0.96-1.831,1.943-2.531,3.044c0.209-0.084,0.418-0.17,0.626-0.255
					c-1.953-0.319-4.343-0.55-6.202,0.256c-1.694,0.733-3.19,3.646-1.538,5.147c0-0.261,0-0.522,0-0.783
					c-0.93,0.952-1.976,2.174-2.205,3.521c-0.275,1.616,1.733,2.551,3.085,2.486c-0.159-0.277-0.318-0.555-0.479-0.833
					c-1.75,2.515,1.288,4.217,3.562,3.519c-0.208-0.271-0.417-0.543-0.626-0.813c-0.385,0.773-0.604,1.874,0.079,2.557
					c0.731,0.732,1.956,0.744,2.74,0.118c-0.29-0.037-0.58-0.074-0.87-0.111c0.422,0.957,1.449,1.683,2.503,1.283
					c1.193-0.452,1.925-1.803,2.481-2.861c0.976-1.856,1.605-3.878,2.27-5.861c-0.129,0.13-0.258,0.259-0.387,0.388
					c0.733-0.218,1.417-0.817,2.01-1.267c2.771-2.099,5.274-4.563,7.74-7.004C503.777,223.403,502.993,222.62,502.486,223.124
					L502.486,223.124z"/>
			</g>
		</g>
	</g>
</g>
</svg>
