<?xml version="1.0" encoding="utf-8"?>
<!-- Generator: Adobe Illustrator 16.0.0, SVG Export Plug-In . SVG Version: 6.00 Build 0)  -->
<!DOCTYPE svg PUBLIC "-//W3C//DTD SVG 1.1//EN" "http://www.w3.org/Graphics/SVG/1.1/DTD/svg11.dtd">
<svg version="1.1" xmlns="http://www.w3.org/2000/svg" xmlns:xlink="http://www.w3.org/1999/xlink" x="0px" y="0px"
	 width="350.369px" height="352.344px" viewBox="0 0 350.369 352.344" enable-background="new 0 0 350.369 352.344"
	 xml:space="preserve">
<g id="Graphs">
</g>
<g id="Characters">
	<g>
		<g>
			<g>
				<g>
					<path fill="#FFFFFF" d="M0,175.185c0.175,44.167,16.856,86.676,46.774,119.165c29.604,32.145,71,51.832,114.438,55.463
						c44.2,3.693,88.534-10.25,123.219-37.691c34.283-27.123,57.184-67.15,63.901-110.257c6.853-43.98-3.796-89.535-28.949-126.167
						c-24.478-35.649-62.167-61.119-104.169-71.097C171.8-5.713,125.266,1.563,86.764,23.921
						C49.469,45.579,21.342,81.217,8.163,122.18C2.664,139.272,0.071,157.252,0,175.185c-0.008,1.935,2.992,1.934,3,0
						c0.183-46.073,18.658-90.214,51.358-122.671c32.664-32.42,77.754-50.034,123.639-49.487
						c45.856,0.546,89.954,20.281,121.676,53.212c31.978,33.196,48.877,78.633,47.6,124.567
						c-1.273,45.771-21.704,89.491-55.049,120.665c-33.718,31.521-79.491,47.705-125.458,45.695
						c-43.882-1.92-85.697-21.496-116.077-53.035C20.063,262.338,3.175,219.209,3,175.185C2.992,173.251-0.008,173.25,0,175.185z"/>
				</g>
			</g>
			<g>
				<g>
					<g>
						<g>
							<path fill="#FFFFFF" d="M111.036,107.406c11.027,5.73,6.591,16.838,4.511,26.084c-0.424,1.884,2.468,2.685,2.893,0.798
								c1.159-5.15,3.801-10.627,3.048-16.012c-0.791-5.655-3.792-10.787-8.938-13.461
								C110.836,103.925,109.319,106.514,111.036,107.406L111.036,107.406z"/>
						</g>
					</g>
					<g>
						<g>
							<path fill="#FFFFFF" d="M95.172,96.832c3.31,0.14,6.485,2.182,9.49,3.408c1.792,0.731,2.564-2.172,0.798-2.893
								c-3.319-1.355-6.623-3.361-10.288-3.516C93.237,93.75,93.245,96.75,95.172,96.832L95.172,96.832z"/>
						</g>
					</g>
					<g>
						<g>
							<path fill="#FFFFFF" d="M114.032,102.192c4.16-0.604,7.355-2.251,10.557-4.933c1.813-1.519,3.461-3.249,5.21-4.84
								c2.926-2.66,6.449-3.599,10.243-4.243c10.053-1.705,20.147,3.807,29.314-2.628c0.874-0.613,1.063-2.019,0-2.591
								c-1.628-0.875-2.868-1.578-4.163-2.991c-0.101,0.785-0.202,1.57-0.304,2.356c2.335-1.699,5.285-1.907,7.872-3.138
								c0.811-0.386,1.035-1.783,0.304-2.356c-2.019-1.581-4.126-2.364-6.686-1.968c0.565,0.734,1.129,1.469,1.694,2.204
								c2.094-2.976,6.194-3.304,7.145-7.221c0.243-0.999-0.724-2.302-1.845-1.845c-5.733,2.333-13.028,3.315-19.022,1.999
								c-5.801-1.274-11.014-4.773-16.847-6.256c-10.392-2.642-21.65-1.848-32.05,0.315c-7.663,1.594-16.401,5.408-19.452,13.233
								c-1.467,3.764-3.953,13.427,0.889,15.771c1.733,0.839,3.255-1.748,1.514-2.591c-2.385-1.155-0.832-7.184-0.464-9.014
								c0.714-3.552,2.433-6.306,5.117-8.766c6.423-5.887,17.405-6.847,25.634-7.416c5.481-0.379,10.984-0.013,16.378,1
								c5.056,0.95,9.344,3.195,14.048,5.109c7.963,3.241,17.099,2.747,25.053-0.491c-0.615-0.615-1.23-1.23-1.845-1.845
								c-0.717,2.951-5.112,4.045-6.843,6.504c-0.849,1.206,0.545,2.381,1.694,2.204c1.397-0.188,2.652,0.211,3.767,1.197
								c0.101-0.785,0.202-1.57,0.304-2.356c-2.688,1.279-5.424,1.357-7.872,3.138c-0.798,0.581-1.004,1.592-0.304,2.356
								c1.396,1.522,2.949,2.481,4.771,3.46c0-0.864,0-1.727,0-2.591c-8.712,6.116-20.288,0.917-30.138,2.588
								C127.592,87.26,123.3,97.838,113.234,99.3C111.326,99.577,112.141,102.467,114.032,102.192L114.032,102.192z"/>
						</g>
					</g>
					<g>
						<g>
							<path fill="#FFFFFF" d="M85.819,94.105c-1.481,2.926-4.068,5.348-5.213,8.428c-1.21,3.253-1.24,6.733-1.217,10.17
								c0.047,7.03,0.892,14.686,3.715,21.177c0.77,1.771,3.354,0.241,2.591-1.514c-2.461-5.658-2.995-12.217-3.27-18.304
								c-0.142-3.151-0.077-6.347,0.591-9.435c0.708-3.271,3.9-6.059,5.394-9.009C89.281,93.897,86.693,92.378,85.819,94.105
								L85.819,94.105z"/>
						</g>
					</g>
					<g>
						<g>
							<path fill="#FFFFFF" d="M130.094,118.785c3.974-2.574,8.903-4.771,13.72-4.672c1.936,0.04,1.932-2.96,0-3
								c-5.325-0.109-10.83,2.229-15.233,5.081C126.962,117.242,128.465,119.84,130.094,118.785L130.094,118.785z"/>
						</g>
					</g>
					<g>
						<g>
							<path fill="#FFFFFF" d="M151.932,146.597c4.283,0.057,16.108,1.331,16.72-5.069c0.345-3.61-3.091-8.49-4.46-11.675
								c-1.104-2.569-2.575-4.872-4-7.264c-1.639-2.753-2.59-5.779-4.447-8.425c-1.103-1.57-3.706-0.073-2.591,1.515
								c4.142,5.896,7.479,13.312,10.238,19.948c0.908,2.184,3.991,6.233,0.211,7.171c-3.75,0.931-7.837,0.85-11.672,0.799
								C149.997,143.571,149.999,146.571,151.932,146.597L151.932,146.597z"/>
						</g>
					</g>
					<g>
						<g>
							<path fill="#FFFFFF" d="M151.661,111.061c2.982-0.3,5.862-1.354,8.875-1.295c1.936,0.038,1.932-2.962,0-3
								c-3.039-0.059-5.88,0.994-8.875,1.295C149.755,108.252,149.736,111.254,151.661,111.061L151.661,111.061z"/>
						</g>
					</g>
					<g>
						<g>
							<path fill="#FFFFFF" d="M140.472,120.569c0.214,0.458,0.363,1.123,0.486,1.695c0.172,0.799,1.091,1.255,1.845,1.047
								c0.821-0.226,1.219-1.046,1.047-1.845c-0.181-0.84-0.423-1.63-0.788-2.412c-0.346-0.741-1.396-0.922-2.052-0.538
								C140.257,118.958,140.126,119.828,140.472,120.569L140.472,120.569z"/>
						</g>
					</g>
					<g>
						<g>
							<path fill="#FFFFFF" d="M157.901,115.071c-0.016,0.919,0.16,1.828,0.35,2.723c0.17,0.8,1.093,1.254,1.845,1.047
								c0.823-0.226,1.217-1.046,1.047-1.845c-0.155-0.729-0.255-1.194-0.242-1.925c0.014-0.818-0.693-1.5-1.5-1.5
								C158.573,113.571,157.916,114.254,157.901,115.071L157.901,115.071z"/>
						</g>
					</g>
					<g>
						<g>
							<path fill="#FFFFFF" d="M164.333,145.13c1.294,5.181,0.739,10.534,1.258,15.809c0.402,4.08,0.062,7.905-3.001,10.892
								c-7.165,6.988-21.88,6.91-30.621,4.094c-1.847-0.595-2.631,2.302-0.798,2.893c10.594,3.412,24.636,2.339,33.541-4.866
								c3.15-2.548,3.955-6.688,4.007-10.51c0.084-6.149,0.001-13.13-1.493-19.11C166.756,142.457,163.863,143.253,164.333,145.13
								L164.333,145.13z"/>
						</g>
					</g>
					<g>
						<g>
							<path fill="#FFFFFF" d="M131.375,177.806c-0.26,6.757-1.079,13.418,0.146,20.13c0.347,1.901,3.238,1.093,2.893-0.798
								c-1.172-6.417-0.287-12.874-0.039-19.332C134.449,175.87,131.449,175.877,131.375,177.806L131.375,177.806z"/>
						</g>
					</g>
					<g>
						<g>
							<path fill="#FFFFFF" d="M166.355,154.395c-4.971,1.744-10.936,2.748-16.056,0.881c-1.822-0.664-2.6,2.236-0.798,2.893
								c5.582,2.035,12.221,1.024,17.651-0.881C168.966,156.652,168.186,153.753,166.355,154.395L166.355,154.395z"/>
						</g>
					</g>
					<g>
						<g>
							<path fill="#FFFFFF" d="M101.512,201.608c6.809-4.152,9.886-11.515,9.917-19.29c0.027-6.902,1.639-11.07,6.067-16.233
								c1.75-2.041,5.24-4.945,5.592-7.794c0.551-4.458-2.604-7.636-6.628-4.994c-4.686,3.077-6.543,9.279-11.092,12.336
								c-1.596,1.073-0.096,3.673,1.515,2.591c2.554-1.717,4.314-4.66,6.188-7.038c1.235-1.568,2.526-3.08,3.95-4.479
								c0.212-0.189,0.424-0.378,0.636-0.567c1.396-1.426,2.098-0.594,2.106,2.497c-0.905,1.887-3.006,3.742-4.39,5.328
								c-3.114,3.568-6.495,7.801-6.855,12.73c-0.637,8.718,0.023,17.112-8.521,22.323
								C98.349,200.023,99.855,202.618,101.512,201.608L101.512,201.608z"/>
						</g>
					</g>
					<g>
						<g>
							<path fill="#FFFFFF" d="M91.644,236.262c0.396-7.909,1.05-15.614,0.961-23.557c-0.086-7.671-0.853-14.776-2.067-22.379
								c-0.909-5.692-1.891-11.372-2.852-17.055c-1.131-6.69-3.146-13.923-2.007-20.702c0.837-4.98,2.687-9.542,5.411-13.74
								c0.889-1.371,1.836-2.719,2.486-4.224c0.684-1.243,1.503-0.986,2.458,0.771c0.068,1.388-0.23,2.8-0.538,4.144
								c-0.432,1.883,2.461,2.683,2.893,0.798c0.458-2.001,1.901-8.08-0.787-9.231c-2.697-1.154-5.686-0.148-6.878,2.611
								c-1.734,4.016-4.813,7.046-6.072,11.341c-2.077,7.084-2.443,12.506-1.372,19.822c1.982,13.55,5.837,27.307,6.208,41.02
								c0.277,10.244-0.332,20.182-0.843,30.381C88.547,238.197,91.547,238.188,91.644,236.262L91.644,236.262z"/>
						</g>
					</g>
					<g>
						<g>
							<path fill="#FFFFFF" d="M93.287,269.244c-0.685-5.184-0.631-10.535-0.475-15.754c0.058-1.936-2.942-1.93-3,0
								c-0.156,5.219-0.21,10.57,0.475,15.754C90.537,271.135,93.54,271.158,93.287,269.244L93.287,269.244z"/>
						</g>
					</g>
					<g>
						<g>
							<path fill="#FFFFFF" d="M93.167,159.213c0.063-3.464-0.409-8.425,1.156-11.553c1.483-2.963,3.263-5.788,4.935-8.646
								c0.432-0.739,2.661-4.132,2.233-1.076c-0.173,1.238-0.614,2.454-1.004,3.635c-1.202,3.646-3.479,7.303-3.824,11.171
								c-0.278,3.124,0.28,6.518,0.415,9.655c0.059,1.375,2.125,2.197,2.795,0.757c1.728-3.714,3.376-7.458,5.284-11.086
								c0.902-1.716,1.934-3.322,3.203-4.793c2.139-2.479,0.423,2.551,0.215,3.326c-0.848,3.158-2.611,5.878-3.388,9.076
								c-0.507,2.087-0.775,4.238-1.044,6.366c-0.242,1.916,2.761,1.893,3,0c0.557-4.403,1.864-7.941,3.415-12.047
								c0.874-2.314,3.152-7.666,1.063-10.017c-5.088-5.727-13.335,15.505-14.339,17.66c0.932,0.252,1.864,0.505,2.795,0.757
								c-0.177-4.109-1.024-8.466,0.378-12.396c1.471-4.121,5.952-11.085,3.494-15.498c-3.637-6.529-9.947,7.54-10.919,9.247
								c-2.779,4.881-2.763,9.897-2.865,15.46C90.131,161.148,93.132,161.145,93.167,159.213L93.167,159.213z"/>
						</g>
					</g>
					<g>
						<g>
							<path fill="#FFFFFF" d="M116.979,248.299c2.668,10.458,3.567,21.041,4.149,31.787c0.268,4.936,0.886,9.916,0.866,14.855
								c-0.027,6.682-3.873,10.242-10.293,10.971c-8.506,0.965-16.554-4.877-22.612-10.107c-6.047-5.221-11.193-11.41-16.397-17.441
								c-13.2-15.299-27.825-30.891-30.388-51.895c-1.139-9.334,3.164-16.556,12.545-18.549c8.987-1.909,17.205-4.406,25.47-8.504
								c1.733-0.86,0.213-3.447-1.514-2.591c-5.468,2.711-11.029,4.986-16.93,6.551c-4.476,1.187-9.091,1.576-13.369,3.422
								c-7.732,3.337-9.84,12.044-9.202,19.671c1.902,22.744,19.344,40.143,33.375,56.465c10.419,12.119,26.011,30.686,44.185,24.9
								c9.872-3.141,8.07-14.504,7.559-22.564c-0.809-12.756-1.375-25.324-4.55-37.77
								C119.394,245.627,116.5,246.422,116.979,248.299L116.979,248.299z"/>
						</g>
					</g>
					<g>
						<g>
							<path fill="#FFFFFF" d="M103.397,198.354c0.229,5.318,2.106,10.25,3.836,15.229c2.124,6.114,3.547,12.517,5.405,18.725
								c0.553,1.849,3.449,1.061,2.893-0.798c-1.569-5.243-2.918-10.533-4.44-15.783c-1.676-5.783-4.431-11.262-4.694-17.373
								C106.314,196.427,103.314,196.419,103.397,198.354L103.397,198.354z"/>
						</g>
					</g>
					<g>
						<g>
							<path fill="#FFFFFF" d="M68.174,229.279c7.935,10.004,14.229,21.106,21.194,31.776c1.053,1.611,3.652,0.11,2.591-1.516
								c-7.11-10.889-13.564-22.17-21.664-32.381C69.093,225.642,66.985,227.78,68.174,229.279L68.174,229.279z"/>
						</g>
					</g>
					<g>
						<g>
							<path fill="#FFFFFF" d="M85.476,238.629c10.833-1.969,21.665-3.938,32.498-5.908c-0.615-0.349-1.23-0.698-1.845-1.047
								c0.886,5.121,1.773,10.242,2.66,15.363c0.349-0.615,0.698-1.23,1.047-1.845c-10.423,2.166-20.847,4.332-31.27,6.499
								c0.615,0.349,1.23,0.698,1.845,1.048c-1.295-5.318-2.591-10.637-3.887-15.954c-0.458-1.879-3.351-1.082-2.893,0.798
								c1.295,5.318,2.591,10.636,3.887,15.953c0.202,0.832,1.064,1.211,1.845,1.048c10.423-2.167,20.847-4.333,31.27-6.499
								c0.856-0.178,1.18-1.082,1.047-1.846c-0.886-5.121-1.773-10.242-2.66-15.363c-0.148-0.855-1.105-1.182-1.845-1.047
								c-10.833,1.969-21.665,3.939-32.498,5.909C82.777,236.083,83.585,238.973,85.476,238.629z"/>
						</g>
					</g>
					<g>
						<g>
							<path fill="#FFFFFF" d="M107.452,193.867c4.517,1.626,9.035,3.252,13.552,4.878c1.482,0.534-0.48-1.289-0.328-0.518
								c0.109,0.552,0.218,1.105,0.328,1.658c0.44,2.23,0.881,4.46,1.322,6.69c1.98,10.017,3.692,20.137,5.999,30.086
								c0.348,1.503,2.471,1.36,2.893,0c4-12.908,7.999-25.816,11.998-38.725c0.198-0.639-0.122-1.364-0.689-1.694
								c-2.933-1.706-5.866-3.411-8.8-5.117c-1.676-0.974-3.185,1.619-1.514,2.591c2.933,1.706,5.866,3.411,8.8,5.117
								c-0.23-0.565-0.46-1.129-0.689-1.694c-4,12.908-7.999,25.816-11.998,38.725c0.964,0,1.928,0,2.893,0
								c-2.43-10.483-4.232-21.148-6.319-31.705c-0.35-1.77-0.365-7.322-2.513-8.095c-4.712-1.696-9.423-3.393-14.135-5.088
								C106.425,190.317,105.646,193.217,107.452,193.867L107.452,193.867z"/>
						</g>
					</g>
					<g>
						<g>
							<path fill="#FFFFFF" d="M117.551,202.708c-0.491,4.088-0.982,8.176-1.473,12.265c0.752-0.432,1.505-0.863,2.257-1.295
								c-3.489-2.107-6.979-4.215-10.468-6.322c-1.66-1.002-3.167,1.592-1.514,2.591c3.489,2.107,6.979,4.215,10.468,6.322
								c1.067,0.645,2.128-0.221,2.257-1.295c0.491-4.088,0.982-8.176,1.473-12.265
								C120.781,200.791,117.778,200.812,117.551,202.708L117.551,202.708z"/>
						</g>
					</g>
					<g>
						<g>
							<path fill="#FFFFFF" d="M140.321,197.937c1.883,5.717,3.767,11.434,5.65,17.15c0.615-0.615,1.23-1.23,1.845-1.845
								c-3.152-0.845-6.304-1.69-9.455-2.535c-1.872-0.502-2.665,2.392-0.798,2.893c3.152,0.845,6.304,1.69,9.455,2.535
								c1.06,0.284,2.21-0.737,1.845-1.845c-1.883-5.717-3.767-11.434-5.65-17.15C142.611,195.311,139.714,196.094,140.321,197.937
								L140.321,197.937z"/>
						</g>
					</g>
					<g>
						<g>
							<path fill="#FFFFFF" d="M88.785,186.377c-1.221-0.604-2.441-1.208-3.662-1.813c-0.687-0.34-1.678-0.233-2.052,0.539
								c-1.839,3.791-3.678,7.582-5.518,11.372c-0.361,0.745-0.201,1.605,0.539,2.053c3.701,2.241,7.402,4.481,11.103,6.723
								c1.66,1.004,3.167-1.59,1.515-2.591c-3.701-2.241-7.402-4.481-11.104-6.723c0.18,0.684,0.359,1.368,0.539,2.053
								c1.839-3.791,3.678-7.582,5.518-11.373c-0.684,0.18-1.368,0.359-2.052,0.539c1.221,0.604,2.441,1.208,3.662,1.813
								C88.999,189.823,90.519,187.236,88.785,186.377L88.785,186.377z"/>
						</g>
					</g>
					<g>
						<g>
							<path fill="#FFFFFF" d="M63.64,309.121c-0.718-8.395-1.314-16.848-2.92-25.131c-1.981-10.221-4.812-20.303-7.132-30.449
								c-0.431-1.885-3.323-1.086-2.893,0.798c2.217,9.694,4.771,19.323,6.846,29.048c1.804,8.453,2.364,17.141,3.099,25.734
								C60.804,311.033,63.805,311.049,63.64,309.121L63.64,309.121z"/>
						</g>
					</g>
					<g>
						<g>
							<path fill="#FFFFFF" d="M165.309,267.746c4.9,27.492,6.889,55.256,7.509,83.146c0.043,1.932,3.043,1.936,3,0
								c-0.625-28.16-2.669-56.189-7.616-83.943C167.862,265.047,164.971,265.855,165.309,267.746L165.309,267.746z"/>
						</g>
					</g>
					<g>
						<g>
							<path fill="#FFFFFF" d="M144.593,206.613c34.304,4.2,50.19,35.55,64.068,63.416c6.527,13.107,7.132,26.262-0.306,39.049
								c-8.79,15.109-23.022,27.361-35.098,39.754c-1.35,1.387,0.769,3.51,2.121,2.121c12.812-13.148,27.669-26.08,36.682-42.322
								c7.04-12.686,5.641-25.994-0.199-38.836c-7.063-15.533-15.661-31.477-26.78-44.496
								c-10.515-12.312-24.446-19.721-40.488-21.686C142.675,203.378,142.698,206.381,144.593,206.613L144.593,206.613z"/>
						</g>
					</g>
					<g>
						<g>
							<path fill="#FFFFFF" d="M166.471,272.912c6.608,6.715,12.71,14.146,17.05,22.555c0.75,1.453,0.377-0.865,0.129-0.541
								c-1.046,1.365-2.098,2.727-3.152,4.088c-3.074,3.967-6.169,7.92-9.359,11.795c-1.219,1.48,0.891,3.617,2.121,2.121
								c4.521-5.49,8.872-11.121,13.194-16.768c0.335-0.439,0.21-1.064,0-1.514c-4.183-8.934-11.012-16.898-17.861-23.857
								C167.233,269.41,165.113,271.533,166.471,272.912L166.471,272.912z"/>
						</g>
					</g>
					<g>
						<g>
							<path fill="#FFFFFF" d="M128.324,236.661c5.253,36.03,8.265,72.257,10.062,108.612c0.095,1.926,3.096,1.936,3,0
								c-1.81-36.627-4.876-73.111-10.169-109.41C130.938,233.955,128.048,234.77,128.324,236.661L128.324,236.661z"/>
						</g>
					</g>
					<g>
						<g>
							<path fill="#FFFFFF" d="M136.018,244.48c-0.054,1.005-1.496,1.005-1.55,0S135.964,243.481,136.018,244.48
								c0.104,1.924,3.104,1.935,3,0c-0.115-2.131-1.643-3.66-3.774-3.775c-2.127-0.114-3.67,1.816-3.775,3.775
								c-0.115,2.128,1.815,3.67,3.775,3.775c2.127,0.115,3.669-1.815,3.774-3.775C139.122,242.547,136.121,242.557,136.018,244.48z
								"/>
						</g>
					</g>
					<g>
						<g>
							<path fill="#FFFFFF" d="M141.34,279.955c-0.054,1.004-1.496,1.004-1.55,0C139.735,278.949,141.286,278.957,141.34,279.955
								c0.104,1.924,3.104,1.934,3,0c-0.115-2.131-1.643-3.66-3.775-3.775c-2.127-0.113-3.669,1.816-3.775,3.775
								c-0.114,2.127,1.815,3.67,3.775,3.775c2.127,0.115,3.67-1.816,3.775-3.775C144.444,278.021,141.443,278.031,141.34,279.955z"
								/>
						</g>
					</g>
					<g>
						<g>
							<path fill="#FFFFFF" d="M144.886,317.203c-0.054,1.004-1.495,1.004-1.549,0S144.833,316.205,144.886,317.203
								c0.104,1.924,3.104,1.934,3,0c-0.115-2.131-1.643-3.66-3.775-3.773c-2.127-0.115-3.669,1.814-3.774,3.773
								c-0.114,2.127,1.815,3.67,3.774,3.775c2.126,0.113,3.669-1.816,3.775-3.775C147.99,315.27,144.99,315.279,144.886,317.203z"
								/>
						</g>
					</g>
					<g>
						<g>
							<path fill="#FFFFFF" d="M86.793,145.496c-1.947-1.749-6.169-4.55-3.028-8.05c1.282-1.428,2.563-2.856,3.845-4.284
								c3.038-3.385,6.075-6.769,9.112-10.154c3.434-3.826,8.085,1.958,10.141,3.804c4.036,3.622,8.071,7.243,12.106,10.865
								c3.79,3.401,7.579,6.802,11.368,10.203c2.065,1.854,8.438,5.944,4.977,9.8c-3.195,3.56-6.391,7.12-9.586,10.68
								c-1.124,1.252-2.247,2.504-3.371,3.756c-3.211,3.578-6.89-0.884-8.891-2.68c-1.435-1.289-3.563,0.826-2.121,2.121
								c3.956,3.552,8.766,7.546,13.458,2.317c4.144-4.616,8.287-9.233,12.43-13.85c3.464-3.859,2.148-8.052-1.333-11.176
								c-4.691-4.21-9.383-8.421-14.074-12.631c-4.931-4.425-9.861-8.85-14.791-13.275c-3.786-3.398-7.637-6.155-12.393-2.103
								c-4.356,3.711-7.975,8.886-11.799,13.147c-4.697,5.233-3.04,9.262,1.827,13.631
								C86.107,148.906,88.236,146.791,86.793,145.496L86.793,145.496z"/>
						</g>
					</g>
					<g>
						<g>
							<path fill="#FFFFFF" d="M163.571,128.82c0.053-10.221-0.847-20.421-2.877-30.443c-0.609-3.007-1.498-11.2-5.189-12.443
								c-1.839-0.62-2.621,2.278-0.798,2.893c1.624,0.547,3.2,10.813,3.623,13.044c1.682,8.865,2.288,17.938,2.241,26.949
								C160.561,130.755,163.561,130.754,163.571,128.82L163.571,128.82z"/>
						</g>
					</g>
				</g>
			</g>
		</g>
		<g>
			<g>
				<path fill="#FFFFFF" d="M223.048,189.118c11.212,3.158,23.993,2.063,35.499,1.287c8.652-0.584,16.971-3.658,24.206-8.367
					c14.214-9.251,23.162-25.239,25.025-41.916c2.035-18.202-6.385-36.032-20.803-47.045c-19.735-15.075-45.243-11.218-66.342-1.079
					c-16.297,7.832-27.404,22.206-30.225,40.155c-1.356,8.631-0.338,17.466,2.402,25.722c2.791,8.409,5.541,16.984,12.849,22.563
					c1.538,1.174,3.03-1.434,1.514-2.591c-5.754-4.393-8.273-11.236-10.515-17.864c-2.13-6.3-3.651-12.472-3.835-19.155
					c-0.345-12.514,4.407-24.816,12.615-34.173c8.379-9.552,21.1-14.903,33.087-18.24c13.104-3.647,27.451-3.768,39.765,2.501
					c18.974,9.66,29.27,31.248,26.125,51.966c-2.812,18.525-15.755,35.092-33.312,41.749c-6.528,2.475-13.167,2.803-20.058,3.004
					c-9.079,0.265-18.34,1.084-27.2-1.411C221.98,185.7,221.189,188.594,223.048,189.118L223.048,189.118z"/>
			</g>
		</g>
		<g>
			<g>
				<path fill="#FFFFFF" d="M204.97,178.745c-1.137,5.081-3.77,9.857-8.834,11.856c-1.284,0.507-1.566,2.503,0,2.893
					c9.629,2.393,20.525,1.919,28.372-4.762c1.476-1.256-0.657-3.368-2.121-2.121c-6.981,5.944-16.962,6.1-25.453,3.99
					c0,0.964,0,1.928,0,2.893c6.073-2.397,9.538-7.733,10.929-13.951C208.284,177.658,205.392,176.857,204.97,178.745
					L204.97,178.745z"/>
			</g>
		</g>
		<g>
			<g>
				<path fill="#FFFFFF" d="M219.633,120.84c21.97,3.194,44.062-0.76,66.115,0.054c-0.5-0.5-1-1-1.5-1.5
					c0.867,12.066,0.045,24.148,0,36.226c0.367-0.482,0.734-0.964,1.101-1.446c-10.488,1.758-21.444,1.476-32.039,1.4
					c-9.514-0.069-19.094-0.225-28.578-1.061c-2.428-0.214-1.214-0.695-1.112,1.072c-0.049-0.852-0.099-1.705-0.147-2.557
					c-0.232-4.027-0.465-8.054-0.697-12.081c-0.414-7.184-0.829-14.368-1.243-21.552c-0.111-1.923-3.111-1.934-3,0
					c0.697,12.075,1.393,24.15,2.09,36.226c0.029,0.496,0.257,1.07,0.743,1.295c2.24,1.038,5.474,0.775,7.869,0.92
					c6.035,0.365,12.083,0.536,18.127,0.656c12.809,0.255,26.101,0.701,38.786-1.426c0.65-0.109,1.099-0.831,1.101-1.446
					c0.045-12.078,0.867-24.16,0-36.226c-0.06-0.839-0.638-1.468-1.5-1.5c-21.76-0.803-43.644,3.204-65.317,0.054
					C218.54,117.672,217.725,120.562,219.633,120.84z"/>
			</g>
		</g>
		<g>
			<g>
				<path fill="#FFFFFF" d="M281.917,118.333c-3.703,4.771-8.055,8.908-12.493,12.984c-4.875,4.479-9.584,10.377-15.166,13.916
					c0.606,0.079,1.212,0.157,1.818,0.235c-3.073-2.503-6.439-4.519-9.761-6.667c-3.646-2.358-6.204-5.863-9.679-8.398
					c-5.404-3.941-10.426-8.382-15.847-12.304c-1.57-1.136-3.065,1.468-1.514,2.591c4.982,3.604,9.644,7.631,14.539,11.35
					c2.994,2.274,5.379,5.202,8.363,7.464c3.804,2.884,8.07,5.065,11.778,8.085c0.515,0.419,1.208,0.621,1.818,0.235
					c4.992-3.166,8.948-8.146,13.301-12.129c5.265-4.819,10.574-9.583,14.964-15.24
					C285.209,118.946,283.102,116.806,281.917,118.333L281.917,118.333z"/>
			</g>
		</g>
		<g>
			<g>
				<path fill="#FFFFFF" d="M241.027,138.552c-2.663,3.032-5.843,5.341-9.163,7.6c-3.215,2.187-5.941,5.136-9.174,7.199
					c-1.625,1.037-0.122,3.635,1.514,2.591c3.266-2.084,5.939-5.001,9.174-7.199c3.531-2.399,6.938-4.844,9.77-8.069
					C244.419,139.226,242.306,137.096,241.027,138.552L241.027,138.552z"/>
			</g>
		</g>
		<g>
			<g>
				<path fill="#FFFFFF" d="M262.675,140.072c5.422,6.377,12.97,9.252,19.392,14.281c1.504,1.178,3.644-0.929,2.121-2.121
					c-6.403-5.015-13.987-7.924-19.392-14.281C263.542,136.475,261.43,138.607,262.675,140.072L262.675,140.072z"/>
			</g>
		</g>
		<g>
			<g>
				<path fill="#FFFFFF" d="M201.324,154.822c4.38,1.121,8.703,0.627,13.118,0c1.909-0.271,1.094-3.162-0.798-2.893
					c-3.871,0.55-7.683,0.982-11.522,0C200.246,151.449,199.451,154.343,201.324,154.822L201.324,154.822z"/>
			</g>
		</g>
		<g>
			<g>
				<path fill="#FFFFFF" d="M202.016,137.03c3.726,0.037,7.422,0.545,11.146,0.587c1.936,0.022,1.933-2.978,0-3
					c-3.724-0.042-7.421-0.55-11.146-0.587C200.081,134.011,200.083,137.011,202.016,137.03L202.016,137.03z"/>
			</g>
		</g>
		<g>
			<g>
				<path fill="#FFFFFF" d="M202.497,126.653c3.011,0.848,6.405,0.091,9.479,0.054c1.933-0.023,1.936-3.024,0-3
					c-2.769,0.034-5.979,0.814-8.681,0.054C201.429,123.235,200.638,126.13,202.497,126.653L202.497,126.653z"/>
			</g>
		</g>
	</g>
</g>
</svg>
