<?xml version="1.0" encoding="utf-8"?>
<!-- Generator: Adobe Illustrator 17.0.0, SVG Export Plug-In . SVG Version: 6.00 Build 0)  -->
<!DOCTYPE svg PUBLIC "-//W3C//DTD SVG 1.1//EN" "http://www.w3.org/Graphics/SVG/1.1/DTD/svg11.dtd">
<svg version="1.1" id="Layer_1" xmlns="http://www.w3.org/2000/svg" xmlns:xlink="http://www.w3.org/1999/xlink" x="0px" y="0px"
	 width="580.53px" height="457.582px" viewBox="0 0 580.53 457.582" enable-background="new 0 0 580.53 457.582"
	 xml:space="preserve">
<g transform="matrix( 1, 0, 0, 1, 0,0) ">
	<g>
		<g id="Layer3_0_FILL">
			<path fill="#FFFFFF" d="M464.129,312.38c-2.502,0.083-4.921,0.5-7.173,1.335c-0.25,0.167-0.584,0.25-0.834,0.334
				c-0.917,0.334-1.752,0.751-2.586,1.251c-3.253,1.918-5.839,4.504-7.757,7.757c-1.835,3.253-2.836,6.84-2.919,10.76v70.648
				c0.083,1.001,0.417,1.835,1.001,2.502c0.667,0.667,1.501,1.001,2.502,1.001h10.76c1.001-0.083,1.752-0.417,2.419-1.001
				c0.667-0.667,1.084-1.501,1.084-2.502v-70.731c0-1.001,0.334-1.918,1.001-2.586c0.667-0.667,1.501-1.084,2.502-1.084h49.962
				c1.001,0,1.752-0.334,2.419-1.001c0.667-0.667,1.084-1.501,1.084-2.502v-10.676c0-1.001-0.417-1.835-1.084-2.502
				c-0.667-0.667-1.501-1.084-2.419-1.084h-49.963 M426.845,333.733c0-3.92-1.001-7.507-2.836-10.76
				c-1.918-3.253-4.504-5.839-7.674-7.757c-3.253-1.835-6.84-2.836-10.76-2.836h-54.3c-4.004,0.083-7.59,1.001-10.76,2.836
				c-3.253,1.918-5.839,4.504-7.757,7.757c-1.835,3.253-2.836,6.84-2.836,10.76v52.715c0.083,4.004,1.001,7.59,2.836,10.76
				c1.918,3.253,4.504,5.839,7.757,7.757c3.253,1.835,6.84,2.836,10.76,2.919h54.717c3.837-0.167,7.257-1.084,10.426-2.919
				c3.253-1.918,5.755-4.504,7.674-7.757c1.918-3.253,2.836-6.84,2.836-10.76v-52.715 M408.078,331.23
				c0.751,0.667,1.084,1.501,1.084,2.586v52.715c0,1.084-0.334,1.918-1.084,2.586c-0.667,0.667-1.501,1.001-2.586,1.001h-54.3
				c-1.001,0-1.918-0.334-2.586-1.001c-0.667-0.667-1.001-1.585-1.001-2.586v-52.798c0-1.001,0.334-1.918,1.001-2.586
				c0.667-0.751,1.585-1.084,2.586-1.084h54.3C406.493,330.146,407.411,330.48,408.078,331.23 M238.256,312.38
				c-4.004,0.083-7.59,1.001-10.76,2.836c-3.253,1.918-5.755,4.504-7.674,7.757c-1.918,3.17-2.836,6.756-2.919,10.76v13.929
				c0.083,4.004,1.001,7.59,2.919,10.76c1.918,3.253,4.504,5.755,7.674,7.674c3.253,1.918,6.84,2.836,10.76,2.919h54.467
				c1.001,0,1.835,0.334,2.586,1.001c0.667,0.667,1.001,1.585,1.001,2.586v13.763c0,1.084-0.334,1.918-1.001,2.586
				c-0.751,0.667-1.585,1.001-2.586,1.001h-54.467c-1.001,0-1.835-0.334-2.586-1.001c-0.5-0.5-0.834-1.084-0.917-1.752
				c-0.083-0.25-0.083-0.5-0.083-0.751v-0.167v-0.083l0,0c0-0.25,0-0.417-0.083-0.584c0-0.25-0.083-0.417-0.167-0.667l-0.334-0.584
				c-0.167-0.25-0.334-0.417-0.5-0.584c-0.667-0.667-1.501-1.084-2.419-1.084h-10.76c-1.001,0-1.835,0.417-2.502,1.084
				c-0.083,0.083-0.167,0.167-0.167,0.25c-0.083,0.083-0.167,0.167-0.25,0.25l-0.334,0.667c-0.083,0.083-0.083,0.167-0.083,0.25
				c-0.083,0.334-0.167,0.667-0.167,1.084l0,0c0,0.167,0,0.25,0,0.417c0.083,3.92,1.084,7.34,2.919,10.426
				c1.918,3.253,4.504,5.839,7.674,7.757c2.169,1.251,4.504,2.085,7.006,2.586h0.083c1.168,0.167,2.419,0.334,3.753,0.334h54.467
				c4.004-0.083,7.59-1.001,10.76-2.919c3.17-1.918,5.755-4.504,7.674-7.757c1.918-3.17,2.836-6.756,2.919-10.76v-13.763
				c-0.083-4.004-1.001-7.59-2.919-10.76c-1.918-3.253-4.504-5.839-7.674-7.757c-3.253-1.835-6.84-2.836-10.76-2.919h-54.467
				c-1.001,0-1.835-0.334-2.586-1.001c-0.667-0.751-1.001-1.585-1.001-2.586v-13.846c0-1.001,0.334-1.918,1.001-2.586
				c0.751-0.751,1.585-1.084,2.586-1.084h54.467c1.001,0,1.835,0.334,2.586,1.084c0.667,0.667,1.001,1.501,1.001,2.502v0.25
				c0,0.417,0.083,0.834,0.25,1.168l0.5,0.918c0.083,0.167,0.167,0.25,0.25,0.334c0.667,0.667,1.501,1.001,2.502,1.001h10.76
				c1.001,0,1.752-0.334,2.419-1.001c0.167-0.167,0.334-0.334,0.417-0.5l0.417-0.751c0.167-0.334,0.25-0.751,0.25-1.168v-0.584
				c-0.083-3.837-1.084-7.34-2.919-10.426c-1.918-3.253-4.504-5.839-7.674-7.757c-2.169-1.251-4.504-2.085-7.006-2.502
				c-1.251-0.25-2.502-0.334-3.837-0.334h-54.467 M186.542,338.153c-1.001,0-1.835,0.417-2.502,1.084
				c-0.083,0.083-0.167,0.167-0.167,0.25c-0.5,0.584-0.834,1.335-0.834,2.252v62.724c0.083,1.001,0.417,1.835,1.001,2.502
				c0.667,0.667,1.501,1.001,2.502,1.001h10.76c1.001-0.083,1.752-0.417,2.419-1.001c0.667-0.667,1.084-1.501,1.084-2.502V341.74
				c0-1.001-0.417-1.835-1.084-2.502s-1.501-1.084-2.419-1.084H186.542 M52.085,312.38c-0.5,0-1.001,0.25-1.418,0.667
				c-0.083,0.083-0.25,0.25-0.334,0.334l-0.167,0.417c-0.083,0.083-0.083,0.25-0.167,0.334c0,0.167,0,0.25,0,0.417v1.335
				l50.213,90.583c0.083,0.167,0.25,0.25,0.417,0.417c0.667,0.667,1.501,1.001,2.419,1.001h13.679
				c1.001-0.083,1.752-0.417,2.419-1.001c0.167-0.167,0.334-0.334,0.417-0.417l49.962-90.583v-1.335c0-0.167,0-0.25,0-0.417
				c0-0.167-0.083-0.25-0.167-0.334l-0.167-0.417c-0.083-0.083-0.25-0.25-0.334-0.334c-0.417-0.417-0.834-0.667-1.418-0.667h-14.43
				c-1.001,0-1.835,0.417-2.502,1.084c-0.083,0.083-0.167,0.167-0.167,0.25c-0.083,0.083-0.167,0.167-0.25,0.25l-40.203,73.734
				l-40.454-73.734c-0.083-0.083-0.083-0.167-0.167-0.25c-0.083-0.083-0.167-0.167-0.25-0.25c-0.667-0.667-1.501-1.084-2.502-1.084
				H52.085z"/>
			<path fill="#FFFFFF" d="M200.805,315.799c0-1.001-0.417-1.835-1.084-2.502s-1.501-1.001-2.419-1.084h-10.76
				c-1.001,0.083-1.835,0.417-2.502,1.084c-0.083,0.083-0.167,0.167-0.167,0.25c-0.5,0.584-0.834,1.335-0.834,2.252v10.76
				c0.083,1.001,0.417,1.835,1.001,2.502c0.667,0.667,1.501,1.001,2.502,1.001h10.76c1.001,0,1.752-0.334,2.419-1.001
				c0.667-0.667,1.084-1.501,1.084-2.502V315.799z"/>
		</g>
	</g>
</g>
<g transform="matrix( 1, 0, 0, 1, 0,0) ">
	<g>
		<g id="Layer2_0_FILL">
			<path fill="#FFFFFF" d="M417.253,49.722c-2.502-2.502-5.422-3.67-8.925-3.67H279.46c-3.503,0-6.506,1.251-8.925,3.67
				c-2.502,2.502-3.67,5.422-3.67,8.925s1.251,6.506,3.67,8.925c2.502,2.502,5.422,3.67,8.925,3.67h128.868
				c3.503,0,6.506-1.251,8.925-3.67c2.502-2.502,3.67-5.422,3.67-8.925C420.923,55.228,419.672,52.225,417.253,49.722z"/>
		</g>
	</g>
</g>
<g transform="matrix( 1, 0, 0, 1, 0,0) " opacity="0.8">
	<g>
		<g id="Layer1_0_FILL">
			<path fill="#FFFFFF" d="M414.584,47.721c-3.003-1.752-6.172-2.169-9.592-1.251c-3.336,0.918-5.922,2.919-7.674,5.922
				L292.722,235.059c-1.752,3.003-2.169,6.256-1.251,9.592s2.919,5.922,5.922,7.674c3.003,1.752,6.256,2.169,9.592,1.251
				s5.922-2.919,7.674-5.922L419.255,64.986c1.752-3.003,2.169-6.256,1.251-9.592C419.588,52.058,417.587,49.472,414.584,47.721z"/>
		</g>
	</g>
</g>
<g transform="matrix( 1, 0, 0, 1, 0,0) ">
	<g>
		<g id="Layer0_0_FILL">
			<path fill="#FFFFFF" d="M147.923,56.062c-0.917,3.336-0.417,6.589,1.335,9.592l105.847,182.083
				c1.752,3.003,4.337,4.921,7.674,5.839s6.589,0.5,9.592-1.335c3.003-1.752,5.005-4.337,5.839-7.674
				c0.917-3.336,0.5-6.506-1.251-9.592l-105.93-182c-1.752-3.003-4.337-4.921-7.674-5.839c-3.336-0.918-6.506-0.417-9.592,1.335
				C150.759,50.223,148.841,52.725,147.923,56.062z"/>
			<path opacity="0.8" fill="#FFFFFF" enable-background="new    " d="M208.729,52.975c-1.752-3.003-4.337-4.921-7.674-5.839
				c-3.336-0.918-6.506-0.417-9.592,1.335c-3.003,1.752-5.005,4.337-5.839,7.674c-0.917,3.336-0.417,6.589,1.335,9.592l105.847,182
				c1.752,3.003,4.337,4.921,7.674,5.839s6.589,0.5,9.592-1.335c3.003-1.752,5.005-4.337,5.839-7.674
				c0.917-3.336,0.5-6.506-1.251-9.592L208.729,52.975z"/>
		</g>
	</g>
</g>
</svg>
